<?xml version="1.0" encoding="utf-8" standalone="no"?>
<!DOCTYPE svg PUBLIC "-//W3C//DTD SVG 1.1//EN"
  "http://www.w3.org/Graphics/SVG/1.1/DTD/svg11.dtd">
<svg xmlns:xlink="http://www.w3.org/1999/xlink" width="460.8pt" height="345.6pt" viewBox="0 0 460.8 345.6" xmlns="http://www.w3.org/2000/svg" version="1.1">
 <metadata>
  <rdf:RDF xmlns:dc="http://purl.org/dc/elements/1.1/" xmlns:cc="http://creativecommons.org/ns#" xmlns:rdf="http://www.w3.org/1999/02/22-rdf-syntax-ns#">
   <cc:Work>
    <dc:type rdf:resource="http://purl.org/dc/dcmitype/StillImage"/>
    <dc:date>2024-03-16T20:50:48.898426</dc:date>
    <dc:format>image/svg+xml</dc:format>
    <dc:creator>
     <cc:Agent>
      <dc:title>Matplotlib v3.5.1, https://matplotlib.org/</dc:title>
     </cc:Agent>
    </dc:creator>
   </cc:Work>
  </rdf:RDF>
 </metadata>
 <defs>
  <style type="text/css">*{stroke-linejoin: round; stroke-linecap: butt}</style>
 </defs>
 <g id="figure_1">
  <g id="patch_1">
   <path d="M 0 345.6 
L 460.8 345.6 
L 460.8 0 
L 0 0 
z
" style="fill: #ffffff"/>
  </g>
  <g id="axes_1">
   <g id="patch_2">
    <path d="M 57.6 307.584 
L 414.72 307.584 
L 414.72 41.472 
L 57.6 41.472 
z
" style="fill: #ffffff"/>
   </g>
   <g id="matplotlib.axis_1">
    <g id="xtick_1">
     <g id="line2d_1">
      <defs>
       <path id="mc8e38386e5" d="M 0 0 
L 0 3.5 
" style="stroke: #000000; stroke-width: 0.8"/>
      </defs>
      <g>
       <use xlink:href="#mc8e38386e5" x="73.832727" y="307.584" style="stroke: #000000; stroke-width: 0.8"/>
      </g>
     </g>
     <g id="text_1">
      <!-- 0 -->
      <g transform="translate(70.651477 322.182437)scale(0.1 -0.1)">
       <defs>
        <path id="DejaVuSans-30" d="M 2034 4250 
Q 1547 4250 1301 3770 
Q 1056 3291 1056 2328 
Q 1056 1369 1301 889 
Q 1547 409 2034 409 
Q 2525 409 2770 889 
Q 3016 1369 3016 2328 
Q 3016 3291 2770 3770 
Q 2525 4250 2034 4250 
z
M 2034 4750 
Q 2819 4750 3233 4129 
Q 3647 3509 3647 2328 
Q 3647 1150 3233 529 
Q 2819 -91 2034 -91 
Q 1250 -91 836 529 
Q 422 1150 422 2328 
Q 422 3509 836 4129 
Q 1250 4750 2034 4750 
z
" transform="scale(0.015625)"/>
       </defs>
       <use xlink:href="#DejaVuSans-30"/>
      </g>
     </g>
    </g>
    <g id="xtick_2">
     <g id="line2d_2">
      <g>
       <use xlink:href="#mc8e38386e5" x="125.969317" y="307.584" style="stroke: #000000; stroke-width: 0.8"/>
      </g>
     </g>
     <g id="text_2">
      <!-- 1000 -->
      <g transform="translate(113.244317 322.182437)scale(0.1 -0.1)">
       <defs>
        <path id="DejaVuSans-31" d="M 794 531 
L 1825 531 
L 1825 4091 
L 703 3866 
L 703 4441 
L 1819 4666 
L 2450 4666 
L 2450 531 
L 3481 531 
L 3481 0 
L 794 0 
L 794 531 
z
" transform="scale(0.015625)"/>
       </defs>
       <use xlink:href="#DejaVuSans-31"/>
       <use xlink:href="#DejaVuSans-30" x="63.623047"/>
       <use xlink:href="#DejaVuSans-30" x="127.246094"/>
       <use xlink:href="#DejaVuSans-30" x="190.869141"/>
      </g>
     </g>
    </g>
    <g id="xtick_3">
     <g id="line2d_3">
      <g>
       <use xlink:href="#mc8e38386e5" x="178.105907" y="307.584" style="stroke: #000000; stroke-width: 0.8"/>
      </g>
     </g>
     <g id="text_3">
      <!-- 2000 -->
      <g transform="translate(165.380907 322.182437)scale(0.1 -0.1)">
       <defs>
        <path id="DejaVuSans-32" d="M 1228 531 
L 3431 531 
L 3431 0 
L 469 0 
L 469 531 
Q 828 903 1448 1529 
Q 2069 2156 2228 2338 
Q 2531 2678 2651 2914 
Q 2772 3150 2772 3378 
Q 2772 3750 2511 3984 
Q 2250 4219 1831 4219 
Q 1534 4219 1204 4116 
Q 875 4013 500 3803 
L 500 4441 
Q 881 4594 1212 4672 
Q 1544 4750 1819 4750 
Q 2544 4750 2975 4387 
Q 3406 4025 3406 3419 
Q 3406 3131 3298 2873 
Q 3191 2616 2906 2266 
Q 2828 2175 2409 1742 
Q 1991 1309 1228 531 
z
" transform="scale(0.015625)"/>
       </defs>
       <use xlink:href="#DejaVuSans-32"/>
       <use xlink:href="#DejaVuSans-30" x="63.623047"/>
       <use xlink:href="#DejaVuSans-30" x="127.246094"/>
       <use xlink:href="#DejaVuSans-30" x="190.869141"/>
      </g>
     </g>
    </g>
    <g id="xtick_4">
     <g id="line2d_4">
      <g>
       <use xlink:href="#mc8e38386e5" x="230.242497" y="307.584" style="stroke: #000000; stroke-width: 0.8"/>
      </g>
     </g>
     <g id="text_4">
      <!-- 3000 -->
      <g transform="translate(217.517497 322.182437)scale(0.1 -0.1)">
       <defs>
        <path id="DejaVuSans-33" d="M 2597 2516 
Q 3050 2419 3304 2112 
Q 3559 1806 3559 1356 
Q 3559 666 3084 287 
Q 2609 -91 1734 -91 
Q 1441 -91 1130 -33 
Q 819 25 488 141 
L 488 750 
Q 750 597 1062 519 
Q 1375 441 1716 441 
Q 2309 441 2620 675 
Q 2931 909 2931 1356 
Q 2931 1769 2642 2001 
Q 2353 2234 1838 2234 
L 1294 2234 
L 1294 2753 
L 1863 2753 
Q 2328 2753 2575 2939 
Q 2822 3125 2822 3475 
Q 2822 3834 2567 4026 
Q 2313 4219 1838 4219 
Q 1578 4219 1281 4162 
Q 984 4106 628 3988 
L 628 4550 
Q 988 4650 1302 4700 
Q 1616 4750 1894 4750 
Q 2613 4750 3031 4423 
Q 3450 4097 3450 3541 
Q 3450 3153 3228 2886 
Q 3006 2619 2597 2516 
z
" transform="scale(0.015625)"/>
       </defs>
       <use xlink:href="#DejaVuSans-33"/>
       <use xlink:href="#DejaVuSans-30" x="63.623047"/>
       <use xlink:href="#DejaVuSans-30" x="127.246094"/>
       <use xlink:href="#DejaVuSans-30" x="190.869141"/>
      </g>
     </g>
    </g>
    <g id="xtick_5">
     <g id="line2d_5">
      <g>
       <use xlink:href="#mc8e38386e5" x="282.379087" y="307.584" style="stroke: #000000; stroke-width: 0.8"/>
      </g>
     </g>
     <g id="text_5">
      <!-- 4000 -->
      <g transform="translate(269.654087 322.182437)scale(0.1 -0.1)">
       <defs>
        <path id="DejaVuSans-34" d="M 2419 4116 
L 825 1625 
L 2419 1625 
L 2419 4116 
z
M 2253 4666 
L 3047 4666 
L 3047 1625 
L 3713 1625 
L 3713 1100 
L 3047 1100 
L 3047 0 
L 2419 0 
L 2419 1100 
L 313 1100 
L 313 1709 
L 2253 4666 
z
" transform="scale(0.015625)"/>
       </defs>
       <use xlink:href="#DejaVuSans-34"/>
       <use xlink:href="#DejaVuSans-30" x="63.623047"/>
       <use xlink:href="#DejaVuSans-30" x="127.246094"/>
       <use xlink:href="#DejaVuSans-30" x="190.869141"/>
      </g>
     </g>
    </g>
    <g id="xtick_6">
     <g id="line2d_6">
      <g>
       <use xlink:href="#mc8e38386e5" x="334.515677" y="307.584" style="stroke: #000000; stroke-width: 0.8"/>
      </g>
     </g>
     <g id="text_6">
      <!-- 5000 -->
      <g transform="translate(321.790677 322.182437)scale(0.1 -0.1)">
       <defs>
        <path id="DejaVuSans-35" d="M 691 4666 
L 3169 4666 
L 3169 4134 
L 1269 4134 
L 1269 2991 
Q 1406 3038 1543 3061 
Q 1681 3084 1819 3084 
Q 2600 3084 3056 2656 
Q 3513 2228 3513 1497 
Q 3513 744 3044 326 
Q 2575 -91 1722 -91 
Q 1428 -91 1123 -41 
Q 819 9 494 109 
L 494 744 
Q 775 591 1075 516 
Q 1375 441 1709 441 
Q 2250 441 2565 725 
Q 2881 1009 2881 1497 
Q 2881 1984 2565 2268 
Q 2250 2553 1709 2553 
Q 1456 2553 1204 2497 
Q 953 2441 691 2322 
L 691 4666 
z
" transform="scale(0.015625)"/>
       </defs>
       <use xlink:href="#DejaVuSans-35"/>
       <use xlink:href="#DejaVuSans-30" x="63.623047"/>
       <use xlink:href="#DejaVuSans-30" x="127.246094"/>
       <use xlink:href="#DejaVuSans-30" x="190.869141"/>
      </g>
     </g>
    </g>
    <g id="xtick_7">
     <g id="line2d_7">
      <g>
       <use xlink:href="#mc8e38386e5" x="386.652267" y="307.584" style="stroke: #000000; stroke-width: 0.8"/>
      </g>
     </g>
     <g id="text_7">
      <!-- 6000 -->
      <g transform="translate(373.927267 322.182437)scale(0.1 -0.1)">
       <defs>
        <path id="DejaVuSans-36" d="M 2113 2584 
Q 1688 2584 1439 2293 
Q 1191 2003 1191 1497 
Q 1191 994 1439 701 
Q 1688 409 2113 409 
Q 2538 409 2786 701 
Q 3034 994 3034 1497 
Q 3034 2003 2786 2293 
Q 2538 2584 2113 2584 
z
M 3366 4563 
L 3366 3988 
Q 3128 4100 2886 4159 
Q 2644 4219 2406 4219 
Q 1781 4219 1451 3797 
Q 1122 3375 1075 2522 
Q 1259 2794 1537 2939 
Q 1816 3084 2150 3084 
Q 2853 3084 3261 2657 
Q 3669 2231 3669 1497 
Q 3669 778 3244 343 
Q 2819 -91 2113 -91 
Q 1303 -91 875 529 
Q 447 1150 447 2328 
Q 447 3434 972 4092 
Q 1497 4750 2381 4750 
Q 2619 4750 2861 4703 
Q 3103 4656 3366 4563 
z
" transform="scale(0.015625)"/>
       </defs>
       <use xlink:href="#DejaVuSans-36"/>
       <use xlink:href="#DejaVuSans-30" x="63.623047"/>
       <use xlink:href="#DejaVuSans-30" x="127.246094"/>
       <use xlink:href="#DejaVuSans-30" x="190.869141"/>
      </g>
     </g>
    </g>
    <g id="text_8">
     <!-- Time step -->
     <g transform="translate(211.521719 335.860562)scale(0.1 -0.1)">
      <defs>
       <path id="DejaVuSans-54" d="M -19 4666 
L 3928 4666 
L 3928 4134 
L 2272 4134 
L 2272 0 
L 1638 0 
L 1638 4134 
L -19 4134 
L -19 4666 
z
" transform="scale(0.015625)"/>
       <path id="DejaVuSans-69" d="M 603 3500 
L 1178 3500 
L 1178 0 
L 603 0 
L 603 3500 
z
M 603 4863 
L 1178 4863 
L 1178 4134 
L 603 4134 
L 603 4863 
z
" transform="scale(0.015625)"/>
       <path id="DejaVuSans-6d" d="M 3328 2828 
Q 3544 3216 3844 3400 
Q 4144 3584 4550 3584 
Q 5097 3584 5394 3201 
Q 5691 2819 5691 2113 
L 5691 0 
L 5113 0 
L 5113 2094 
Q 5113 2597 4934 2840 
Q 4756 3084 4391 3084 
Q 3944 3084 3684 2787 
Q 3425 2491 3425 1978 
L 3425 0 
L 2847 0 
L 2847 2094 
Q 2847 2600 2669 2842 
Q 2491 3084 2119 3084 
Q 1678 3084 1418 2786 
Q 1159 2488 1159 1978 
L 1159 0 
L 581 0 
L 581 3500 
L 1159 3500 
L 1159 2956 
Q 1356 3278 1631 3431 
Q 1906 3584 2284 3584 
Q 2666 3584 2933 3390 
Q 3200 3197 3328 2828 
z
" transform="scale(0.015625)"/>
       <path id="DejaVuSans-65" d="M 3597 1894 
L 3597 1613 
L 953 1613 
Q 991 1019 1311 708 
Q 1631 397 2203 397 
Q 2534 397 2845 478 
Q 3156 559 3463 722 
L 3463 178 
Q 3153 47 2828 -22 
Q 2503 -91 2169 -91 
Q 1331 -91 842 396 
Q 353 884 353 1716 
Q 353 2575 817 3079 
Q 1281 3584 2069 3584 
Q 2775 3584 3186 3129 
Q 3597 2675 3597 1894 
z
M 3022 2063 
Q 3016 2534 2758 2815 
Q 2500 3097 2075 3097 
Q 1594 3097 1305 2825 
Q 1016 2553 972 2059 
L 3022 2063 
z
" transform="scale(0.015625)"/>
       <path id="DejaVuSans-20" transform="scale(0.015625)"/>
       <path id="DejaVuSans-73" d="M 2834 3397 
L 2834 2853 
Q 2591 2978 2328 3040 
Q 2066 3103 1784 3103 
Q 1356 3103 1142 2972 
Q 928 2841 928 2578 
Q 928 2378 1081 2264 
Q 1234 2150 1697 2047 
L 1894 2003 
Q 2506 1872 2764 1633 
Q 3022 1394 3022 966 
Q 3022 478 2636 193 
Q 2250 -91 1575 -91 
Q 1294 -91 989 -36 
Q 684 19 347 128 
L 347 722 
Q 666 556 975 473 
Q 1284 391 1588 391 
Q 1994 391 2212 530 
Q 2431 669 2431 922 
Q 2431 1156 2273 1281 
Q 2116 1406 1581 1522 
L 1381 1569 
Q 847 1681 609 1914 
Q 372 2147 372 2553 
Q 372 3047 722 3315 
Q 1072 3584 1716 3584 
Q 2034 3584 2315 3537 
Q 2597 3491 2834 3397 
z
" transform="scale(0.015625)"/>
       <path id="DejaVuSans-74" d="M 1172 4494 
L 1172 3500 
L 2356 3500 
L 2356 3053 
L 1172 3053 
L 1172 1153 
Q 1172 725 1289 603 
Q 1406 481 1766 481 
L 2356 481 
L 2356 0 
L 1766 0 
Q 1100 0 847 248 
Q 594 497 594 1153 
L 594 3053 
L 172 3053 
L 172 3500 
L 594 3500 
L 594 4494 
L 1172 4494 
z
" transform="scale(0.015625)"/>
       <path id="DejaVuSans-70" d="M 1159 525 
L 1159 -1331 
L 581 -1331 
L 581 3500 
L 1159 3500 
L 1159 2969 
Q 1341 3281 1617 3432 
Q 1894 3584 2278 3584 
Q 2916 3584 3314 3078 
Q 3713 2572 3713 1747 
Q 3713 922 3314 415 
Q 2916 -91 2278 -91 
Q 1894 -91 1617 61 
Q 1341 213 1159 525 
z
M 3116 1747 
Q 3116 2381 2855 2742 
Q 2594 3103 2138 3103 
Q 1681 3103 1420 2742 
Q 1159 2381 1159 1747 
Q 1159 1113 1420 752 
Q 1681 391 2138 391 
Q 2594 391 2855 752 
Q 3116 1113 3116 1747 
z
" transform="scale(0.015625)"/>
      </defs>
      <use xlink:href="#DejaVuSans-54"/>
      <use xlink:href="#DejaVuSans-69" x="57.958984"/>
      <use xlink:href="#DejaVuSans-6d" x="85.742188"/>
      <use xlink:href="#DejaVuSans-65" x="183.154297"/>
      <use xlink:href="#DejaVuSans-20" x="244.677734"/>
      <use xlink:href="#DejaVuSans-73" x="276.464844"/>
      <use xlink:href="#DejaVuSans-74" x="328.564453"/>
      <use xlink:href="#DejaVuSans-65" x="367.773438"/>
      <use xlink:href="#DejaVuSans-70" x="429.296875"/>
     </g>
    </g>
   </g>
   <g id="matplotlib.axis_2">
    <g id="ytick_1">
     <g id="line2d_8">
      <defs>
       <path id="md0fe803af6" d="M 0 0 
L -3.5 0 
" style="stroke: #000000; stroke-width: 0.8"/>
      </defs>
      <g>
       <use xlink:href="#md0fe803af6" x="57.6" y="281.44521" style="stroke: #000000; stroke-width: 0.8"/>
      </g>
     </g>
     <g id="text_9">
      <!-- 6.75 -->
      <g transform="translate(28.334375 285.244429)scale(0.1 -0.1)">
       <defs>
        <path id="DejaVuSans-2e" d="M 684 794 
L 1344 794 
L 1344 0 
L 684 0 
L 684 794 
z
" transform="scale(0.015625)"/>
        <path id="DejaVuSans-37" d="M 525 4666 
L 3525 4666 
L 3525 4397 
L 1831 0 
L 1172 0 
L 2766 4134 
L 525 4134 
L 525 4666 
z
" transform="scale(0.015625)"/>
       </defs>
       <use xlink:href="#DejaVuSans-36"/>
       <use xlink:href="#DejaVuSans-2e" x="63.623047"/>
       <use xlink:href="#DejaVuSans-37" x="95.410156"/>
       <use xlink:href="#DejaVuSans-35" x="159.033203"/>
      </g>
     </g>
    </g>
    <g id="ytick_2">
     <g id="line2d_9">
      <g>
       <use xlink:href="#md0fe803af6" x="57.6" y="250.639009" style="stroke: #000000; stroke-width: 0.8"/>
      </g>
     </g>
     <g id="text_10">
      <!-- 7.00 -->
      <g transform="translate(28.334375 254.438227)scale(0.1 -0.1)">
       <use xlink:href="#DejaVuSans-37"/>
       <use xlink:href="#DejaVuSans-2e" x="63.623047"/>
       <use xlink:href="#DejaVuSans-30" x="95.410156"/>
       <use xlink:href="#DejaVuSans-30" x="159.033203"/>
      </g>
     </g>
    </g>
    <g id="ytick_3">
     <g id="line2d_10">
      <g>
       <use xlink:href="#md0fe803af6" x="57.6" y="219.832808" style="stroke: #000000; stroke-width: 0.8"/>
      </g>
     </g>
     <g id="text_11">
      <!-- 7.25 -->
      <g transform="translate(28.334375 223.632026)scale(0.1 -0.1)">
       <use xlink:href="#DejaVuSans-37"/>
       <use xlink:href="#DejaVuSans-2e" x="63.623047"/>
       <use xlink:href="#DejaVuSans-32" x="95.410156"/>
       <use xlink:href="#DejaVuSans-35" x="159.033203"/>
      </g>
     </g>
    </g>
    <g id="ytick_4">
     <g id="line2d_11">
      <g>
       <use xlink:href="#md0fe803af6" x="57.6" y="189.026607" style="stroke: #000000; stroke-width: 0.8"/>
      </g>
     </g>
     <g id="text_12">
      <!-- 7.50 -->
      <g transform="translate(28.334375 192.825825)scale(0.1 -0.1)">
       <use xlink:href="#DejaVuSans-37"/>
       <use xlink:href="#DejaVuSans-2e" x="63.623047"/>
       <use xlink:href="#DejaVuSans-35" x="95.410156"/>
       <use xlink:href="#DejaVuSans-30" x="159.033203"/>
      </g>
     </g>
    </g>
    <g id="ytick_5">
     <g id="line2d_12">
      <g>
       <use xlink:href="#md0fe803af6" x="57.6" y="158.220406" style="stroke: #000000; stroke-width: 0.8"/>
      </g>
     </g>
     <g id="text_13">
      <!-- 7.75 -->
      <g transform="translate(28.334375 162.019624)scale(0.1 -0.1)">
       <use xlink:href="#DejaVuSans-37"/>
       <use xlink:href="#DejaVuSans-2e" x="63.623047"/>
       <use xlink:href="#DejaVuSans-37" x="95.410156"/>
       <use xlink:href="#DejaVuSans-35" x="159.033203"/>
      </g>
     </g>
    </g>
    <g id="ytick_6">
     <g id="line2d_13">
      <g>
       <use xlink:href="#md0fe803af6" x="57.6" y="127.414205" style="stroke: #000000; stroke-width: 0.8"/>
      </g>
     </g>
     <g id="text_14">
      <!-- 8.00 -->
      <g transform="translate(28.334375 131.213423)scale(0.1 -0.1)">
       <defs>
        <path id="DejaVuSans-38" d="M 2034 2216 
Q 1584 2216 1326 1975 
Q 1069 1734 1069 1313 
Q 1069 891 1326 650 
Q 1584 409 2034 409 
Q 2484 409 2743 651 
Q 3003 894 3003 1313 
Q 3003 1734 2745 1975 
Q 2488 2216 2034 2216 
z
M 1403 2484 
Q 997 2584 770 2862 
Q 544 3141 544 3541 
Q 544 4100 942 4425 
Q 1341 4750 2034 4750 
Q 2731 4750 3128 4425 
Q 3525 4100 3525 3541 
Q 3525 3141 3298 2862 
Q 3072 2584 2669 2484 
Q 3125 2378 3379 2068 
Q 3634 1759 3634 1313 
Q 3634 634 3220 271 
Q 2806 -91 2034 -91 
Q 1263 -91 848 271 
Q 434 634 434 1313 
Q 434 1759 690 2068 
Q 947 2378 1403 2484 
z
M 1172 3481 
Q 1172 3119 1398 2916 
Q 1625 2713 2034 2713 
Q 2441 2713 2670 2916 
Q 2900 3119 2900 3481 
Q 2900 3844 2670 4047 
Q 2441 4250 2034 4250 
Q 1625 4250 1398 4047 
Q 1172 3844 1172 3481 
z
" transform="scale(0.015625)"/>
       </defs>
       <use xlink:href="#DejaVuSans-38"/>
       <use xlink:href="#DejaVuSans-2e" x="63.623047"/>
       <use xlink:href="#DejaVuSans-30" x="95.410156"/>
       <use xlink:href="#DejaVuSans-30" x="159.033203"/>
      </g>
     </g>
    </g>
    <g id="ytick_7">
     <g id="line2d_14">
      <g>
       <use xlink:href="#md0fe803af6" x="57.6" y="96.608004" style="stroke: #000000; stroke-width: 0.8"/>
      </g>
     </g>
     <g id="text_15">
      <!-- 8.25 -->
      <g transform="translate(28.334375 100.407222)scale(0.1 -0.1)">
       <use xlink:href="#DejaVuSans-38"/>
       <use xlink:href="#DejaVuSans-2e" x="63.623047"/>
       <use xlink:href="#DejaVuSans-32" x="95.410156"/>
       <use xlink:href="#DejaVuSans-35" x="159.033203"/>
      </g>
     </g>
    </g>
    <g id="ytick_8">
     <g id="line2d_15">
      <g>
       <use xlink:href="#md0fe803af6" x="57.6" y="65.801803" style="stroke: #000000; stroke-width: 0.8"/>
      </g>
     </g>
     <g id="text_16">
      <!-- 8.50 -->
      <g transform="translate(28.334375 69.601021)scale(0.1 -0.1)">
       <use xlink:href="#DejaVuSans-38"/>
       <use xlink:href="#DejaVuSans-2e" x="63.623047"/>
       <use xlink:href="#DejaVuSans-35" x="95.410156"/>
       <use xlink:href="#DejaVuSans-30" x="159.033203"/>
      </g>
     </g>
    </g>
    <g id="text_17">
     <!-- Longitude -->
     <g transform="translate(22.254687 199.397531)rotate(-90)scale(0.1 -0.1)">
      <defs>
       <path id="DejaVuSans-4c" d="M 628 4666 
L 1259 4666 
L 1259 531 
L 3531 531 
L 3531 0 
L 628 0 
L 628 4666 
z
" transform="scale(0.015625)"/>
       <path id="DejaVuSans-6f" d="M 1959 3097 
Q 1497 3097 1228 2736 
Q 959 2375 959 1747 
Q 959 1119 1226 758 
Q 1494 397 1959 397 
Q 2419 397 2687 759 
Q 2956 1122 2956 1747 
Q 2956 2369 2687 2733 
Q 2419 3097 1959 3097 
z
M 1959 3584 
Q 2709 3584 3137 3096 
Q 3566 2609 3566 1747 
Q 3566 888 3137 398 
Q 2709 -91 1959 -91 
Q 1206 -91 779 398 
Q 353 888 353 1747 
Q 353 2609 779 3096 
Q 1206 3584 1959 3584 
z
" transform="scale(0.015625)"/>
       <path id="DejaVuSans-6e" d="M 3513 2113 
L 3513 0 
L 2938 0 
L 2938 2094 
Q 2938 2591 2744 2837 
Q 2550 3084 2163 3084 
Q 1697 3084 1428 2787 
Q 1159 2491 1159 1978 
L 1159 0 
L 581 0 
L 581 3500 
L 1159 3500 
L 1159 2956 
Q 1366 3272 1645 3428 
Q 1925 3584 2291 3584 
Q 2894 3584 3203 3211 
Q 3513 2838 3513 2113 
z
" transform="scale(0.015625)"/>
       <path id="DejaVuSans-67" d="M 2906 1791 
Q 2906 2416 2648 2759 
Q 2391 3103 1925 3103 
Q 1463 3103 1205 2759 
Q 947 2416 947 1791 
Q 947 1169 1205 825 
Q 1463 481 1925 481 
Q 2391 481 2648 825 
Q 2906 1169 2906 1791 
z
M 3481 434 
Q 3481 -459 3084 -895 
Q 2688 -1331 1869 -1331 
Q 1566 -1331 1297 -1286 
Q 1028 -1241 775 -1147 
L 775 -588 
Q 1028 -725 1275 -790 
Q 1522 -856 1778 -856 
Q 2344 -856 2625 -561 
Q 2906 -266 2906 331 
L 2906 616 
Q 2728 306 2450 153 
Q 2172 0 1784 0 
Q 1141 0 747 490 
Q 353 981 353 1791 
Q 353 2603 747 3093 
Q 1141 3584 1784 3584 
Q 2172 3584 2450 3431 
Q 2728 3278 2906 2969 
L 2906 3500 
L 3481 3500 
L 3481 434 
z
" transform="scale(0.015625)"/>
       <path id="DejaVuSans-75" d="M 544 1381 
L 544 3500 
L 1119 3500 
L 1119 1403 
Q 1119 906 1312 657 
Q 1506 409 1894 409 
Q 2359 409 2629 706 
Q 2900 1003 2900 1516 
L 2900 3500 
L 3475 3500 
L 3475 0 
L 2900 0 
L 2900 538 
Q 2691 219 2414 64 
Q 2138 -91 1772 -91 
Q 1169 -91 856 284 
Q 544 659 544 1381 
z
M 1991 3584 
L 1991 3584 
z
" transform="scale(0.015625)"/>
       <path id="DejaVuSans-64" d="M 2906 2969 
L 2906 4863 
L 3481 4863 
L 3481 0 
L 2906 0 
L 2906 525 
Q 2725 213 2448 61 
Q 2172 -91 1784 -91 
Q 1150 -91 751 415 
Q 353 922 353 1747 
Q 353 2572 751 3078 
Q 1150 3584 1784 3584 
Q 2172 3584 2448 3432 
Q 2725 3281 2906 2969 
z
M 947 1747 
Q 947 1113 1208 752 
Q 1469 391 1925 391 
Q 2381 391 2643 752 
Q 2906 1113 2906 1747 
Q 2906 2381 2643 2742 
Q 2381 3103 1925 3103 
Q 1469 3103 1208 2742 
Q 947 2381 947 1747 
z
" transform="scale(0.015625)"/>
      </defs>
      <use xlink:href="#DejaVuSans-4c"/>
      <use xlink:href="#DejaVuSans-6f" x="53.962891"/>
      <use xlink:href="#DejaVuSans-6e" x="115.144531"/>
      <use xlink:href="#DejaVuSans-67" x="178.523438"/>
      <use xlink:href="#DejaVuSans-69" x="242"/>
      <use xlink:href="#DejaVuSans-74" x="269.783203"/>
      <use xlink:href="#DejaVuSans-75" x="308.992188"/>
      <use xlink:href="#DejaVuSans-64" x="372.371094"/>
      <use xlink:href="#DejaVuSans-65" x="435.847656"/>
     </g>
    </g>
   </g>
   <g id="line2d_16">
    <path d="M 366.058314 307.584 
L 366.058314 41.472 
" clip-path="url(#pa0412077f9)" style="fill: none; stroke-dasharray: 5.55,2.4; stroke-dashoffset: 0; stroke: #ff0000; stroke-width: 1.5"/>
   </g>
   <g id="line2d_17">
    <path d="M 73.832727 286.203622 
L 74.09341 286.78903 
L 74.354093 287.411279 
L 74.823322 288.353172 
L 75.031869 288.727462 
L 75.501098 289.35024 
L 75.761781 289.789339 
L 76.23101 290.420461 
L 76.38742 290.731468 
L 76.648103 291.261995 
L 76.856649 291.664489 
L 77.065196 291.905103 
L 77.117332 291.905103 
L 77.690835 293.411604 
L 78.316474 294.913521 
L 78.472884 294.975805 
L 79.046386 295.468198 
L 79.359206 295.4776 
L 80.297664 295.387406 
L 80.506211 295.327179 
L 82.695948 294.820272 
L 83.790816 294.125104 
L 83.999362 293.841772 
L 84.885684 292.365767 
L 85.042094 292.008518 
L 85.094231 292.008518 
L 85.56346 290.639981 
L 86.084826 289.62464 
L 86.345509 288.887284 
L 86.554055 288.115378 
L 87.54465 285.444408 
L 87.596787 285.444408 
L 88.118153 284.072287 
L 88.587382 283.038672 
L 89.265158 281.394443 
L 89.734387 280.228681 
L 90.724982 277.879588 
L 90.933529 277.312513 
L 90.985665 277.193586 
L 91.142075 276.626453 
L 91.246348 276.534966 
L 91.454895 275.839798 
L 91.819851 275.010956 
L 93.279675 271.259834 
L 93.331812 271.259834 
L 93.488222 270.955173 
L 93.540358 270.955173 
L 93.853178 270.319704 
L 93.905314 270.319704 
L 94.113861 269.939832 
L 94.165997 269.939832 
L 94.948046 267.884765 
L 95.104456 267.170266 
L 95.730095 265.43026 
L 96.512144 262.942263 
L 97.085646 261.22864 
L 98.180515 258.176565 
L 98.701881 256.631401 
L 98.754017 256.631401 
L 99.223247 255.174199 
L 99.275383 255.174199 
L 99.640339 253.886514 
L 100.005295 252.870879 
L 100.578798 251.023405 
L 100.943754 249.994079 
L 101.569393 248.132855 
L 101.934349 246.888828 
L 103.081354 243.138529 
L 103.133491 243.138529 
L 105.271091 237.198901 
L 105.948867 235.111811 
L 106.001003 235.111811 
L 106.835189 232.554656 
L 108.19074 227.8352 
L 108.242877 227.8352 
L 110.79757 220.800966 
L 111.006116 220.295352 
L 111.058252 220.295352 
L 112.413804 216.68525 
L 112.46594 216.68525 
L 112.77876 215.679311 
L 112.830897 215.679311 
L 113.300126 214.022918 
L 113.352262 214.022918 
L 115.959092 206.851484 
L 116.532594 204.754992 
L 119.400107 196.688906 
L 119.452243 196.688906 
L 120.182156 194.338051 
L 122.528302 188.831471 
L 122.632575 188.730877 
L 123.049668 187.761191 
L 123.831717 186.657477 
L 123.883854 186.657477 
L 124.509493 185.472913 
L 124.613766 185.435308 
L 125.082995 184.715168 
L 125.187268 184.626737 
L 126.177864 183.526079 
L 126.438547 183.315724 
L 126.751366 182.885732 
L 127.064186 182.693652 
L 127.168459 182.605514 
L 127.585551 182.050837 
L 127.689825 181.971102 
L 132.069298 176.693091 
L 132.486391 176.015199 
L 133.529123 174.79961 
L 134.519718 173.436714 
L 135.24963 172.423899 
L 135.875269 171.204785 
L 136.396635 170.515376 
L 136.605182 170.176987 
L 137.022274 169.62231 
L 137.126547 169.565902 
L 137.38723 169.180449 
L 137.752187 168.842002 
L 138.429962 167.957456 
L 139.68124 165.789633 
L 139.889787 165.344716 
L 139.941923 165.344716 
L 140.15047 164.949861 
L 140.254743 164.829172 
L 141.193201 163.081998 
L 141.453884 162.599475 
L 143.539348 159.04584 
L 143.747894 158.707393 
L 144.894899 156.582698 
L 145.520538 155.782588 
L 145.676948 155.270276 
L 145.989768 154.787049 
L 146.354724 153.998867 
L 146.615407 153.536675 
L 146.980363 153.001799 
L 147.553865 151.891446 
L 148.075231 150.753888 
L 148.127368 150.753888 
L 148.440187 150.120416 
L 148.753007 149.636131 
L 148.85728 149.342164 
L 149.01369 149.086801 
L 149.274373 148.709809 
L 149.587192 148.024042 
L 149.691466 147.915927 
L 150.734197 146.031612 
L 150.942744 145.281564 
L 151.411973 144.293604 
L 151.829066 143.76672 
L 152.141885 143.214275 
L 152.663251 142.306109 
L 152.715388 142.306109 
L 153.132481 141.394065 
L 153.341027 141.028119 
L 153.705983 140.310976 
L 153.75812 140.310976 
L 154.018803 139.723218 
L 154.227349 139.375839 
L 154.592305 138.903776 
L 154.644442 138.903776 
L 154.852988 138.576611 
L 154.957261 138.36943 
L 155.165808 137.936323 
L 155.217944 137.936323 
L 155.5829 137.104014 
L 155.635037 137.104014 
L 156.208539 135.804988 
L 156.677769 135.274519 
L 156.886315 134.798872 
L 156.990588 134.743992 
L 158.03332 133.16798 
L 158.137593 132.960212 
L 158.398276 132.517821 
L 158.658959 132.099228 
L 158.971779 131.511353 
L 159.336735 130.957028 
L 159.701691 130.170374 
L 160.744423 128.825693 
L 160.848696 128.723689 
L 161.057242 128.438653 
L 161.213652 128.31344 
L 162.256384 127.218422 
L 166.375174 125.230751 
L 169.65978 123.985431 
L 170.076872 123.771668 
L 171.48456 123.19102 
L 171.79738 123.053761 
L 173.100794 122.486745 
L 174.560619 121.928072 
L 178.418727 120.49261 
L 180.191371 119.75167 
L 181.077693 119.330961 
L 181.964015 118.935401 
L 183.371703 118.343002 
L 183.997342 118.095982 
L 191.035781 115.746948 
L 192.026377 115.470785 
L 194.998162 114.345684 
L 196.457987 113.77855 
L 196.770806 113.680541 
L 200.576777 112.269288 
L 205.164797 110.394079 
L 205.529753 110.233787 
L 205.7383 110.135779 
L 207.8759 109.223147 
L 210.534866 108.171258 
L 210.951959 108.060558 
L 213.923744 106.948853 
L 214.132291 106.867062 
L 214.392974 106.795847 
L 217.521169 105.673213 
L 218.042535 105.477666 
L 220.023725 104.69254 
L 221.535687 104.076401 
L 223.047648 103.455915 
L 228.313443 101.158118 
L 228.574126 101.015454 
L 229.460448 100.65033 
L 230.711726 100.145128 
L 230.972409 100.009044 
L 232.275824 99.474697 
L 232.536507 99.364114 
L 233.474966 98.949164 
L 233.683512 98.824479 
L 234.93479 98.361465 
L 237.698029 97.301585 
L 238.897171 96.758189 
L 241.295454 95.831926 
L 242.286049 95.432958 
L 242.442459 95.380898 
L 243.120235 95.111786 
L 244.006557 94.721279 
L 244.26724 94.625973 
L 245.309972 94.166014 
L 246.456977 93.697359 
L 247.082616 93.480542 
L 273.30732 84.449411 
L 273.515867 84.368443 
L 273.77655 84.298991 
L 278.156023 82.7305 
L 278.625252 82.528607 
L 279.146618 82.33682 
L 279.824394 82.11683 
L 280.658579 81.871456 
L 282.170541 81.279173 
L 282.848316 80.949188 
L 284.047458 80.445748 
L 286.967107 79.155418 
L 287.488473 78.90123 
L 288.426931 78.484635 
L 289.000434 78.224219 
L 290.095302 77.776247 
L 290.460258 77.616777 
L 294.005547 76.549376 
L 295.882464 76.644799 
L 296.143147 76.670888 
L 312.931129 78.30084 
L 314.182407 78.410835 
L 327.477237 79.426176 
L 327.73792 79.443098 
L 332.63876 79.812335 
L 332.847306 79.821031 
L 337.956692 80.009997 
L 338.217375 79.976152 
L 339.468653 79.705395 
L 339.781472 79.586938 
L 340.042155 79.493865 
L 341.762663 78.727541 
L 342.544712 78.340678 
L 343.63958 77.886242 
L 343.9524 77.72548 
L 345.099405 77.217809 
L 347.080595 76.464764 
L 347.862644 76.117856 
L 350.417337 75.195588 
L 351.095112 74.797913 
L 352.033571 74.383315 
L 353.024166 73.943334 
L 354.848947 73.249518 
L 355.161767 73.131884 
L 356.152362 72.708002 
L 356.934411 72.372493 
L 357.820733 71.984572 
L 359.019874 71.421904 
L 359.280557 71.311908 
L 360.740382 70.729732 
L 362.721572 69.821684 
L 362.982255 69.714391 
L 363.868577 69.331993 
L 364.754899 68.942779 
L 366.006177 68.352377 
L 366.26686 68.244967 
L 371.063426 66.18138 
L 371.428383 65.983248 
L 372.418978 65.578639 
L 373.46171 65.143711 
L 374.087349 64.86884 
L 374.973671 64.475278 
L 376.433495 63.828703 
L 379.87451 62.275373 
L 380.343739 62.046921 
L 381.959974 61.344526 
L 382.16852 61.236763 
L 384.983896 60.015063 
L 385.661672 59.684843 
L 386.391584 59.354622 
L 387.382179 58.924747 
L 391.813789 56.985375 
L 392.491565 56.665613 
L 392.752248 56.531409 
L 393.63857 56.140903 
L 394.003526 55.946413 
L 395.724033 55.004285 
L 396.036853 54.756678 
L 396.193263 54.677237 
L 397.548814 54.068032 
L 397.809497 53.865199 
L 398.487273 53.568 
L 398.487273 53.568 
" clip-path="url(#pa0412077f9)" style="fill: none; stroke: #0000ff; stroke-width: 1.5; stroke-linecap: square"/>
   </g>
   <g id="line2d_18">
    <path d="M 73.832727 285.530841 
L 74.614776 287.252632 
L 75.344688 288.617819 
L 76.908786 291.105405 
L 77.951518 293.285568 
L 78.52502 294.679311 
L 79.254933 295.316309 
L 79.672025 295.37824 
L 80.558347 295.273298 
L 83.26945 294.616969 
L 83.790816 294.326586 
L 84.520728 293.457964 
L 85.56346 291.410653 
L 86.241236 289.772887 
L 86.606192 288.723642 
L 87.648924 285.678559 
L 89.213021 282.071102 
L 90.412163 279.110219 
L 90.933529 277.782755 
L 91.767714 275.504994 
L 92.810446 272.846775 
L 93.748905 270.548508 
L 94.948046 268.153349 
L 96.355734 263.721573 
L 97.450603 260.351028 
L 98.024105 258.735238 
L 102.716398 244.052453 
L 103.967676 240.500229 
L 104.749725 238.549399 
L 106.157413 234.313229 
L 106.574506 233.345188 
L 107.930057 228.756939 
L 108.555696 226.772323 
L 109.233472 224.979905 
L 110.17193 222.485504 
L 110.64116 221.154279 
L 111.892438 217.59324 
L 113.091579 214.745526 
L 113.769355 212.717429 
L 114.603541 210.529334 
L 116.532594 204.882556 
L 117.418916 201.993182 
L 121.589844 190.872259 
L 122.632575 188.631047 
L 125.135132 184.554346 
L 126.38641 183.158546 
L 128.68042 180.728955 
L 129.253922 180.105354 
L 129.983835 179.232443 
L 130.922293 178.086718 
L 132.590664 175.908141 
L 133.372713 174.973593 
L 134.102625 174.022885 
L 134.780401 173.152618 
L 135.24963 172.567269 
L 135.823133 171.472957 
L 136.396635 170.592936 
L 139.733377 166.116916 
L 140.359016 164.858374 
L 141.141065 163.467334 
L 145.468402 156.088894 
L 145.833358 155.408357 
L 146.980363 153.276964 
L 147.658139 152.110144 
L 148.753007 149.981923 
L 150.838471 146.309127 
L 151.411973 144.722656 
L 152.141885 143.520758 
L 153.132481 141.868772 
L 154.592305 139.186756 
L 155.530764 137.743479 
L 157.094861 134.906987 
L 159.076052 131.741508 
L 160.848696 128.94462 
L 163.038433 126.798772 
L 166.010218 125.33205 
L 169.138414 124.224459 
L 174.925575 121.798334 
L 179.305049 120.140884 
L 181.234103 119.27044 
L 182.693927 118.626686 
L 186.395625 117.181235 
L 190.618689 115.818751 
L 203.183607 111.170392 
L 210.0135 108.33155 
L 212.828876 107.275549 
L 225.91516 102.236096 
L 227.792077 101.307012 
L 232.067278 99.472934 
L 236.759571 97.571402 
L 238.375805 96.915309 
L 241.086908 95.820879 
L 242.859552 95.113548 
L 248.907396 92.815517 
L 250.262948 92.343336 
L 250.940723 92.090558 
L 252.713367 91.4924 
L 256.675748 90.153772 
L 260.1689 89.003757 
L 262.932139 88.07573 
L 264.235554 87.598262 
L 271.534676 85.130301 
L 276.904745 83.251215 
L 278.990209 82.416732 
L 280.554306 81.912234 
L 281.753448 81.493288 
L 285.09019 80.088263 
L 288.009839 78.780189 
L 289.626073 78.107878 
L 294.161956 76.615068 
L 295.413234 76.643389 
L 297.915791 76.866553 
L 303.911499 77.513128 
L 311.471304 78.168164 
L 314.912319 78.431753 
L 317.988378 78.652683 
L 333.525082 79.802111 
L 335.610545 79.906818 
L 338.373785 79.946773 
L 339.937882 79.612322 
L 341.18916 79.141316 
L 346.194273 76.966442 
L 347.966917 76.283202 
L 349.270332 75.816192 
L 350.938703 75.168207 
L 352.085708 74.628337 
L 353.545532 74.020425 
L 358.237825 72.129939 
L 359.38483 71.633668 
L 365.171992 69.232339 
L 368.039504 68.040371 
L 371.428383 66.619129 
L 373.14889 65.928955 
L 379.353144 63.335605 
L 384.879623 61.05144 
L 387.799272 59.847838 
L 394.003526 57.311248 
L 396.297536 56.134439 
L 398.122317 55.302659 
L 398.487273 55.141191 
L 398.487273 55.141191 
" clip-path="url(#pa0412077f9)" style="fill: none; stroke: #ff0000; stroke-width: 1.5; stroke-linecap: square"/>
   </g>
   <g id="patch_3">
    <path d="M 57.6 307.584 
L 57.6 41.472 
" style="fill: none; stroke: #000000; stroke-width: 0.8; stroke-linejoin: miter; stroke-linecap: square"/>
   </g>
   <g id="patch_4">
    <path d="M 414.72 307.584 
L 414.72 41.472 
" style="fill: none; stroke: #000000; stroke-width: 0.8; stroke-linejoin: miter; stroke-linecap: square"/>
   </g>
   <g id="patch_5">
    <path d="M 57.6 307.584 
L 414.72 307.584 
" style="fill: none; stroke: #000000; stroke-width: 0.8; stroke-linejoin: miter; stroke-linecap: square"/>
   </g>
   <g id="patch_6">
    <path d="M 57.6 41.472 
L 414.72 41.472 
" style="fill: none; stroke: #000000; stroke-width: 0.8; stroke-linejoin: miter; stroke-linecap: square"/>
   </g>
   <g id="legend_1">
    <g id="patch_7">
     <path d="M 64.6 78.82825 
L 170.595312 78.82825 
Q 172.595312 78.82825 172.595312 76.82825 
L 172.595312 48.472 
Q 172.595312 46.472 170.595312 46.472 
L 64.6 46.472 
Q 62.6 46.472 62.6 48.472 
L 62.6 76.82825 
Q 62.6 78.82825 64.6 78.82825 
z
" style="fill: #ffffff; opacity: 0.8; stroke: #cccccc; stroke-linejoin: miter"/>
    </g>
    <g id="line2d_19">
     <path d="M 66.6 54.570437 
L 76.6 54.570437 
L 86.6 54.570437 
" style="fill: none; stroke: #0000ff; stroke-width: 1.5; stroke-linecap: square"/>
    </g>
    <g id="text_18">
     <!-- True Data -->
     <g transform="translate(94.6 58.070437)scale(0.1 -0.1)">
      <defs>
       <path id="DejaVuSans-72" d="M 2631 2963 
Q 2534 3019 2420 3045 
Q 2306 3072 2169 3072 
Q 1681 3072 1420 2755 
Q 1159 2438 1159 1844 
L 1159 0 
L 581 0 
L 581 3500 
L 1159 3500 
L 1159 2956 
Q 1341 3275 1631 3429 
Q 1922 3584 2338 3584 
Q 2397 3584 2469 3576 
Q 2541 3569 2628 3553 
L 2631 2963 
z
" transform="scale(0.015625)"/>
       <path id="DejaVuSans-44" d="M 1259 4147 
L 1259 519 
L 2022 519 
Q 2988 519 3436 956 
Q 3884 1394 3884 2338 
Q 3884 3275 3436 3711 
Q 2988 4147 2022 4147 
L 1259 4147 
z
M 628 4666 
L 1925 4666 
Q 3281 4666 3915 4102 
Q 4550 3538 4550 2338 
Q 4550 1131 3912 565 
Q 3275 0 1925 0 
L 628 0 
L 628 4666 
z
" transform="scale(0.015625)"/>
       <path id="DejaVuSans-61" d="M 2194 1759 
Q 1497 1759 1228 1600 
Q 959 1441 959 1056 
Q 959 750 1161 570 
Q 1363 391 1709 391 
Q 2188 391 2477 730 
Q 2766 1069 2766 1631 
L 2766 1759 
L 2194 1759 
z
M 3341 1997 
L 3341 0 
L 2766 0 
L 2766 531 
Q 2569 213 2275 61 
Q 1981 -91 1556 -91 
Q 1019 -91 701 211 
Q 384 513 384 1019 
Q 384 1609 779 1909 
Q 1175 2209 1959 2209 
L 2766 2209 
L 2766 2266 
Q 2766 2663 2505 2880 
Q 2244 3097 1772 3097 
Q 1472 3097 1187 3025 
Q 903 2953 641 2809 
L 641 3341 
Q 956 3463 1253 3523 
Q 1550 3584 1831 3584 
Q 2591 3584 2966 3190 
Q 3341 2797 3341 1997 
z
" transform="scale(0.015625)"/>
      </defs>
      <use xlink:href="#DejaVuSans-54"/>
      <use xlink:href="#DejaVuSans-72" x="46.333984"/>
      <use xlink:href="#DejaVuSans-75" x="87.447266"/>
      <use xlink:href="#DejaVuSans-65" x="150.826172"/>
      <use xlink:href="#DejaVuSans-20" x="212.349609"/>
      <use xlink:href="#DejaVuSans-44" x="244.136719"/>
      <use xlink:href="#DejaVuSans-61" x="321.138672"/>
      <use xlink:href="#DejaVuSans-74" x="382.417969"/>
      <use xlink:href="#DejaVuSans-61" x="421.626953"/>
     </g>
    </g>
    <g id="line2d_20">
     <path d="M 66.6 69.248562 
L 76.6 69.248562 
L 86.6 69.248562 
" style="fill: none; stroke: #ff0000; stroke-width: 1.5; stroke-linecap: square"/>
    </g>
    <g id="text_19">
     <!-- Predicted Data -->
     <g transform="translate(94.6 72.748562)scale(0.1 -0.1)">
      <defs>
       <path id="DejaVuSans-50" d="M 1259 4147 
L 1259 2394 
L 2053 2394 
Q 2494 2394 2734 2622 
Q 2975 2850 2975 3272 
Q 2975 3691 2734 3919 
Q 2494 4147 2053 4147 
L 1259 4147 
z
M 628 4666 
L 2053 4666 
Q 2838 4666 3239 4311 
Q 3641 3956 3641 3272 
Q 3641 2581 3239 2228 
Q 2838 1875 2053 1875 
L 1259 1875 
L 1259 0 
L 628 0 
L 628 4666 
z
" transform="scale(0.015625)"/>
       <path id="DejaVuSans-63" d="M 3122 3366 
L 3122 2828 
Q 2878 2963 2633 3030 
Q 2388 3097 2138 3097 
Q 1578 3097 1268 2742 
Q 959 2388 959 1747 
Q 959 1106 1268 751 
Q 1578 397 2138 397 
Q 2388 397 2633 464 
Q 2878 531 3122 666 
L 3122 134 
Q 2881 22 2623 -34 
Q 2366 -91 2075 -91 
Q 1284 -91 818 406 
Q 353 903 353 1747 
Q 353 2603 823 3093 
Q 1294 3584 2113 3584 
Q 2378 3584 2631 3529 
Q 2884 3475 3122 3366 
z
" transform="scale(0.015625)"/>
      </defs>
      <use xlink:href="#DejaVuSans-50"/>
      <use xlink:href="#DejaVuSans-72" x="58.552734"/>
      <use xlink:href="#DejaVuSans-65" x="97.416016"/>
      <use xlink:href="#DejaVuSans-64" x="158.939453"/>
      <use xlink:href="#DejaVuSans-69" x="222.416016"/>
      <use xlink:href="#DejaVuSans-63" x="250.199219"/>
      <use xlink:href="#DejaVuSans-74" x="305.179688"/>
      <use xlink:href="#DejaVuSans-65" x="344.388672"/>
      <use xlink:href="#DejaVuSans-64" x="405.912109"/>
      <use xlink:href="#DejaVuSans-20" x="469.388672"/>
      <use xlink:href="#DejaVuSans-44" x="501.175781"/>
      <use xlink:href="#DejaVuSans-61" x="578.177734"/>
      <use xlink:href="#DejaVuSans-74" x="639.457031"/>
      <use xlink:href="#DejaVuSans-61" x="678.666016"/>
     </g>
    </g>
   </g>
  </g>
 </g>
 <defs>
  <clipPath id="pa0412077f9">
   <rect x="57.6" y="41.472" width="357.12" height="266.112"/>
  </clipPath>
 </defs>
</svg>
