<?xml version="1.0" encoding="utf-8" standalone="no"?>
<!DOCTYPE svg PUBLIC "-//W3C//DTD SVG 1.1//EN"
  "http://www.w3.org/Graphics/SVG/1.1/DTD/svg11.dtd">
<svg xmlns:xlink="http://www.w3.org/1999/xlink" width="460.8pt" height="345.6pt" viewBox="0 0 460.8 345.6" xmlns="http://www.w3.org/2000/svg" version="1.1">
 <metadata>
  <rdf:RDF xmlns:dc="http://purl.org/dc/elements/1.1/" xmlns:cc="http://creativecommons.org/ns#" xmlns:rdf="http://www.w3.org/1999/02/22-rdf-syntax-ns#">
   <cc:Work>
    <dc:type rdf:resource="http://purl.org/dc/dcmitype/StillImage"/>
    <dc:date>2024-03-17T00:03:26.151808</dc:date>
    <dc:format>image/svg+xml</dc:format>
    <dc:creator>
     <cc:Agent>
      <dc:title>Matplotlib v3.5.1, https://matplotlib.org/</dc:title>
     </cc:Agent>
    </dc:creator>
   </cc:Work>
  </rdf:RDF>
 </metadata>
 <defs>
  <style type="text/css">*{stroke-linejoin: round; stroke-linecap: butt}</style>
 </defs>
 <g id="figure_1">
  <g id="patch_1">
   <path d="M 0 345.6 
L 460.8 345.6 
L 460.8 0 
L 0 0 
z
" style="fill: #ffffff"/>
  </g>
  <g id="patch_2">
   <path d="M 103.104 307.584 
L 369.216 307.584 
L 369.216 41.472 
L 103.104 41.472 
z
" style="fill: #ffffff"/>
  </g>
  <g id="pane3d_1">
   <g id="patch_3">
    <path d="M 247.063306 130.809224 
L 357.21574 219.429178 
L 365.126531 131.185733 
L 247.525926 42.247104 
" style="fill: #f2f2f2; opacity: 0.5; stroke: #f2f2f2; stroke-linejoin: miter"/>
   </g>
  </g>
  <g id="pane3d_2">
   <g id="patch_4">
    <path d="M 247.063306 130.809224 
L 123.158547 207.896793 
L 115.367301 119.573655 
L 247.525926 42.247104 
" style="fill: #e6e6e6; opacity: 0.5; stroke: #e6e6e6; stroke-linejoin: miter"/>
   </g>
  </g>
  <g id="pane3d_3">
   <g id="patch_5">
    <path d="M 247.063306 130.809224 
L 123.158547 207.896793 
L 231.584152 306.276944 
L 357.21574 219.429178 
" style="fill: #ececec; opacity: 0.5; stroke: #ececec; stroke-linejoin: miter"/>
   </g>
  </g>
  <g id="axis3d_1">
   <g id="line2d_1">
    <path d="M 357.21574 219.429178 
L 231.584152 306.276944 
" style="fill: none; stroke: #000000; stroke-width: 0.8; stroke-linecap: square"/>
   </g>
   <g id="text_1">
    <!-- Longitude (°) -->
    <g transform="translate(290.902983 315.304035)rotate(-34.655688)scale(0.1 -0.1)">
     <defs>
      <path id="DejaVuSans-4c" d="M 628 4666 
L 1259 4666 
L 1259 531 
L 3531 531 
L 3531 0 
L 628 0 
L 628 4666 
z
" transform="scale(0.015625)"/>
      <path id="DejaVuSans-6f" d="M 1959 3097 
Q 1497 3097 1228 2736 
Q 959 2375 959 1747 
Q 959 1119 1226 758 
Q 1494 397 1959 397 
Q 2419 397 2687 759 
Q 2956 1122 2956 1747 
Q 2956 2369 2687 2733 
Q 2419 3097 1959 3097 
z
M 1959 3584 
Q 2709 3584 3137 3096 
Q 3566 2609 3566 1747 
Q 3566 888 3137 398 
Q 2709 -91 1959 -91 
Q 1206 -91 779 398 
Q 353 888 353 1747 
Q 353 2609 779 3096 
Q 1206 3584 1959 3584 
z
" transform="scale(0.015625)"/>
      <path id="DejaVuSans-6e" d="M 3513 2113 
L 3513 0 
L 2938 0 
L 2938 2094 
Q 2938 2591 2744 2837 
Q 2550 3084 2163 3084 
Q 1697 3084 1428 2787 
Q 1159 2491 1159 1978 
L 1159 0 
L 581 0 
L 581 3500 
L 1159 3500 
L 1159 2956 
Q 1366 3272 1645 3428 
Q 1925 3584 2291 3584 
Q 2894 3584 3203 3211 
Q 3513 2838 3513 2113 
z
" transform="scale(0.015625)"/>
      <path id="DejaVuSans-67" d="M 2906 1791 
Q 2906 2416 2648 2759 
Q 2391 3103 1925 3103 
Q 1463 3103 1205 2759 
Q 947 2416 947 1791 
Q 947 1169 1205 825 
Q 1463 481 1925 481 
Q 2391 481 2648 825 
Q 2906 1169 2906 1791 
z
M 3481 434 
Q 3481 -459 3084 -895 
Q 2688 -1331 1869 -1331 
Q 1566 -1331 1297 -1286 
Q 1028 -1241 775 -1147 
L 775 -588 
Q 1028 -725 1275 -790 
Q 1522 -856 1778 -856 
Q 2344 -856 2625 -561 
Q 2906 -266 2906 331 
L 2906 616 
Q 2728 306 2450 153 
Q 2172 0 1784 0 
Q 1141 0 747 490 
Q 353 981 353 1791 
Q 353 2603 747 3093 
Q 1141 3584 1784 3584 
Q 2172 3584 2450 3431 
Q 2728 3278 2906 2969 
L 2906 3500 
L 3481 3500 
L 3481 434 
z
" transform="scale(0.015625)"/>
      <path id="DejaVuSans-69" d="M 603 3500 
L 1178 3500 
L 1178 0 
L 603 0 
L 603 3500 
z
M 603 4863 
L 1178 4863 
L 1178 4134 
L 603 4134 
L 603 4863 
z
" transform="scale(0.015625)"/>
      <path id="DejaVuSans-74" d="M 1172 4494 
L 1172 3500 
L 2356 3500 
L 2356 3053 
L 1172 3053 
L 1172 1153 
Q 1172 725 1289 603 
Q 1406 481 1766 481 
L 2356 481 
L 2356 0 
L 1766 0 
Q 1100 0 847 248 
Q 594 497 594 1153 
L 594 3053 
L 172 3053 
L 172 3500 
L 594 3500 
L 594 4494 
L 1172 4494 
z
" transform="scale(0.015625)"/>
      <path id="DejaVuSans-75" d="M 544 1381 
L 544 3500 
L 1119 3500 
L 1119 1403 
Q 1119 906 1312 657 
Q 1506 409 1894 409 
Q 2359 409 2629 706 
Q 2900 1003 2900 1516 
L 2900 3500 
L 3475 3500 
L 3475 0 
L 2900 0 
L 2900 538 
Q 2691 219 2414 64 
Q 2138 -91 1772 -91 
Q 1169 -91 856 284 
Q 544 659 544 1381 
z
M 1991 3584 
L 1991 3584 
z
" transform="scale(0.015625)"/>
      <path id="DejaVuSans-64" d="M 2906 2969 
L 2906 4863 
L 3481 4863 
L 3481 0 
L 2906 0 
L 2906 525 
Q 2725 213 2448 61 
Q 2172 -91 1784 -91 
Q 1150 -91 751 415 
Q 353 922 353 1747 
Q 353 2572 751 3078 
Q 1150 3584 1784 3584 
Q 2172 3584 2448 3432 
Q 2725 3281 2906 2969 
z
M 947 1747 
Q 947 1113 1208 752 
Q 1469 391 1925 391 
Q 2381 391 2643 752 
Q 2906 1113 2906 1747 
Q 2906 2381 2643 2742 
Q 2381 3103 1925 3103 
Q 1469 3103 1208 2742 
Q 947 2381 947 1747 
z
" transform="scale(0.015625)"/>
      <path id="DejaVuSans-65" d="M 3597 1894 
L 3597 1613 
L 953 1613 
Q 991 1019 1311 708 
Q 1631 397 2203 397 
Q 2534 397 2845 478 
Q 3156 559 3463 722 
L 3463 178 
Q 3153 47 2828 -22 
Q 2503 -91 2169 -91 
Q 1331 -91 842 396 
Q 353 884 353 1716 
Q 353 2575 817 3079 
Q 1281 3584 2069 3584 
Q 2775 3584 3186 3129 
Q 3597 2675 3597 1894 
z
M 3022 2063 
Q 3016 2534 2758 2815 
Q 2500 3097 2075 3097 
Q 1594 3097 1305 2825 
Q 1016 2553 972 2059 
L 3022 2063 
z
" transform="scale(0.015625)"/>
      <path id="DejaVuSans-20" transform="scale(0.015625)"/>
      <path id="DejaVuSans-28" d="M 1984 4856 
Q 1566 4138 1362 3434 
Q 1159 2731 1159 2009 
Q 1159 1288 1364 580 
Q 1569 -128 1984 -844 
L 1484 -844 
Q 1016 -109 783 600 
Q 550 1309 550 2009 
Q 550 2706 781 3412 
Q 1013 4119 1484 4856 
L 1984 4856 
z
" transform="scale(0.015625)"/>
      <path id="DejaVuSans-b0" d="M 1600 4347 
Q 1350 4347 1178 4173 
Q 1006 4000 1006 3750 
Q 1006 3503 1178 3333 
Q 1350 3163 1600 3163 
Q 1850 3163 2022 3333 
Q 2194 3503 2194 3750 
Q 2194 3997 2020 4172 
Q 1847 4347 1600 4347 
z
M 1600 4750 
Q 1800 4750 1984 4673 
Q 2169 4597 2303 4453 
Q 2447 4313 2519 4134 
Q 2591 3956 2591 3750 
Q 2591 3338 2302 3052 
Q 2013 2766 1594 2766 
Q 1172 2766 890 3047 
Q 609 3328 609 3750 
Q 609 4169 896 4459 
Q 1184 4750 1600 4750 
z
" transform="scale(0.015625)"/>
      <path id="DejaVuSans-29" d="M 513 4856 
L 1013 4856 
Q 1481 4119 1714 3412 
Q 1947 2706 1947 2009 
Q 1947 1309 1714 600 
Q 1481 -109 1013 -844 
L 513 -844 
Q 928 -128 1133 580 
Q 1338 1288 1338 2009 
Q 1338 2731 1133 3434 
Q 928 4138 513 4856 
z
" transform="scale(0.015625)"/>
     </defs>
     <use xlink:href="#DejaVuSans-4c"/>
     <use xlink:href="#DejaVuSans-6f" x="53.962891"/>
     <use xlink:href="#DejaVuSans-6e" x="115.144531"/>
     <use xlink:href="#DejaVuSans-67" x="178.523438"/>
     <use xlink:href="#DejaVuSans-69" x="242"/>
     <use xlink:href="#DejaVuSans-74" x="269.783203"/>
     <use xlink:href="#DejaVuSans-75" x="308.992188"/>
     <use xlink:href="#DejaVuSans-64" x="372.371094"/>
     <use xlink:href="#DejaVuSans-65" x="435.847656"/>
     <use xlink:href="#DejaVuSans-20" x="497.371094"/>
     <use xlink:href="#DejaVuSans-28" x="529.158203"/>
     <use xlink:href="#DejaVuSans-b0" x="568.171875"/>
     <use xlink:href="#DejaVuSans-29" x="618.171875"/>
    </g>
   </g>
   <g id="Line3DCollection_1">
    <path d="M 330.057379 238.203461 
L 220.212842 147.514289 
L 218.960721 58.960722 
" style="fill: none; stroke: #b0b0b0; stroke-width: 0.8"/>
    <path d="M 302.637029 257.158854 
L 193.14002 164.357694 
L 190.117641 75.836925 
" style="fill: none; stroke: #b0b0b0; stroke-width: 0.8"/>
    <path d="M 274.555041 276.571631 
L 165.45205 181.583814 
L 160.576183 93.121753 
" style="fill: none; stroke: #b0b0b0; stroke-width: 0.8"/>
    <path d="M 245.787174 296.458548 
L 137.127724 199.205844 
L 130.310671 110.830228 
" style="fill: none; stroke: #b0b0b0; stroke-width: 0.8"/>
   </g>
   <g id="xtick_1">
    <g id="line2d_2">
     <path d="M 329.125923 237.434438 
L 331.922998 239.743741 
" style="fill: none; stroke: #000000; stroke-width: 0.8; stroke-linecap: square"/>
    </g>
    <g id="text_2">
     <!-- 7.0 -->
     <g transform="translate(331.290162 260.619871)scale(0.1 -0.1)">
      <defs>
       <path id="DejaVuSans-37" d="M 525 4666 
L 3525 4666 
L 3525 4397 
L 1831 0 
L 1172 0 
L 2766 4134 
L 525 4134 
L 525 4666 
z
" transform="scale(0.015625)"/>
       <path id="DejaVuSans-2e" d="M 684 794 
L 1344 794 
L 1344 0 
L 684 0 
L 684 794 
z
" transform="scale(0.015625)"/>
       <path id="DejaVuSans-30" d="M 2034 4250 
Q 1547 4250 1301 3770 
Q 1056 3291 1056 2328 
Q 1056 1369 1301 889 
Q 1547 409 2034 409 
Q 2525 409 2770 889 
Q 3016 1369 3016 2328 
Q 3016 3291 2770 3770 
Q 2525 4250 2034 4250 
z
M 2034 4750 
Q 2819 4750 3233 4129 
Q 3647 3509 3647 2328 
Q 3647 1150 3233 529 
Q 2819 -91 2034 -91 
Q 1250 -91 836 529 
Q 422 1150 422 2328 
Q 422 3509 836 4129 
Q 1250 4750 2034 4750 
z
" transform="scale(0.015625)"/>
      </defs>
      <use xlink:href="#DejaVuSans-37"/>
      <use xlink:href="#DejaVuSans-2e" x="63.623047"/>
      <use xlink:href="#DejaVuSans-30" x="95.410156"/>
     </g>
    </g>
   </g>
   <g id="xtick_2">
    <g id="line2d_3">
     <path d="M 301.707895 256.371392 
L 304.498031 258.736095 
" style="fill: none; stroke: #000000; stroke-width: 0.8; stroke-linecap: square"/>
    </g>
    <g id="text_3">
     <!-- 7.5 -->
     <g transform="translate(303.987023 279.746496)scale(0.1 -0.1)">
      <defs>
       <path id="DejaVuSans-35" d="M 691 4666 
L 3169 4666 
L 3169 4134 
L 1269 4134 
L 1269 2991 
Q 1406 3038 1543 3061 
Q 1681 3084 1819 3084 
Q 2600 3084 3056 2656 
Q 3513 2228 3513 1497 
Q 3513 744 3044 326 
Q 2575 -91 1722 -91 
Q 1428 -91 1123 -41 
Q 819 9 494 109 
L 494 744 
Q 775 591 1075 516 
Q 1375 441 1709 441 
Q 2250 441 2565 725 
Q 2881 1009 2881 1497 
Q 2881 1984 2565 2268 
Q 2250 2553 1709 2553 
Q 1456 2553 1204 2497 
Q 953 2441 691 2322 
L 691 4666 
z
" transform="scale(0.015625)"/>
      </defs>
      <use xlink:href="#DejaVuSans-37"/>
      <use xlink:href="#DejaVuSans-2e" x="63.623047"/>
      <use xlink:href="#DejaVuSans-35" x="95.410156"/>
     </g>
    </g>
   </g>
   <g id="xtick_3">
    <g id="line2d_4">
     <path d="M 273.628611 275.765058 
L 276.410658 278.187178 
" style="fill: none; stroke: #000000; stroke-width: 0.8; stroke-linecap: square"/>
    </g>
    <g id="text_4">
     <!-- 8.0 -->
     <g transform="translate(276.025262 299.334505)scale(0.1 -0.1)">
      <defs>
       <path id="DejaVuSans-38" d="M 2034 2216 
Q 1584 2216 1326 1975 
Q 1069 1734 1069 1313 
Q 1069 891 1326 650 
Q 1584 409 2034 409 
Q 2484 409 2743 651 
Q 3003 894 3003 1313 
Q 3003 1734 2745 1975 
Q 2488 2216 2034 2216 
z
M 1403 2484 
Q 997 2584 770 2862 
Q 544 3141 544 3541 
Q 544 4100 942 4425 
Q 1341 4750 2034 4750 
Q 2731 4750 3128 4425 
Q 3525 4100 3525 3541 
Q 3525 3141 3298 2862 
Q 3072 2584 2669 2484 
Q 3125 2378 3379 2068 
Q 3634 1759 3634 1313 
Q 3634 634 3220 271 
Q 2806 -91 2034 -91 
Q 1263 -91 848 271 
Q 434 634 434 1313 
Q 434 1759 690 2068 
Q 947 2378 1403 2484 
z
M 1172 3481 
Q 1172 3119 1398 2916 
Q 1625 2713 2034 2713 
Q 2441 2713 2670 2916 
Q 2900 3119 2900 3481 
Q 2900 3844 2670 4047 
Q 2441 4250 2034 4250 
Q 1625 4250 1398 4047 
Q 1172 3844 1172 3481 
z
" transform="scale(0.015625)"/>
      </defs>
      <use xlink:href="#DejaVuSans-38"/>
      <use xlink:href="#DejaVuSans-2e" x="63.623047"/>
      <use xlink:href="#DejaVuSans-30" x="95.410156"/>
     </g>
    </g>
   </g>
   <g id="xtick_4">
    <g id="line2d_5">
     <path d="M 244.863858 295.63216 
L 247.636586 298.113815 
" style="fill: none; stroke: #000000; stroke-width: 0.8; stroke-linecap: square"/>
    </g>
    <g id="text_5">
     <!-- 8.5 -->
     <g transform="translate(247.380757 319.400795)scale(0.1 -0.1)">
      <use xlink:href="#DejaVuSans-38"/>
      <use xlink:href="#DejaVuSans-2e" x="63.623047"/>
      <use xlink:href="#DejaVuSans-35" x="95.410156"/>
     </g>
    </g>
   </g>
  </g>
  <g id="axis3d_2">
   <g id="line2d_6">
    <path d="M 123.158547 207.896793 
L 231.584152 306.276944 
" style="fill: none; stroke: #000000; stroke-width: 0.8; stroke-linecap: square"/>
   </g>
   <g id="text_6">
    <!-- Latitude (°) -->
    <g transform="translate(129.770552 268.739209)rotate(-317.780919)scale(0.1 -0.1)">
     <defs>
      <path id="DejaVuSans-61" d="M 2194 1759 
Q 1497 1759 1228 1600 
Q 959 1441 959 1056 
Q 959 750 1161 570 
Q 1363 391 1709 391 
Q 2188 391 2477 730 
Q 2766 1069 2766 1631 
L 2766 1759 
L 2194 1759 
z
M 3341 1997 
L 3341 0 
L 2766 0 
L 2766 531 
Q 2569 213 2275 61 
Q 1981 -91 1556 -91 
Q 1019 -91 701 211 
Q 384 513 384 1019 
Q 384 1609 779 1909 
Q 1175 2209 1959 2209 
L 2766 2209 
L 2766 2266 
Q 2766 2663 2505 2880 
Q 2244 3097 1772 3097 
Q 1472 3097 1187 3025 
Q 903 2953 641 2809 
L 641 3341 
Q 956 3463 1253 3523 
Q 1550 3584 1831 3584 
Q 2591 3584 2966 3190 
Q 3341 2797 3341 1997 
z
" transform="scale(0.015625)"/>
     </defs>
     <use xlink:href="#DejaVuSans-4c"/>
     <use xlink:href="#DejaVuSans-61" x="55.712891"/>
     <use xlink:href="#DejaVuSans-74" x="116.992188"/>
     <use xlink:href="#DejaVuSans-69" x="156.201172"/>
     <use xlink:href="#DejaVuSans-74" x="183.984375"/>
     <use xlink:href="#DejaVuSans-75" x="223.193359"/>
     <use xlink:href="#DejaVuSans-64" x="286.572266"/>
     <use xlink:href="#DejaVuSans-65" x="350.048828"/>
     <use xlink:href="#DejaVuSans-20" x="411.572266"/>
     <use xlink:href="#DejaVuSans-28" x="443.359375"/>
     <use xlink:href="#DejaVuSans-b0" x="482.373047"/>
     <use xlink:href="#DejaVuSans-29" x="532.373047"/>
    </g>
   </g>
   <g id="Line3DCollection_2">
    <path d="M 259.011832 50.933629 
L 257.858618 139.49428 
L 133.75483 217.511348 
" style="fill: none; stroke: #b0b0b0; stroke-width: 0.8"/>
    <path d="M 276.905151 64.465935 
L 274.660152 153.011468 
L 150.259451 232.486843 
" style="fill: none; stroke: #b0b0b0; stroke-width: 0.8"/>
    <path d="M 295.147047 78.261861 
L 291.769034 166.775924 
L 167.082086 247.750889 
" style="fill: none; stroke: #b0b0b0; stroke-width: 0.8"/>
    <path d="M 313.747806 92.329187 
L 309.193774 180.794494 
L 184.232016 263.311906 
" style="fill: none; stroke: #b0b0b0; stroke-width: 0.8"/>
    <path d="M 332.718124 106.676001 
L 326.943201 195.074282 
L 201.718886 279.178646 
" style="fill: none; stroke: #b0b0b0; stroke-width: 0.8"/>
    <path d="M 352.069123 121.310716 
L 345.026475 209.622657 
L 219.552724 295.360209 
" style="fill: none; stroke: #b0b0b0; stroke-width: 0.8"/>
   </g>
   <g id="xtick_5">
    <g id="line2d_7">
     <path d="M 134.79916 216.854837 
L 131.663546 218.826021 
" style="fill: none; stroke: #000000; stroke-width: 0.8; stroke-linecap: square"/>
    </g>
    <g id="text_7">
     <!-- 46 -->
     <g transform="translate(117.119876 238.770994)scale(0.1 -0.1)">
      <defs>
       <path id="DejaVuSans-34" d="M 2419 4116 
L 825 1625 
L 2419 1625 
L 2419 4116 
z
M 2253 4666 
L 3047 4666 
L 3047 1625 
L 3713 1625 
L 3713 1100 
L 3047 1100 
L 3047 0 
L 2419 0 
L 2419 1100 
L 313 1100 
L 313 1709 
L 2253 4666 
z
" transform="scale(0.015625)"/>
       <path id="DejaVuSans-36" d="M 2113 2584 
Q 1688 2584 1439 2293 
Q 1191 2003 1191 1497 
Q 1191 994 1439 701 
Q 1688 409 2113 409 
Q 2538 409 2786 701 
Q 3034 994 3034 1497 
Q 3034 2003 2786 2293 
Q 2538 2584 2113 2584 
z
M 3366 4563 
L 3366 3988 
Q 3128 4100 2886 4159 
Q 2644 4219 2406 4219 
Q 1781 4219 1451 3797 
Q 1122 3375 1075 2522 
Q 1259 2794 1537 2939 
Q 1816 3084 2150 3084 
Q 2853 3084 3261 2657 
Q 3669 2231 3669 1497 
Q 3669 778 3244 343 
Q 2819 -91 2113 -91 
Q 1303 -91 875 529 
Q 447 1150 447 2328 
Q 447 3434 972 4092 
Q 1497 4750 2381 4750 
Q 2619 4750 2861 4703 
Q 3103 4656 3366 4563 
z
" transform="scale(0.015625)"/>
      </defs>
      <use xlink:href="#DejaVuSans-34"/>
      <use xlink:href="#DejaVuSans-36" x="63.623047"/>
     </g>
    </g>
   </g>
   <g id="xtick_6">
    <g id="line2d_8">
     <path d="M 151.306772 231.817746 
L 148.162152 233.826736 
" style="fill: none; stroke: #000000; stroke-width: 0.8; stroke-linecap: square"/>
    </g>
    <g id="text_8">
     <!-- 47 -->
     <g transform="translate(133.511769 253.863307)scale(0.1 -0.1)">
      <use xlink:href="#DejaVuSans-34"/>
      <use xlink:href="#DejaVuSans-37" x="63.623047"/>
     </g>
    </g>
   </g>
   <g id="xtick_7">
    <g id="line2d_9">
     <path d="M 168.13232 247.06884 
L 164.978928 249.116735 
" style="fill: none; stroke: #000000; stroke-width: 0.8; stroke-linecap: square"/>
    </g>
    <g id="text_9">
     <!-- 48 -->
     <g transform="translate(150.219219 269.246157)scale(0.1 -0.1)">
      <use xlink:href="#DejaVuSans-34"/>
      <use xlink:href="#DejaVuSans-38" x="63.623047"/>
     </g>
    </g>
   </g>
   <g id="xtick_8">
    <g id="line2d_10">
     <path d="M 185.285079 262.616525 
L 182.123167 264.704466 
" style="fill: none; stroke: #000000; stroke-width: 0.8; stroke-linecap: square"/>
    </g>
    <g id="text_10">
     <!-- 49 -->
     <g transform="translate(167.251425 284.928017)scale(0.1 -0.1)">
      <defs>
       <path id="DejaVuSans-39" d="M 703 97 
L 703 672 
Q 941 559 1184 500 
Q 1428 441 1663 441 
Q 2288 441 2617 861 
Q 2947 1281 2994 2138 
Q 2813 1869 2534 1725 
Q 2256 1581 1919 1581 
Q 1219 1581 811 2004 
Q 403 2428 403 3163 
Q 403 3881 828 4315 
Q 1253 4750 1959 4750 
Q 2769 4750 3195 4129 
Q 3622 3509 3622 2328 
Q 3622 1225 3098 567 
Q 2575 -91 1691 -91 
Q 1453 -91 1209 -44 
Q 966 3 703 97 
z
M 1959 2075 
Q 2384 2075 2632 2365 
Q 2881 2656 2881 3163 
Q 2881 3666 2632 3958 
Q 2384 4250 1959 4250 
Q 1534 4250 1286 3958 
Q 1038 3666 1038 3163 
Q 1038 2656 1286 2365 
Q 1534 2075 1959 2075 
z
" transform="scale(0.015625)"/>
      </defs>
      <use xlink:href="#DejaVuSans-34"/>
      <use xlink:href="#DejaVuSans-39" x="63.623047"/>
     </g>
    </g>
   </g>
   <g id="xtick_9">
    <g id="line2d_11">
     <path d="M 202.774686 278.469539 
L 199.604528 280.598712 
" style="fill: none; stroke: #000000; stroke-width: 0.8; stroke-linecap: square"/>
    </g>
    <g id="text_11">
     <!-- 50 -->
     <g transform="translate(184.61795 300.91769)scale(0.1 -0.1)">
      <use xlink:href="#DejaVuSans-35"/>
      <use xlink:href="#DejaVuSans-30" x="63.623047"/>
     </g>
    </g>
   </g>
   <g id="xtick_10">
    <g id="line2d_12">
     <path d="M 220.611164 294.636965 
L 217.433052 296.808603 
" style="fill: none; stroke: #000000; stroke-width: 0.8; stroke-linecap: square"/>
    </g>
    <g id="text_12">
     <!-- 51 -->
     <g transform="translate(202.328734 317.224329)scale(0.1 -0.1)">
      <defs>
       <path id="DejaVuSans-31" d="M 794 531 
L 1825 531 
L 1825 4091 
L 703 3866 
L 703 4441 
L 1819 4666 
L 2450 4666 
L 2450 531 
L 3481 531 
L 3481 0 
L 794 0 
L 794 531 
z
" transform="scale(0.015625)"/>
      </defs>
      <use xlink:href="#DejaVuSans-35"/>
      <use xlink:href="#DejaVuSans-31" x="63.623047"/>
     </g>
    </g>
   </g>
  </g>
  <g id="axis3d_3">
   <g id="line2d_13">
    <path d="M 123.158547 207.896793 
L 115.367301 119.573655 
" style="fill: none; stroke: #000000; stroke-width: 0.8; stroke-linecap: square"/>
   </g>
   <g id="text_13">
    <!-- GeoAltitude (m) -->
    <g transform="translate(69.934274 123.580052)rotate(-275.041182)scale(0.1 -0.1)">
     <defs>
      <path id="DejaVuSans-47" d="M 3809 666 
L 3809 1919 
L 2778 1919 
L 2778 2438 
L 4434 2438 
L 4434 434 
Q 4069 175 3628 42 
Q 3188 -91 2688 -91 
Q 1594 -91 976 548 
Q 359 1188 359 2328 
Q 359 3472 976 4111 
Q 1594 4750 2688 4750 
Q 3144 4750 3555 4637 
Q 3966 4525 4313 4306 
L 4313 3634 
Q 3963 3931 3569 4081 
Q 3175 4231 2741 4231 
Q 1884 4231 1454 3753 
Q 1025 3275 1025 2328 
Q 1025 1384 1454 906 
Q 1884 428 2741 428 
Q 3075 428 3337 486 
Q 3600 544 3809 666 
z
" transform="scale(0.015625)"/>
      <path id="DejaVuSans-41" d="M 2188 4044 
L 1331 1722 
L 3047 1722 
L 2188 4044 
z
M 1831 4666 
L 2547 4666 
L 4325 0 
L 3669 0 
L 3244 1197 
L 1141 1197 
L 716 0 
L 50 0 
L 1831 4666 
z
" transform="scale(0.015625)"/>
      <path id="DejaVuSans-6c" d="M 603 4863 
L 1178 4863 
L 1178 0 
L 603 0 
L 603 4863 
z
" transform="scale(0.015625)"/>
      <path id="DejaVuSans-6d" d="M 3328 2828 
Q 3544 3216 3844 3400 
Q 4144 3584 4550 3584 
Q 5097 3584 5394 3201 
Q 5691 2819 5691 2113 
L 5691 0 
L 5113 0 
L 5113 2094 
Q 5113 2597 4934 2840 
Q 4756 3084 4391 3084 
Q 3944 3084 3684 2787 
Q 3425 2491 3425 1978 
L 3425 0 
L 2847 0 
L 2847 2094 
Q 2847 2600 2669 2842 
Q 2491 3084 2119 3084 
Q 1678 3084 1418 2786 
Q 1159 2488 1159 1978 
L 1159 0 
L 581 0 
L 581 3500 
L 1159 3500 
L 1159 2956 
Q 1356 3278 1631 3431 
Q 1906 3584 2284 3584 
Q 2666 3584 2933 3390 
Q 3200 3197 3328 2828 
z
" transform="scale(0.015625)"/>
     </defs>
     <use xlink:href="#DejaVuSans-47"/>
     <use xlink:href="#DejaVuSans-65" x="77.490234"/>
     <use xlink:href="#DejaVuSans-6f" x="139.013672"/>
     <use xlink:href="#DejaVuSans-41" x="200.195312"/>
     <use xlink:href="#DejaVuSans-6c" x="268.603516"/>
     <use xlink:href="#DejaVuSans-74" x="296.386719"/>
     <use xlink:href="#DejaVuSans-69" x="335.595703"/>
     <use xlink:href="#DejaVuSans-74" x="363.378906"/>
     <use xlink:href="#DejaVuSans-75" x="402.587891"/>
     <use xlink:href="#DejaVuSans-64" x="465.966797"/>
     <use xlink:href="#DejaVuSans-65" x="529.443359"/>
     <use xlink:href="#DejaVuSans-20" x="590.966797"/>
     <use xlink:href="#DejaVuSans-28" x="622.753906"/>
     <use xlink:href="#DejaVuSans-6d" x="661.767578"/>
     <use xlink:href="#DejaVuSans-29" x="759.179688"/>
    </g>
   </g>
   <g id="Line3DCollection_3">
    <path d="M 122.171936 196.712371 
L 247.122057 119.562208 
L 358.217057 208.25967 
" style="fill: none; stroke: #b0b0b0; stroke-width: 0.8"/>
    <path d="M 120.906654 182.368881 
L 247.19733 105.152196 
L 359.501381 193.933259 
" style="fill: none; stroke: #b0b0b0; stroke-width: 0.8"/>
    <path d="M 119.613845 167.713342 
L 247.274158 90.44463 
L 360.81386 179.292797 
" style="fill: none; stroke: #b0b0b0; stroke-width: 0.8"/>
    <path d="M 118.292602 152.735459 
L 247.352588 75.430196 
L 362.155429 164.327842 
" style="fill: none; stroke: #b0b0b0; stroke-width: 0.8"/>
    <path d="M 116.941975 137.42448 
L 247.432673 60.099189 
L 363.527065 149.027484 
" style="fill: none; stroke: #b0b0b0; stroke-width: 0.8"/>
    <path d="M 115.560973 121.769168 
L 247.514463 44.44149 
L 364.929791 133.380322 
" style="fill: none; stroke: #b0b0b0; stroke-width: 0.8"/>
   </g>
   <g id="xtick_11">
    <g id="line2d_14">
     <path d="M 123.223506 196.063082 
L 120.066147 198.012586 
" style="fill: none; stroke: #000000; stroke-width: 0.8; stroke-linecap: square"/>
    </g>
    <g id="text_14">
     <!-- 2000 -->
     <g transform="translate(90.018552 203.360375)scale(0.1 -0.1)">
      <defs>
       <path id="DejaVuSans-32" d="M 1228 531 
L 3431 531 
L 3431 0 
L 469 0 
L 469 531 
Q 828 903 1448 1529 
Q 2069 2156 2228 2338 
Q 2531 2678 2651 2914 
Q 2772 3150 2772 3378 
Q 2772 3750 2511 3984 
Q 2250 4219 1831 4219 
Q 1534 4219 1204 4116 
Q 875 4013 500 3803 
L 500 4441 
Q 881 4594 1212 4672 
Q 1544 4750 1819 4750 
Q 2544 4750 2975 4387 
Q 3406 4025 3406 3419 
Q 3406 3131 3298 2873 
Q 3191 2616 2906 2266 
Q 2828 2175 2409 1742 
Q 1991 1309 1228 531 
z
" transform="scale(0.015625)"/>
      </defs>
      <use xlink:href="#DejaVuSans-32"/>
      <use xlink:href="#DejaVuSans-30" x="63.623047"/>
      <use xlink:href="#DejaVuSans-30" x="127.246094"/>
      <use xlink:href="#DejaVuSans-30" x="190.869141"/>
     </g>
    </g>
   </g>
   <g id="xtick_12">
    <g id="line2d_15">
     <path d="M 121.970071 181.718686 
L 118.777112 183.670926 
" style="fill: none; stroke: #000000; stroke-width: 0.8; stroke-linecap: square"/>
    </g>
    <g id="text_15">
     <!-- 4000 -->
     <g transform="translate(88.545123 189.015561)scale(0.1 -0.1)">
      <use xlink:href="#DejaVuSans-34"/>
      <use xlink:href="#DejaVuSans-30" x="63.623047"/>
      <use xlink:href="#DejaVuSans-30" x="127.246094"/>
      <use xlink:href="#DejaVuSans-30" x="190.869141"/>
     </g>
    </g>
   </g>
   <g id="xtick_13">
    <g id="line2d_16">
     <path d="M 120.689379 167.062356 
L 117.46001 169.016989 
" style="fill: none; stroke: #000000; stroke-width: 0.8; stroke-linecap: square"/>
    </g>
    <g id="text_16">
     <!-- 6000 -->
     <g transform="translate(87.039658 174.358866)scale(0.1 -0.1)">
      <use xlink:href="#DejaVuSans-36"/>
      <use xlink:href="#DejaVuSans-30" x="63.623047"/>
      <use xlink:href="#DejaVuSans-30" x="127.246094"/>
      <use xlink:href="#DejaVuSans-30" x="190.869141"/>
     </g>
    </g>
   </g>
   <g id="xtick_14">
    <g id="line2d_17">
     <path d="M 119.380531 152.083804 
L 116.113914 154.040465 
" style="fill: none; stroke: #000000; stroke-width: 0.8; stroke-linecap: square"/>
    </g>
    <g id="text_17">
     <!-- 8000 -->
     <g transform="translate(85.501103 159.380006)scale(0.1 -0.1)">
      <use xlink:href="#DejaVuSans-38"/>
      <use xlink:href="#DejaVuSans-30" x="63.623047"/>
      <use xlink:href="#DejaVuSans-30" x="127.246094"/>
      <use xlink:href="#DejaVuSans-30" x="190.869141"/>
     </g>
    </g>
   </g>
   <g id="xtick_15">
    <g id="line2d_18">
     <path d="M 118.042587 136.772287 
L 114.737855 138.730583 
" style="fill: none; stroke: #000000; stroke-width: 0.8; stroke-linecap: square"/>
    </g>
    <g id="text_18">
     <!-- 10000 -->
     <g transform="translate(80.747103 144.068241)scale(0.1 -0.1)">
      <use xlink:href="#DejaVuSans-31"/>
      <use xlink:href="#DejaVuSans-30" x="63.623047"/>
      <use xlink:href="#DejaVuSans-30" x="127.246094"/>
      <use xlink:href="#DejaVuSans-30" x="190.869141"/>
      <use xlink:href="#DejaVuSans-30" x="254.492188"/>
     </g>
    </g>
   </g>
   <g id="xtick_16">
    <g id="line2d_19">
     <path d="M 116.674568 121.116577 
L 113.330822 123.076086 
" style="fill: none; stroke: #000000; stroke-width: 0.8; stroke-linecap: square"/>
    </g>
    <g id="text_19">
     <!-- 12000 -->
     <g transform="translate(79.139006 128.412349)scale(0.1 -0.1)">
      <use xlink:href="#DejaVuSans-31"/>
      <use xlink:href="#DejaVuSans-32" x="63.623047"/>
      <use xlink:href="#DejaVuSans-30" x="127.246094"/>
      <use xlink:href="#DejaVuSans-30" x="190.869141"/>
      <use xlink:href="#DejaVuSans-30" x="254.492188"/>
     </g>
    </g>
   </g>
  </g>
  <g id="axes_1">
   <g id="line2d_20">
    <path d="M 338.323762 219.793772 
L 339.086438 218.208804 
L 339.722304 217.241945 
L 339.964644 216.858919 
L 340.317392 216.274027 
L 340.935959 215.174324 
L 341.116386 214.83191 
L 341.670125 212.903351 
L 341.772987 211.838512 
L 341.765253 211.875722 
L 341.704273 210.692771 
L 341.686342 210.736818 
L 341.693457 210.565387 
L 341.676518 210.665789 
L 341.603083 210.019133 
L 341.54793 209.787742 
L 341.338533 208.652791 
L 341.334393 208.706621 
L 341.264973 208.296999 
L 341.228028 208.173231 
L 341.050924 207.357009 
L 340.995165 207.297637 
L 340.828732 206.761244 
L 339.879503 205.741336 
L 339.739481 205.690535 
L 339.707924 205.599109 
L 339.667442 205.666554 
L 339.227442 205.278246 
L 339.034336 205.155282 
L 338.814823 205.004372 
L 338.764797 205.080893 
L 338.736737 204.990927 
L 338.678462 204.864163 
L 338.606422 204.955131 
L 338.283241 204.81398 
L 336.912781 204.674193 
L 336.754137 204.672694 
L 335.581345 204.702039 
L 335.545835 204.572368 
L 335.457624 204.638385 
L 335.311197 204.631847 
L 334.56955 204.427519 
L 334.573446 204.373069 
L 334.522122 204.46093 
L 334.135123 204.266626 
L 334.002078 204.359523 
L 333.88153 204.189415 
L 333.754376 204.170536 
L 333.39784 204.005773 
L 333.345045 204.094627 
L 333.273266 204.045563 
L 333.277114 203.991007 
L 333.225538 204.027203 
L 332.844052 203.771241 
L 332.68383 203.784107 
L 332.292986 203.584635 
L 332.289173 203.639281 
L 332.247898 203.564451 
L 332.181311 203.616455 
L 332.083472 203.420355 
L 332.03363 203.454086 
L 331.795218 203.361265 
L 331.730409 203.406799 
L 331.689474 203.330231 
L 331.505871 203.251003 
L 331.454398 203.339245 
L 331.382368 203.289748 
L 331.210022 203.301041 
L 331.106502 203.274053 
L 330.925702 203.290791 
L 330.822366 203.206357 
L 330.818606 203.261118 
L 330.692663 203.30175 
L 330.515952 203.216311 
L 330.320125 203.249165 
L 330.146596 203.260811 
L 330.142862 203.315606 
L 330.100339 203.239812 
L 330.042242 203.285612 
L 329.704379 203.364845 
L 329.399923 203.467205 
L 328.551642 203.74392 
L 328.085586 203.963001 
L 327.84657 204.024387 
L 327.39266 204.239369 
L 327.280748 204.260047 
L 326.873101 204.443272 
L 326.676747 204.522127 
L 326.346363 204.646859 
L 326.34995 204.59197 
L 326.290303 204.686104 
L 326.249194 204.667627 
L 326.037669 204.809477 
L 325.825512 204.851631 
L 325.616441 205.001513 
L 325.481678 205.037837 
L 325.225254 205.168352 
L 325.144858 205.114355 
L 324.934073 205.265063 
L 324.65148 205.408469 
L 324.655001 205.353549 
L 324.077877 205.488104 
L 323.934921 205.591924 
L 323.938414 205.536983 
L 323.786861 205.637215 
L 323.790349 205.582266 
L 323.533742 205.607642 
L 323.293712 205.717088 
L 323.29718 205.662119 
L 323.125164 205.675412 
L 322.804102 205.798574 
L 322.750486 205.730605 
L 322.661181 205.734413 
L 322.458172 205.827632 
L 321.556974 205.921649 
L 321.553572 205.976689 
L 321.489746 205.915631 
L 321.283276 206.011901 
L 321.113038 206.019949 
L 320.875033 205.973159 
L 320.676495 206.005907 
L 320.326925 206.042112 
L 319.958214 206.081785 
L 319.824881 206.072718 
L 319.24988 206.096222 
L 319.017515 206.046405 
L 318.802817 206.14198 
L 318.806113 206.086797 
L 318.406714 206.050793 
L 318.342593 206.148273 
L 318.280014 206.027726 
L 318.047134 206.083587 
L 317.561501 206.158275 
L 317.564749 206.103024 
L 317.47371 206.215301 
L 317.416704 206.14757 
L 317.352319 206.144326 
L 317.255194 206.264949 
L 317.205541 206.188424 
L 316.74176 206.296564 
L 316.738544 206.35184 
L 316.679061 206.340064 
L 316.543389 206.332079 
L 313.997352 206.496308 
L 313.899359 206.3999 
L 313.661516 206.457238 
L 313.259368 206.473191 
L 313.079398 206.539673 
L 312.935084 206.483414 
L 312.159574 206.698926 
L 311.99439 206.646603 
L 311.928319 206.745879 
L 310.811848 206.821233 
L 310.664751 206.926569 
L 310.045772 207.032479 
L 309.942362 207.15705 
L 309.873004 207.092609 
L 309.553638 207.263979 
L 309.428605 207.243268 
L 309.210033 207.232455 
L 308.976916 207.388304 
L 308.922364 207.265321 
L 308.916545 207.376573 
L 308.764643 207.324809 
L 308.445468 207.438064 
L 308.235142 207.362539 
L 308.23226 207.418199 
L 308.173197 207.297952 
L 307.843815 207.416838 
L 307.789663 207.352281 
L 307.625321 207.46038 
L 307.355849 207.274668 
L 307.353001 207.330385 
L 307.25933 207.287242 
L 307.098973 207.338284 
L 306.818636 207.262565 
L 306.815809 207.318312 
L 306.597407 207.366111 
L 306.507386 207.261074 
L 306.411615 207.327783 
L 306.040216 207.206151 
L 306.034624 207.317733 
L 305.973865 207.305966 
L 305.165712 207.27392 
L 305.16295 207.329759 
L 305.099603 207.264264 
L 305.096843 207.320103 
L 304.052383 207.499018 
L 304.0551 207.443133 
L 303.793549 207.564386 
L 303.732689 207.4983 
L 303.248916 207.726839 
L 303.095556 207.719155 
L 302.866898 207.772782 
L 302.634151 207.873654 
L 302.576567 207.810344 
L 302.507512 207.912053 
L 301.766926 207.982391 
L 301.600442 208.09392 
L 301.3719 208.083178 
L 300.612726 208.253303 
L 300.615306 208.197296 
L 300.450082 208.306338 
L 300.452655 208.250327 
L 300.388562 208.23639 
L 300.385992 208.292402 
L 300.153528 208.328246 
L 299.916183 208.306786 
L 299.804278 208.434112 
L 299.744488 208.363025 
L 299.52668 208.335751 
L 299.153482 208.44198 
L 299.156003 208.385917 
L 299.08918 208.425403 
L 298.989266 208.379227 
L 298.852262 208.460654 
L 298.364785 208.467861 
L 298.362297 208.523955 
L 297.139113 208.52814 
L 296.92341 208.631736 
L 296.669663 208.592152 
L 296.135499 208.517262 
L 295.9269 208.616571 
L 295.75677 208.581297 
L 295.505656 208.577621 
L 294.271852 208.428089 
L 294.269531 208.484345 
L 294.215732 208.45144 
L 292.416698 207.983877 
L 291.348325 207.332084 
L 291.199568 207.189781 
L 290.886546 206.857395 
L 290.829706 206.868386 
L 290.708386 206.719774 
L 290.631876 206.674584 
L 290.543024 206.463439 
L 290.48149 206.53218 
L 290.15616 206.143455 
L 290.115366 206.207297 
L 290.058668 206.157601 
L 289.915734 206.069274 
L 289.064992 205.492047 
L 289.02874 205.55317 
L 288.97291 205.44744 
L 288.709188 205.207901 
L 288.672797 205.268927 
L 288.612789 205.17553 
L 287.400228 204.307728 
L 287.337957 204.325536 
L 287.339994 204.268801 
L 286.747919 203.918021 
L 286.745907 203.974794 
L 286.727606 203.861929 
L 286.667246 203.930041 
L 286.34742 203.761635 
L 286.22005 203.720787 
L 286.068604 203.584272 
L 286.027989 203.648519 
L 285.987419 203.535642 
L 285.842057 203.561653 
L 285.762021 203.462291 
L 285.194023 203.223181 
L 284.890049 202.986155 
L 284.708808 203.021647 
L 284.578908 202.875305 
L 284.354035 202.743887 
L 284.040784 202.67898 
L 283.853876 202.540765 
L 283.665001 202.459471 
L 282.571347 202.024554 
L 282.421646 201.935018 
L 282.338362 201.886941 
L 282.049903 201.709998 
L 281.88502 201.686219 
L 281.750995 201.651845 
L 281.445634 201.420443 
L 281.215842 201.343904 
L 280.982374 201.270814 
L 280.733193 201.085926 
L 280.550417 201.054081 
L 280.552171 200.996973 
L 279.702486 200.571653 
L 279.562913 200.595705 
L 279.31174 200.409694 
L 278.681053 200.065487 
L 278.404153 200.054896 
L 278.405816 199.997672 
L 278.381085 199.938389 
L 278.316432 200.008424 
L 277.499686 199.633634 
L 277.18848 199.573527 
L 276.562759 199.331442 
L 276.3678 199.309684 
L 276.228099 199.215413 
L 276.004262 199.196385 
L 275.69817 199.02386 
L 273.309068 197.703269 
L 272.789381 197.385388 
L 272.787954 197.442913 
L 272.691326 197.344499 
L 272.493718 197.204607 
L 272.320384 197.121884 
L 271.66707 196.712624 
L 271.473715 196.688751 
L 271.326852 196.536802 
L 271.214947 196.502671 
L 270.77926 196.286997 
L 269.715954 195.766821 
L 269.659816 195.659983 
L 269.488898 195.697799 
L 269.295037 195.60558 
L 268.191934 195.272101 
L 268.143716 195.335018 
L 267.935648 195.200427 
L 267.852466 195.27216 
L 267.826386 195.216991 
L 267.500188 195.09793 
L 267.278627 195.075043 
L 263.628907 193.992656 
L 263.549776 194.008812 
L 263.550809 193.950863 
L 263.235995 193.881741 
L 263.083574 193.972105 
L 262.927979 193.877165 
L 262.717327 193.911008 
L 262.508596 193.828833 
L 262.507609 193.886814 
L 262.405305 193.845164 
L 262.173157 193.768091 
L 262.004494 193.733773 
L 261.423707 193.54126 
L 261.360673 193.550812 
L 261.168855 193.463857 
L 260.193796 193.043587 
L 260.087361 193.060819 
L 260.088245 193.002742 
L 259.397291 192.823213 
L 259.287056 192.90065 
L 258.804208 192.6878 
L 258.80338 192.745921 
L 258.572952 192.723488 
L 258.363477 192.64119 
L 258.254035 192.660325 
L 258.254839 192.602189 
L 258.045529 192.519179 
L 257.937562 192.594767 
L 257.727871 192.453464 
L 257.661361 192.519123 
L 257.66214 192.460967 
L 257.59651 192.471282 
L 257.597286 192.413122 
L 257.365599 192.39678 
L 257.261392 192.411517 
L 257.262154 192.353346 
L 256.3274 192.098281 
L 256.223912 192.112197 
L 256.180483 192.004165 
L 256.139353 192.067884 
L 255.310404 191.851439 
L 255.113717 191.821746 
L 255.032578 191.780331 
L 254.14987 191.562101 
L 253.997144 191.586204 
L 253.606357 191.394964 
L 253.514498 191.347267 
L 252.82119 191.042841 
L 252.766254 191.10398 
L 252.766821 191.045645 
L 250.787552 189.630147 
L 250.517921 189.31807 
L 250.296436 188.952464 
L 246.895121 184.550906 
L 246.767798 184.45187 
L 246.629214 184.290545 
L 246.029441 183.633403 
L 246.029167 183.692248 
L 245.874339 183.593992 
L 245.70859 183.418535 
L 245.499614 183.231341 
L 244.951141 182.649553 
L 244.718319 182.455643 
L 244.511797 182.276994 
L 244.292656 182.149029 
L 244.292458 182.207959 
L 244.178983 182.052668 
L 244.116825 182.092369 
L 244.076519 182.019346 
L 241.104136 180.904832 
L 240.769347 180.570044 
L 240.551115 180.383798 
L 240.308736 180.12742 
L 239.974785 179.790778 
L 239.939388 179.839457 
L 239.912086 179.711791 
L 239.87735 179.760687 
L 239.686204 179.523549 
L 239.662338 179.575941 
L 239.626585 179.443411 
L 239.385287 179.253299 
L 239.22439 179.079894 
L 238.922639 178.749791 
L 238.89899 178.802219 
L 238.824953 178.718496 
L 238.716835 178.565202 
L 238.560176 178.467821 
L 238.375321 178.221685 
L 238.212561 178.11237 
L 237.962657 177.851605 
L 237.928217 177.899947 
L 237.90384 177.774389 
L 237.705769 177.650761 
L 237.6053 177.501868 
L 237.605394 177.561031 
L 237.478613 177.461531 
L 237.369025 177.308327 
L 237.290999 177.226502 
L 237.12035 176.992682 
L 237.120466 177.051869 
L 236.959177 176.94143 
L 236.816668 176.722189 
L 236.793479 176.774717 
L 236.774207 176.646857 
L 236.746615 176.636694 
L 236.597117 176.589357 
L 236.45767 176.368174 
L 236.345952 176.334177 
L 236.207382 176.113636 
L 235.950824 175.982077 
L 235.824553 175.757067 
L 235.790772 175.806022 
L 235.734954 175.727155 
L 235.49345 175.413856 
L 235.433597 175.452248 
L 235.412673 175.388517 
L 235.25091 175.159488 
L 235.251107 175.218795 
L 235.113776 175.115738 
L 234.87567 174.859747 
L 234.828009 174.787152 
L 234.66667 174.613294 
L 234.643141 174.666019 
L 234.622425 174.543544 
L 234.587383 174.53183 
L 234.160062 174.276738 
L 234.021764 174.174645 
L 232.663286 173.73943 
L 232.549524 173.644634 
L 232.422666 173.664293 
L 231.549736 173.383115 
L 230.245805 172.907303 
L 229.56477 172.747005 
L 229.16323 172.563115 
L 228.641495 172.22093 
L 228.479542 172.051127 
L 228.273401 171.804551 
L 228.130434 171.644162 
L 227.82754 171.378884 
L 227.676503 171.200656 
L 227.588306 171.114038 
L 227.391008 170.874039 
L 227.289436 170.779881 
L 226.735591 170.246616 
L 226.480994 169.988709 
L 226.273579 169.802741 
L 226.080541 169.620488 
L 225.643094 169.178137 
L 225.529774 169.082204 
L 225.370973 168.914895 
L 225.254298 168.81616 
L 225.063286 168.578281 
L 224.925716 168.470313 
L 224.72256 168.228978 
L 224.685195 168.275322 
L 224.655298 168.146587 
L 224.632173 168.199588 
L 224.519239 168.114894 
L 224.331718 167.805482 
L 224.072785 167.612311 
L 223.909003 167.368913 
L 223.781551 167.267273 
L 223.655413 167.108293 
L 223.617997 167.1654 
L 223.594245 167.098996 
L 223.467363 166.990208 
L 223.433793 166.979635 
L 223.300246 166.755003 
L 223.150748 166.601926 
L 222.051553 165.700116 
L 221.228437 165.375572 
L 221.060828 165.261596 
L 219.331385 164.702028 
L 217.347136 164.058942 
L 217.215287 164.078404 
L 217.113593 163.985532 
L 216.395291 163.748162 
L 213.977756 162.959426 
L 213.854983 162.983386 
L 212.267783 162.405842 
L 212.124264 162.418684 
L 208.83032 161.339891 
L 205.119076 160.058901 
L 204.90324 159.99056 
L 204.16574 159.630995 
L 203.965067 159.441995 
L 203.96663 159.50183 
L 203.894287 159.362666 
L 203.865172 159.41162 
L 203.453031 158.918355 
L 203.454616 158.978222 
L 203.265018 158.799026 
L 203.12024 158.572073 
L 203.098515 158.625288 
L 202.977486 158.526201 
L 202.869421 158.368565 
L 202.735762 158.266766 
L 201.511702 157.203411 
L 201.513373 157.263375 
L 201.404941 157.170277 
L 201.14267 157.031264 
L 200.988715 156.910734 
L 200.642628 156.678647 
L 200.621459 156.732006 
L 200.570205 156.606264 
L 200.553076 156.656815 
L 200.482669 156.567346 
L 200.465814 156.618037 
L 200.310529 156.458393 
L 200.068829 156.309893 
L 199.909376 156.197665 
L 199.631454 156.044998 
L 199.492328 155.951287 
L 199.461175 156.001001 
L 199.445944 155.923211 
L 199.307334 155.818962 
L 199.270751 155.866247 
L 199.099867 155.689351 
L 199.075744 155.740555 
L 198.995932 155.666569 
L 198.01023 155.089556 
L 197.887172 154.990123 
L 197.889002 155.050196 
L 197.662617 154.914795 
L 196.946969 154.553472 
L 196.792553 154.442498 
L 196.628318 154.391215 
L 196.407498 154.253951 
L 196.017081 154.066917 
L 195.987827 153.997776 
L 195.91029 154.028779 
L 195.773837 153.926433 
L 195.665057 153.828143 
L 195.56873 153.858975 
L 195.486369 153.709697 
L 195.445065 153.759316 
L 195.302103 153.649808 
L 195.166876 153.556667 
L 195.119562 153.590596 
L 195.08504 153.461637 
L 195.06891 153.5131 
L 194.791266 153.360975 
L 194.565993 153.167679 
L 194.33317 153.08652 
L 194.222574 152.993089 
L 193.946232 152.850637 
L 193.931724 152.773425 
L 193.848353 152.806962 
L 193.302841 152.506293 
L 193.164034 152.400207 
L 192.837005 152.230096 
L 192.688582 152.134802 
L 191.584878 151.513083 
L 191.564095 151.566696 
L 191.34002 151.43288 
L 191.156239 151.320443 
L 191.111993 151.366652 
L 191.062393 151.278854 
L 188.040546 149.841358 
L 187.872248 149.723896 
L 187.163653 149.427704 
L 184.677057 148.525565 
L 183.997098 148.292111 
L 181.328683 147.387926 
L 180.655561 147.16594 
L 179.618034 146.699413 
L 178.832622 145.892645 
L 178.302554 145.342401 
L 173.416265 140.155774 
L 173.390904 140.206821 
L 173.366293 140.107447 
L 173.323232 140.119247 
L 172.478923 139.279357 
L 172.323249 139.104314 
L 172.145997 138.942323 
L 171.694419 138.459235 
L 171.502552 138.274787 
L 170.815181 137.551641 
L 166.953311 133.569082 
L 166.629571 133.27875 
L 164.983278 132.029964 
L 164.09363 131.639299 
L 163.950632 131.669555 
L 162.285838 131.188361 
L 162.151266 131.161791 
L 158.702376 130.128911 
L 158.586472 130.155149 
L 158.444526 130.056799 
L 158.44803 130.117118 
L 158.376163 130.026958 
L 158.344487 130.078212 
L 158.025235 129.99062 
L 157.995162 129.926082 
L 157.909646 129.968677 
L 154.97249 129.146781 
L 152.880083 128.490363 
L 151.709965 128.15719 
L 151.642749 128.079287 
L 151.606793 128.11844 
L 151.251866 128.024496 
L 151.121478 127.928387 
L 145.932865 126.505301 
L 137.956793 124.196443 
L 136.361669 123.733982 
L 131.800604 122.458331 
L 131.298817 122.309798 
L 131.298817 122.309798 
" clip-path="url(#pb59704d671)" style="fill: none; stroke: #0000ff; stroke-width: 1.5; stroke-linecap: square"/>
   </g>
   <g id="line2d_21">
    <path d="M 337.879682 219.610507 
L 338.572093 218.236179 
L 339.129539 217.248243 
L 340.277775 215.418039 
L 340.869661 214.243725 
L 341.269472 212.897015 
L 341.385585 211.186802 
L 341.176944 209.526878 
L 340.65106 207.095928 
L 339.967532 205.90658 
L 337.712209 204.646635 
L 334.145161 204.293454 
L 333.666451 204.122264 
L 330.944213 203.148622 
L 329.846586 203.118109 
L 328.549214 203.498891 
L 325.45274 204.785176 
L 324.417348 205.205982 
L 319.973443 205.903225 
L 318.633801 205.924091 
L 317.925211 205.921367 
L 317.257997 205.995446 
L 315.195663 206.279342 
L 314.601415 206.285803 
L 313.538253 206.292167 
L 311.882125 206.509519 
L 310.996617 206.666629 
L 310.264092 206.794478 
L 308.936656 207.128938 
L 308.537113 207.171891 
L 308.065596 207.204701 
L 307.348109 207.222552 
L 306.990909 207.156617 
L 306.437973 207.150833 
L 304.771438 207.171456 
L 303.996958 207.281712 
L 303.38953 207.413674 
L 302.197567 207.730316 
L 300.907646 207.985839 
L 299.989296 208.137831 
L 298.316786 208.308403 
L 297.540826 208.387433 
L 293.436527 208.203017 
L 291.938912 207.748362 
L 290.990305 207.06698 
L 290.479211 206.599159 
L 290.120028 206.228311 
L 289.64415 205.874689 
L 288.453797 205.107815 
L 288.078238 204.828514 
L 286.65851 203.900888 
L 278.510003 200.087758 
L 276.174008 199.244487 
L 275.099777 198.827792 
L 273.665232 198.036441 
L 271.972946 196.981094 
L 269.021347 195.545792 
L 266.449824 194.860419 
L 263.050648 193.93548 
L 261.23847 193.527256 
L 259.604389 192.925026 
L 254.103896 191.620005 
L 253.355774 191.367021 
L 252.717152 191.085498 
L 251.070495 190.015332 
L 250.223092 189.065439 
L 247.486533 185.389565 
L 244.477887 182.365863 
L 243.323956 181.803956 
L 242.251916 181.457186 
L 241.635073 181.289382 
L 240.736003 180.679752 
L 239.128946 179.113908 
L 236.626909 176.708454 
L 236.24396 176.331069 
L 235.626077 175.747996 
L 234.449854 174.589046 
L 233.792115 174.180415 
L 231.664395 173.467188 
L 230.555986 173.11282 
L 229.724773 172.81137 
L 228.749362 172.398592 
L 227.864356 171.56298 
L 224.685903 168.401462 
L 224.055406 167.756516 
L 221.926069 165.756228 
L 220.077409 165.00967 
L 204.036922 159.573485 
L 202.822164 158.47438 
L 201.778762 157.498255 
L 198.474092 155.3508 
L 198.166672 155.180756 
L 194.426555 153.146465 
L 193.673072 152.6973 
L 192.640331 152.096029 
L 191.407881 151.429243 
L 186.196049 148.941945 
L 182.506137 147.65289 
L 180.460037 146.943139 
L 179.289917 146.383799 
L 178.727348 145.809823 
L 176.111013 142.971748 
L 168.853839 135.543382 
L 168.215588 134.856284 
L 165.934512 132.657563 
L 165.446792 132.256167 
L 164.571688 131.841256 
L 162.975836 131.370275 
L 150.876441 127.929881 
L 150.876441 127.929881 
" clip-path="url(#pb59704d671)" style="fill: none; stroke: #008000; stroke-width: 1.5; stroke-linecap: square"/>
   </g>
   <g id="line2d_22">
    <path d="M 150.844395 127.921479 
L 132.920232 122.963331 
L 132.920232 122.963331 
" clip-path="url(#pb59704d671)" style="fill: none; stroke: #ff0000; stroke-width: 1.5; stroke-linecap: square"/>
   </g>
   <g id="legend_1">
    <g id="patch_6">
     <path d="M 195.758187 93.506375 
L 362.216 93.506375 
Q 364.216 93.506375 364.216 91.506375 
L 364.216 48.472 
Q 364.216 46.472 362.216 46.472 
L 195.758187 46.472 
Q 193.758187 46.472 193.758187 48.472 
L 193.758187 91.506375 
Q 193.758187 93.506375 195.758187 93.506375 
z
" style="fill: #ffffff; opacity: 0.8; stroke: #cccccc; stroke-linejoin: miter"/>
    </g>
    <g id="line2d_23">
     <path d="M 197.758187 54.570438 
L 207.758187 54.570438 
L 217.758187 54.570438 
" style="fill: none; stroke: #0000ff; stroke-width: 1.5; stroke-linecap: square"/>
    </g>
    <g id="text_20">
     <!-- True Trajectory -->
     <g transform="translate(225.758187 58.070438)scale(0.1 -0.1)">
      <defs>
       <path id="DejaVuSans-54" d="M -19 4666 
L 3928 4666 
L 3928 4134 
L 2272 4134 
L 2272 0 
L 1638 0 
L 1638 4134 
L -19 4134 
L -19 4666 
z
" transform="scale(0.015625)"/>
       <path id="DejaVuSans-72" d="M 2631 2963 
Q 2534 3019 2420 3045 
Q 2306 3072 2169 3072 
Q 1681 3072 1420 2755 
Q 1159 2438 1159 1844 
L 1159 0 
L 581 0 
L 581 3500 
L 1159 3500 
L 1159 2956 
Q 1341 3275 1631 3429 
Q 1922 3584 2338 3584 
Q 2397 3584 2469 3576 
Q 2541 3569 2628 3553 
L 2631 2963 
z
" transform="scale(0.015625)"/>
       <path id="DejaVuSans-6a" d="M 603 3500 
L 1178 3500 
L 1178 -63 
Q 1178 -731 923 -1031 
Q 669 -1331 103 -1331 
L -116 -1331 
L -116 -844 
L 38 -844 
Q 366 -844 484 -692 
Q 603 -541 603 -63 
L 603 3500 
z
M 603 4863 
L 1178 4863 
L 1178 4134 
L 603 4134 
L 603 4863 
z
" transform="scale(0.015625)"/>
       <path id="DejaVuSans-63" d="M 3122 3366 
L 3122 2828 
Q 2878 2963 2633 3030 
Q 2388 3097 2138 3097 
Q 1578 3097 1268 2742 
Q 959 2388 959 1747 
Q 959 1106 1268 751 
Q 1578 397 2138 397 
Q 2388 397 2633 464 
Q 2878 531 3122 666 
L 3122 134 
Q 2881 22 2623 -34 
Q 2366 -91 2075 -91 
Q 1284 -91 818 406 
Q 353 903 353 1747 
Q 353 2603 823 3093 
Q 1294 3584 2113 3584 
Q 2378 3584 2631 3529 
Q 2884 3475 3122 3366 
z
" transform="scale(0.015625)"/>
       <path id="DejaVuSans-79" d="M 2059 -325 
Q 1816 -950 1584 -1140 
Q 1353 -1331 966 -1331 
L 506 -1331 
L 506 -850 
L 844 -850 
Q 1081 -850 1212 -737 
Q 1344 -625 1503 -206 
L 1606 56 
L 191 3500 
L 800 3500 
L 1894 763 
L 2988 3500 
L 3597 3500 
L 2059 -325 
z
" transform="scale(0.015625)"/>
      </defs>
      <use xlink:href="#DejaVuSans-54"/>
      <use xlink:href="#DejaVuSans-72" x="46.333984"/>
      <use xlink:href="#DejaVuSans-75" x="87.447266"/>
      <use xlink:href="#DejaVuSans-65" x="150.826172"/>
      <use xlink:href="#DejaVuSans-20" x="212.349609"/>
      <use xlink:href="#DejaVuSans-54" x="244.136719"/>
      <use xlink:href="#DejaVuSans-72" x="290.470703"/>
      <use xlink:href="#DejaVuSans-61" x="331.583984"/>
      <use xlink:href="#DejaVuSans-6a" x="392.863281"/>
      <use xlink:href="#DejaVuSans-65" x="420.646484"/>
      <use xlink:href="#DejaVuSans-63" x="482.169922"/>
      <use xlink:href="#DejaVuSans-74" x="537.150391"/>
      <use xlink:href="#DejaVuSans-6f" x="576.359375"/>
      <use xlink:href="#DejaVuSans-72" x="637.541016"/>
      <use xlink:href="#DejaVuSans-79" x="678.654297"/>
     </g>
    </g>
    <g id="line2d_24">
     <path d="M 197.758187 69.248563 
L 207.758187 69.248563 
L 217.758187 69.248563 
" style="fill: none; stroke: #008000; stroke-width: 1.5; stroke-linecap: square"/>
    </g>
    <g id="text_21">
     <!-- Predicted Trajectory (Train) -->
     <g transform="translate(225.758187 72.748563)scale(0.1 -0.1)">
      <defs>
       <path id="DejaVuSans-50" d="M 1259 4147 
L 1259 2394 
L 2053 2394 
Q 2494 2394 2734 2622 
Q 2975 2850 2975 3272 
Q 2975 3691 2734 3919 
Q 2494 4147 2053 4147 
L 1259 4147 
z
M 628 4666 
L 2053 4666 
Q 2838 4666 3239 4311 
Q 3641 3956 3641 3272 
Q 3641 2581 3239 2228 
Q 2838 1875 2053 1875 
L 1259 1875 
L 1259 0 
L 628 0 
L 628 4666 
z
" transform="scale(0.015625)"/>
      </defs>
      <use xlink:href="#DejaVuSans-50"/>
      <use xlink:href="#DejaVuSans-72" x="58.552734"/>
      <use xlink:href="#DejaVuSans-65" x="97.416016"/>
      <use xlink:href="#DejaVuSans-64" x="158.939453"/>
      <use xlink:href="#DejaVuSans-69" x="222.416016"/>
      <use xlink:href="#DejaVuSans-63" x="250.199219"/>
      <use xlink:href="#DejaVuSans-74" x="305.179688"/>
      <use xlink:href="#DejaVuSans-65" x="344.388672"/>
      <use xlink:href="#DejaVuSans-64" x="405.912109"/>
      <use xlink:href="#DejaVuSans-20" x="469.388672"/>
      <use xlink:href="#DejaVuSans-54" x="501.175781"/>
      <use xlink:href="#DejaVuSans-72" x="547.509766"/>
      <use xlink:href="#DejaVuSans-61" x="588.623047"/>
      <use xlink:href="#DejaVuSans-6a" x="649.902344"/>
      <use xlink:href="#DejaVuSans-65" x="677.685547"/>
      <use xlink:href="#DejaVuSans-63" x="739.208984"/>
      <use xlink:href="#DejaVuSans-74" x="794.189453"/>
      <use xlink:href="#DejaVuSans-6f" x="833.398438"/>
      <use xlink:href="#DejaVuSans-72" x="894.580078"/>
      <use xlink:href="#DejaVuSans-79" x="935.693359"/>
      <use xlink:href="#DejaVuSans-20" x="994.873047"/>
      <use xlink:href="#DejaVuSans-28" x="1026.660156"/>
      <use xlink:href="#DejaVuSans-54" x="1065.673828"/>
      <use xlink:href="#DejaVuSans-72" x="1112.007812"/>
      <use xlink:href="#DejaVuSans-61" x="1153.121094"/>
      <use xlink:href="#DejaVuSans-69" x="1214.400391"/>
      <use xlink:href="#DejaVuSans-6e" x="1242.183594"/>
      <use xlink:href="#DejaVuSans-29" x="1305.5625"/>
     </g>
    </g>
    <g id="line2d_25">
     <path d="M 197.758187 83.926688 
L 207.758187 83.926688 
L 217.758187 83.926688 
" style="fill: none; stroke: #ff0000; stroke-width: 1.5; stroke-linecap: square"/>
    </g>
    <g id="text_22">
     <!-- Predicted Trajectory (Test) -->
     <g transform="translate(225.758187 87.426688)scale(0.1 -0.1)">
      <defs>
       <path id="DejaVuSans-73" d="M 2834 3397 
L 2834 2853 
Q 2591 2978 2328 3040 
Q 2066 3103 1784 3103 
Q 1356 3103 1142 2972 
Q 928 2841 928 2578 
Q 928 2378 1081 2264 
Q 1234 2150 1697 2047 
L 1894 2003 
Q 2506 1872 2764 1633 
Q 3022 1394 3022 966 
Q 3022 478 2636 193 
Q 2250 -91 1575 -91 
Q 1294 -91 989 -36 
Q 684 19 347 128 
L 347 722 
Q 666 556 975 473 
Q 1284 391 1588 391 
Q 1994 391 2212 530 
Q 2431 669 2431 922 
Q 2431 1156 2273 1281 
Q 2116 1406 1581 1522 
L 1381 1569 
Q 847 1681 609 1914 
Q 372 2147 372 2553 
Q 372 3047 722 3315 
Q 1072 3584 1716 3584 
Q 2034 3584 2315 3537 
Q 2597 3491 2834 3397 
z
" transform="scale(0.015625)"/>
      </defs>
      <use xlink:href="#DejaVuSans-50"/>
      <use xlink:href="#DejaVuSans-72" x="58.552734"/>
      <use xlink:href="#DejaVuSans-65" x="97.416016"/>
      <use xlink:href="#DejaVuSans-64" x="158.939453"/>
      <use xlink:href="#DejaVuSans-69" x="222.416016"/>
      <use xlink:href="#DejaVuSans-63" x="250.199219"/>
      <use xlink:href="#DejaVuSans-74" x="305.179688"/>
      <use xlink:href="#DejaVuSans-65" x="344.388672"/>
      <use xlink:href="#DejaVuSans-64" x="405.912109"/>
      <use xlink:href="#DejaVuSans-20" x="469.388672"/>
      <use xlink:href="#DejaVuSans-54" x="501.175781"/>
      <use xlink:href="#DejaVuSans-72" x="547.509766"/>
      <use xlink:href="#DejaVuSans-61" x="588.623047"/>
      <use xlink:href="#DejaVuSans-6a" x="649.902344"/>
      <use xlink:href="#DejaVuSans-65" x="677.685547"/>
      <use xlink:href="#DejaVuSans-63" x="739.208984"/>
      <use xlink:href="#DejaVuSans-74" x="794.189453"/>
      <use xlink:href="#DejaVuSans-6f" x="833.398438"/>
      <use xlink:href="#DejaVuSans-72" x="894.580078"/>
      <use xlink:href="#DejaVuSans-79" x="935.693359"/>
      <use xlink:href="#DejaVuSans-20" x="994.873047"/>
      <use xlink:href="#DejaVuSans-28" x="1026.660156"/>
      <use xlink:href="#DejaVuSans-54" x="1065.673828"/>
      <use xlink:href="#DejaVuSans-65" x="1109.757812"/>
      <use xlink:href="#DejaVuSans-73" x="1171.28125"/>
      <use xlink:href="#DejaVuSans-74" x="1223.380859"/>
      <use xlink:href="#DejaVuSans-29" x="1262.589844"/>
     </g>
    </g>
   </g>
  </g>
 </g>
 <defs>
  <clipPath id="pb59704d671">
   <rect x="103.104" y="41.472" width="266.112" height="266.112"/>
  </clipPath>
 </defs>
</svg>
