<?xml version="1.0" encoding="utf-8" standalone="no"?>
<!DOCTYPE svg PUBLIC "-//W3C//DTD SVG 1.1//EN"
  "http://www.w3.org/Graphics/SVG/1.1/DTD/svg11.dtd">
<svg xmlns:xlink="http://www.w3.org/1999/xlink" width="460.8pt" height="345.6pt" viewBox="0 0 460.8 345.6" xmlns="http://www.w3.org/2000/svg" version="1.1">
 <metadata>
  <rdf:RDF xmlns:dc="http://purl.org/dc/elements/1.1/" xmlns:cc="http://creativecommons.org/ns#" xmlns:rdf="http://www.w3.org/1999/02/22-rdf-syntax-ns#">
   <cc:Work>
    <dc:type rdf:resource="http://purl.org/dc/dcmitype/StillImage"/>
    <dc:date>2024-03-16T22:20:53.866878</dc:date>
    <dc:format>image/svg+xml</dc:format>
    <dc:creator>
     <cc:Agent>
      <dc:title>Matplotlib v3.5.1, https://matplotlib.org/</dc:title>
     </cc:Agent>
    </dc:creator>
   </cc:Work>
  </rdf:RDF>
 </metadata>
 <defs>
  <style type="text/css">*{stroke-linejoin: round; stroke-linecap: butt}</style>
 </defs>
 <g id="figure_1">
  <g id="patch_1">
   <path d="M 0 345.6 
L 460.8 345.6 
L 460.8 0 
L 0 0 
z
" style="fill: #ffffff"/>
  </g>
  <g id="patch_2">
   <path d="M 103.104 307.584 
L 369.216 307.584 
L 369.216 41.472 
L 103.104 41.472 
z
" style="fill: #ffffff"/>
  </g>
  <g id="pane3d_1">
   <g id="patch_3">
    <path d="M 246.905841 146.481262 
L 357.754157 224.320762 
L 364.644131 124.649562 
L 247.295431 49.226477 
" style="fill: #f2f2f2; opacity: 0.5; stroke: #f2f2f2; stroke-linejoin: miter"/>
   </g>
  </g>
  <g id="pane3d_2">
   <g id="patch_4">
    <path d="M 246.905841 146.481262 
L 122.719914 214.304407 
L 115.945034 114.912886 
L 247.295431 49.226477 
" style="fill: #e6e6e6; opacity: 0.5; stroke: #e6e6e6; stroke-linejoin: miter"/>
   </g>
  </g>
  <g id="pane3d_3">
   <g id="patch_5">
    <path d="M 246.905841 146.481262 
L 122.719914 214.304407 
L 231.640671 301.937365 
L 357.754157 224.320762 
" style="fill: #ececec; opacity: 0.5; stroke: #ececec; stroke-linejoin: miter"/>
   </g>
  </g>
  <g id="axis3d_1">
   <g id="line2d_1">
    <path d="M 357.754157 224.320762 
L 231.640671 301.937365 
" style="fill: none; stroke: #000000; stroke-width: 0.8; stroke-linecap: square"/>
   </g>
   <g id="text_1">
    <!-- Longitude (°) -->
    <g transform="translate(290.78567 314.633249)rotate(-31.610239)scale(0.1 -0.1)">
     <defs>
      <path id="DejaVuSans-4c" d="M 628 4666 
L 1259 4666 
L 1259 531 
L 3531 531 
L 3531 0 
L 628 0 
L 628 4666 
z
" transform="scale(0.015625)"/>
      <path id="DejaVuSans-6f" d="M 1959 3097 
Q 1497 3097 1228 2736 
Q 959 2375 959 1747 
Q 959 1119 1226 758 
Q 1494 397 1959 397 
Q 2419 397 2687 759 
Q 2956 1122 2956 1747 
Q 2956 2369 2687 2733 
Q 2419 3097 1959 3097 
z
M 1959 3584 
Q 2709 3584 3137 3096 
Q 3566 2609 3566 1747 
Q 3566 888 3137 398 
Q 2709 -91 1959 -91 
Q 1206 -91 779 398 
Q 353 888 353 1747 
Q 353 2609 779 3096 
Q 1206 3584 1959 3584 
z
" transform="scale(0.015625)"/>
      <path id="DejaVuSans-6e" d="M 3513 2113 
L 3513 0 
L 2938 0 
L 2938 2094 
Q 2938 2591 2744 2837 
Q 2550 3084 2163 3084 
Q 1697 3084 1428 2787 
Q 1159 2491 1159 1978 
L 1159 0 
L 581 0 
L 581 3500 
L 1159 3500 
L 1159 2956 
Q 1366 3272 1645 3428 
Q 1925 3584 2291 3584 
Q 2894 3584 3203 3211 
Q 3513 2838 3513 2113 
z
" transform="scale(0.015625)"/>
      <path id="DejaVuSans-67" d="M 2906 1791 
Q 2906 2416 2648 2759 
Q 2391 3103 1925 3103 
Q 1463 3103 1205 2759 
Q 947 2416 947 1791 
Q 947 1169 1205 825 
Q 1463 481 1925 481 
Q 2391 481 2648 825 
Q 2906 1169 2906 1791 
z
M 3481 434 
Q 3481 -459 3084 -895 
Q 2688 -1331 1869 -1331 
Q 1566 -1331 1297 -1286 
Q 1028 -1241 775 -1147 
L 775 -588 
Q 1028 -725 1275 -790 
Q 1522 -856 1778 -856 
Q 2344 -856 2625 -561 
Q 2906 -266 2906 331 
L 2906 616 
Q 2728 306 2450 153 
Q 2172 0 1784 0 
Q 1141 0 747 490 
Q 353 981 353 1791 
Q 353 2603 747 3093 
Q 1141 3584 1784 3584 
Q 2172 3584 2450 3431 
Q 2728 3278 2906 2969 
L 2906 3500 
L 3481 3500 
L 3481 434 
z
" transform="scale(0.015625)"/>
      <path id="DejaVuSans-69" d="M 603 3500 
L 1178 3500 
L 1178 0 
L 603 0 
L 603 3500 
z
M 603 4863 
L 1178 4863 
L 1178 4134 
L 603 4134 
L 603 4863 
z
" transform="scale(0.015625)"/>
      <path id="DejaVuSans-74" d="M 1172 4494 
L 1172 3500 
L 2356 3500 
L 2356 3053 
L 1172 3053 
L 1172 1153 
Q 1172 725 1289 603 
Q 1406 481 1766 481 
L 2356 481 
L 2356 0 
L 1766 0 
Q 1100 0 847 248 
Q 594 497 594 1153 
L 594 3053 
L 172 3053 
L 172 3500 
L 594 3500 
L 594 4494 
L 1172 4494 
z
" transform="scale(0.015625)"/>
      <path id="DejaVuSans-75" d="M 544 1381 
L 544 3500 
L 1119 3500 
L 1119 1403 
Q 1119 906 1312 657 
Q 1506 409 1894 409 
Q 2359 409 2629 706 
Q 2900 1003 2900 1516 
L 2900 3500 
L 3475 3500 
L 3475 0 
L 2900 0 
L 2900 538 
Q 2691 219 2414 64 
Q 2138 -91 1772 -91 
Q 1169 -91 856 284 
Q 544 659 544 1381 
z
M 1991 3584 
L 1991 3584 
z
" transform="scale(0.015625)"/>
      <path id="DejaVuSans-64" d="M 2906 2969 
L 2906 4863 
L 3481 4863 
L 3481 0 
L 2906 0 
L 2906 525 
Q 2725 213 2448 61 
Q 2172 -91 1784 -91 
Q 1150 -91 751 415 
Q 353 922 353 1747 
Q 353 2572 751 3078 
Q 1150 3584 1784 3584 
Q 2172 3584 2448 3432 
Q 2725 3281 2906 2969 
z
M 947 1747 
Q 947 1113 1208 752 
Q 1469 391 1925 391 
Q 2381 391 2643 752 
Q 2906 1113 2906 1747 
Q 2906 2381 2643 2742 
Q 2381 3103 1925 3103 
Q 1469 3103 1208 2742 
Q 947 2381 947 1747 
z
" transform="scale(0.015625)"/>
      <path id="DejaVuSans-65" d="M 3597 1894 
L 3597 1613 
L 953 1613 
Q 991 1019 1311 708 
Q 1631 397 2203 397 
Q 2534 397 2845 478 
Q 3156 559 3463 722 
L 3463 178 
Q 3153 47 2828 -22 
Q 2503 -91 2169 -91 
Q 1331 -91 842 396 
Q 353 884 353 1716 
Q 353 2575 817 3079 
Q 1281 3584 2069 3584 
Q 2775 3584 3186 3129 
Q 3597 2675 3597 1894 
z
M 3022 2063 
Q 3016 2534 2758 2815 
Q 2500 3097 2075 3097 
Q 1594 3097 1305 2825 
Q 1016 2553 972 2059 
L 3022 2063 
z
" transform="scale(0.015625)"/>
      <path id="DejaVuSans-20" transform="scale(0.015625)"/>
      <path id="DejaVuSans-28" d="M 1984 4856 
Q 1566 4138 1362 3434 
Q 1159 2731 1159 2009 
Q 1159 1288 1364 580 
Q 1569 -128 1984 -844 
L 1484 -844 
Q 1016 -109 783 600 
Q 550 1309 550 2009 
Q 550 2706 781 3412 
Q 1013 4119 1484 4856 
L 1984 4856 
z
" transform="scale(0.015625)"/>
      <path id="DejaVuSans-b0" d="M 1600 4347 
Q 1350 4347 1178 4173 
Q 1006 4000 1006 3750 
Q 1006 3503 1178 3333 
Q 1350 3163 1600 3163 
Q 1850 3163 2022 3333 
Q 2194 3503 2194 3750 
Q 2194 3997 2020 4172 
Q 1847 4347 1600 4347 
z
M 1600 4750 
Q 1800 4750 1984 4673 
Q 2169 4597 2303 4453 
Q 2447 4313 2519 4134 
Q 2591 3956 2591 3750 
Q 2591 3338 2302 3052 
Q 2013 2766 1594 2766 
Q 1172 2766 890 3047 
Q 609 3328 609 3750 
Q 609 4169 896 4459 
Q 1184 4750 1600 4750 
z
" transform="scale(0.015625)"/>
      <path id="DejaVuSans-29" d="M 513 4856 
L 1013 4856 
Q 1481 4119 1714 3412 
Q 1947 2706 1947 2009 
Q 1947 1309 1714 600 
Q 1481 -109 1013 -844 
L 513 -844 
Q 928 -128 1133 580 
Q 1338 1288 1338 2009 
Q 1338 2731 1133 3434 
Q 928 4138 513 4856 
z
" transform="scale(0.015625)"/>
     </defs>
     <use xlink:href="#DejaVuSans-4c"/>
     <use xlink:href="#DejaVuSans-6f" x="53.962891"/>
     <use xlink:href="#DejaVuSans-6e" x="115.144531"/>
     <use xlink:href="#DejaVuSans-67" x="178.523438"/>
     <use xlink:href="#DejaVuSans-69" x="242"/>
     <use xlink:href="#DejaVuSans-74" x="269.783203"/>
     <use xlink:href="#DejaVuSans-75" x="308.992188"/>
     <use xlink:href="#DejaVuSans-64" x="372.371094"/>
     <use xlink:href="#DejaVuSans-65" x="435.847656"/>
     <use xlink:href="#DejaVuSans-20" x="497.371094"/>
     <use xlink:href="#DejaVuSans-28" x="529.158203"/>
     <use xlink:href="#DejaVuSans-b0" x="568.171875"/>
     <use xlink:href="#DejaVuSans-29" x="618.171875"/>
    </g>
   </g>
   <g id="Line3DCollection_1">
    <path d="M 355.165178 225.91415 
L 244.346442 147.879057 
L 244.596891 50.575977 
" style="fill: none; stroke: #b0b0b0; stroke-width: 0.8"/>
    <path d="M 328.919029 242.067354 
L 218.423881 162.036456 
L 217.244907 64.254304 
" style="fill: none; stroke: #b0b0b0; stroke-width: 0.8"/>
    <path d="M 301.974558 258.650342 
L 191.85644 176.54605 
L 189.174382 78.291962 
" style="fill: none; stroke: #b0b0b0; stroke-width: 0.8"/>
    <path d="M 274.303519 275.680495 
L 164.619751 191.421149 
L 160.356625 92.7033 
" style="fill: none; stroke: #b0b0b0; stroke-width: 0.8"/>
    <path d="M 245.876122 293.17615 
L 136.688203 206.675739 
L 130.761398 107.50344 
" style="fill: none; stroke: #b0b0b0; stroke-width: 0.8"/>
   </g>
   <g id="xtick_1">
    <g id="line2d_2">
     <path d="M 354.219104 225.247955 
L 357.060403 227.248709 
" style="fill: none; stroke: #000000; stroke-width: 0.8; stroke-linecap: square"/>
    </g>
    <g id="text_2">
     <!-- 6.5 -->
     <g transform="translate(356.511854 248.257648)scale(0.1 -0.1)">
      <defs>
       <path id="DejaVuSans-36" d="M 2113 2584 
Q 1688 2584 1439 2293 
Q 1191 2003 1191 1497 
Q 1191 994 1439 701 
Q 1688 409 2113 409 
Q 2538 409 2786 701 
Q 3034 994 3034 1497 
Q 3034 2003 2786 2293 
Q 2538 2584 2113 2584 
z
M 3366 4563 
L 3366 3988 
Q 3128 4100 2886 4159 
Q 2644 4219 2406 4219 
Q 1781 4219 1451 3797 
Q 1122 3375 1075 2522 
Q 1259 2794 1537 2939 
Q 1816 3084 2150 3084 
Q 2853 3084 3261 2657 
Q 3669 2231 3669 1497 
Q 3669 778 3244 343 
Q 2819 -91 2113 -91 
Q 1303 -91 875 529 
Q 447 1150 447 2328 
Q 447 3434 972 4092 
Q 1497 4750 2381 4750 
Q 2619 4750 2861 4703 
Q 3103 4656 3366 4563 
z
" transform="scale(0.015625)"/>
       <path id="DejaVuSans-2e" d="M 684 794 
L 1344 794 
L 1344 0 
L 684 0 
L 684 794 
z
" transform="scale(0.015625)"/>
       <path id="DejaVuSans-35" d="M 691 4666 
L 3169 4666 
L 3169 4134 
L 1269 4134 
L 1269 2991 
Q 1406 3038 1543 3061 
Q 1681 3084 1819 3084 
Q 2600 3084 3056 2656 
Q 3513 2228 3513 1497 
Q 3513 744 3044 326 
Q 2575 -91 1722 -91 
Q 1428 -91 1123 -41 
Q 819 9 494 109 
L 494 744 
Q 775 591 1075 516 
Q 1375 441 1709 441 
Q 2250 441 2565 725 
Q 2881 1009 2881 1497 
Q 2881 1984 2565 2268 
Q 2250 2553 1709 2553 
Q 1456 2553 1204 2497 
Q 953 2441 691 2322 
L 691 4666 
z
" transform="scale(0.015625)"/>
      </defs>
      <use xlink:href="#DejaVuSans-36"/>
      <use xlink:href="#DejaVuSans-2e" x="63.623047"/>
      <use xlink:href="#DejaVuSans-35" x="95.410156"/>
     </g>
    </g>
   </g>
   <g id="xtick_2">
    <g id="line2d_3">
     <path d="M 327.97494 241.383557 
L 330.810321 243.437204 
" style="fill: none; stroke: #000000; stroke-width: 0.8; stroke-linecap: square"/>
    </g>
    <g id="text_3">
     <!-- 7.0 -->
     <g transform="translate(330.360348 264.6216)scale(0.1 -0.1)">
      <defs>
       <path id="DejaVuSans-37" d="M 525 4666 
L 3525 4666 
L 3525 4397 
L 1831 0 
L 1172 0 
L 2766 4134 
L 525 4134 
L 525 4666 
z
" transform="scale(0.015625)"/>
       <path id="DejaVuSans-30" d="M 2034 4250 
Q 1547 4250 1301 3770 
Q 1056 3291 1056 2328 
Q 1056 1369 1301 889 
Q 1547 409 2034 409 
Q 2525 409 2770 889 
Q 3016 1369 3016 2328 
Q 3016 3291 2770 3770 
Q 2525 4250 2034 4250 
z
M 2034 4750 
Q 2819 4750 3233 4129 
Q 3647 3509 3647 2328 
Q 3647 1150 3233 529 
Q 2819 -91 2034 -91 
Q 1250 -91 836 529 
Q 422 1150 422 2328 
Q 422 3509 836 4129 
Q 1250 4750 2034 4750 
z
" transform="scale(0.015625)"/>
      </defs>
      <use xlink:href="#DejaVuSans-37"/>
      <use xlink:href="#DejaVuSans-2e" x="63.623047"/>
      <use xlink:href="#DejaVuSans-30" x="95.410156"/>
     </g>
    </g>
   </g>
   <g id="xtick_3">
    <g id="line2d_4">
     <path d="M 301.032893 257.948234 
L 303.861034 260.056902 
" style="fill: none; stroke: #000000; stroke-width: 0.8; stroke-linecap: square"/>
    </g>
    <g id="text_4">
     <!-- 7.5 -->
     <g transform="translate(303.512297 281.421406)scale(0.1 -0.1)">
      <use xlink:href="#DejaVuSans-37"/>
      <use xlink:href="#DejaVuSans-2e" x="63.623047"/>
      <use xlink:href="#DejaVuSans-35" x="95.410156"/>
     </g>
    </g>
   </g>
   <g id="xtick_4">
    <g id="line2d_5">
     <path d="M 273.364753 274.959333 
L 276.184229 277.125261 
" style="fill: none; stroke: #000000; stroke-width: 0.8; stroke-linecap: square"/>
    </g>
    <g id="text_5">
     <!-- 8.0 -->
     <g transform="translate(275.939497 298.674713)scale(0.1 -0.1)">
      <defs>
       <path id="DejaVuSans-38" d="M 2034 2216 
Q 1584 2216 1326 1975 
Q 1069 1734 1069 1313 
Q 1069 891 1326 650 
Q 1584 409 2034 409 
Q 2484 409 2743 651 
Q 3003 894 3003 1313 
Q 3003 1734 2745 1975 
Q 2488 2216 2034 2216 
z
M 1403 2484 
Q 997 2584 770 2862 
Q 544 3141 544 3541 
Q 544 4100 942 4425 
Q 1341 4750 2034 4750 
Q 2731 4750 3128 4425 
Q 3525 4100 3525 3541 
Q 3525 3141 3298 2862 
Q 3072 2584 2669 2484 
Q 3125 2378 3379 2068 
Q 3634 1759 3634 1313 
Q 3634 634 3220 271 
Q 2806 -91 2034 -91 
Q 1263 -91 848 271 
Q 434 634 434 1313 
Q 434 1759 690 2068 
Q 947 2378 1403 2484 
z
M 1172 3481 
Q 1172 3119 1398 2916 
Q 1625 2713 2034 2713 
Q 2441 2713 2670 2916 
Q 2900 3119 2900 3481 
Q 2900 3844 2670 4047 
Q 2441 4250 2034 4250 
Q 1625 4250 1398 4047 
Q 1172 3844 1172 3481 
z
" transform="scale(0.015625)"/>
      </defs>
      <use xlink:href="#DejaVuSans-38"/>
      <use xlink:href="#DejaVuSans-2e" x="63.623047"/>
      <use xlink:href="#DejaVuSans-30" x="95.410156"/>
     </g>
    </g>
   </g>
   <g id="xtick_5">
    <g id="line2d_6">
     <path d="M 244.940766 292.435147 
L 247.750042 294.6607 
" style="fill: none; stroke: #000000; stroke-width: 0.8; stroke-linecap: square"/>
    </g>
    <g id="text_6">
     <!-- 8.5 -->
     <g transform="translate(247.612201 316.400137)scale(0.1 -0.1)">
      <use xlink:href="#DejaVuSans-38"/>
      <use xlink:href="#DejaVuSans-2e" x="63.623047"/>
      <use xlink:href="#DejaVuSans-35" x="95.410156"/>
     </g>
    </g>
   </g>
  </g>
  <g id="axis3d_2">
   <g id="line2d_7">
    <path d="M 122.719914 214.304407 
L 231.640671 301.937365 
" style="fill: none; stroke: #000000; stroke-width: 0.8; stroke-linecap: square"/>
   </g>
   <g id="text_7">
    <!-- Latitude (°) -->
    <g transform="translate(127.976062 271.837726)rotate(-321.18134)scale(0.1 -0.1)">
     <defs>
      <path id="DejaVuSans-61" d="M 2194 1759 
Q 1497 1759 1228 1600 
Q 959 1441 959 1056 
Q 959 750 1161 570 
Q 1363 391 1709 391 
Q 2188 391 2477 730 
Q 2766 1069 2766 1631 
L 2766 1759 
L 2194 1759 
z
M 3341 1997 
L 3341 0 
L 2766 0 
L 2766 531 
Q 2569 213 2275 61 
Q 1981 -91 1556 -91 
Q 1019 -91 701 211 
Q 384 513 384 1019 
Q 384 1609 779 1909 
Q 1175 2209 1959 2209 
L 2766 2209 
L 2766 2266 
Q 2766 2663 2505 2880 
Q 2244 3097 1772 3097 
Q 1472 3097 1187 3025 
Q 903 2953 641 2809 
L 641 3341 
Q 956 3463 1253 3523 
Q 1550 3584 1831 3584 
Q 2591 3584 2966 3190 
Q 3341 2797 3341 1997 
z
" transform="scale(0.015625)"/>
     </defs>
     <use xlink:href="#DejaVuSans-4c"/>
     <use xlink:href="#DejaVuSans-61" x="55.712891"/>
     <use xlink:href="#DejaVuSans-74" x="116.992188"/>
     <use xlink:href="#DejaVuSans-69" x="156.201172"/>
     <use xlink:href="#DejaVuSans-74" x="183.984375"/>
     <use xlink:href="#DejaVuSans-75" x="223.193359"/>
     <use xlink:href="#DejaVuSans-64" x="286.572266"/>
     <use xlink:href="#DejaVuSans-65" x="350.048828"/>
     <use xlink:href="#DejaVuSans-20" x="411.572266"/>
     <use xlink:href="#DejaVuSans-28" x="443.359375"/>
     <use xlink:href="#DejaVuSans-b0" x="482.373047"/>
     <use xlink:href="#DejaVuSans-29" x="532.373047"/>
    </g>
   </g>
   <g id="Line3DCollection_2">
    <path d="M 258.681543 56.544629 
L 257.697143 154.059091 
L 133.285404 222.804946 
" style="fill: none; stroke: #b0b0b0; stroke-width: 0.8"/>
    <path d="M 276.451651 67.965943 
L 274.523479 165.874819 
L 149.776017 236.072584 
" style="fill: none; stroke: #b0b0b0; stroke-width: 0.8"/>
    <path d="M 294.608499 79.635826 
L 291.696574 177.934047 
L 166.627077 249.630222 
" style="fill: none; stroke: #b0b0b0; stroke-width: 0.8"/>
    <path d="M 313.16485 91.562479 
L 309.227259 190.244381 
L 183.850533 263.487474 
" style="fill: none; stroke: #b0b0b0; stroke-width: 0.8"/>
    <path d="M 332.134037 103.754473 
L 327.126821 202.813746 
L 201.458868 277.654383 
" style="fill: none; stroke: #b0b0b0; stroke-width: 0.8"/>
    <path d="M 351.529992 116.220762 
L 345.407026 215.650405 
L 219.465127 292.141446 
" style="fill: none; stroke: #b0b0b0; stroke-width: 0.8"/>
   </g>
   <g id="xtick_6">
    <g id="line2d_8">
     <path d="M 134.339258 222.222621 
L 131.174692 223.971256 
" style="fill: none; stroke: #000000; stroke-width: 0.8; stroke-linecap: square"/>
    </g>
    <g id="text_8">
     <!-- 46 -->
     <g transform="translate(116.470691 244.261771)scale(0.1 -0.1)">
      <defs>
       <path id="DejaVuSans-34" d="M 2419 4116 
L 825 1625 
L 2419 1625 
L 2419 4116 
z
M 2253 4666 
L 3047 4666 
L 3047 1625 
L 3713 1625 
L 3713 1100 
L 3047 1100 
L 3047 0 
L 2419 0 
L 2419 1100 
L 313 1100 
L 313 1709 
L 2253 4666 
z
" transform="scale(0.015625)"/>
      </defs>
      <use xlink:href="#DejaVuSans-34"/>
      <use xlink:href="#DejaVuSans-36" x="63.623047"/>
     </g>
    </g>
   </g>
   <g id="xtick_7">
    <g id="line2d_9">
     <path d="M 150.833349 235.477603 
L 147.658306 237.26426 
" style="fill: none; stroke: #000000; stroke-width: 0.8; stroke-linecap: square"/>
    </g>
    <g id="text_9">
     <!-- 47 -->
     <g transform="translate(132.854131 257.683999)scale(0.1 -0.1)">
      <use xlink:href="#DejaVuSans-34"/>
      <use xlink:href="#DejaVuSans-37" x="63.623047"/>
     </g>
    </g>
   </g>
   <g id="xtick_8">
    <g id="line2d_10">
     <path d="M 167.687788 249.022169 
L 164.502564 250.848101 
" style="fill: none; stroke: #000000; stroke-width: 0.8; stroke-linecap: square"/>
    </g>
    <g id="text_10">
     <!-- 48 -->
     <g transform="translate(149.595805 271.399712)scale(0.1 -0.1)">
      <use xlink:href="#DejaVuSans-34"/>
      <use xlink:href="#DejaVuSans-38" x="63.623047"/>
     </g>
    </g>
   </g>
   <g id="xtick_9">
    <g id="line2d_11">
     <path d="M 184.914516 262.865912 
L 181.719433 264.732429 
" style="fill: none; stroke: #000000; stroke-width: 0.8; stroke-linecap: square"/>
    </g>
    <g id="text_11">
     <!-- 49 -->
     <g transform="translate(166.707592 285.418642)scale(0.1 -0.1)">
      <defs>
       <path id="DejaVuSans-39" d="M 703 97 
L 703 672 
Q 941 559 1184 500 
Q 1428 441 1663 441 
Q 2288 441 2617 861 
Q 2947 1281 2994 2138 
Q 2813 1869 2534 1725 
Q 2256 1581 1919 1581 
Q 1219 1581 811 2004 
Q 403 2428 403 3163 
Q 403 3881 828 4315 
Q 1253 4750 1959 4750 
Q 2769 4750 3195 4129 
Q 3622 3509 3622 2328 
Q 3622 1225 3098 567 
Q 2575 -91 1691 -91 
Q 1453 -91 1209 -44 
Q 966 3 703 97 
z
M 1959 2075 
Q 2384 2075 2632 2365 
Q 2881 2656 2881 3163 
Q 2881 3666 2632 3958 
Q 2384 4250 1959 4250 
Q 1534 4250 1286 3958 
Q 1038 3666 1038 3163 
Q 1038 2656 1286 2365 
Q 1534 2075 1959 2075 
z
" transform="scale(0.015625)"/>
      </defs>
      <use xlink:href="#DejaVuSans-34"/>
      <use xlink:href="#DejaVuSans-39" x="63.623047"/>
     </g>
    </g>
   </g>
   <g id="xtick_10">
    <g id="line2d_12">
     <path d="M 202.526005 277.018858 
L 199.321415 278.927328 
" style="fill: none; stroke: #000000; stroke-width: 0.8; stroke-linecap: square"/>
    </g>
    <g id="text_12">
     <!-- 50 -->
     <g transform="translate(184.201903 299.750957)scale(0.1 -0.1)">
      <use xlink:href="#DejaVuSans-35"/>
      <use xlink:href="#DejaVuSans-30" x="63.623047"/>
     </g>
    </g>
   </g>
   <g id="xtick_11">
    <g id="line2d_13">
     <path d="M 220.53529 291.49148 
L 217.321579 293.443334 
" style="fill: none; stroke: #000000; stroke-width: 0.8; stroke-linecap: square"/>
    </g>
    <g id="text_13">
     <!-- 51 -->
     <g transform="translate(202.091709 314.407284)scale(0.1 -0.1)">
      <defs>
       <path id="DejaVuSans-31" d="M 794 531 
L 1825 531 
L 1825 4091 
L 703 3866 
L 703 4441 
L 1819 4666 
L 2450 4666 
L 2450 531 
L 3481 531 
L 3481 0 
L 794 0 
L 794 531 
z
" transform="scale(0.015625)"/>
      </defs>
      <use xlink:href="#DejaVuSans-35"/>
      <use xlink:href="#DejaVuSans-31" x="63.623047"/>
     </g>
    </g>
   </g>
  </g>
  <g id="axis3d_3">
   <g id="line2d_14">
    <path d="M 122.719914 214.304407 
L 115.945034 114.912886 
" style="fill: none; stroke: #000000; stroke-width: 0.8; stroke-linecap: square"/>
   </g>
   <g id="text_14">
    <!-- GeoAltitude (m) -->
    <g transform="translate(70.799356 124.610528)rotate(-273.899453)scale(0.1 -0.1)">
     <defs>
      <path id="DejaVuSans-47" d="M 3809 666 
L 3809 1919 
L 2778 1919 
L 2778 2438 
L 4434 2438 
L 4434 434 
Q 4069 175 3628 42 
Q 3188 -91 2688 -91 
Q 1594 -91 976 548 
Q 359 1188 359 2328 
Q 359 3472 976 4111 
Q 1594 4750 2688 4750 
Q 3144 4750 3555 4637 
Q 3966 4525 4313 4306 
L 4313 3634 
Q 3963 3931 3569 4081 
Q 3175 4231 2741 4231 
Q 1884 4231 1454 3753 
Q 1025 3275 1025 2328 
Q 1025 1384 1454 906 
Q 1884 428 2741 428 
Q 3075 428 3337 486 
Q 3600 544 3809 666 
z
" transform="scale(0.015625)"/>
      <path id="DejaVuSans-41" d="M 2188 4044 
L 1331 1722 
L 3047 1722 
L 2188 4044 
z
M 1831 4666 
L 2547 4666 
L 4325 0 
L 3669 0 
L 3244 1197 
L 1141 1197 
L 716 0 
L 50 0 
L 1831 4666 
z
" transform="scale(0.015625)"/>
      <path id="DejaVuSans-6c" d="M 603 4863 
L 1178 4863 
L 1178 0 
L 603 0 
L 603 4863 
z
" transform="scale(0.015625)"/>
      <path id="DejaVuSans-6d" d="M 3328 2828 
Q 3544 3216 3844 3400 
Q 4144 3584 4550 3584 
Q 5097 3584 5394 3201 
Q 5691 2819 5691 2113 
L 5691 0 
L 5113 0 
L 5113 2094 
Q 5113 2597 4934 2840 
Q 4756 3084 4391 3084 
Q 3944 3084 3684 2787 
Q 3425 2491 3425 1978 
L 3425 0 
L 2847 0 
L 2847 2094 
Q 2847 2600 2669 2842 
Q 2491 3084 2119 3084 
Q 1678 3084 1418 2786 
Q 1159 2488 1159 1978 
L 1159 0 
L 581 0 
L 581 3500 
L 1159 3500 
L 1159 2956 
Q 1356 3278 1631 3431 
Q 1906 3584 2284 3584 
Q 2666 3584 2933 3390 
Q 3200 3197 3328 2828 
z
" transform="scale(0.015625)"/>
     </defs>
     <use xlink:href="#DejaVuSans-47"/>
     <use xlink:href="#DejaVuSans-65" x="77.490234"/>
     <use xlink:href="#DejaVuSans-6f" x="139.013672"/>
     <use xlink:href="#DejaVuSans-41" x="200.195312"/>
     <use xlink:href="#DejaVuSans-6c" x="268.603516"/>
     <use xlink:href="#DejaVuSans-74" x="296.386719"/>
     <use xlink:href="#DejaVuSans-69" x="335.595703"/>
     <use xlink:href="#DejaVuSans-74" x="363.378906"/>
     <use xlink:href="#DejaVuSans-75" x="402.587891"/>
     <use xlink:href="#DejaVuSans-64" x="465.966797"/>
     <use xlink:href="#DejaVuSans-65" x="529.443359"/>
     <use xlink:href="#DejaVuSans-20" x="590.966797"/>
     <use xlink:href="#DejaVuSans-28" x="622.753906"/>
     <use xlink:href="#DejaVuSans-6d" x="661.767578"/>
     <use xlink:href="#DejaVuSans-29" x="759.179688"/>
    </g>
   </g>
   <g id="Line3DCollection_3">
    <path d="M 121.867772 201.802971 
L 246.954982 134.214148 
L 358.620415 211.789362 
" style="fill: none; stroke: #b0b0b0; stroke-width: 0.8"/>
    <path d="M 120.780574 185.853124 
L 247.017619 118.577679 
L 359.725774 195.799109 
" style="fill: none; stroke: #b0b0b0; stroke-width: 0.8"/>
    <path d="M 119.673136 169.606352 
L 247.081357 102.666714 
L 360.851884 179.508667 
" style="fill: none; stroke: #b0b0b0; stroke-width: 0.8"/>
    <path d="M 118.544888 153.054284 
L 247.146223 86.473962 
L 361.999335 162.909504 
" style="fill: none; stroke: #b0b0b0; stroke-width: 0.8"/>
    <path d="M 117.395238 136.188234 
L 247.212248 69.991869 
L 363.168739 145.992757 
" style="fill: none; stroke: #b0b0b0; stroke-width: 0.8"/>
    <path d="M 116.22357 118.999182 
L 247.279463 53.212612 
L 364.360733 128.749227 
" style="fill: none; stroke: #b0b0b0; stroke-width: 0.8"/>
   </g>
   <g id="xtick_12">
    <g id="line2d_15">
     <path d="M 122.927365 201.230437 
L 119.745564 202.949671 
" style="fill: none; stroke: #000000; stroke-width: 0.8; stroke-linecap: square"/>
    </g>
    <g id="text_15">
     <!-- 2000 -->
     <g transform="translate(89.67335 208.580174)scale(0.1 -0.1)">
      <defs>
       <path id="DejaVuSans-32" d="M 1228 531 
L 3431 531 
L 3431 0 
L 469 0 
L 469 531 
Q 828 903 1448 1529 
Q 2069 2156 2228 2338 
Q 2531 2678 2651 2914 
Q 2772 3150 2772 3378 
Q 2772 3750 2511 3984 
Q 2250 4219 1831 4219 
Q 1534 4219 1204 4116 
Q 875 4013 500 3803 
L 500 4441 
Q 881 4594 1212 4672 
Q 1544 4750 1819 4750 
Q 2544 4750 2975 4387 
Q 3406 4025 3406 3419 
Q 3406 3131 3298 2873 
Q 3191 2616 2906 2266 
Q 2828 2175 2409 1742 
Q 1991 1309 1228 531 
z
" transform="scale(0.015625)"/>
      </defs>
      <use xlink:href="#DejaVuSans-32"/>
      <use xlink:href="#DejaVuSans-30" x="63.623047"/>
      <use xlink:href="#DejaVuSans-30" x="127.246094"/>
      <use xlink:href="#DejaVuSans-30" x="190.869141"/>
     </g>
    </g>
   </g>
   <g id="xtick_13">
    <g id="line2d_16">
     <path d="M 121.850455 185.282953 
L 118.637732 186.995108 
" style="fill: none; stroke: #000000; stroke-width: 0.8; stroke-linecap: square"/>
    </g>
    <g id="text_16">
     <!-- 4000 -->
     <g transform="translate(88.40747 192.633718)scale(0.1 -0.1)">
      <use xlink:href="#DejaVuSans-34"/>
      <use xlink:href="#DejaVuSans-30" x="63.623047"/>
      <use xlink:href="#DejaVuSans-30" x="127.246094"/>
      <use xlink:href="#DejaVuSans-30" x="190.869141"/>
     </g>
    </g>
   </g>
   <g id="xtick_14">
    <g id="line2d_17">
     <path d="M 120.753506 169.038731 
L 117.509256 170.743243 
" style="fill: none; stroke: #000000; stroke-width: 0.8; stroke-linecap: square"/>
    </g>
    <g id="text_17">
     <!-- 6000 -->
     <g transform="translate(87.11804 176.390605)scale(0.1 -0.1)">
      <use xlink:href="#DejaVuSans-36"/>
      <use xlink:href="#DejaVuSans-30" x="63.623047"/>
      <use xlink:href="#DejaVuSans-30" x="127.246094"/>
      <use xlink:href="#DejaVuSans-30" x="190.869141"/>
     </g>
    </g>
   </g>
   <g id="xtick_15">
    <g id="line2d_18">
     <path d="M 119.635954 152.48941 
L 116.359555 154.185689 
" style="fill: none; stroke: #000000; stroke-width: 0.8; stroke-linecap: square"/>
    </g>
    <g id="text_18">
     <!-- 8000 -->
     <g transform="translate(85.804397 159.842479)scale(0.1 -0.1)">
      <use xlink:href="#DejaVuSans-38"/>
      <use xlink:href="#DejaVuSans-30" x="63.623047"/>
      <use xlink:href="#DejaVuSans-30" x="127.246094"/>
      <use xlink:href="#DejaVuSans-30" x="190.869141"/>
     </g>
    </g>
   </g>
   <g id="xtick_16">
    <g id="line2d_19">
     <path d="M 118.497214 135.626313 
L 115.188023 137.313738 
" style="fill: none; stroke: #000000; stroke-width: 0.8; stroke-linecap: square"/>
    </g>
    <g id="text_19">
     <!-- 10000 -->
     <g transform="translate(81.284603 142.980668)scale(0.1 -0.1)">
      <use xlink:href="#DejaVuSans-31"/>
      <use xlink:href="#DejaVuSans-30" x="63.623047"/>
      <use xlink:href="#DejaVuSans-30" x="127.246094"/>
      <use xlink:href="#DejaVuSans-30" x="190.869141"/>
      <use xlink:href="#DejaVuSans-30" x="254.492188"/>
     </g>
    </g>
   </g>
   <g id="xtick_17">
    <g id="line2d_20">
     <path d="M 117.336676 118.440432 
L 113.994032 120.118351 
" style="fill: none; stroke: #000000; stroke-width: 0.8; stroke-linecap: square"/>
    </g>
    <g id="text_20">
     <!-- 12000 -->
     <g transform="translate(79.920443 125.796166)scale(0.1 -0.1)">
      <use xlink:href="#DejaVuSans-31"/>
      <use xlink:href="#DejaVuSans-32" x="63.623047"/>
      <use xlink:href="#DejaVuSans-30" x="127.246094"/>
      <use xlink:href="#DejaVuSans-30" x="190.869141"/>
      <use xlink:href="#DejaVuSans-30" x="254.492188"/>
     </g>
    </g>
   </g>
  </g>
  <g id="axes_1">
   <g id="line2d_21">
    <path d="M 336.768933 225.467425 
L 337.335295 224.230738 
L 339.351616 220.75787 
L 339.81908 219.407454 
L 340.068625 217.212983 
L 340.059725 217.259826 
L 339.998728 216.3987 
L 339.879474 215.42764 
L 339.821845 215.172422 
L 339.574737 213.72791 
L 339.534952 213.664284 
L 339.341612 212.630632 
L 339.319977 212.567677 
L 338.872823 211.448247 
L 338.841241 211.514303 
L 338.714902 211.180297 
L 338.507 210.929786 
L 338.351932 210.853105 
L 338.202069 210.717238 
L 337.46931 210.032673 
L 337.27716 209.87141 
L 337.058767 209.672375 
L 337.010176 209.752194 
L 336.981507 209.647013 
L 336.92261 209.496307 
L 336.852474 209.588641 
L 336.531945 209.384337 
L 335.179109 209.003734 
L 335.022718 208.975109 
L 333.867632 208.79576 
L 333.831342 208.64246 
L 333.74518 208.69968 
L 333.54936 208.644233 
L 333.322226 208.54981 
L 333.139186 208.540898 
L 332.980643 208.404755 
L 332.640814 208.203572 
L 332.637533 208.264433 
L 332.57218 208.128985 
L 331.540784 207.594981 
L 331.162543 207.2359 
L 331.004954 207.219553 
L 330.618073 206.922949 
L 330.614855 206.984017 
L 330.573482 206.891706 
L 330.508492 206.936752 
L 330.410179 206.698102 
L 330.36142 206.72728 
L 330.125774 206.578003 
L 330.06241 206.617403 
L 330.021345 206.523545 
L 329.839807 206.399784 
L 329.789989 206.489936 
L 329.718638 206.419529 
L 329.549002 206.401631 
L 329.446875 206.350688 
L 329.268965 206.33748 
L 329.166406 206.222959 
L 329.163234 206.284158 
L 329.039686 206.305515 
L 328.864879 206.176273 
L 328.672403 206.177013 
L 328.501612 206.159356 
L 328.498462 206.220597 
L 328.455857 206.127336 
L 328.39916 206.166993 
L 328.140407 206.144314 
L 327.89298 206.23713 
L 327.47476 206.261063 
L 327.066711 206.393937 
L 326.819735 206.422529 
L 326.371344 206.583106 
L 325.689528 206.759948 
L 325.372943 206.839874 
L 324.968912 206.96887 
L 324.915496 206.942307 
L 324.718356 207.058866 
L 324.530264 207.055423 
L 324.334373 207.179905 
L 324.115747 207.194543 
L 323.925469 207.307357 
L 323.674262 207.406337 
L 323.594563 207.331736 
L 323.38846 207.462101 
L 323.111536 207.572176 
L 323.114507 207.51074 
L 322.547495 207.557332 
L 322.40774 207.647146 
L 322.410688 207.585682 
L 322.262322 207.672315 
L 322.265264 207.610841 
L 322.012924 207.590938 
L 321.777538 207.671571 
L 321.780465 207.61007 
L 321.729294 207.585309 
L 321.66558 207.684187 
L 321.611227 207.593613 
L 321.296309 207.672195 
L 321.242926 207.585464 
L 321.154977 207.574727 
L 321.062061 207.692262 
L 321.015159 207.604994 
L 320.877177 207.626397 
L 320.069605 207.582626 
L 320.066736 207.644217 
L 320.003374 207.563411 
L 319.801027 207.632668 
L 319.633458 207.611551 
L 319.398753 207.514999 
L 319.203605 207.515251 
L 318.859868 207.490436 
L 318.497207 207.468503 
L 318.365934 207.432596 
L 317.962769 207.320125 
L 317.728464 207.282689 
L 317.509794 207.292599 
L 317.51258 207.230838 
L 317.423847 207.284655 
L 317.227345 207.289368 
L 316.705479 207.06305 
L 316.490239 207.138423 
L 316.38112 207.080562 
L 315.93282 207.057741 
L 315.838225 207.176076 
L 315.788666 207.08168 
L 315.333081 207.118581 
L 315.330369 207.180466 
L 315.271729 207.156161 
L 315.192547 207.208271 
L 315.138186 207.121025 
L 313.188323 206.918602 
L 313.140381 206.827258 
L 313.078903 206.864959 
L 312.755051 206.760145 
L 312.633789 206.837714 
L 312.395661 206.676387 
L 312.156993 206.765191 
L 311.90737 206.6756 
L 311.730732 206.718736 
L 311.588331 206.627503 
L 311.069978 206.700688 
L 310.97831 206.631219 
L 310.826867 206.728111 
L 310.663843 206.640131 
L 310.599592 206.740092 
L 309.785831 206.693178 
L 309.783304 206.755401 
L 309.695631 206.688135 
L 309.50155 206.619634 
L 309.357652 206.710588 
L 308.953962 206.774205 
L 308.795597 206.744144 
L 308.749386 206.716248 
L 308.64856 206.838064 
L 308.579769 206.7538 
L 308.266856 206.887445 
L 308.080713 206.814004 
L 307.861753 206.890276 
L 307.768891 206.820505 
L 307.700235 206.923138 
L 307.705146 206.79849 
L 307.645657 206.774038 
L 307.64075 206.898696 
L 307.579444 206.814351 
L 306.96775 206.819972 
L 306.908763 206.673183 
L 306.74435 206.777771 
L 306.746774 206.715384 
L 306.158297 206.579689 
L 306.009603 206.491693 
L 305.85213 206.521312 
L 305.575782 206.384098 
L 305.573398 206.446574 
L 305.358929 206.459083 
L 305.175809 206.382811 
L 304.809561 206.177093 
L 304.804845 206.302149 
L 304.744991 206.277598 
L 304.346519 206.151551 
L 304.344176 206.214111 
L 304.129846 206.165315 
L 303.884667 206.068639 
L 303.88234 206.131227 
L 303.789216 206.122358 
L 303.573337 206.135807 
L 303.319805 206.161846 
L 303.262001 206.074571 
L 303.192984 206.177606 
L 303.13884 206.092952 
L 302.856097 206.141107 
L 302.858389 206.07846 
L 302.761739 206.13728 
L 302.541548 206.082618 
L 302.067256 206.250787 
L 301.916279 206.215176 
L 301.691767 206.232501 
L 301.463427 206.304957 
L 301.406426 206.221443 
L 301.339179 206.323627 
L 300.611076 206.268271 
L 300.541122 206.370963 
L 300.352957 206.297513 
L 300.028585 206.362369 
L 299.411581 206.345807 
L 299.180209 206.411077 
L 298.893456 206.326244 
L 298.791712 206.314894 
L 298.682407 206.439163 
L 298.623098 206.348767 
L 298.40851 206.281494 
L 298.04158 206.343606 
L 298.043705 206.280724 
L 297.978147 206.314706 
L 297.879504 206.24573 
L 297.745101 206.315809 
L 297.264969 206.248707 
L 297.262871 206.311628 
L 297.164012 206.293041 
L 296.057517 206.138669 
L 295.845432 206.227575 
L 295.594984 206.149232 
L 295.067723 205.996064 
L 294.862605 206.081268 
L 294.694525 206.021273 
L 294.500422 206.030092 
L 294.223429 205.949682 
L 294.167605 205.970881 
L 294.059132 205.881006 
L 293.830171 205.90286 
L 293.708865 205.822631 
L 293.569869 205.806687 
L 293.497135 205.710234 
L 293.495169 205.77334 
L 293.228074 205.68093 
L 293.226118 205.744047 
L 293.172827 205.700919 
L 291.327358 204.953869 
L 291.32547 205.017089 
L 291.299836 204.891859 
L 291.233512 204.907922 
L 291.161813 204.926759 
L 290.860653 204.616727 
L 290.858781 204.679981 
L 290.760459 204.507175 
L 290.651672 204.464996 
L 290.398834 204.189401 
L 290.332629 204.198955 
L 290.184562 204.031623 
L 289.872892 203.641045 
L 289.816709 203.650273 
L 289.695762 203.477589 
L 289.619745 203.423601 
L 289.530576 203.182466 
L 289.470086 203.256138 
L 289.145946 202.802165 
L 289.10594 202.871701 
L 289.049502 202.813901 
L 288.907532 202.707742 
L 288.062447 202.015374 
L 288.02689 202.082585 
L 287.971019 201.961781 
L 287.708671 201.680581 
L 287.672972 201.747709 
L 287.613191 201.637583 
L 286.408539 200.604482 
L 286.347109 200.619586 
L 286.348822 200.555976 
L 285.761113 200.133107 
L 285.759421 200.196755 
L 285.740677 200.069922 
L 285.681332 200.143081 
L 285.364038 199.93755 
L 285.237722 199.886985 
L 285.08726 199.724463 
L 285.047422 199.794384 
L 285.006606 199.667403 
L 284.862937 199.68915 
L 284.783236 199.573668 
L 284.302504 199.324166 
L 283.918074 198.997054 
L 283.739011 199.026816 
L 283.609775 198.855846 
L 283.38665 198.697277 
L 283.241201 198.710669 
L 283.127006 198.605431 
L 282.973653 198.565125 
L 282.70353 198.345596 
L 281.619588 197.803215 
L 281.471056 197.695796 
L 281.388371 197.63917 
L 281.102209 197.426224 
L 280.939071 197.390195 
L 280.806335 197.345153 
L 280.503214 197.070391 
L 280.381181 197.017867 
L 280.210252 196.851515 
L 280.044299 196.88009 
L 279.796987 196.660425 
L 279.615988 196.617285 
L 279.617459 196.553294 
L 278.861793 196.08947 
L 278.637249 196.054794 
L 278.387999 195.834086 
L 277.762826 195.415997 
L 277.488949 195.390709 
L 277.46554 195.260555 
L 277.401942 195.335409 
L 276.592671 194.875136 
L 276.393342 194.836801 
L 276.158128 194.745921 
L 276.019823 194.697048 
L 274.585885 194.005233 
L 274.224375 193.797711 
L 274.130489 193.748486 
L 273.416892 193.269855 
L 273.415647 193.334178 
L 273.242163 193.101099 
L 273.113438 193.058795 
L 272.849775 192.833672 
L 272.787296 192.843425 
L 271.348735 191.698473 
L 271.202436 191.649062 
L 270.946351 191.428429 
L 270.906801 191.433939 
L 270.664886 191.213714 
L 270.623388 191.283168 
L 270.580627 191.159073 
L 270.517499 191.23224 
L 270.366945 191.062018 
L 269.935524 190.799566 
L 269.178971 190.319414 
L 268.826817 190.045149 
L 268.658159 190.076876 
L 268.466125 189.966609 
L 267.571045 189.574096 
L 267.3274 189.608358 
L 267.121389 189.446619 
L 267.039428 189.522895 
L 267.013449 189.46032 
L 266.690707 189.311326 
L 266.471662 189.275545 
L 262.473393 187.748693 
L 262.323155 187.840693 
L 262.169097 187.72819 
L 261.961056 187.756234 
L 261.754598 187.654449 
L 261.753779 187.719341 
L 261.652583 187.667972 
L 261.549054 187.553413 
L 261.363278 187.577866 
L 258.865235 186.422974 
L 258.487228 186.409147 
L 258.487926 186.344125 
L 258.402333 186.352683 
L 257.342215 185.978806 
L 257.235735 186.058322 
L 257.028276 185.890533 
L 256.96268 185.961714 
L 256.963322 185.89664 
L 256.898512 185.905173 
L 256.899151 185.840094 
L 256.670321 185.809795 
L 256.567392 185.821927 
L 256.568019 185.756838 
L 255.644194 185.427176 
L 255.541966 185.438603 
L 255.498867 185.315327 
L 255.458358 185.384984 
L 254.639158 185.104089 
L 254.444792 185.062445 
L 254.364626 185.011335 
L 253.492254 184.728542 
L 253.341455 184.748475 
L 252.954866 184.521574 
L 252.864003 184.464974 
L 252.569396 184.3556 
L 252.568917 184.420839 
L 252.493698 184.290492 
L 252.232118 184.111002 
L 252.042066 184.048291 
L 251.804837 183.853809 
L 250.392559 182.81635 
L 250.285336 182.727273 
L 249.174756 181.120918 
L 248.979552 180.73949 
L 248.942965 180.731056 
L 248.758269 180.343382 
L 248.757932 180.40887 
L 248.668316 180.326806 
L 248.322578 179.773161 
L 248.298663 179.832828 
L 248.24818 179.75292 
L 248.0325 179.433028 
L 248.032191 179.498558 
L 247.943258 179.275059 
L 247.91627 179.332232 
L 247.892915 179.194656 
L 247.872906 179.256886 
L 247.706072 178.949476 
L 247.572688 178.847125 
L 247.413626 178.539761 
L 247.390108 178.599487 
L 247.352972 178.456073 
L 247.261204 178.434428 
L 247.124696 178.199861 
L 247.040334 178.10981 
L 246.837354 177.792396 
L 246.802028 177.848918 
L 246.740505 177.765953 
L 246.604153 177.529874 
L 246.457773 177.42202 
L 246.191321 177.087577 
L 246.081835 176.991634 
L 245.90754 176.809615 
L 245.585543 176.459081 
L 245.509045 176.372816 
L 245.310621 176.185922 
L 245.185681 176.088646 
L 244.967708 175.83132 
L 244.740633 175.636299 
L 244.566343 175.45791 
L 244.352238 175.199688 
L 244.210628 175.093121 
L 244.005544 174.842391 
L 241.949349 174.071258 
L 241.859354 174.111168 
L 241.859433 174.045386 
L 240.642507 173.641404 
L 240.452833 173.457923 
L 240.331473 173.360311 
L 240.197018 173.193016 
L 239.980188 173.001544 
L 239.739303 172.73456 
L 239.407565 172.382996 
L 239.37244 172.43976 
L 239.345263 172.299664 
L 239.310794 172.356618 
L 239.120876 172.106455 
L 239.097205 172.166471 
L 239.061605 172.022153 
L 238.913707 171.914636 
L 238.362319 171.301423 
L 238.33886 171.361472 
L 238.265296 171.274019 
L 238.157875 171.111485 
L 238.002443 171.011855 
L 237.818671 170.754029 
L 237.657043 170.644127 
L 237.424472 170.379201 
L 237.15364 170.16925 
L 237.053873 170.010548 
L 237.053975 170.076508 
L 236.971904 169.994801 
L 236.796235 169.807026 
L 236.611812 169.557858 
L 236.611929 169.623849 
L 236.596561 169.618144 
L 236.4461 169.378475 
L 236.412245 169.434947 
L 236.388939 169.297232 
L 236.348318 169.352628 
L 236.167063 169.102357 
L 236.05273 169.070102 
L 235.914282 168.83398 
L 235.803382 168.804203 
L 235.665819 168.568642 
L 235.527868 168.530622 
L 235.389348 168.29435 
L 235.366003 168.354559 
L 235.329399 168.209586 
L 235.306367 168.269801 
L 235.158581 168.096568 
L 235.158754 168.16263 
L 235.056709 167.934785 
L 234.990194 167.985317 
L 234.85357 167.748809 
L 234.829771 167.808489 
L 234.795224 167.66676 
L 234.79541 167.732837 
L 234.611558 167.546643 
L 234.498026 167.448983 
L 234.272804 167.123281 
L 234.238005 167.175628 
L 234.206218 167.037292 
L 234.17105 167.094033 
L 233.999012 166.911253 
L 233.712572 166.766816 
L 233.56523 166.596094 
L 228.418731 165.01255 
L 227.939231 164.549522 
L 227.848139 164.457034 
L 227.556561 164.110675 
L 227.422988 164.008183 
L 221.625318 158.061733 
L 220.80933 157.764442 
L 220.643249 157.650762 
L 218.583657 157.065654 
L 217.781652 156.836527 
L 215.509432 156.184405 
L 215.401167 156.220899 
L 213.899887 155.728484 
L 213.443828 155.66061 
L 211.703792 155.163658 
L 211.674048 155.089063 
L 211.616177 155.138397 
L 210.467074 154.806265 
L 209.51365 154.596497 
L 209.204606 154.437798 
L 206.962862 153.799162 
L 206.593909 153.682268 
L 206.223264 153.512651 
L 204.387962 152.988268 
L 204.336279 153.038168 
L 204.282224 152.959352 
L 204.035037 152.819628 
L 203.865787 152.641431 
L 203.702704 152.523924 
L 203.704049 152.59029 
L 203.494088 152.269437 
L 203.495441 152.335826 
L 203.391962 152.173068 
L 203.35145 152.225404 
L 203.31758 152.150232 
L 203.298208 152.146813 
L 203.275626 152.141067 
L 203.12028 151.961248 
L 203.010824 151.864221 
L 202.868048 151.623848 
L 202.846336 151.684436 
L 202.726683 151.58391 
L 202.62004 151.418193 
L 202.487904 151.315285 
L 201.462617 150.41857 
L 201.297086 150.306813 
L 201.172363 150.204045 
L 200.912972 150.068701 
L 200.76063 149.949721 
L 200.456084 149.730652 
L 200.243323 149.666542 
L 200.154916 149.50872 
L 199.850967 149.355588 
L 199.693326 149.243679 
L 199.418384 149.096626 
L 199.281014 149.00063 
L 199.249947 149.058171 
L 199.234943 148.976426 
L 199.097961 148.871443 
L 199.061512 148.926883 
L 198.892785 148.744453 
L 198.868667 148.803303 
L 198.790028 148.724458 
L 198.379889 148.462158 
L 198.269603 148.364466 
L 197.815039 148.165737 
L 197.693474 148.064959 
L 197.695044 148.131511 
L 197.493732 148.005225 
L 197.101053 147.83125 
L 196.956151 147.715205 
L 196.448101 147.50148 
L 196.229732 147.367932 
L 195.843585 147.191031 
L 195.814884 147.11661 
L 195.737857 147.157934 
L 195.603085 147.054622 
L 195.495646 146.954923 
L 195.400093 146.995996 
L 195.319056 146.837661 
L 195.277965 146.895051 
L 195.136703 146.785605 
L 195.003257 146.690157 
L 194.956059 146.734136 
L 194.922428 146.593388 
L 194.906175 146.652483 
L 194.741207 146.537698 
L 194.590601 146.42887 
L 194.592286 146.495449 
L 194.178793 146.238917 
L 194.069642 146.143366 
L 193.796542 146.005135 
L 193.782304 145.923927 
L 193.699556 145.967377 
L 193.611825 145.941789 
L 193.499538 145.785784 
L 193.501264 145.85239 
L 193.160274 145.677527 
L 193.023186 145.571047 
L 192.69984 145.408985 
L 192.553404 145.311656 
L 190.564421 144.314291 
L 190.455048 144.358507 
L 190.297088 144.171662 
L 190.298932 144.238281 
L 190.186945 144.139397 
L 189.975262 144.141134 
L 189.747855 143.940942 
L 189.276461 143.737104 
L 189.121387 143.624538 
L 188.289128 143.314776 
L 188.177245 143.214821 
L 188.092359 143.254614 
L 188.064871 143.179754 
L 187.632657 142.985765 
L 187.526212 142.895948 
L 187.498649 142.946754 
L 185.821282 142.319023 
L 185.379948 142.189363 
L 181.766642 141.110792 
L 181.114889 140.915816 
L 179.412144 140.229598 
L 178.879858 139.718599 
L 178.78527 139.61494 
L 178.070867 138.97037 
L 177.97604 138.880069 
L 175.153978 136.259143 
L 174.792855 136.00904 
L 174.669055 135.837506 
L 174.648596 135.867981 
L 174.485139 135.731486 
L 174.394308 135.631401 
L 173.62864 134.950627 
L 173.454652 134.780848 
L 173.42921 134.83932 
L 173.404973 134.73948 
L 173.347118 134.753853 
L 173.07815 134.534615 
L 172.630354 134.13969 
L 171.829508 133.423342 
L 171.076659 132.756841 
L 170.795024 132.521793 
L 170.66496 132.388894 
L 170.485254 132.247616 
L 170.358654 132.054117 
L 170.341512 132.104639 
L 170.269944 132.0436 
L 170.154666 131.943998 
L 170.008565 131.816278 
L 169.846705 131.623819 
L 169.110013 130.990526 
L 168.946655 130.768069 
L 167.978873 129.929293 
L 166.064307 128.341583 
L 166.053106 128.397816 
L 165.841594 128.238712 
L 165.719272 128.080234 
L 165.236836 127.892491 
L 163.712393 127.434631 
L 161.222795 126.746693 
L 161.136477 126.792926 
L 161.17582 126.668162 
L 161.12079 126.712321 
L 160.991395 126.755724 
L 153.039859 124.718665 
L 152.982962 124.641032 
L 152.93795 124.685167 
L 152.534352 124.592022 
L 152.476287 124.514328 
L 152.410433 124.556368 
L 148.736975 123.636401 
L 147.240309 123.26326 
L 141.020729 121.684388 
L 138.809056 121.119871 
L 138.659153 121.081571 
L 136.801422 120.60694 
L 136.68313 120.641967 
L 131.874243 119.403199 
L 131.874243 119.403199 
" clip-path="url(#pe41b5e394f)" style="fill: none; stroke: #0000ff; stroke-width: 1.5; stroke-linecap: square"/>
   </g>
   <g id="line2d_22">
    <path d="M 342.869022 216.238559 
L 342.57019 215.866913 
L 342.371983 215.62136 
L 341.772642 215.301051 
L 341.044498 214.974118 
L 339.695806 214.444941 
L 336.859176 213.373951 
L 333.058424 212.242039 
L 330.932941 211.742948 
L 322.245357 209.75364 
L 320.818917 209.455459 
L 319.669978 209.185579 
L 299.339842 204.120259 
L 295.951403 203.033668 
L 293.930801 202.308793 
L 292.29994 201.662591 
L 283.54151 197.951565 
L 281.382174 197.007897 
L 276.094261 194.679045 
L 270.920339 192.357822 
L 265.830475 189.984767 
L 260.881795 187.476318 
L 252.199224 182.178777 
L 250.727429 181.057846 
L 249.808622 180.414501 
L 248.627408 179.480316 
L 248.069561 178.984947 
L 246.985671 178.171355 
L 237.551934 170.651441 
L 235.413908 169.106826 
L 234.64884 168.56199 
L 232.052675 166.812704 
L 231.16656 166.217797 
L 227.181697 163.769023 
L 222.69951 161.263209 
L 221.461384 160.591941 
L 219.700397 159.624645 
L 211.679698 155.170146 
L 210.361254 154.452824 
L 197.896959 147.988774 
L 197.19181 147.632056 
L 178.156495 137.874958 
L 162.765413 128.377999 
L 155.369682 124.240805 
L 152.820903 122.806358 
L 152.820903 122.806358 
" clip-path="url(#pe41b5e394f)" style="fill: none; stroke: #008000; stroke-width: 1.5; stroke-linecap: square"/>
   </g>
   <g id="line2d_23">
    <path d="M 152.795826 122.791584 
L 138.841718 114.883802 
L 138.841718 114.883802 
" clip-path="url(#pe41b5e394f)" style="fill: none; stroke: #ff0000; stroke-width: 1.5; stroke-linecap: square"/>
   </g>
   <g id="legend_1">
    <g id="patch_6">
     <path d="M 195.758187 93.506375 
L 362.216 93.506375 
Q 364.216 93.506375 364.216 91.506375 
L 364.216 48.472 
Q 364.216 46.472 362.216 46.472 
L 195.758187 46.472 
Q 193.758187 46.472 193.758187 48.472 
L 193.758187 91.506375 
Q 193.758187 93.506375 195.758187 93.506375 
z
" style="fill: #ffffff; opacity: 0.8; stroke: #cccccc; stroke-linejoin: miter"/>
    </g>
    <g id="line2d_24">
     <path d="M 197.758187 54.570438 
L 207.758187 54.570438 
L 217.758187 54.570438 
" style="fill: none; stroke: #0000ff; stroke-width: 1.5; stroke-linecap: square"/>
    </g>
    <g id="text_21">
     <!-- True Trajectory -->
     <g transform="translate(225.758187 58.070438)scale(0.1 -0.1)">
      <defs>
       <path id="DejaVuSans-54" d="M -19 4666 
L 3928 4666 
L 3928 4134 
L 2272 4134 
L 2272 0 
L 1638 0 
L 1638 4134 
L -19 4134 
L -19 4666 
z
" transform="scale(0.015625)"/>
       <path id="DejaVuSans-72" d="M 2631 2963 
Q 2534 3019 2420 3045 
Q 2306 3072 2169 3072 
Q 1681 3072 1420 2755 
Q 1159 2438 1159 1844 
L 1159 0 
L 581 0 
L 581 3500 
L 1159 3500 
L 1159 2956 
Q 1341 3275 1631 3429 
Q 1922 3584 2338 3584 
Q 2397 3584 2469 3576 
Q 2541 3569 2628 3553 
L 2631 2963 
z
" transform="scale(0.015625)"/>
       <path id="DejaVuSans-6a" d="M 603 3500 
L 1178 3500 
L 1178 -63 
Q 1178 -731 923 -1031 
Q 669 -1331 103 -1331 
L -116 -1331 
L -116 -844 
L 38 -844 
Q 366 -844 484 -692 
Q 603 -541 603 -63 
L 603 3500 
z
M 603 4863 
L 1178 4863 
L 1178 4134 
L 603 4134 
L 603 4863 
z
" transform="scale(0.015625)"/>
       <path id="DejaVuSans-63" d="M 3122 3366 
L 3122 2828 
Q 2878 2963 2633 3030 
Q 2388 3097 2138 3097 
Q 1578 3097 1268 2742 
Q 959 2388 959 1747 
Q 959 1106 1268 751 
Q 1578 397 2138 397 
Q 2388 397 2633 464 
Q 2878 531 3122 666 
L 3122 134 
Q 2881 22 2623 -34 
Q 2366 -91 2075 -91 
Q 1284 -91 818 406 
Q 353 903 353 1747 
Q 353 2603 823 3093 
Q 1294 3584 2113 3584 
Q 2378 3584 2631 3529 
Q 2884 3475 3122 3366 
z
" transform="scale(0.015625)"/>
       <path id="DejaVuSans-79" d="M 2059 -325 
Q 1816 -950 1584 -1140 
Q 1353 -1331 966 -1331 
L 506 -1331 
L 506 -850 
L 844 -850 
Q 1081 -850 1212 -737 
Q 1344 -625 1503 -206 
L 1606 56 
L 191 3500 
L 800 3500 
L 1894 763 
L 2988 3500 
L 3597 3500 
L 2059 -325 
z
" transform="scale(0.015625)"/>
      </defs>
      <use xlink:href="#DejaVuSans-54"/>
      <use xlink:href="#DejaVuSans-72" x="46.333984"/>
      <use xlink:href="#DejaVuSans-75" x="87.447266"/>
      <use xlink:href="#DejaVuSans-65" x="150.826172"/>
      <use xlink:href="#DejaVuSans-20" x="212.349609"/>
      <use xlink:href="#DejaVuSans-54" x="244.136719"/>
      <use xlink:href="#DejaVuSans-72" x="290.470703"/>
      <use xlink:href="#DejaVuSans-61" x="331.583984"/>
      <use xlink:href="#DejaVuSans-6a" x="392.863281"/>
      <use xlink:href="#DejaVuSans-65" x="420.646484"/>
      <use xlink:href="#DejaVuSans-63" x="482.169922"/>
      <use xlink:href="#DejaVuSans-74" x="537.150391"/>
      <use xlink:href="#DejaVuSans-6f" x="576.359375"/>
      <use xlink:href="#DejaVuSans-72" x="637.541016"/>
      <use xlink:href="#DejaVuSans-79" x="678.654297"/>
     </g>
    </g>
    <g id="line2d_25">
     <path d="M 197.758187 69.248563 
L 207.758187 69.248563 
L 217.758187 69.248563 
" style="fill: none; stroke: #008000; stroke-width: 1.5; stroke-linecap: square"/>
    </g>
    <g id="text_22">
     <!-- Predicted Trajectory (Train) -->
     <g transform="translate(225.758187 72.748563)scale(0.1 -0.1)">
      <defs>
       <path id="DejaVuSans-50" d="M 1259 4147 
L 1259 2394 
L 2053 2394 
Q 2494 2394 2734 2622 
Q 2975 2850 2975 3272 
Q 2975 3691 2734 3919 
Q 2494 4147 2053 4147 
L 1259 4147 
z
M 628 4666 
L 2053 4666 
Q 2838 4666 3239 4311 
Q 3641 3956 3641 3272 
Q 3641 2581 3239 2228 
Q 2838 1875 2053 1875 
L 1259 1875 
L 1259 0 
L 628 0 
L 628 4666 
z
" transform="scale(0.015625)"/>
      </defs>
      <use xlink:href="#DejaVuSans-50"/>
      <use xlink:href="#DejaVuSans-72" x="58.552734"/>
      <use xlink:href="#DejaVuSans-65" x="97.416016"/>
      <use xlink:href="#DejaVuSans-64" x="158.939453"/>
      <use xlink:href="#DejaVuSans-69" x="222.416016"/>
      <use xlink:href="#DejaVuSans-63" x="250.199219"/>
      <use xlink:href="#DejaVuSans-74" x="305.179688"/>
      <use xlink:href="#DejaVuSans-65" x="344.388672"/>
      <use xlink:href="#DejaVuSans-64" x="405.912109"/>
      <use xlink:href="#DejaVuSans-20" x="469.388672"/>
      <use xlink:href="#DejaVuSans-54" x="501.175781"/>
      <use xlink:href="#DejaVuSans-72" x="547.509766"/>
      <use xlink:href="#DejaVuSans-61" x="588.623047"/>
      <use xlink:href="#DejaVuSans-6a" x="649.902344"/>
      <use xlink:href="#DejaVuSans-65" x="677.685547"/>
      <use xlink:href="#DejaVuSans-63" x="739.208984"/>
      <use xlink:href="#DejaVuSans-74" x="794.189453"/>
      <use xlink:href="#DejaVuSans-6f" x="833.398438"/>
      <use xlink:href="#DejaVuSans-72" x="894.580078"/>
      <use xlink:href="#DejaVuSans-79" x="935.693359"/>
      <use xlink:href="#DejaVuSans-20" x="994.873047"/>
      <use xlink:href="#DejaVuSans-28" x="1026.660156"/>
      <use xlink:href="#DejaVuSans-54" x="1065.673828"/>
      <use xlink:href="#DejaVuSans-72" x="1112.007812"/>
      <use xlink:href="#DejaVuSans-61" x="1153.121094"/>
      <use xlink:href="#DejaVuSans-69" x="1214.400391"/>
      <use xlink:href="#DejaVuSans-6e" x="1242.183594"/>
      <use xlink:href="#DejaVuSans-29" x="1305.5625"/>
     </g>
    </g>
    <g id="line2d_26">
     <path d="M 197.758187 83.926688 
L 207.758187 83.926688 
L 217.758187 83.926688 
" style="fill: none; stroke: #ff0000; stroke-width: 1.5; stroke-linecap: square"/>
    </g>
    <g id="text_23">
     <!-- Predicted Trajectory (Test) -->
     <g transform="translate(225.758187 87.426688)scale(0.1 -0.1)">
      <defs>
       <path id="DejaVuSans-73" d="M 2834 3397 
L 2834 2853 
Q 2591 2978 2328 3040 
Q 2066 3103 1784 3103 
Q 1356 3103 1142 2972 
Q 928 2841 928 2578 
Q 928 2378 1081 2264 
Q 1234 2150 1697 2047 
L 1894 2003 
Q 2506 1872 2764 1633 
Q 3022 1394 3022 966 
Q 3022 478 2636 193 
Q 2250 -91 1575 -91 
Q 1294 -91 989 -36 
Q 684 19 347 128 
L 347 722 
Q 666 556 975 473 
Q 1284 391 1588 391 
Q 1994 391 2212 530 
Q 2431 669 2431 922 
Q 2431 1156 2273 1281 
Q 2116 1406 1581 1522 
L 1381 1569 
Q 847 1681 609 1914 
Q 372 2147 372 2553 
Q 372 3047 722 3315 
Q 1072 3584 1716 3584 
Q 2034 3584 2315 3537 
Q 2597 3491 2834 3397 
z
" transform="scale(0.015625)"/>
      </defs>
      <use xlink:href="#DejaVuSans-50"/>
      <use xlink:href="#DejaVuSans-72" x="58.552734"/>
      <use xlink:href="#DejaVuSans-65" x="97.416016"/>
      <use xlink:href="#DejaVuSans-64" x="158.939453"/>
      <use xlink:href="#DejaVuSans-69" x="222.416016"/>
      <use xlink:href="#DejaVuSans-63" x="250.199219"/>
      <use xlink:href="#DejaVuSans-74" x="305.179688"/>
      <use xlink:href="#DejaVuSans-65" x="344.388672"/>
      <use xlink:href="#DejaVuSans-64" x="405.912109"/>
      <use xlink:href="#DejaVuSans-20" x="469.388672"/>
      <use xlink:href="#DejaVuSans-54" x="501.175781"/>
      <use xlink:href="#DejaVuSans-72" x="547.509766"/>
      <use xlink:href="#DejaVuSans-61" x="588.623047"/>
      <use xlink:href="#DejaVuSans-6a" x="649.902344"/>
      <use xlink:href="#DejaVuSans-65" x="677.685547"/>
      <use xlink:href="#DejaVuSans-63" x="739.208984"/>
      <use xlink:href="#DejaVuSans-74" x="794.189453"/>
      <use xlink:href="#DejaVuSans-6f" x="833.398438"/>
      <use xlink:href="#DejaVuSans-72" x="894.580078"/>
      <use xlink:href="#DejaVuSans-79" x="935.693359"/>
      <use xlink:href="#DejaVuSans-20" x="994.873047"/>
      <use xlink:href="#DejaVuSans-28" x="1026.660156"/>
      <use xlink:href="#DejaVuSans-54" x="1065.673828"/>
      <use xlink:href="#DejaVuSans-65" x="1109.757812"/>
      <use xlink:href="#DejaVuSans-73" x="1171.28125"/>
      <use xlink:href="#DejaVuSans-74" x="1223.380859"/>
      <use xlink:href="#DejaVuSans-29" x="1262.589844"/>
     </g>
    </g>
   </g>
  </g>
 </g>
 <defs>
  <clipPath id="pe41b5e394f">
   <rect x="103.104" y="41.472" width="266.112" height="266.112"/>
  </clipPath>
 </defs>
</svg>
