<?xml version="1.0" encoding="utf-8" standalone="no"?>
<!DOCTYPE svg PUBLIC "-//W3C//DTD SVG 1.1//EN"
  "http://www.w3.org/Graphics/SVG/1.1/DTD/svg11.dtd">
<svg xmlns:xlink="http://www.w3.org/1999/xlink" width="460.8pt" height="345.6pt" viewBox="0 0 460.8 345.6" xmlns="http://www.w3.org/2000/svg" version="1.1">
 <metadata>
  <rdf:RDF xmlns:dc="http://purl.org/dc/elements/1.1/" xmlns:cc="http://creativecommons.org/ns#" xmlns:rdf="http://www.w3.org/1999/02/22-rdf-syntax-ns#">
   <cc:Work>
    <dc:type rdf:resource="http://purl.org/dc/dcmitype/StillImage"/>
    <dc:date>2024-03-17T13:20:11.609232</dc:date>
    <dc:format>image/svg+xml</dc:format>
    <dc:creator>
     <cc:Agent>
      <dc:title>Matplotlib v3.5.1, https://matplotlib.org/</dc:title>
     </cc:Agent>
    </dc:creator>
   </cc:Work>
  </rdf:RDF>
 </metadata>
 <defs>
  <style type="text/css">*{stroke-linejoin: round; stroke-linecap: butt}</style>
 </defs>
 <g id="figure_1">
  <g id="patch_1">
   <path d="M 0 345.6 
L 460.8 345.6 
L 460.8 0 
L 0 0 
z
" style="fill: #ffffff"/>
  </g>
  <g id="axes_1">
   <g id="patch_2">
    <path d="M 57.6 307.584 
L 414.72 307.584 
L 414.72 41.472 
L 57.6 41.472 
z
" style="fill: #ffffff"/>
   </g>
   <g id="matplotlib.axis_1">
    <g id="xtick_1">
     <g id="line2d_1">
      <defs>
       <path id="mc6be25a908" d="M 0 0 
L 0 3.5 
" style="stroke: #000000; stroke-width: 0.8"/>
      </defs>
      <g>
       <use xlink:href="#mc6be25a908" x="73.832727" y="307.584" style="stroke: #000000; stroke-width: 0.8"/>
      </g>
     </g>
     <g id="text_1">
      <!-- 0 -->
      <g transform="translate(70.651477 322.182437)scale(0.1 -0.1)">
       <defs>
        <path id="DejaVuSans-30" d="M 2034 4250 
Q 1547 4250 1301 3770 
Q 1056 3291 1056 2328 
Q 1056 1369 1301 889 
Q 1547 409 2034 409 
Q 2525 409 2770 889 
Q 3016 1369 3016 2328 
Q 3016 3291 2770 3770 
Q 2525 4250 2034 4250 
z
M 2034 4750 
Q 2819 4750 3233 4129 
Q 3647 3509 3647 2328 
Q 3647 1150 3233 529 
Q 2819 -91 2034 -91 
Q 1250 -91 836 529 
Q 422 1150 422 2328 
Q 422 3509 836 4129 
Q 1250 4750 2034 4750 
z
" transform="scale(0.015625)"/>
       </defs>
       <use xlink:href="#DejaVuSans-30"/>
      </g>
     </g>
    </g>
    <g id="xtick_2">
     <g id="line2d_2">
      <g>
       <use xlink:href="#mc6be25a908" x="128.122785" y="307.584" style="stroke: #000000; stroke-width: 0.8"/>
      </g>
     </g>
     <g id="text_2">
      <!-- 50 -->
      <g transform="translate(121.760285 322.182437)scale(0.1 -0.1)">
       <defs>
        <path id="DejaVuSans-35" d="M 691 4666 
L 3169 4666 
L 3169 4134 
L 1269 4134 
L 1269 2991 
Q 1406 3038 1543 3061 
Q 1681 3084 1819 3084 
Q 2600 3084 3056 2656 
Q 3513 2228 3513 1497 
Q 3513 744 3044 326 
Q 2575 -91 1722 -91 
Q 1428 -91 1123 -41 
Q 819 9 494 109 
L 494 744 
Q 775 591 1075 516 
Q 1375 441 1709 441 
Q 2250 441 2565 725 
Q 2881 1009 2881 1497 
Q 2881 1984 2565 2268 
Q 2250 2553 1709 2553 
Q 1456 2553 1204 2497 
Q 953 2441 691 2322 
L 691 4666 
z
" transform="scale(0.015625)"/>
       </defs>
       <use xlink:href="#DejaVuSans-35"/>
       <use xlink:href="#DejaVuSans-30" x="63.623047"/>
      </g>
     </g>
    </g>
    <g id="xtick_3">
     <g id="line2d_3">
      <g>
       <use xlink:href="#mc6be25a908" x="182.412843" y="307.584" style="stroke: #000000; stroke-width: 0.8"/>
      </g>
     </g>
     <g id="text_3">
      <!-- 100 -->
      <g transform="translate(172.869093 322.182437)scale(0.1 -0.1)">
       <defs>
        <path id="DejaVuSans-31" d="M 794 531 
L 1825 531 
L 1825 4091 
L 703 3866 
L 703 4441 
L 1819 4666 
L 2450 4666 
L 2450 531 
L 3481 531 
L 3481 0 
L 794 0 
L 794 531 
z
" transform="scale(0.015625)"/>
       </defs>
       <use xlink:href="#DejaVuSans-31"/>
       <use xlink:href="#DejaVuSans-30" x="63.623047"/>
       <use xlink:href="#DejaVuSans-30" x="127.246094"/>
      </g>
     </g>
    </g>
    <g id="xtick_4">
     <g id="line2d_4">
      <g>
       <use xlink:href="#mc6be25a908" x="236.702901" y="307.584" style="stroke: #000000; stroke-width: 0.8"/>
      </g>
     </g>
     <g id="text_4">
      <!-- 150 -->
      <g transform="translate(227.159151 322.182437)scale(0.1 -0.1)">
       <use xlink:href="#DejaVuSans-31"/>
       <use xlink:href="#DejaVuSans-35" x="63.623047"/>
       <use xlink:href="#DejaVuSans-30" x="127.246094"/>
      </g>
     </g>
    </g>
    <g id="xtick_5">
     <g id="line2d_5">
      <g>
       <use xlink:href="#mc6be25a908" x="290.992958" y="307.584" style="stroke: #000000; stroke-width: 0.8"/>
      </g>
     </g>
     <g id="text_5">
      <!-- 200 -->
      <g transform="translate(281.449208 322.182437)scale(0.1 -0.1)">
       <defs>
        <path id="DejaVuSans-32" d="M 1228 531 
L 3431 531 
L 3431 0 
L 469 0 
L 469 531 
Q 828 903 1448 1529 
Q 2069 2156 2228 2338 
Q 2531 2678 2651 2914 
Q 2772 3150 2772 3378 
Q 2772 3750 2511 3984 
Q 2250 4219 1831 4219 
Q 1534 4219 1204 4116 
Q 875 4013 500 3803 
L 500 4441 
Q 881 4594 1212 4672 
Q 1544 4750 1819 4750 
Q 2544 4750 2975 4387 
Q 3406 4025 3406 3419 
Q 3406 3131 3298 2873 
Q 3191 2616 2906 2266 
Q 2828 2175 2409 1742 
Q 1991 1309 1228 531 
z
" transform="scale(0.015625)"/>
       </defs>
       <use xlink:href="#DejaVuSans-32"/>
       <use xlink:href="#DejaVuSans-30" x="63.623047"/>
       <use xlink:href="#DejaVuSans-30" x="127.246094"/>
      </g>
     </g>
    </g>
    <g id="xtick_6">
     <g id="line2d_6">
      <g>
       <use xlink:href="#mc6be25a908" x="345.283016" y="307.584" style="stroke: #000000; stroke-width: 0.8"/>
      </g>
     </g>
     <g id="text_6">
      <!-- 250 -->
      <g transform="translate(335.739266 322.182437)scale(0.1 -0.1)">
       <use xlink:href="#DejaVuSans-32"/>
       <use xlink:href="#DejaVuSans-35" x="63.623047"/>
       <use xlink:href="#DejaVuSans-30" x="127.246094"/>
      </g>
     </g>
    </g>
    <g id="xtick_7">
     <g id="line2d_7">
      <g>
       <use xlink:href="#mc6be25a908" x="399.573074" y="307.584" style="stroke: #000000; stroke-width: 0.8"/>
      </g>
     </g>
     <g id="text_7">
      <!-- 300 -->
      <g transform="translate(390.029324 322.182437)scale(0.1 -0.1)">
       <defs>
        <path id="DejaVuSans-33" d="M 2597 2516 
Q 3050 2419 3304 2112 
Q 3559 1806 3559 1356 
Q 3559 666 3084 287 
Q 2609 -91 1734 -91 
Q 1441 -91 1130 -33 
Q 819 25 488 141 
L 488 750 
Q 750 597 1062 519 
Q 1375 441 1716 441 
Q 2309 441 2620 675 
Q 2931 909 2931 1356 
Q 2931 1769 2642 2001 
Q 2353 2234 1838 2234 
L 1294 2234 
L 1294 2753 
L 1863 2753 
Q 2328 2753 2575 2939 
Q 2822 3125 2822 3475 
Q 2822 3834 2567 4026 
Q 2313 4219 1838 4219 
Q 1578 4219 1281 4162 
Q 984 4106 628 3988 
L 628 4550 
Q 988 4650 1302 4700 
Q 1616 4750 1894 4750 
Q 2613 4750 3031 4423 
Q 3450 4097 3450 3541 
Q 3450 3153 3228 2886 
Q 3006 2619 2597 2516 
z
" transform="scale(0.015625)"/>
       </defs>
       <use xlink:href="#DejaVuSans-33"/>
       <use xlink:href="#DejaVuSans-30" x="63.623047"/>
       <use xlink:href="#DejaVuSans-30" x="127.246094"/>
      </g>
     </g>
    </g>
    <g id="text_8">
     <!-- Epoch -->
     <g transform="translate(220.849063 335.860562)scale(0.1 -0.1)">
      <defs>
       <path id="DejaVuSans-45" d="M 628 4666 
L 3578 4666 
L 3578 4134 
L 1259 4134 
L 1259 2753 
L 3481 2753 
L 3481 2222 
L 1259 2222 
L 1259 531 
L 3634 531 
L 3634 0 
L 628 0 
L 628 4666 
z
" transform="scale(0.015625)"/>
       <path id="DejaVuSans-70" d="M 1159 525 
L 1159 -1331 
L 581 -1331 
L 581 3500 
L 1159 3500 
L 1159 2969 
Q 1341 3281 1617 3432 
Q 1894 3584 2278 3584 
Q 2916 3584 3314 3078 
Q 3713 2572 3713 1747 
Q 3713 922 3314 415 
Q 2916 -91 2278 -91 
Q 1894 -91 1617 61 
Q 1341 213 1159 525 
z
M 3116 1747 
Q 3116 2381 2855 2742 
Q 2594 3103 2138 3103 
Q 1681 3103 1420 2742 
Q 1159 2381 1159 1747 
Q 1159 1113 1420 752 
Q 1681 391 2138 391 
Q 2594 391 2855 752 
Q 3116 1113 3116 1747 
z
" transform="scale(0.015625)"/>
       <path id="DejaVuSans-6f" d="M 1959 3097 
Q 1497 3097 1228 2736 
Q 959 2375 959 1747 
Q 959 1119 1226 758 
Q 1494 397 1959 397 
Q 2419 397 2687 759 
Q 2956 1122 2956 1747 
Q 2956 2369 2687 2733 
Q 2419 3097 1959 3097 
z
M 1959 3584 
Q 2709 3584 3137 3096 
Q 3566 2609 3566 1747 
Q 3566 888 3137 398 
Q 2709 -91 1959 -91 
Q 1206 -91 779 398 
Q 353 888 353 1747 
Q 353 2609 779 3096 
Q 1206 3584 1959 3584 
z
" transform="scale(0.015625)"/>
       <path id="DejaVuSans-63" d="M 3122 3366 
L 3122 2828 
Q 2878 2963 2633 3030 
Q 2388 3097 2138 3097 
Q 1578 3097 1268 2742 
Q 959 2388 959 1747 
Q 959 1106 1268 751 
Q 1578 397 2138 397 
Q 2388 397 2633 464 
Q 2878 531 3122 666 
L 3122 134 
Q 2881 22 2623 -34 
Q 2366 -91 2075 -91 
Q 1284 -91 818 406 
Q 353 903 353 1747 
Q 353 2603 823 3093 
Q 1294 3584 2113 3584 
Q 2378 3584 2631 3529 
Q 2884 3475 3122 3366 
z
" transform="scale(0.015625)"/>
       <path id="DejaVuSans-68" d="M 3513 2113 
L 3513 0 
L 2938 0 
L 2938 2094 
Q 2938 2591 2744 2837 
Q 2550 3084 2163 3084 
Q 1697 3084 1428 2787 
Q 1159 2491 1159 1978 
L 1159 0 
L 581 0 
L 581 4863 
L 1159 4863 
L 1159 2956 
Q 1366 3272 1645 3428 
Q 1925 3584 2291 3584 
Q 2894 3584 3203 3211 
Q 3513 2838 3513 2113 
z
" transform="scale(0.015625)"/>
      </defs>
      <use xlink:href="#DejaVuSans-45"/>
      <use xlink:href="#DejaVuSans-70" x="63.183594"/>
      <use xlink:href="#DejaVuSans-6f" x="126.660156"/>
      <use xlink:href="#DejaVuSans-63" x="187.841797"/>
      <use xlink:href="#DejaVuSans-68" x="242.822266"/>
     </g>
    </g>
   </g>
   <g id="matplotlib.axis_2">
    <g id="ytick_1">
     <g id="line2d_8">
      <defs>
       <path id="mde585dec37" d="M 0 0 
L -3.5 0 
" style="stroke: #000000; stroke-width: 0.8"/>
      </defs>
      <g>
       <use xlink:href="#mde585dec37" x="57.6" y="295.512833" style="stroke: #000000; stroke-width: 0.8"/>
      </g>
     </g>
     <g id="text_9">
      <!-- 0.0 -->
      <g transform="translate(34.696875 299.312051)scale(0.1 -0.1)">
       <defs>
        <path id="DejaVuSans-2e" d="M 684 794 
L 1344 794 
L 1344 0 
L 684 0 
L 684 794 
z
" transform="scale(0.015625)"/>
       </defs>
       <use xlink:href="#DejaVuSans-30"/>
       <use xlink:href="#DejaVuSans-2e" x="63.623047"/>
       <use xlink:href="#DejaVuSans-30" x="95.410156"/>
      </g>
     </g>
    </g>
    <g id="ytick_2">
     <g id="line2d_9">
      <g>
       <use xlink:href="#mde585dec37" x="57.6" y="237.866812" style="stroke: #000000; stroke-width: 0.8"/>
      </g>
     </g>
     <g id="text_10">
      <!-- 0.2 -->
      <g transform="translate(34.696875 241.66603)scale(0.1 -0.1)">
       <use xlink:href="#DejaVuSans-30"/>
       <use xlink:href="#DejaVuSans-2e" x="63.623047"/>
       <use xlink:href="#DejaVuSans-32" x="95.410156"/>
      </g>
     </g>
    </g>
    <g id="ytick_3">
     <g id="line2d_10">
      <g>
       <use xlink:href="#mde585dec37" x="57.6" y="180.22079" style="stroke: #000000; stroke-width: 0.8"/>
      </g>
     </g>
     <g id="text_11">
      <!-- 0.4 -->
      <g transform="translate(34.696875 184.020009)scale(0.1 -0.1)">
       <defs>
        <path id="DejaVuSans-34" d="M 2419 4116 
L 825 1625 
L 2419 1625 
L 2419 4116 
z
M 2253 4666 
L 3047 4666 
L 3047 1625 
L 3713 1625 
L 3713 1100 
L 3047 1100 
L 3047 0 
L 2419 0 
L 2419 1100 
L 313 1100 
L 313 1709 
L 2253 4666 
z
" transform="scale(0.015625)"/>
       </defs>
       <use xlink:href="#DejaVuSans-30"/>
       <use xlink:href="#DejaVuSans-2e" x="63.623047"/>
       <use xlink:href="#DejaVuSans-34" x="95.410156"/>
      </g>
     </g>
    </g>
    <g id="ytick_4">
     <g id="line2d_11">
      <g>
       <use xlink:href="#mde585dec37" x="57.6" y="122.574769" style="stroke: #000000; stroke-width: 0.8"/>
      </g>
     </g>
     <g id="text_12">
      <!-- 0.6 -->
      <g transform="translate(34.696875 126.373988)scale(0.1 -0.1)">
       <defs>
        <path id="DejaVuSans-36" d="M 2113 2584 
Q 1688 2584 1439 2293 
Q 1191 2003 1191 1497 
Q 1191 994 1439 701 
Q 1688 409 2113 409 
Q 2538 409 2786 701 
Q 3034 994 3034 1497 
Q 3034 2003 2786 2293 
Q 2538 2584 2113 2584 
z
M 3366 4563 
L 3366 3988 
Q 3128 4100 2886 4159 
Q 2644 4219 2406 4219 
Q 1781 4219 1451 3797 
Q 1122 3375 1075 2522 
Q 1259 2794 1537 2939 
Q 1816 3084 2150 3084 
Q 2853 3084 3261 2657 
Q 3669 2231 3669 1497 
Q 3669 778 3244 343 
Q 2819 -91 2113 -91 
Q 1303 -91 875 529 
Q 447 1150 447 2328 
Q 447 3434 972 4092 
Q 1497 4750 2381 4750 
Q 2619 4750 2861 4703 
Q 3103 4656 3366 4563 
z
" transform="scale(0.015625)"/>
       </defs>
       <use xlink:href="#DejaVuSans-30"/>
       <use xlink:href="#DejaVuSans-2e" x="63.623047"/>
       <use xlink:href="#DejaVuSans-36" x="95.410156"/>
      </g>
     </g>
    </g>
    <g id="ytick_5">
     <g id="line2d_12">
      <g>
       <use xlink:href="#mde585dec37" x="57.6" y="64.928748" style="stroke: #000000; stroke-width: 0.8"/>
      </g>
     </g>
     <g id="text_13">
      <!-- 0.8 -->
      <g transform="translate(34.696875 68.727967)scale(0.1 -0.1)">
       <defs>
        <path id="DejaVuSans-38" d="M 2034 2216 
Q 1584 2216 1326 1975 
Q 1069 1734 1069 1313 
Q 1069 891 1326 650 
Q 1584 409 2034 409 
Q 2484 409 2743 651 
Q 3003 894 3003 1313 
Q 3003 1734 2745 1975 
Q 2488 2216 2034 2216 
z
M 1403 2484 
Q 997 2584 770 2862 
Q 544 3141 544 3541 
Q 544 4100 942 4425 
Q 1341 4750 2034 4750 
Q 2731 4750 3128 4425 
Q 3525 4100 3525 3541 
Q 3525 3141 3298 2862 
Q 3072 2584 2669 2484 
Q 3125 2378 3379 2068 
Q 3634 1759 3634 1313 
Q 3634 634 3220 271 
Q 2806 -91 2034 -91 
Q 1263 -91 848 271 
Q 434 634 434 1313 
Q 434 1759 690 2068 
Q 947 2378 1403 2484 
z
M 1172 3481 
Q 1172 3119 1398 2916 
Q 1625 2713 2034 2713 
Q 2441 2713 2670 2916 
Q 2900 3119 2900 3481 
Q 2900 3844 2670 4047 
Q 2441 4250 2034 4250 
Q 1625 4250 1398 4047 
Q 1172 3844 1172 3481 
z
" transform="scale(0.015625)"/>
       </defs>
       <use xlink:href="#DejaVuSans-30"/>
       <use xlink:href="#DejaVuSans-2e" x="63.623047"/>
       <use xlink:href="#DejaVuSans-38" x="95.410156"/>
      </g>
     </g>
    </g>
    <g id="text_14">
     <!-- Loss -->
     <g transform="translate(28.617188 185.495187)rotate(-90)scale(0.1 -0.1)">
      <defs>
       <path id="DejaVuSans-4c" d="M 628 4666 
L 1259 4666 
L 1259 531 
L 3531 531 
L 3531 0 
L 628 0 
L 628 4666 
z
" transform="scale(0.015625)"/>
       <path id="DejaVuSans-73" d="M 2834 3397 
L 2834 2853 
Q 2591 2978 2328 3040 
Q 2066 3103 1784 3103 
Q 1356 3103 1142 2972 
Q 928 2841 928 2578 
Q 928 2378 1081 2264 
Q 1234 2150 1697 2047 
L 1894 2003 
Q 2506 1872 2764 1633 
Q 3022 1394 3022 966 
Q 3022 478 2636 193 
Q 2250 -91 1575 -91 
Q 1294 -91 989 -36 
Q 684 19 347 128 
L 347 722 
Q 666 556 975 473 
Q 1284 391 1588 391 
Q 1994 391 2212 530 
Q 2431 669 2431 922 
Q 2431 1156 2273 1281 
Q 2116 1406 1581 1522 
L 1381 1569 
Q 847 1681 609 1914 
Q 372 2147 372 2553 
Q 372 3047 722 3315 
Q 1072 3584 1716 3584 
Q 2034 3584 2315 3537 
Q 2597 3491 2834 3397 
z
" transform="scale(0.015625)"/>
      </defs>
      <use xlink:href="#DejaVuSans-4c"/>
      <use xlink:href="#DejaVuSans-6f" x="53.962891"/>
      <use xlink:href="#DejaVuSans-73" x="115.144531"/>
      <use xlink:href="#DejaVuSans-73" x="167.244141"/>
     </g>
    </g>
   </g>
   <g id="line2d_13">
    <path d="M 73.832727 117.334993 
L 74.918528 107.479753 
L 76.00433 141.401442 
L 77.090131 133.281281 
L 78.175932 159.691569 
L 79.261733 197.003177 
L 80.347534 238.323713 
L 81.433335 187.644135 
L 82.519137 232.248496 
L 83.604938 237.357329 
L 84.690739 222.11551 
L 85.77654 219.842117 
L 86.862341 231.646647 
L 87.948142 252.363046 
L 89.033943 255.081543 
L 90.119745 236.829603 
L 91.205546 251.563964 
L 92.291347 274.907126 
L 93.377148 261.255246 
L 94.462949 251.527899 
L 95.54875 260.411745 
L 96.634552 287.140775 
L 97.720353 270.102142 
L 98.806154 258.530725 
L 99.891955 277.545676 
L 100.977756 285.679905 
L 102.063557 270.364292 
L 103.149358 268.374905 
L 104.23516 277.496224 
L 105.320961 288.867531 
L 106.406762 279.406416 
L 107.492563 272.810265 
L 108.578364 276.878334 
L 109.664165 286.318701 
L 110.749967 285.379642 
L 111.835768 279.298003 
L 112.921569 278.78479 
L 114.00737 284.479402 
L 115.093171 292.245272 
L 116.178972 285.735759 
L 117.264773 281.323962 
L 118.350575 283.957564 
L 119.436376 290.203496 
L 120.522177 288.528852 
L 121.607978 284.715541 
L 122.693779 285.319792 
L 123.77958 289.745793 
L 124.865382 291.97448 
L 125.951183 287.77261 
L 127.036984 286.346488 
L 128.122785 288.749752 
L 129.208586 291.846088 
L 131.380189 288.199856 
L 132.46599 289.322254 
L 133.551791 292.539806 
L 134.637592 292.231645 
L 135.723393 289.778264 
L 136.809194 289.953839 
L 137.894995 292.279429 
L 138.980797 292.561212 
L 140.066598 290.804137 
L 141.152399 290.895196 
L 142.2382 292.871977 
L 143.324001 293.547534 
L 144.409802 291.830802 
L 145.495604 291.652479 
L 146.581405 293.066213 
L 147.667206 293.510012 
L 148.753007 292.328325 
L 149.838808 292.279293 
L 150.924609 293.546523 
L 152.01041 294.02383 
L 153.096212 292.958674 
L 154.182013 292.952775 
L 155.267814 293.984451 
L 156.353615 293.973421 
L 157.439416 293.197305 
L 158.525217 293.416192 
L 159.611019 294.332271 
L 160.69682 294.125081 
L 161.782621 293.604373 
L 162.868422 293.979456 
L 163.954223 294.593532 
L 165.040024 294.114501 
L 166.125825 293.852387 
L 167.211627 294.305262 
L 168.297428 294.616615 
L 169.383229 294.204904 
L 170.46903 294.21082 
L 171.554831 294.687455 
L 172.640632 294.625557 
L 173.726434 294.307268 
L 174.812235 294.480606 
L 175.898036 294.780828 
L 176.983837 294.563467 
L 178.069638 294.482114 
L 179.155439 294.767697 
L 180.24124 294.82237 
L 181.327042 294.609279 
L 182.412843 294.691821 
L 183.498644 294.899219 
L 185.670246 294.71896 
L 186.756047 294.869658 
L 187.841849 294.885149 
L 188.92765 294.788512 
L 191.099252 294.960384 
L 193.270854 294.856324 
L 195.442457 294.95752 
L 197.614059 294.953487 
L 201.957264 295.016397 
L 207.386269 295.002885 
L 212.815275 295.059723 
L 221.501684 295.074246 
L 237.788702 295.125215 
L 398.487273 295.297688 
L 398.487273 295.297688 
" clip-path="url(#p0a28d4b2a7)" style="fill: none; stroke: #1f77b4; stroke-width: 1.5; stroke-linecap: square"/>
   </g>
   <g id="line2d_14">
    <path d="M 73.832727 159.568106 
L 74.918528 82.204204 
L 76.00433 73.126266 
L 77.090131 104.784114 
L 78.175932 152.404966 
L 79.261733 231.778962 
L 80.347534 240.815251 
L 81.433335 283.38834 
L 82.519137 219.145482 
L 83.604938 188.892363 
L 84.690739 185.201632 
L 85.77654 202.890429 
L 86.862341 240.199495 
L 87.948142 291.920847 
L 89.033943 258.81634 
L 90.119745 272.605421 
L 91.205546 277.490991 
L 92.291347 245.090488 
L 93.377148 233.983661 
L 94.462949 247.247917 
L 95.54875 282.363627 
L 96.634552 266.40123 
L 97.720353 252.321832 
L 98.806154 276.438834 
L 99.891955 281.619731 
L 100.977756 260.865746 
L 102.063557 256.888653 
L 103.149358 266.828162 
L 104.23516 284.680368 
L 105.320961 288.829693 
L 106.406762 281.267515 
L 107.492563 286.924996 
L 108.578364 289.775934 
L 109.664165 275.626094 
L 110.749967 267.216285 
L 111.835768 267.079152 
L 112.921569 274.786268 
L 114.00737 287.380692 
L 115.093171 291.142125 
L 116.178972 285.342727 
L 117.264773 288.477456 
L 118.350575 292.912661 
L 119.436376 283.192051 
L 120.522177 277.34904 
L 121.607978 277.346308 
L 122.693779 282.368079 
L 123.77958 289.627447 
L 124.865382 294.373445 
L 125.951183 293.403982 
L 127.036984 293.739083 
L 129.208586 282.922101 
L 130.294387 280.701523 
L 131.380189 282.477244 
L 132.46599 287.377988 
L 133.551791 293.012662 
L 134.637592 293.856409 
L 135.723393 293.817264 
L 136.809194 293.618796 
L 137.894995 289.424235 
L 138.980797 286.515587 
L 140.066598 286.377123 
L 141.152399 288.808589 
L 142.2382 292.243718 
L 143.324001 294.49616 
L 144.409802 294.581259 
L 145.495604 292.717992 
L 146.581405 289.830309 
L 147.667206 287.847218 
L 148.753007 287.881722 
L 149.838808 289.853796 
L 150.924609 292.611507 
L 152.01041 294.522528 
L 153.096212 294.730064 
L 154.182013 293.490956 
L 155.267814 291.567423 
L 156.353615 290.392328 
L 157.439416 290.68939 
L 159.611019 293.825999 
L 160.69682 294.543683 
L 161.782621 294.038592 
L 163.954223 291.345209 
L 165.040024 290.981298 
L 166.125825 291.732649 
L 167.211627 293.056392 
L 168.297428 294.080232 
L 169.383229 294.233328 
L 170.46903 293.570109 
L 171.554831 292.657384 
L 172.640632 292.213178 
L 173.726434 292.560394 
L 175.898036 294.204998 
L 176.983837 294.368503 
L 178.069638 293.880764 
L 179.155439 293.125031 
L 180.24124 292.662373 
L 181.327042 292.796771 
L 183.498644 293.961799 
L 184.584445 294.137743 
L 185.670246 293.84159 
L 186.756047 293.346581 
L 187.841849 293.053206 
L 188.92765 293.175705 
L 191.099252 293.988854 
L 192.185053 294.079963 
L 195.442457 293.40548 
L 196.528258 293.575008 
L 198.69986 294.148548 
L 199.785661 294.127848 
L 201.957264 293.633966 
L 203.043065 293.561986 
L 206.300468 294.04868 
L 208.472071 293.80911 
L 209.557872 293.692007 
L 210.643673 293.731657 
L 212.815275 294.037465 
L 213.901076 294.061333 
L 217.15848 293.836589 
L 220.415883 294.138496 
L 224.759088 293.966882 
L 228.016491 294.114891 
L 231.273895 294.010015 
L 234.531298 294.144771 
L 237.788702 294.060368 
L 242.131906 294.169002 
L 245.38931 294.159678 
L 248.646713 294.203242 
L 251.904117 294.196887 
L 256.247321 294.21631 
L 264.933731 294.268551 
L 273.62014 294.323958 
L 290.992958 294.384735 
L 343.111414 294.533423 
L 398.487273 294.651082 
L 398.487273 294.651082 
" clip-path="url(#p0a28d4b2a7)" style="fill: none; stroke: #ff7f0e; stroke-width: 1.5; stroke-linecap: square"/>
   </g>
   <g id="line2d_15">
    <path d="M 73.832727 101.342302 
L 74.918528 176.435887 
L 76.00433 162.539018 
L 77.090131 169.951394 
L 79.261733 238.171221 
L 80.347534 194.920524 
L 81.433335 241.211964 
L 82.519137 232.573969 
L 83.604938 221.004042 
L 84.690739 228.182562 
L 85.77654 251.181639 
L 86.862341 260.418473 
L 87.948142 237.10217 
L 89.033943 261.057789 
L 90.119745 278.036591 
L 91.205546 255.490583 
L 92.291347 252.810233 
L 93.377148 272.107037 
L 94.462949 285.053455 
L 95.54875 260.461311 
L 96.634552 266.679295 
L 97.720353 290.877489 
L 98.806154 278.608439 
L 99.891955 268.65911 
L 100.977756 270.223952 
L 102.063557 280.499482 
L 103.149358 288.324636 
L 104.23516 277.737102 
L 105.320961 273.619249 
L 106.406762 280.492738 
L 107.492563 291.790838 
L 108.578364 284.830665 
L 109.664165 279.002577 
L 110.749967 280.285255 
L 111.835768 287.705508 
L 112.921569 291.653284 
L 114.00737 283.728013 
L 115.093171 282.001829 
L 116.178972 287.270129 
L 117.264773 294.049055 
L 118.350575 287.749369 
L 119.436376 284.829388 
L 120.522177 286.682447 
L 121.607978 291.847646 
L 122.693779 291.536561 
L 123.77958 287.401584 
L 124.865382 287.240314 
L 125.951183 290.911631 
L 127.036984 293.678594 
L 128.122785 289.973314 
L 129.208586 288.68627 
L 130.294387 290.59682 
L 131.380189 294.281377 
L 132.46599 291.901335 
L 133.551791 289.893695 
L 134.637592 290.889574 
L 135.723393 293.909127 
L 136.809194 293.07442 
L 137.894995 291.180337 
L 138.980797 291.522993 
L 140.066598 293.714367 
L 141.152399 293.979704 
L 142.2382 292.09045 
L 143.324001 292.02778 
L 144.409802 293.683407 
L 145.495604 294.392195 
L 146.581405 292.862893 
L 147.667206 292.670274 
L 148.753007 293.93563 
L 149.838808 294.772188 
L 150.924609 293.368287 
L 152.01041 293.124541 
L 153.096212 294.153078 
L 154.182013 294.777245 
L 155.267814 293.738639 
L 156.353615 293.605313 
L 157.439416 294.487405 
L 158.525217 294.906504 
L 159.611019 294.008254 
L 160.69682 293.941919 
L 161.782621 294.690189 
L 162.868422 294.853819 
L 163.954223 294.223267 
L 165.040024 294.2859 
L 166.125825 294.97063 
L 167.211627 294.891684 
L 168.297428 294.398671 
L 169.383229 294.549072 
L 170.46903 295.09117 
L 172.640632 294.564434 
L 173.726434 294.816323 
L 174.812235 295.211172 
L 175.898036 294.859384 
L 176.983837 294.725301 
L 178.069638 295.009052 
L 179.155439 295.149944 
L 180.24124 294.874613 
L 181.327042 294.890085 
L 182.412843 295.175844 
L 183.498644 295.121903 
L 184.584445 294.937007 
L 186.756047 295.220688 
L 188.92765 295.015413 
L 191.099252 295.214752 
L 192.185053 295.083372 
L 198.69986 295.237793 
L 200.871462 295.172585 
L 203.043065 295.211217 
L 205.214667 295.222145 
L 210.643673 295.227658 
L 216.072679 295.234615 
L 224.759088 295.249586 
L 239.960304 295.250318 
L 398.487273 295.275273 
L 398.487273 295.275273 
" clip-path="url(#p0a28d4b2a7)" style="fill: none; stroke: #2ca02c; stroke-width: 1.5; stroke-linecap: square"/>
   </g>
   <g id="line2d_16">
    <path d="M 73.832727 69.43746 
L 74.918528 246.243875 
L 76.00433 246.036978 
L 77.090131 218.253092 
L 79.261733 123.864626 
L 80.347534 173.58099 
L 81.433335 211.721003 
L 82.519137 230.129074 
L 83.604938 234.737389 
L 84.690739 230.227214 
L 85.77654 221.604555 
L 86.862341 222.801407 
L 87.948142 245.207045 
L 89.033943 273.06077 
L 90.119745 293.104611 
L 91.205546 284.166476 
L 92.291347 283.823073 
L 93.377148 289.344835 
L 94.462949 293.338426 
L 95.54875 292.561576 
L 96.634552 293.166023 
L 97.720353 293.351143 
L 98.806154 292.113469 
L 99.891955 289.190641 
L 102.063557 280.000117 
L 103.149358 277.050613 
L 104.23516 277.655617 
L 105.320961 281.932009 
L 107.492563 294.235624 
L 109.664165 289.150464 
L 110.749967 288.644522 
L 111.835768 289.492296 
L 112.921569 290.671765 
L 114.00737 291.42318 
L 115.093171 291.60414 
L 116.178972 291.539219 
L 117.264773 291.845862 
L 118.350575 292.999906 
L 119.436376 294.850859 
L 120.522177 293.247972 
L 121.607978 290.946382 
L 122.693779 289.653059 
L 123.77958 289.860511 
L 124.865382 291.426234 
L 125.951183 293.682 
L 127.036984 294.970061 
L 128.122785 293.52831 
L 129.208586 292.848592 
L 130.294387 292.861047 
L 132.46599 293.389047 
L 133.551791 293.353807 
L 134.637592 293.167003 
L 135.723393 293.120764 
L 136.809194 293.509178 
L 138.980797 295.186281 
L 140.066598 294.029098 
L 141.152399 293.227951 
L 142.2382 293.113869 
L 143.324001 293.640354 
L 144.409802 294.493159 
L 145.495604 295.167124 
L 147.667206 294.853646 
L 150.924609 294.972955 
L 153.096212 294.651025 
L 154.182013 294.690982 
L 155.267814 295.005662 
L 156.353615 295.181755 
L 158.525217 294.153159 
L 159.611019 293.98676 
L 160.69682 294.129849 
L 162.868422 294.730413 
L 165.040024 294.968004 
L 168.297428 295.086755 
L 170.46903 295.173668 
L 171.554831 295.105642 
L 173.726434 294.630084 
L 174.812235 294.348578 
L 175.898036 294.189348 
L 178.069638 294.275074 
L 180.24124 294.449255 
L 184.584445 294.572137 
L 186.756047 294.689676 
L 188.92765 294.531292 
L 191.099252 294.251187 
L 193.270854 294.190986 
L 203.043065 294.4028 
L 210.643673 294.190548 
L 216.072679 294.249867 
L 219.330082 294.260038 
L 225.844889 294.184197 
L 236.702901 294.209099 
L 297.507765 294.265629 
L 398.487273 294.353589 
L 398.487273 294.353589 
" clip-path="url(#p0a28d4b2a7)" style="fill: none; stroke: #d62728; stroke-width: 1.5; stroke-linecap: square"/>
   </g>
   <g id="line2d_17">
    <path d="M 73.832727 53.568 
L 74.918528 222.196358 
L 76.00433 162.210006 
L 77.090131 232.327837 
L 78.175932 189.203636 
L 79.261733 251.185672 
L 80.347534 222.109084 
L 81.433335 218.302244 
L 82.519137 247.81785 
L 83.604938 254.249806 
L 84.690739 230.017495 
L 85.77654 258.803305 
L 86.862341 265.706997 
L 87.948142 245.80928 
L 89.033943 251.867579 
L 90.119745 281.485443 
L 91.205546 265.661801 
L 92.291347 254.804157 
L 93.377148 280.998073 
L 94.462949 277.192072 
L 95.54875 261.929207 
L 96.634552 269.085007 
L 97.720353 290.877211 
L 98.806154 277.088456 
L 99.891955 269.002352 
L 100.977756 278.515975 
L 102.063557 289.218754 
L 103.149358 278.278335 
L 104.23516 273.960709 
L 105.320961 279.45093 
L 106.406762 290.162562 
L 108.578364 278.386259 
L 109.664165 282.665572 
L 110.749967 291.762888 
L 111.835768 285.527495 
L 112.921569 281.23212 
L 114.00737 284.287497 
L 115.093171 291.537372 
L 117.264773 284.041081 
L 118.350575 286.540817 
L 119.436376 291.97006 
L 121.607978 285.914456 
L 122.693779 287.688367 
L 123.77958 292.106456 
L 124.865382 290.239366 
L 125.951183 287.733736 
L 127.036984 289.540301 
L 128.122785 293.214924 
L 129.208586 290.562985 
L 130.294387 288.949922 
L 131.380189 290.906038 
L 132.46599 293.404393 
L 133.551791 290.916011 
L 134.637592 290.29033 
L 135.723393 292.649551 
L 136.809194 293.386264 
L 137.894995 291.236816 
L 138.980797 291.484886 
L 140.066598 293.653118 
L 141.152399 292.981513 
L 142.2382 291.746363 
L 143.324001 292.829044 
L 144.409802 294.411334 
L 145.495604 292.801428 
L 146.581405 292.548658 
L 147.667206 294.062622 
L 148.753007 293.917233 
L 149.838808 292.861611 
L 150.924609 293.566968 
L 152.01041 294.682975 
L 153.096212 293.540421 
L 154.182013 293.476202 
L 155.267814 294.650693 
L 156.353615 294.225742 
L 157.439416 293.625548 
L 158.525217 294.320023 
L 159.611019 294.711956 
L 160.69682 293.953731 
L 161.782621 294.210943 
L 162.868422 294.988312 
L 163.954223 294.332041 
L 165.040024 294.23715 
L 166.125825 294.911227 
L 168.297428 294.331055 
L 169.383229 294.81657 
L 170.46903 294.8522 
L 171.554831 294.486874 
L 173.726434 294.98794 
L 174.812235 294.622452 
L 176.983837 295.029399 
L 178.069638 294.742055 
L 179.155439 294.801537 
L 180.24124 295.060026 
L 181.327042 294.846483 
L 182.412843 294.842634 
L 183.498644 295.057091 
L 184.584445 294.910425 
L 185.670246 294.879254 
L 186.756047 295.055151 
L 188.92765 294.924553 
L 190.013451 295.063306 
L 192.185053 294.958437 
L 193.270854 295.063753 
L 195.442457 294.988288 
L 196.528258 295.071735 
L 199.785661 295.07858 
L 204.128866 295.058906 
L 220.415883 295.095969 
L 234.531298 295.120669 
L 298.593566 295.179421 
L 398.487273 295.245807 
L 398.487273 295.245807 
" clip-path="url(#p0a28d4b2a7)" style="fill: none; stroke: #9467bd; stroke-width: 1.5; stroke-linecap: square"/>
   </g>
   <g id="line2d_18">
    <path d="M 73.832727 279.184053 
L 74.918528 130.320024 
L 76.00433 222.319228 
L 77.090131 221.112163 
L 78.175932 272.445369 
L 79.261733 204.213364 
L 80.347534 199.121642 
L 81.433335 239.450999 
L 82.519137 284.850984 
L 83.604938 245.908794 
L 84.690739 279.710981 
L 85.77654 260.543551 
L 86.862341 233.777181 
L 87.948142 241.511297 
L 89.033943 278.62336 
L 90.119745 265.856058 
L 91.205546 251.596644 
L 92.291347 280.066467 
L 93.377148 274.84985 
L 94.462949 257.864705 
L 95.54875 265.439927 
L 96.634552 289.281634 
L 97.720353 277.30384 
L 98.806154 269.368927 
L 99.891955 281.484337 
L 100.977756 288.868776 
L 102.063557 272.614225 
L 103.149358 267.483063 
L 104.23516 274.011669 
L 105.320961 288.515281 
L 106.406762 287.214774 
L 107.492563 279.729878 
L 108.578364 284.027794 
L 109.664165 295.117535 
L 110.749967 283.672032 
L 111.835768 278.758637 
L 112.921569 282.117172 
L 114.00737 291.27381 
L 115.093171 290.174245 
L 116.178972 285.8751 
L 117.264773 289.153048 
L 118.350575 293.693103 
L 119.436376 285.75394 
L 120.522177 282.191234 
L 121.607978 284.387011 
L 122.693779 290.817303 
L 123.77958 293.207688 
L 124.865382 289.659156 
L 125.951183 291.386558 
L 127.036984 294.316168 
L 128.122785 289.157739 
L 129.208586 287.356576 
L 130.294387 289.781972 
L 131.380189 294.712002 
L 132.46599 292.125085 
L 133.551791 291.38112 
L 134.637592 294.326672 
L 135.723393 292.318806 
L 136.809194 289.439997 
L 137.894995 289.72575 
L 138.980797 292.729993 
L 140.066598 294.710543 
L 141.152399 292.967902 
L 142.2382 294.074829 
L 143.324001 294.092865 
L 144.409802 291.729978 
L 145.495604 291.553006 
L 146.581405 293.595892 
L 147.667206 294.713958 
L 148.753007 293.309802 
L 149.838808 294.130252 
L 150.924609 294.672545 
L 152.01041 292.836539 
L 153.096212 292.700372 
L 154.182013 294.197931 
L 155.267814 294.978391 
L 156.353615 294.241825 
L 157.439416 295.099313 
L 158.525217 294.297569 
L 159.611019 293.267105 
L 160.69682 293.621091 
L 161.782621 295.005401 
L 163.954223 294.578028 
L 165.040024 295.488 
L 166.125825 294.37963 
L 167.211627 294.0181 
L 169.383229 295.313249 
L 170.46903 294.809588 
L 171.554831 295.232758 
L 172.640632 294.873914 
L 173.726434 294.284696 
L 174.812235 294.492428 
L 175.898036 295.245368 
L 176.983837 295.178026 
L 179.155439 295.199161 
L 180.24124 294.670908 
L 181.327042 294.688648 
L 182.412843 295.205705 
L 183.498644 295.297516 
L 184.584445 295.240579 
L 185.670246 295.369502 
L 186.756047 294.910922 
L 187.841849 294.826947 
L 190.013451 295.473798 
L 192.185053 295.322368 
L 193.270854 294.977915 
L 194.356656 294.911607 
L 196.528258 295.46848 
L 197.614059 295.47359 
L 200.871462 295.046572 
L 203.043065 295.449518 
L 204.128866 295.462757 
L 206.300468 295.098501 
L 207.386269 295.092842 
L 209.557872 295.394734 
L 210.643673 295.378383 
L 212.815275 295.124623 
L 214.986877 295.299585 
L 216.072679 295.385812 
L 220.415883 295.217892 
L 222.587486 295.344649 
L 225.844889 295.183197 
L 229.102292 295.310789 
L 232.359696 295.228911 
L 234.531298 295.314307 
L 238.874503 295.256823 
L 241.046105 295.288905 
L 244.303509 295.246082 
L 247.560912 295.272668 
L 250.818316 295.2728 
L 258.418924 295.284461 
L 266.019532 295.267332 
L 308.365777 295.307976 
L 384.371858 295.349063 
L 398.487273 295.356036 
L 398.487273 295.356036 
" clip-path="url(#p0a28d4b2a7)" style="fill: none; stroke: #8c564b; stroke-width: 1.5; stroke-linecap: square"/>
   </g>
   <g id="patch_3">
    <path d="M 57.6 307.584 
L 57.6 41.472 
" style="fill: none; stroke: #000000; stroke-width: 0.8; stroke-linejoin: miter; stroke-linecap: square"/>
   </g>
   <g id="patch_4">
    <path d="M 414.72 307.584 
L 414.72 41.472 
" style="fill: none; stroke: #000000; stroke-width: 0.8; stroke-linejoin: miter; stroke-linecap: square"/>
   </g>
   <g id="patch_5">
    <path d="M 57.6 307.584 
L 414.72 307.584 
" style="fill: none; stroke: #000000; stroke-width: 0.8; stroke-linejoin: miter; stroke-linecap: square"/>
   </g>
   <g id="patch_6">
    <path d="M 57.6 41.472 
L 414.72 41.472 
" style="fill: none; stroke: #000000; stroke-width: 0.8; stroke-linejoin: miter; stroke-linecap: square"/>
   </g>
   <g id="text_15">
    <!-- 0.00299 -->
    <g transform="translate(357.134148 294.651082)scale(0.1 -0.1)">
     <defs>
      <path id="DejaVuSans-39" d="M 703 97 
L 703 672 
Q 941 559 1184 500 
Q 1428 441 1663 441 
Q 2288 441 2617 861 
Q 2947 1281 2994 2138 
Q 2813 1869 2534 1725 
Q 2256 1581 1919 1581 
Q 1219 1581 811 2004 
Q 403 2428 403 3163 
Q 403 3881 828 4315 
Q 1253 4750 1959 4750 
Q 2769 4750 3195 4129 
Q 3622 3509 3622 2328 
Q 3622 1225 3098 567 
Q 2575 -91 1691 -91 
Q 1453 -91 1209 -44 
Q 966 3 703 97 
z
M 1959 2075 
Q 2384 2075 2632 2365 
Q 2881 2656 2881 3163 
Q 2881 3666 2632 3958 
Q 2384 4250 1959 4250 
Q 1534 4250 1286 3958 
Q 1038 3666 1038 3163 
Q 1038 2656 1286 2365 
Q 1534 2075 1959 2075 
z
" transform="scale(0.015625)"/>
     </defs>
     <use xlink:href="#DejaVuSans-30"/>
     <use xlink:href="#DejaVuSans-2e" x="63.623047"/>
     <use xlink:href="#DejaVuSans-30" x="95.410156"/>
     <use xlink:href="#DejaVuSans-30" x="159.033203"/>
     <use xlink:href="#DejaVuSans-32" x="222.65625"/>
     <use xlink:href="#DejaVuSans-39" x="286.279297"/>
     <use xlink:href="#DejaVuSans-39" x="349.902344"/>
    </g>
   </g>
   <g id="text_16">
    <!-- Root Mean Squared Error (RMSE) -->
    <g transform="translate(137.410313 35.472)scale(0.12 -0.12)">
     <defs>
      <path id="DejaVuSans-52" d="M 2841 2188 
Q 3044 2119 3236 1894 
Q 3428 1669 3622 1275 
L 4263 0 
L 3584 0 
L 2988 1197 
Q 2756 1666 2539 1819 
Q 2322 1972 1947 1972 
L 1259 1972 
L 1259 0 
L 628 0 
L 628 4666 
L 2053 4666 
Q 2853 4666 3247 4331 
Q 3641 3997 3641 3322 
Q 3641 2881 3436 2590 
Q 3231 2300 2841 2188 
z
M 1259 4147 
L 1259 2491 
L 2053 2491 
Q 2509 2491 2742 2702 
Q 2975 2913 2975 3322 
Q 2975 3731 2742 3939 
Q 2509 4147 2053 4147 
L 1259 4147 
z
" transform="scale(0.015625)"/>
      <path id="DejaVuSans-74" d="M 1172 4494 
L 1172 3500 
L 2356 3500 
L 2356 3053 
L 1172 3053 
L 1172 1153 
Q 1172 725 1289 603 
Q 1406 481 1766 481 
L 2356 481 
L 2356 0 
L 1766 0 
Q 1100 0 847 248 
Q 594 497 594 1153 
L 594 3053 
L 172 3053 
L 172 3500 
L 594 3500 
L 594 4494 
L 1172 4494 
z
" transform="scale(0.015625)"/>
      <path id="DejaVuSans-20" transform="scale(0.015625)"/>
      <path id="DejaVuSans-4d" d="M 628 4666 
L 1569 4666 
L 2759 1491 
L 3956 4666 
L 4897 4666 
L 4897 0 
L 4281 0 
L 4281 4097 
L 3078 897 
L 2444 897 
L 1241 4097 
L 1241 0 
L 628 0 
L 628 4666 
z
" transform="scale(0.015625)"/>
      <path id="DejaVuSans-65" d="M 3597 1894 
L 3597 1613 
L 953 1613 
Q 991 1019 1311 708 
Q 1631 397 2203 397 
Q 2534 397 2845 478 
Q 3156 559 3463 722 
L 3463 178 
Q 3153 47 2828 -22 
Q 2503 -91 2169 -91 
Q 1331 -91 842 396 
Q 353 884 353 1716 
Q 353 2575 817 3079 
Q 1281 3584 2069 3584 
Q 2775 3584 3186 3129 
Q 3597 2675 3597 1894 
z
M 3022 2063 
Q 3016 2534 2758 2815 
Q 2500 3097 2075 3097 
Q 1594 3097 1305 2825 
Q 1016 2553 972 2059 
L 3022 2063 
z
" transform="scale(0.015625)"/>
      <path id="DejaVuSans-61" d="M 2194 1759 
Q 1497 1759 1228 1600 
Q 959 1441 959 1056 
Q 959 750 1161 570 
Q 1363 391 1709 391 
Q 2188 391 2477 730 
Q 2766 1069 2766 1631 
L 2766 1759 
L 2194 1759 
z
M 3341 1997 
L 3341 0 
L 2766 0 
L 2766 531 
Q 2569 213 2275 61 
Q 1981 -91 1556 -91 
Q 1019 -91 701 211 
Q 384 513 384 1019 
Q 384 1609 779 1909 
Q 1175 2209 1959 2209 
L 2766 2209 
L 2766 2266 
Q 2766 2663 2505 2880 
Q 2244 3097 1772 3097 
Q 1472 3097 1187 3025 
Q 903 2953 641 2809 
L 641 3341 
Q 956 3463 1253 3523 
Q 1550 3584 1831 3584 
Q 2591 3584 2966 3190 
Q 3341 2797 3341 1997 
z
" transform="scale(0.015625)"/>
      <path id="DejaVuSans-6e" d="M 3513 2113 
L 3513 0 
L 2938 0 
L 2938 2094 
Q 2938 2591 2744 2837 
Q 2550 3084 2163 3084 
Q 1697 3084 1428 2787 
Q 1159 2491 1159 1978 
L 1159 0 
L 581 0 
L 581 3500 
L 1159 3500 
L 1159 2956 
Q 1366 3272 1645 3428 
Q 1925 3584 2291 3584 
Q 2894 3584 3203 3211 
Q 3513 2838 3513 2113 
z
" transform="scale(0.015625)"/>
      <path id="DejaVuSans-53" d="M 3425 4513 
L 3425 3897 
Q 3066 4069 2747 4153 
Q 2428 4238 2131 4238 
Q 1616 4238 1336 4038 
Q 1056 3838 1056 3469 
Q 1056 3159 1242 3001 
Q 1428 2844 1947 2747 
L 2328 2669 
Q 3034 2534 3370 2195 
Q 3706 1856 3706 1288 
Q 3706 609 3251 259 
Q 2797 -91 1919 -91 
Q 1588 -91 1214 -16 
Q 841 59 441 206 
L 441 856 
Q 825 641 1194 531 
Q 1563 422 1919 422 
Q 2459 422 2753 634 
Q 3047 847 3047 1241 
Q 3047 1584 2836 1778 
Q 2625 1972 2144 2069 
L 1759 2144 
Q 1053 2284 737 2584 
Q 422 2884 422 3419 
Q 422 4038 858 4394 
Q 1294 4750 2059 4750 
Q 2388 4750 2728 4690 
Q 3069 4631 3425 4513 
z
" transform="scale(0.015625)"/>
      <path id="DejaVuSans-71" d="M 947 1747 
Q 947 1113 1208 752 
Q 1469 391 1925 391 
Q 2381 391 2643 752 
Q 2906 1113 2906 1747 
Q 2906 2381 2643 2742 
Q 2381 3103 1925 3103 
Q 1469 3103 1208 2742 
Q 947 2381 947 1747 
z
M 2906 525 
Q 2725 213 2448 61 
Q 2172 -91 1784 -91 
Q 1150 -91 751 415 
Q 353 922 353 1747 
Q 353 2572 751 3078 
Q 1150 3584 1784 3584 
Q 2172 3584 2448 3432 
Q 2725 3281 2906 2969 
L 2906 3500 
L 3481 3500 
L 3481 -1331 
L 2906 -1331 
L 2906 525 
z
" transform="scale(0.015625)"/>
      <path id="DejaVuSans-75" d="M 544 1381 
L 544 3500 
L 1119 3500 
L 1119 1403 
Q 1119 906 1312 657 
Q 1506 409 1894 409 
Q 2359 409 2629 706 
Q 2900 1003 2900 1516 
L 2900 3500 
L 3475 3500 
L 3475 0 
L 2900 0 
L 2900 538 
Q 2691 219 2414 64 
Q 2138 -91 1772 -91 
Q 1169 -91 856 284 
Q 544 659 544 1381 
z
M 1991 3584 
L 1991 3584 
z
" transform="scale(0.015625)"/>
      <path id="DejaVuSans-72" d="M 2631 2963 
Q 2534 3019 2420 3045 
Q 2306 3072 2169 3072 
Q 1681 3072 1420 2755 
Q 1159 2438 1159 1844 
L 1159 0 
L 581 0 
L 581 3500 
L 1159 3500 
L 1159 2956 
Q 1341 3275 1631 3429 
Q 1922 3584 2338 3584 
Q 2397 3584 2469 3576 
Q 2541 3569 2628 3553 
L 2631 2963 
z
" transform="scale(0.015625)"/>
      <path id="DejaVuSans-64" d="M 2906 2969 
L 2906 4863 
L 3481 4863 
L 3481 0 
L 2906 0 
L 2906 525 
Q 2725 213 2448 61 
Q 2172 -91 1784 -91 
Q 1150 -91 751 415 
Q 353 922 353 1747 
Q 353 2572 751 3078 
Q 1150 3584 1784 3584 
Q 2172 3584 2448 3432 
Q 2725 3281 2906 2969 
z
M 947 1747 
Q 947 1113 1208 752 
Q 1469 391 1925 391 
Q 2381 391 2643 752 
Q 2906 1113 2906 1747 
Q 2906 2381 2643 2742 
Q 2381 3103 1925 3103 
Q 1469 3103 1208 2742 
Q 947 2381 947 1747 
z
" transform="scale(0.015625)"/>
      <path id="DejaVuSans-28" d="M 1984 4856 
Q 1566 4138 1362 3434 
Q 1159 2731 1159 2009 
Q 1159 1288 1364 580 
Q 1569 -128 1984 -844 
L 1484 -844 
Q 1016 -109 783 600 
Q 550 1309 550 2009 
Q 550 2706 781 3412 
Q 1013 4119 1484 4856 
L 1984 4856 
z
" transform="scale(0.015625)"/>
      <path id="DejaVuSans-29" d="M 513 4856 
L 1013 4856 
Q 1481 4119 1714 3412 
Q 1947 2706 1947 2009 
Q 1947 1309 1714 600 
Q 1481 -109 1013 -844 
L 513 -844 
Q 928 -128 1133 580 
Q 1338 1288 1338 2009 
Q 1338 2731 1133 3434 
Q 928 4138 513 4856 
z
" transform="scale(0.015625)"/>
     </defs>
     <use xlink:href="#DejaVuSans-52"/>
     <use xlink:href="#DejaVuSans-6f" x="64.982422"/>
     <use xlink:href="#DejaVuSans-6f" x="126.164062"/>
     <use xlink:href="#DejaVuSans-74" x="187.345703"/>
     <use xlink:href="#DejaVuSans-20" x="226.554688"/>
     <use xlink:href="#DejaVuSans-4d" x="258.341797"/>
     <use xlink:href="#DejaVuSans-65" x="344.621094"/>
     <use xlink:href="#DejaVuSans-61" x="406.144531"/>
     <use xlink:href="#DejaVuSans-6e" x="467.423828"/>
     <use xlink:href="#DejaVuSans-20" x="530.802734"/>
     <use xlink:href="#DejaVuSans-53" x="562.589844"/>
     <use xlink:href="#DejaVuSans-71" x="626.066406"/>
     <use xlink:href="#DejaVuSans-75" x="689.542969"/>
     <use xlink:href="#DejaVuSans-61" x="752.921875"/>
     <use xlink:href="#DejaVuSans-72" x="814.201172"/>
     <use xlink:href="#DejaVuSans-65" x="853.064453"/>
     <use xlink:href="#DejaVuSans-64" x="914.587891"/>
     <use xlink:href="#DejaVuSans-20" x="978.064453"/>
     <use xlink:href="#DejaVuSans-45" x="1009.851562"/>
     <use xlink:href="#DejaVuSans-72" x="1073.035156"/>
     <use xlink:href="#DejaVuSans-72" x="1112.398438"/>
     <use xlink:href="#DejaVuSans-6f" x="1151.261719"/>
     <use xlink:href="#DejaVuSans-72" x="1212.443359"/>
     <use xlink:href="#DejaVuSans-20" x="1253.556641"/>
     <use xlink:href="#DejaVuSans-28" x="1285.34375"/>
     <use xlink:href="#DejaVuSans-52" x="1324.357422"/>
     <use xlink:href="#DejaVuSans-4d" x="1393.839844"/>
     <use xlink:href="#DejaVuSans-53" x="1480.119141"/>
     <use xlink:href="#DejaVuSans-45" x="1543.595703"/>
     <use xlink:href="#DejaVuSans-29" x="1606.779297"/>
    </g>
   </g>
   <g id="legend_1">
    <g id="patch_7">
     <path d="M 273.702812 137.54075 
L 407.72 137.54075 
Q 409.72 137.54075 409.72 135.54075 
L 409.72 48.472 
Q 409.72 46.472 407.72 46.472 
L 273.702812 46.472 
Q 271.702812 46.472 271.702812 48.472 
L 271.702812 135.54075 
Q 271.702812 137.54075 273.702812 137.54075 
z
" style="fill: #ffffff; opacity: 0.8; stroke: #cccccc; stroke-linejoin: miter"/>
    </g>
    <g id="line2d_19">
     <path d="M 275.702812 54.570438 
L 285.702812 54.570438 
L 295.702812 54.570438 
" style="fill: none; stroke: #1f77b4; stroke-width: 1.5; stroke-linecap: square"/>
    </g>
    <g id="text_17">
     <!-- Longitude Train Loss -->
     <g transform="translate(303.702812 58.070438)scale(0.1 -0.1)">
      <defs>
       <path id="DejaVuSans-67" d="M 2906 1791 
Q 2906 2416 2648 2759 
Q 2391 3103 1925 3103 
Q 1463 3103 1205 2759 
Q 947 2416 947 1791 
Q 947 1169 1205 825 
Q 1463 481 1925 481 
Q 2391 481 2648 825 
Q 2906 1169 2906 1791 
z
M 3481 434 
Q 3481 -459 3084 -895 
Q 2688 -1331 1869 -1331 
Q 1566 -1331 1297 -1286 
Q 1028 -1241 775 -1147 
L 775 -588 
Q 1028 -725 1275 -790 
Q 1522 -856 1778 -856 
Q 2344 -856 2625 -561 
Q 2906 -266 2906 331 
L 2906 616 
Q 2728 306 2450 153 
Q 2172 0 1784 0 
Q 1141 0 747 490 
Q 353 981 353 1791 
Q 353 2603 747 3093 
Q 1141 3584 1784 3584 
Q 2172 3584 2450 3431 
Q 2728 3278 2906 2969 
L 2906 3500 
L 3481 3500 
L 3481 434 
z
" transform="scale(0.015625)"/>
       <path id="DejaVuSans-69" d="M 603 3500 
L 1178 3500 
L 1178 0 
L 603 0 
L 603 3500 
z
M 603 4863 
L 1178 4863 
L 1178 4134 
L 603 4134 
L 603 4863 
z
" transform="scale(0.015625)"/>
       <path id="DejaVuSans-54" d="M -19 4666 
L 3928 4666 
L 3928 4134 
L 2272 4134 
L 2272 0 
L 1638 0 
L 1638 4134 
L -19 4134 
L -19 4666 
z
" transform="scale(0.015625)"/>
      </defs>
      <use xlink:href="#DejaVuSans-4c"/>
      <use xlink:href="#DejaVuSans-6f" x="53.962891"/>
      <use xlink:href="#DejaVuSans-6e" x="115.144531"/>
      <use xlink:href="#DejaVuSans-67" x="178.523438"/>
      <use xlink:href="#DejaVuSans-69" x="242"/>
      <use xlink:href="#DejaVuSans-74" x="269.783203"/>
      <use xlink:href="#DejaVuSans-75" x="308.992188"/>
      <use xlink:href="#DejaVuSans-64" x="372.371094"/>
      <use xlink:href="#DejaVuSans-65" x="435.847656"/>
      <use xlink:href="#DejaVuSans-20" x="497.371094"/>
      <use xlink:href="#DejaVuSans-54" x="529.158203"/>
      <use xlink:href="#DejaVuSans-72" x="575.492188"/>
      <use xlink:href="#DejaVuSans-61" x="616.605469"/>
      <use xlink:href="#DejaVuSans-69" x="677.884766"/>
      <use xlink:href="#DejaVuSans-6e" x="705.667969"/>
      <use xlink:href="#DejaVuSans-20" x="769.046875"/>
      <use xlink:href="#DejaVuSans-4c" x="800.833984"/>
      <use xlink:href="#DejaVuSans-6f" x="854.796875"/>
      <use xlink:href="#DejaVuSans-73" x="915.978516"/>
      <use xlink:href="#DejaVuSans-73" x="968.078125"/>
     </g>
    </g>
    <g id="line2d_20">
     <path d="M 275.702812 69.248563 
L 285.702812 69.248563 
L 295.702812 69.248563 
" style="fill: none; stroke: #ff7f0e; stroke-width: 1.5; stroke-linecap: square"/>
    </g>
    <g id="text_18">
     <!-- Longitude Test Loss -->
     <g transform="translate(303.702812 72.748563)scale(0.1 -0.1)">
      <use xlink:href="#DejaVuSans-4c"/>
      <use xlink:href="#DejaVuSans-6f" x="53.962891"/>
      <use xlink:href="#DejaVuSans-6e" x="115.144531"/>
      <use xlink:href="#DejaVuSans-67" x="178.523438"/>
      <use xlink:href="#DejaVuSans-69" x="242"/>
      <use xlink:href="#DejaVuSans-74" x="269.783203"/>
      <use xlink:href="#DejaVuSans-75" x="308.992188"/>
      <use xlink:href="#DejaVuSans-64" x="372.371094"/>
      <use xlink:href="#DejaVuSans-65" x="435.847656"/>
      <use xlink:href="#DejaVuSans-20" x="497.371094"/>
      <use xlink:href="#DejaVuSans-54" x="529.158203"/>
      <use xlink:href="#DejaVuSans-65" x="573.242188"/>
      <use xlink:href="#DejaVuSans-73" x="634.765625"/>
      <use xlink:href="#DejaVuSans-74" x="686.865234"/>
      <use xlink:href="#DejaVuSans-20" x="726.074219"/>
      <use xlink:href="#DejaVuSans-4c" x="757.861328"/>
      <use xlink:href="#DejaVuSans-6f" x="811.824219"/>
      <use xlink:href="#DejaVuSans-73" x="873.005859"/>
      <use xlink:href="#DejaVuSans-73" x="925.105469"/>
     </g>
    </g>
    <g id="line2d_21">
     <path d="M 275.702812 83.926688 
L 285.702812 83.926688 
L 295.702812 83.926688 
" style="fill: none; stroke: #2ca02c; stroke-width: 1.5; stroke-linecap: square"/>
    </g>
    <g id="text_19">
     <!-- Latitude Train Loss -->
     <g transform="translate(303.702812 87.426688)scale(0.1 -0.1)">
      <use xlink:href="#DejaVuSans-4c"/>
      <use xlink:href="#DejaVuSans-61" x="55.712891"/>
      <use xlink:href="#DejaVuSans-74" x="116.992188"/>
      <use xlink:href="#DejaVuSans-69" x="156.201172"/>
      <use xlink:href="#DejaVuSans-74" x="183.984375"/>
      <use xlink:href="#DejaVuSans-75" x="223.193359"/>
      <use xlink:href="#DejaVuSans-64" x="286.572266"/>
      <use xlink:href="#DejaVuSans-65" x="350.048828"/>
      <use xlink:href="#DejaVuSans-20" x="411.572266"/>
      <use xlink:href="#DejaVuSans-54" x="443.359375"/>
      <use xlink:href="#DejaVuSans-72" x="489.693359"/>
      <use xlink:href="#DejaVuSans-61" x="530.806641"/>
      <use xlink:href="#DejaVuSans-69" x="592.085938"/>
      <use xlink:href="#DejaVuSans-6e" x="619.869141"/>
      <use xlink:href="#DejaVuSans-20" x="683.248047"/>
      <use xlink:href="#DejaVuSans-4c" x="715.035156"/>
      <use xlink:href="#DejaVuSans-6f" x="768.998047"/>
      <use xlink:href="#DejaVuSans-73" x="830.179688"/>
      <use xlink:href="#DejaVuSans-73" x="882.279297"/>
     </g>
    </g>
    <g id="line2d_22">
     <path d="M 275.702812 98.604813 
L 285.702812 98.604813 
L 295.702812 98.604813 
" style="fill: none; stroke: #d62728; stroke-width: 1.5; stroke-linecap: square"/>
    </g>
    <g id="text_20">
     <!-- Latitude Test Loss -->
     <g transform="translate(303.702812 102.104813)scale(0.1 -0.1)">
      <use xlink:href="#DejaVuSans-4c"/>
      <use xlink:href="#DejaVuSans-61" x="55.712891"/>
      <use xlink:href="#DejaVuSans-74" x="116.992188"/>
      <use xlink:href="#DejaVuSans-69" x="156.201172"/>
      <use xlink:href="#DejaVuSans-74" x="183.984375"/>
      <use xlink:href="#DejaVuSans-75" x="223.193359"/>
      <use xlink:href="#DejaVuSans-64" x="286.572266"/>
      <use xlink:href="#DejaVuSans-65" x="350.048828"/>
      <use xlink:href="#DejaVuSans-20" x="411.572266"/>
      <use xlink:href="#DejaVuSans-54" x="443.359375"/>
      <use xlink:href="#DejaVuSans-65" x="487.443359"/>
      <use xlink:href="#DejaVuSans-73" x="548.966797"/>
      <use xlink:href="#DejaVuSans-74" x="601.066406"/>
      <use xlink:href="#DejaVuSans-20" x="640.275391"/>
      <use xlink:href="#DejaVuSans-4c" x="672.0625"/>
      <use xlink:href="#DejaVuSans-6f" x="726.025391"/>
      <use xlink:href="#DejaVuSans-73" x="787.207031"/>
      <use xlink:href="#DejaVuSans-73" x="839.306641"/>
     </g>
    </g>
    <g id="line2d_23">
     <path d="M 275.702812 113.282938 
L 285.702812 113.282938 
L 295.702812 113.282938 
" style="fill: none; stroke: #9467bd; stroke-width: 1.5; stroke-linecap: square"/>
    </g>
    <g id="text_21">
     <!-- Altitude Train Loss -->
     <g transform="translate(303.702812 116.782938)scale(0.1 -0.1)">
      <defs>
       <path id="DejaVuSans-41" d="M 2188 4044 
L 1331 1722 
L 3047 1722 
L 2188 4044 
z
M 1831 4666 
L 2547 4666 
L 4325 0 
L 3669 0 
L 3244 1197 
L 1141 1197 
L 716 0 
L 50 0 
L 1831 4666 
z
" transform="scale(0.015625)"/>
       <path id="DejaVuSans-6c" d="M 603 4863 
L 1178 4863 
L 1178 0 
L 603 0 
L 603 4863 
z
" transform="scale(0.015625)"/>
      </defs>
      <use xlink:href="#DejaVuSans-41"/>
      <use xlink:href="#DejaVuSans-6c" x="68.408203"/>
      <use xlink:href="#DejaVuSans-74" x="96.191406"/>
      <use xlink:href="#DejaVuSans-69" x="135.400391"/>
      <use xlink:href="#DejaVuSans-74" x="163.183594"/>
      <use xlink:href="#DejaVuSans-75" x="202.392578"/>
      <use xlink:href="#DejaVuSans-64" x="265.771484"/>
      <use xlink:href="#DejaVuSans-65" x="329.248047"/>
      <use xlink:href="#DejaVuSans-20" x="390.771484"/>
      <use xlink:href="#DejaVuSans-54" x="422.558594"/>
      <use xlink:href="#DejaVuSans-72" x="468.892578"/>
      <use xlink:href="#DejaVuSans-61" x="510.005859"/>
      <use xlink:href="#DejaVuSans-69" x="571.285156"/>
      <use xlink:href="#DejaVuSans-6e" x="599.068359"/>
      <use xlink:href="#DejaVuSans-20" x="662.447266"/>
      <use xlink:href="#DejaVuSans-4c" x="694.234375"/>
      <use xlink:href="#DejaVuSans-6f" x="748.197266"/>
      <use xlink:href="#DejaVuSans-73" x="809.378906"/>
      <use xlink:href="#DejaVuSans-73" x="861.478516"/>
     </g>
    </g>
    <g id="line2d_24">
     <path d="M 275.702812 127.961063 
L 285.702812 127.961063 
L 295.702812 127.961063 
" style="fill: none; stroke: #8c564b; stroke-width: 1.5; stroke-linecap: square"/>
    </g>
    <g id="text_22">
     <!-- Altitude Test Loss -->
     <g transform="translate(303.702812 131.461063)scale(0.1 -0.1)">
      <use xlink:href="#DejaVuSans-41"/>
      <use xlink:href="#DejaVuSans-6c" x="68.408203"/>
      <use xlink:href="#DejaVuSans-74" x="96.191406"/>
      <use xlink:href="#DejaVuSans-69" x="135.400391"/>
      <use xlink:href="#DejaVuSans-74" x="163.183594"/>
      <use xlink:href="#DejaVuSans-75" x="202.392578"/>
      <use xlink:href="#DejaVuSans-64" x="265.771484"/>
      <use xlink:href="#DejaVuSans-65" x="329.248047"/>
      <use xlink:href="#DejaVuSans-20" x="390.771484"/>
      <use xlink:href="#DejaVuSans-54" x="422.558594"/>
      <use xlink:href="#DejaVuSans-65" x="466.642578"/>
      <use xlink:href="#DejaVuSans-73" x="528.166016"/>
      <use xlink:href="#DejaVuSans-74" x="580.265625"/>
      <use xlink:href="#DejaVuSans-20" x="619.474609"/>
      <use xlink:href="#DejaVuSans-4c" x="651.261719"/>
      <use xlink:href="#DejaVuSans-6f" x="705.224609"/>
      <use xlink:href="#DejaVuSans-73" x="766.40625"/>
      <use xlink:href="#DejaVuSans-73" x="818.505859"/>
     </g>
    </g>
   </g>
  </g>
 </g>
 <defs>
  <clipPath id="p0a28d4b2a7">
   <rect x="57.6" y="41.472" width="357.12" height="266.112"/>
  </clipPath>
 </defs>
</svg>
