<?xml version="1.0" encoding="utf-8" standalone="no"?>
<!DOCTYPE svg PUBLIC "-//W3C//DTD SVG 1.1//EN"
  "http://www.w3.org/Graphics/SVG/1.1/DTD/svg11.dtd">
<svg xmlns:xlink="http://www.w3.org/1999/xlink" width="460.8pt" height="345.6pt" viewBox="0 0 460.8 345.6" xmlns="http://www.w3.org/2000/svg" version="1.1">
 <metadata>
  <rdf:RDF xmlns:dc="http://purl.org/dc/elements/1.1/" xmlns:cc="http://creativecommons.org/ns#" xmlns:rdf="http://www.w3.org/1999/02/22-rdf-syntax-ns#">
   <cc:Work>
    <dc:type rdf:resource="http://purl.org/dc/dcmitype/StillImage"/>
    <dc:date>2024-03-17T14:53:05.196341</dc:date>
    <dc:format>image/svg+xml</dc:format>
    <dc:creator>
     <cc:Agent>
      <dc:title>Matplotlib v3.5.1, https://matplotlib.org/</dc:title>
     </cc:Agent>
    </dc:creator>
   </cc:Work>
  </rdf:RDF>
 </metadata>
 <defs>
  <style type="text/css">*{stroke-linejoin: round; stroke-linecap: butt}</style>
 </defs>
 <g id="figure_1">
  <g id="patch_1">
   <path d="M 0 345.6 
L 460.8 345.6 
L 460.8 0 
L 0 0 
z
" style="fill: #ffffff"/>
  </g>
  <g id="axes_1">
   <g id="patch_2">
    <path d="M 57.6 307.584 
L 414.72 307.584 
L 414.72 41.472 
L 57.6 41.472 
z
" style="fill: #ffffff"/>
   </g>
   <g id="matplotlib.axis_1">
    <g id="xtick_1">
     <g id="line2d_1">
      <defs>
       <path id="m1c14d4b2c2" d="M 0 0 
L 0 3.5 
" style="stroke: #000000; stroke-width: 0.8"/>
      </defs>
      <g>
       <use xlink:href="#m1c14d4b2c2" x="73.832727" y="307.584" style="stroke: #000000; stroke-width: 0.8"/>
      </g>
     </g>
     <g id="text_1">
      <!-- 0 -->
      <g transform="translate(70.651477 322.182437)scale(0.1 -0.1)">
       <defs>
        <path id="DejaVuSans-30" d="M 2034 4250 
Q 1547 4250 1301 3770 
Q 1056 3291 1056 2328 
Q 1056 1369 1301 889 
Q 1547 409 2034 409 
Q 2525 409 2770 889 
Q 3016 1369 3016 2328 
Q 3016 3291 2770 3770 
Q 2525 4250 2034 4250 
z
M 2034 4750 
Q 2819 4750 3233 4129 
Q 3647 3509 3647 2328 
Q 3647 1150 3233 529 
Q 2819 -91 2034 -91 
Q 1250 -91 836 529 
Q 422 1150 422 2328 
Q 422 3509 836 4129 
Q 1250 4750 2034 4750 
z
" transform="scale(0.015625)"/>
       </defs>
       <use xlink:href="#DejaVuSans-30"/>
      </g>
     </g>
    </g>
    <g id="xtick_2">
     <g id="line2d_2">
      <g>
       <use xlink:href="#m1c14d4b2c2" x="128.122785" y="307.584" style="stroke: #000000; stroke-width: 0.8"/>
      </g>
     </g>
     <g id="text_2">
      <!-- 50 -->
      <g transform="translate(121.760285 322.182437)scale(0.1 -0.1)">
       <defs>
        <path id="DejaVuSans-35" d="M 691 4666 
L 3169 4666 
L 3169 4134 
L 1269 4134 
L 1269 2991 
Q 1406 3038 1543 3061 
Q 1681 3084 1819 3084 
Q 2600 3084 3056 2656 
Q 3513 2228 3513 1497 
Q 3513 744 3044 326 
Q 2575 -91 1722 -91 
Q 1428 -91 1123 -41 
Q 819 9 494 109 
L 494 744 
Q 775 591 1075 516 
Q 1375 441 1709 441 
Q 2250 441 2565 725 
Q 2881 1009 2881 1497 
Q 2881 1984 2565 2268 
Q 2250 2553 1709 2553 
Q 1456 2553 1204 2497 
Q 953 2441 691 2322 
L 691 4666 
z
" transform="scale(0.015625)"/>
       </defs>
       <use xlink:href="#DejaVuSans-35"/>
       <use xlink:href="#DejaVuSans-30" x="63.623047"/>
      </g>
     </g>
    </g>
    <g id="xtick_3">
     <g id="line2d_3">
      <g>
       <use xlink:href="#m1c14d4b2c2" x="182.412843" y="307.584" style="stroke: #000000; stroke-width: 0.8"/>
      </g>
     </g>
     <g id="text_3">
      <!-- 100 -->
      <g transform="translate(172.869093 322.182437)scale(0.1 -0.1)">
       <defs>
        <path id="DejaVuSans-31" d="M 794 531 
L 1825 531 
L 1825 4091 
L 703 3866 
L 703 4441 
L 1819 4666 
L 2450 4666 
L 2450 531 
L 3481 531 
L 3481 0 
L 794 0 
L 794 531 
z
" transform="scale(0.015625)"/>
       </defs>
       <use xlink:href="#DejaVuSans-31"/>
       <use xlink:href="#DejaVuSans-30" x="63.623047"/>
       <use xlink:href="#DejaVuSans-30" x="127.246094"/>
      </g>
     </g>
    </g>
    <g id="xtick_4">
     <g id="line2d_4">
      <g>
       <use xlink:href="#m1c14d4b2c2" x="236.702901" y="307.584" style="stroke: #000000; stroke-width: 0.8"/>
      </g>
     </g>
     <g id="text_4">
      <!-- 150 -->
      <g transform="translate(227.159151 322.182437)scale(0.1 -0.1)">
       <use xlink:href="#DejaVuSans-31"/>
       <use xlink:href="#DejaVuSans-35" x="63.623047"/>
       <use xlink:href="#DejaVuSans-30" x="127.246094"/>
      </g>
     </g>
    </g>
    <g id="xtick_5">
     <g id="line2d_5">
      <g>
       <use xlink:href="#m1c14d4b2c2" x="290.992958" y="307.584" style="stroke: #000000; stroke-width: 0.8"/>
      </g>
     </g>
     <g id="text_5">
      <!-- 200 -->
      <g transform="translate(281.449208 322.182437)scale(0.1 -0.1)">
       <defs>
        <path id="DejaVuSans-32" d="M 1228 531 
L 3431 531 
L 3431 0 
L 469 0 
L 469 531 
Q 828 903 1448 1529 
Q 2069 2156 2228 2338 
Q 2531 2678 2651 2914 
Q 2772 3150 2772 3378 
Q 2772 3750 2511 3984 
Q 2250 4219 1831 4219 
Q 1534 4219 1204 4116 
Q 875 4013 500 3803 
L 500 4441 
Q 881 4594 1212 4672 
Q 1544 4750 1819 4750 
Q 2544 4750 2975 4387 
Q 3406 4025 3406 3419 
Q 3406 3131 3298 2873 
Q 3191 2616 2906 2266 
Q 2828 2175 2409 1742 
Q 1991 1309 1228 531 
z
" transform="scale(0.015625)"/>
       </defs>
       <use xlink:href="#DejaVuSans-32"/>
       <use xlink:href="#DejaVuSans-30" x="63.623047"/>
       <use xlink:href="#DejaVuSans-30" x="127.246094"/>
      </g>
     </g>
    </g>
    <g id="xtick_6">
     <g id="line2d_6">
      <g>
       <use xlink:href="#m1c14d4b2c2" x="345.283016" y="307.584" style="stroke: #000000; stroke-width: 0.8"/>
      </g>
     </g>
     <g id="text_6">
      <!-- 250 -->
      <g transform="translate(335.739266 322.182437)scale(0.1 -0.1)">
       <use xlink:href="#DejaVuSans-32"/>
       <use xlink:href="#DejaVuSans-35" x="63.623047"/>
       <use xlink:href="#DejaVuSans-30" x="127.246094"/>
      </g>
     </g>
    </g>
    <g id="xtick_7">
     <g id="line2d_7">
      <g>
       <use xlink:href="#m1c14d4b2c2" x="399.573074" y="307.584" style="stroke: #000000; stroke-width: 0.8"/>
      </g>
     </g>
     <g id="text_7">
      <!-- 300 -->
      <g transform="translate(390.029324 322.182437)scale(0.1 -0.1)">
       <defs>
        <path id="DejaVuSans-33" d="M 2597 2516 
Q 3050 2419 3304 2112 
Q 3559 1806 3559 1356 
Q 3559 666 3084 287 
Q 2609 -91 1734 -91 
Q 1441 -91 1130 -33 
Q 819 25 488 141 
L 488 750 
Q 750 597 1062 519 
Q 1375 441 1716 441 
Q 2309 441 2620 675 
Q 2931 909 2931 1356 
Q 2931 1769 2642 2001 
Q 2353 2234 1838 2234 
L 1294 2234 
L 1294 2753 
L 1863 2753 
Q 2328 2753 2575 2939 
Q 2822 3125 2822 3475 
Q 2822 3834 2567 4026 
Q 2313 4219 1838 4219 
Q 1578 4219 1281 4162 
Q 984 4106 628 3988 
L 628 4550 
Q 988 4650 1302 4700 
Q 1616 4750 1894 4750 
Q 2613 4750 3031 4423 
Q 3450 4097 3450 3541 
Q 3450 3153 3228 2886 
Q 3006 2619 2597 2516 
z
" transform="scale(0.015625)"/>
       </defs>
       <use xlink:href="#DejaVuSans-33"/>
       <use xlink:href="#DejaVuSans-30" x="63.623047"/>
       <use xlink:href="#DejaVuSans-30" x="127.246094"/>
      </g>
     </g>
    </g>
    <g id="text_8">
     <!-- Epoch -->
     <g transform="translate(220.849063 335.860562)scale(0.1 -0.1)">
      <defs>
       <path id="DejaVuSans-45" d="M 628 4666 
L 3578 4666 
L 3578 4134 
L 1259 4134 
L 1259 2753 
L 3481 2753 
L 3481 2222 
L 1259 2222 
L 1259 531 
L 3634 531 
L 3634 0 
L 628 0 
L 628 4666 
z
" transform="scale(0.015625)"/>
       <path id="DejaVuSans-70" d="M 1159 525 
L 1159 -1331 
L 581 -1331 
L 581 3500 
L 1159 3500 
L 1159 2969 
Q 1341 3281 1617 3432 
Q 1894 3584 2278 3584 
Q 2916 3584 3314 3078 
Q 3713 2572 3713 1747 
Q 3713 922 3314 415 
Q 2916 -91 2278 -91 
Q 1894 -91 1617 61 
Q 1341 213 1159 525 
z
M 3116 1747 
Q 3116 2381 2855 2742 
Q 2594 3103 2138 3103 
Q 1681 3103 1420 2742 
Q 1159 2381 1159 1747 
Q 1159 1113 1420 752 
Q 1681 391 2138 391 
Q 2594 391 2855 752 
Q 3116 1113 3116 1747 
z
" transform="scale(0.015625)"/>
       <path id="DejaVuSans-6f" d="M 1959 3097 
Q 1497 3097 1228 2736 
Q 959 2375 959 1747 
Q 959 1119 1226 758 
Q 1494 397 1959 397 
Q 2419 397 2687 759 
Q 2956 1122 2956 1747 
Q 2956 2369 2687 2733 
Q 2419 3097 1959 3097 
z
M 1959 3584 
Q 2709 3584 3137 3096 
Q 3566 2609 3566 1747 
Q 3566 888 3137 398 
Q 2709 -91 1959 -91 
Q 1206 -91 779 398 
Q 353 888 353 1747 
Q 353 2609 779 3096 
Q 1206 3584 1959 3584 
z
" transform="scale(0.015625)"/>
       <path id="DejaVuSans-63" d="M 3122 3366 
L 3122 2828 
Q 2878 2963 2633 3030 
Q 2388 3097 2138 3097 
Q 1578 3097 1268 2742 
Q 959 2388 959 1747 
Q 959 1106 1268 751 
Q 1578 397 2138 397 
Q 2388 397 2633 464 
Q 2878 531 3122 666 
L 3122 134 
Q 2881 22 2623 -34 
Q 2366 -91 2075 -91 
Q 1284 -91 818 406 
Q 353 903 353 1747 
Q 353 2603 823 3093 
Q 1294 3584 2113 3584 
Q 2378 3584 2631 3529 
Q 2884 3475 3122 3366 
z
" transform="scale(0.015625)"/>
       <path id="DejaVuSans-68" d="M 3513 2113 
L 3513 0 
L 2938 0 
L 2938 2094 
Q 2938 2591 2744 2837 
Q 2550 3084 2163 3084 
Q 1697 3084 1428 2787 
Q 1159 2491 1159 1978 
L 1159 0 
L 581 0 
L 581 4863 
L 1159 4863 
L 1159 2956 
Q 1366 3272 1645 3428 
Q 1925 3584 2291 3584 
Q 2894 3584 3203 3211 
Q 3513 2838 3513 2113 
z
" transform="scale(0.015625)"/>
      </defs>
      <use xlink:href="#DejaVuSans-45"/>
      <use xlink:href="#DejaVuSans-70" x="63.183594"/>
      <use xlink:href="#DejaVuSans-6f" x="126.660156"/>
      <use xlink:href="#DejaVuSans-63" x="187.841797"/>
      <use xlink:href="#DejaVuSans-68" x="242.822266"/>
     </g>
    </g>
   </g>
   <g id="matplotlib.axis_2">
    <g id="ytick_1">
     <g id="line2d_8">
      <defs>
       <path id="m7485acdfef" d="M 0 0 
L -3.5 0 
" style="stroke: #000000; stroke-width: 0.8"/>
      </defs>
      <g>
       <use xlink:href="#m7485acdfef" x="57.6" y="295.498634" style="stroke: #000000; stroke-width: 0.8"/>
      </g>
     </g>
     <g id="text_9">
      <!-- 0.0 -->
      <g transform="translate(34.696875 299.297853)scale(0.1 -0.1)">
       <defs>
        <path id="DejaVuSans-2e" d="M 684 794 
L 1344 794 
L 1344 0 
L 684 0 
L 684 794 
z
" transform="scale(0.015625)"/>
       </defs>
       <use xlink:href="#DejaVuSans-30"/>
       <use xlink:href="#DejaVuSans-2e" x="63.623047"/>
       <use xlink:href="#DejaVuSans-30" x="95.410156"/>
      </g>
     </g>
    </g>
    <g id="ytick_2">
     <g id="line2d_9">
      <g>
       <use xlink:href="#m7485acdfef" x="57.6" y="250.656946" style="stroke: #000000; stroke-width: 0.8"/>
      </g>
     </g>
     <g id="text_10">
      <!-- 0.5 -->
      <g transform="translate(34.696875 254.456165)scale(0.1 -0.1)">
       <use xlink:href="#DejaVuSans-30"/>
       <use xlink:href="#DejaVuSans-2e" x="63.623047"/>
       <use xlink:href="#DejaVuSans-35" x="95.410156"/>
      </g>
     </g>
    </g>
    <g id="ytick_3">
     <g id="line2d_10">
      <g>
       <use xlink:href="#m7485acdfef" x="57.6" y="205.815258" style="stroke: #000000; stroke-width: 0.8"/>
      </g>
     </g>
     <g id="text_11">
      <!-- 1.0 -->
      <g transform="translate(34.696875 209.614477)scale(0.1 -0.1)">
       <use xlink:href="#DejaVuSans-31"/>
       <use xlink:href="#DejaVuSans-2e" x="63.623047"/>
       <use xlink:href="#DejaVuSans-30" x="95.410156"/>
      </g>
     </g>
    </g>
    <g id="ytick_4">
     <g id="line2d_11">
      <g>
       <use xlink:href="#m7485acdfef" x="57.6" y="160.97357" style="stroke: #000000; stroke-width: 0.8"/>
      </g>
     </g>
     <g id="text_12">
      <!-- 1.5 -->
      <g transform="translate(34.696875 164.772789)scale(0.1 -0.1)">
       <use xlink:href="#DejaVuSans-31"/>
       <use xlink:href="#DejaVuSans-2e" x="63.623047"/>
       <use xlink:href="#DejaVuSans-35" x="95.410156"/>
      </g>
     </g>
    </g>
    <g id="ytick_5">
     <g id="line2d_12">
      <g>
       <use xlink:href="#m7485acdfef" x="57.6" y="116.131883" style="stroke: #000000; stroke-width: 0.8"/>
      </g>
     </g>
     <g id="text_13">
      <!-- 2.0 -->
      <g transform="translate(34.696875 119.931101)scale(0.1 -0.1)">
       <use xlink:href="#DejaVuSans-32"/>
       <use xlink:href="#DejaVuSans-2e" x="63.623047"/>
       <use xlink:href="#DejaVuSans-30" x="95.410156"/>
      </g>
     </g>
    </g>
    <g id="ytick_6">
     <g id="line2d_13">
      <g>
       <use xlink:href="#m7485acdfef" x="57.6" y="71.290195" style="stroke: #000000; stroke-width: 0.8"/>
      </g>
     </g>
     <g id="text_14">
      <!-- 2.5 -->
      <g transform="translate(34.696875 75.089413)scale(0.1 -0.1)">
       <use xlink:href="#DejaVuSans-32"/>
       <use xlink:href="#DejaVuSans-2e" x="63.623047"/>
       <use xlink:href="#DejaVuSans-35" x="95.410156"/>
      </g>
     </g>
    </g>
    <g id="text_15">
     <!-- Loss -->
     <g transform="translate(28.617188 185.495187)rotate(-90)scale(0.1 -0.1)">
      <defs>
       <path id="DejaVuSans-4c" d="M 628 4666 
L 1259 4666 
L 1259 531 
L 3531 531 
L 3531 0 
L 628 0 
L 628 4666 
z
" transform="scale(0.015625)"/>
       <path id="DejaVuSans-73" d="M 2834 3397 
L 2834 2853 
Q 2591 2978 2328 3040 
Q 2066 3103 1784 3103 
Q 1356 3103 1142 2972 
Q 928 2841 928 2578 
Q 928 2378 1081 2264 
Q 1234 2150 1697 2047 
L 1894 2003 
Q 2506 1872 2764 1633 
Q 3022 1394 3022 966 
Q 3022 478 2636 193 
Q 2250 -91 1575 -91 
Q 1294 -91 989 -36 
Q 684 19 347 128 
L 347 722 
Q 666 556 975 473 
Q 1284 391 1588 391 
Q 1994 391 2212 530 
Q 2431 669 2431 922 
Q 2431 1156 2273 1281 
Q 2116 1406 1581 1522 
L 1381 1569 
Q 847 1681 609 1914 
Q 372 2147 372 2553 
Q 372 3047 722 3315 
Q 1072 3584 1716 3584 
Q 2034 3584 2315 3537 
Q 2597 3491 2834 3397 
z
" transform="scale(0.015625)"/>
      </defs>
      <use xlink:href="#DejaVuSans-4c"/>
      <use xlink:href="#DejaVuSans-6f" x="53.962891"/>
      <use xlink:href="#DejaVuSans-73" x="115.144531"/>
      <use xlink:href="#DejaVuSans-73" x="167.244141"/>
     </g>
    </g>
   </g>
   <g id="line2d_14">
    <path d="M 73.832727 224.660889 
L 74.918528 268.131522 
L 76.00433 65.344002 
L 77.090131 178.846199 
L 78.175932 256.850696 
L 79.261733 261.886679 
L 80.347534 249.641308 
L 81.433335 247.461122 
L 82.519137 248.350413 
L 83.604938 250.268902 
L 84.690739 252.685418 
L 85.77654 255.627817 
L 86.862341 259.341373 
L 87.948142 264.090436 
L 89.033943 269.567873 
L 90.119745 272.306901 
L 91.205546 266.92326 
L 92.291347 268.165723 
L 93.377148 271.42746 
L 94.462949 272.447072 
L 95.54875 271.872241 
L 96.634552 271.013923 
L 97.720353 270.51057 
L 98.806154 270.545749 
L 99.891955 271.095723 
L 103.149358 273.927569 
L 104.23516 274.009595 
L 105.320961 272.960578 
L 106.406762 273.886726 
L 107.492563 275.173219 
L 108.578364 275.417688 
L 109.664165 275.421487 
L 110.749967 276.020628 
L 111.835768 278.855892 
L 112.921569 273.943414 
L 114.00737 281.803463 
L 115.093171 278.271152 
L 116.178972 280.131071 
L 117.264773 283.121616 
L 119.436376 282.551095 
L 120.522177 283.718417 
L 121.607978 285.967691 
L 122.693779 286.244668 
L 123.77958 284.694743 
L 124.865382 283.942815 
L 127.036984 285.690656 
L 129.208586 285.678908 
L 130.294387 286.27322 
L 131.380189 286.547957 
L 132.46599 286.143849 
L 133.551791 285.947541 
L 134.637592 286.461989 
L 135.723393 287.316647 
L 136.809194 287.609635 
L 137.894995 287.255687 
L 138.980797 287.306565 
L 140.066598 287.998663 
L 141.152399 288.327552 
L 142.2382 288.047219 
L 143.324001 288.165512 
L 144.409802 288.941213 
L 145.495604 289.320355 
L 146.581405 289.150601 
L 147.667206 289.608404 
L 148.753007 290.332052 
L 149.838808 290.216033 
L 150.924609 290.64128 
L 152.01041 291.741048 
L 153.096212 291.709387 
L 154.182013 292.461791 
L 155.267814 292.547218 
L 156.353615 292.121645 
L 157.439416 293.736261 
L 158.525217 293.059283 
L 159.611019 293.947738 
L 160.69682 292.817414 
L 161.782621 293.698324 
L 162.868422 293.145105 
L 163.954223 294.376153 
L 165.040024 293.830457 
L 166.125825 293.965548 
L 167.211627 293.891876 
L 168.297428 293.984648 
L 169.383229 294.965517 
L 170.46903 293.920787 
L 171.554831 294.568909 
L 172.640632 294.149148 
L 173.726434 294.236666 
L 174.812235 294.785202 
L 175.898036 294.313715 
L 176.983837 294.888202 
L 178.069638 294.501549 
L 179.155439 294.464808 
L 180.24124 294.837488 
L 181.327042 294.495569 
L 182.412843 295.0123 
L 183.498644 294.74675 
L 185.670246 294.831093 
L 186.756047 294.679629 
L 187.841849 294.966486 
L 188.92765 294.757803 
L 190.013451 295.020263 
L 191.099252 294.86073 
L 195.442457 295.154075 
L 196.528258 294.980873 
L 198.69986 295.064183 
L 199.785661 294.96517 
L 200.871462 295.130545 
L 203.043065 295.086576 
L 204.128866 295.175619 
L 205.214667 295.082581 
L 207.386269 295.191782 
L 208.472071 295.153624 
L 209.557872 295.230114 
L 211.729474 295.180662 
L 214.986877 295.246927 
L 223.673287 295.274332 
L 228.016491 295.319287 
L 235.617099 295.336407 
L 248.646713 295.378742 
L 346.368817 295.406091 
L 383.286057 295.328017 
L 385.457659 295.15508 
L 386.54346 294.993999 
L 388.715062 294.346324 
L 389.800863 293.631852 
L 390.886665 293.103423 
L 391.972466 291.813359 
L 393.058267 292.670924 
L 394.144068 293.232118 
L 395.229869 294.718958 
L 396.31567 293.573972 
L 397.401472 292.771671 
L 398.487273 294.484123 
L 398.487273 294.484123 
" clip-path="url(#pb4bf344a68)" style="fill: none; stroke: #1f77b4; stroke-width: 1.5; stroke-linecap: square"/>
   </g>
   <g id="line2d_15">
    <path d="M 73.832727 255.70162 
L 74.918528 89.893442 
L 76.00433 203.962834 
L 77.090131 287.28119 
L 78.175932 246.599827 
L 79.261733 231.374226 
L 80.347534 228.836546 
L 81.433335 229.839023 
L 82.519137 232.040826 
L 83.604938 234.87226 
L 84.690739 238.425648 
L 85.77654 243.129327 
L 86.862341 249.718931 
L 87.948142 259.332807 
L 90.119745 288.724722 
L 91.205546 286.535453 
L 93.377148 271.275112 
L 94.462949 266.08959 
L 95.54875 262.909683 
L 96.634552 261.422643 
L 97.720353 261.377149 
L 98.806154 262.611872 
L 99.891955 265.04383 
L 100.977756 268.668452 
L 102.063557 273.599355 
L 104.23516 286.894597 
L 105.320961 285.757815 
L 106.406762 280.159566 
L 107.492563 275.596226 
L 108.578364 273.132417 
L 109.664165 273.560016 
L 111.835768 289.385653 
L 112.921569 285.318675 
L 114.00737 274.548633 
L 115.093171 275.352596 
L 116.178972 279.517826 
L 117.264773 282.864424 
L 118.350575 284.319352 
L 119.436376 283.722604 
L 121.607978 280.194687 
L 122.693779 279.79722 
L 123.77958 280.959049 
L 125.951183 285.937346 
L 127.036984 287.292008 
L 128.122785 286.358863 
L 129.208586 283.551307 
L 130.294387 280.322545 
L 131.380189 278.038303 
L 132.46599 277.40431 
L 133.551791 278.543668 
L 134.637592 281.129489 
L 135.723393 284.341547 
L 136.809194 286.905777 
L 137.894995 287.660423 
L 138.980797 286.453221 
L 140.066598 284.287943 
L 141.152399 282.616086 
L 142.2382 282.530388 
L 143.324001 284.189234 
L 144.409802 286.643854 
L 145.495604 288.323411 
L 146.581405 288.110887 
L 148.753007 284.729752 
L 149.838808 285.107305 
L 152.01041 289.739407 
L 153.096212 289.752471 
L 154.182013 287.961183 
L 155.267814 287.707058 
L 156.353615 290.497671 
L 157.439416 292.487364 
L 158.525217 290.983609 
L 159.611019 289.700447 
L 160.69682 292.242082 
L 161.782621 294.157844 
L 162.868422 292.063775 
L 163.954223 291.396527 
L 165.040024 294.30674 
L 166.125825 294.681943 
L 167.211627 292.408884 
L 168.297428 293.711679 
L 169.383229 294.608872 
L 171.554831 293.542919 
L 172.640632 294.697476 
L 173.726434 295.252767 
L 174.812235 293.867547 
L 175.898036 295.236639 
L 178.069638 294.167797 
L 179.155439 294.740576 
L 180.24124 294.825386 
L 181.327042 294.467914 
L 182.412843 293.919838 
L 183.498644 295.203058 
L 184.584445 294.986154 
L 185.670246 293.803859 
L 186.756047 294.442553 
L 187.841849 295.260991 
L 188.92765 294.467846 
L 190.013451 294.21555 
L 191.099252 295.262743 
L 192.185053 295.180559 
L 193.270854 294.440312 
L 194.356656 295.104897 
L 195.442457 295.277962 
L 196.528258 294.779988 
L 198.69986 295.223742 
L 200.871462 294.902423 
L 201.957264 295.298754 
L 203.043065 295.269413 
L 204.128866 294.862626 
L 205.214667 295.30718 
L 206.300468 295.283592 
L 207.386269 294.807203 
L 208.472071 295.094516 
L 209.557872 295.262124 
L 210.643673 294.844366 
L 211.729474 294.975095 
L 212.815275 295.277305 
L 213.901076 294.985673 
L 214.986877 294.990991 
L 216.072679 295.306445 
L 218.244281 295.040464 
L 219.330082 295.313343 
L 221.501684 295.068251 
L 222.587486 295.297702 
L 224.759088 295.068876 
L 225.844889 295.25659 
L 228.016491 295.031128 
L 229.102292 295.1835 
L 231.273895 294.98107 
L 232.359696 295.115908 
L 235.617099 295.090542 
L 241.046105 294.985102 
L 242.131906 295.07843 
L 247.560912 294.966724 
L 248.646713 295.029239 
L 250.818316 294.942172 
L 252.989918 294.937426 
L 262.762128 294.913003 
L 267.105333 294.939625 
L 275.791742 294.907139 
L 312.708981 294.911789 
L 369.170642 294.945114 
L 378.942852 295.008094 
L 380.028653 294.873839 
L 381.114454 295.070533 
L 382.200255 294.775469 
L 383.286057 295.201841 
L 384.371858 294.535974 
L 385.457659 295.262793 
L 386.54346 293.935779 
L 387.629261 294.520297 
L 388.715062 292.453893 
L 389.800863 293.06829 
L 390.886665 289.775582 
L 391.972466 293.016884 
L 393.058267 291.227216 
L 394.144068 294.069297 
L 395.229869 294.925664 
L 396.31567 290.318567 
L 397.401472 294.566311 
L 398.487273 295.063075 
L 398.487273 295.063075 
" clip-path="url(#pb4bf344a68)" style="fill: none; stroke: #ff7f0e; stroke-width: 1.5; stroke-linecap: square"/>
   </g>
   <g id="line2d_16">
    <path d="M 73.832727 231.588583 
L 74.918528 263.805152 
L 76.00433 103.491677 
L 77.090131 230.580348 
L 78.175932 266.373596 
L 79.261733 253.407521 
L 80.347534 250.557113 
L 81.433335 251.120605 
L 82.519137 253.238027 
L 83.604938 256.479157 
L 84.690739 260.809626 
L 86.862341 271.11443 
L 87.948142 270.121885 
L 89.033943 267.218321 
L 90.119745 269.587475 
L 91.205546 271.655273 
L 92.291347 271.837426 
L 94.462949 270.585678 
L 95.54875 270.387681 
L 96.634552 270.697851 
L 97.720353 271.524676 
L 98.806154 272.842067 
L 99.891955 274.539297 
L 100.977756 274.39991 
L 102.063557 275.304782 
L 103.149358 277.414933 
L 104.23516 277.265029 
L 105.320961 279.920423 
L 106.406762 275.388696 
L 107.492563 283.789029 
L 108.578364 282.078839 
L 109.664165 287.797791 
L 110.749967 284.976886 
L 111.835768 285.536976 
L 112.921569 286.6842 
L 115.093171 283.932788 
L 116.178972 284.401047 
L 117.264773 285.72818 
L 118.350575 285.632104 
L 119.436376 284.941224 
L 120.522177 285.927176 
L 121.607978 287.411621 
L 122.693779 287.369299 
L 123.77958 286.740611 
L 124.865382 287.735346 
L 125.951183 289.341597 
L 127.036984 288.79805 
L 128.122785 288.731582 
L 129.208586 290.058327 
L 130.294387 289.130953 
L 131.380189 288.955697 
L 132.46599 290.081562 
L 133.551791 289.288596 
L 134.637592 289.681923 
L 135.723393 290.56694 
L 136.809194 290.05958 
L 137.894995 291.082061 
L 138.980797 291.652758 
L 140.066598 291.338814 
L 141.152399 292.553857 
L 142.2382 292.109466 
L 143.324001 292.078529 
L 144.409802 292.781074 
L 145.495604 292.308965 
L 147.667206 293.221475 
L 148.753007 292.679808 
L 149.838808 292.77821 
L 150.924609 293.02236 
L 152.01041 292.839362 
L 154.182013 293.968555 
L 155.267814 293.789961 
L 156.353615 294.312105 
L 157.439416 293.944278 
L 158.525217 294.278718 
L 159.611019 294.403506 
L 160.69682 294.249447 
L 161.782621 294.520041 
L 162.868422 294.064563 
L 163.954223 294.453643 
L 165.040024 294.23503 
L 166.125825 294.899539 
L 167.211627 294.602573 
L 168.297428 295.034954 
L 169.383229 294.567023 
L 170.46903 294.777804 
L 173.726434 294.826781 
L 174.812235 294.660863 
L 175.898036 294.905055 
L 176.983837 294.85762 
L 178.069638 295.259241 
L 179.155439 294.923195 
L 180.24124 295.062596 
L 181.327042 294.935978 
L 182.412843 295.205588 
L 183.498644 295.051017 
L 184.584445 295.115542 
L 185.670246 294.994437 
L 188.92765 295.261695 
L 191.099252 295.190048 
L 205.214667 295.380634 
L 206.300468 295.300115 
L 210.643673 295.352898 
L 216.072679 295.397348 
L 219.330082 295.38034 
L 222.587486 295.40422 
L 232.359696 295.411493 
L 256.247321 295.427204 
L 397.401472 295.436227 
L 398.487273 295.436261 
L 398.487273 295.436261 
" clip-path="url(#pb4bf344a68)" style="fill: none; stroke: #2ca02c; stroke-width: 1.5; stroke-linecap: square"/>
   </g>
   <g id="line2d_17">
    <path d="M 73.832727 271.13261 
L 74.918528 60.623286 
L 76.00433 191.5728 
L 77.090131 264.180241 
L 78.175932 280.155339 
L 79.261733 283.49265 
L 80.347534 283.09901 
L 81.433335 280.896112 
L 82.519137 277.211098 
L 83.604938 271.825778 
L 84.690739 264.159396 
L 85.77654 253.244024 
L 86.862341 238.548002 
L 87.948142 232.71336 
L 89.033943 237.302249 
L 90.119745 244.072239 
L 91.205546 249.645938 
L 92.291347 253.496492 
L 93.377148 255.849965 
L 94.462949 256.98437 
L 95.54875 257.101878 
L 96.634552 256.332651 
L 97.720353 254.751116 
L 98.806154 252.374168 
L 99.891955 249.270878 
L 100.977756 250.519058 
L 102.063557 254.549752 
L 103.149358 257.645763 
L 104.23516 259.949229 
L 105.320961 261.678309 
L 106.406762 265.867245 
L 107.492563 268.861384 
L 108.578364 270.781012 
L 109.664165 273.020871 
L 110.749967 276.076842 
L 112.921569 283.520502 
L 114.00737 286.600041 
L 115.093171 287.787538 
L 116.178972 287.100136 
L 117.264773 285.650031 
L 118.350575 284.39993 
L 119.436376 283.66622 
L 121.607978 282.63676 
L 122.693779 281.791205 
L 123.77958 280.634819 
L 125.951183 277.997594 
L 127.036984 277.001593 
L 128.122785 276.383288 
L 130.294387 275.719704 
L 131.380189 275.542425 
L 132.46599 275.651355 
L 133.551791 276.219099 
L 134.637592 277.196582 
L 135.723393 278.426388 
L 136.809194 279.867312 
L 137.894995 281.615224 
L 138.980797 283.735098 
L 141.152399 288.703621 
L 143.324001 293.845332 
L 144.409802 295.271445 
L 145.495604 294.659926 
L 146.581405 295.035295 
L 147.667206 294.884359 
L 148.753007 294.27842 
L 149.838808 294.117831 
L 152.01041 294.765244 
L 153.096212 293.914577 
L 154.182013 292.805226 
L 155.267814 292.159025 
L 156.353615 292.476838 
L 157.439416 293.807541 
L 158.525217 294.948987 
L 159.611019 293.817368 
L 160.69682 292.949662 
L 161.782621 292.572108 
L 162.868422 292.694879 
L 163.954223 293.464979 
L 165.040024 294.613311 
L 166.125825 293.388404 
L 167.211627 291.273381 
L 168.297428 289.60799 
L 169.383229 288.877767 
L 170.46903 289.282909 
L 172.640632 291.68436 
L 173.726434 292.285013 
L 174.812235 292.214986 
L 176.983837 291.202794 
L 178.069638 290.901807 
L 179.155439 291.010972 
L 180.24124 291.64853 
L 182.412843 293.642455 
L 183.498644 294.199939 
L 184.584445 294.362268 
L 185.670246 294.272666 
L 186.756047 293.914781 
L 188.92765 292.618058 
L 190.013451 292.218458 
L 191.099252 292.2058 
L 193.270854 292.803729 
L 194.356656 293.13963 
L 195.442457 293.352375 
L 196.528258 293.363727 
L 199.785661 292.998742 
L 200.871462 293.111761 
L 203.043065 293.674948 
L 204.128866 293.99732 
L 205.214667 294.202347 
L 206.300468 294.238561 
L 208.472071 293.954269 
L 210.643673 293.540085 
L 211.729474 293.443382 
L 213.901076 293.574632 
L 216.072679 293.715121 
L 218.244281 293.660421 
L 220.415883 293.514083 
L 222.587486 293.610507 
L 225.844889 293.911043 
L 228.016491 293.874594 
L 232.359696 293.597431 
L 249.732514 293.718413 
L 254.075719 293.722227 
L 267.105333 293.826891 
L 279.049146 293.835478 
L 314.880584 293.938751 
L 398.487273 294.08068 
L 398.487273 294.08068 
" clip-path="url(#pb4bf344a68)" style="fill: none; stroke: #d62728; stroke-width: 1.5; stroke-linecap: square"/>
   </g>
   <g id="line2d_18">
    <path d="M 73.832727 215.15483 
L 74.918528 264.070663 
L 76.00433 53.568 
L 77.090131 168.962392 
L 78.175932 252.223432 
L 79.261733 261.701333 
L 80.347534 245.758625 
L 81.433335 243.679197 
L 82.519137 245.212983 
L 83.604938 247.548431 
L 84.690739 250.208701 
L 85.77654 253.33151 
L 86.862341 257.274382 
L 87.948142 262.482833 
L 89.033943 268.871436 
L 90.119745 272.041957 
L 91.205546 265.566558 
L 92.291347 267.196404 
L 93.377148 271.055153 
L 94.462949 272.248784 
L 95.54875 271.447126 
L 96.634552 270.3095 
L 97.720353 269.615918 
L 98.806154 269.561273 
L 99.891955 270.094625 
L 103.149358 272.863027 
L 104.23516 273.040724 
L 106.406762 272.132505 
L 107.492563 272.264428 
L 108.578364 273.185183 
L 109.664165 274.306772 
L 110.749967 275.148244 
L 111.835768 276.141262 
L 112.921569 279.337749 
L 114.00737 267.720171 
L 115.093171 273.071766 
L 116.178972 267.947846 
L 117.264773 266.407377 
L 118.350575 266.869703 
L 119.436376 269.094078 
L 121.607978 276.962433 
L 122.693779 277.538668 
L 123.77958 274.799344 
L 124.865382 272.600211 
L 125.951183 272.9888 
L 128.122785 277.4671 
L 129.208586 278.596932 
L 130.294387 278.715424 
L 131.380189 278.66715 
L 132.46599 279.315812 
L 133.551791 281.473503 
L 134.637592 284.519308 
L 135.723393 283.999085 
L 136.809194 288.238807 
L 137.894995 288.102834 
L 138.980797 285.109713 
L 140.066598 283.690962 
L 141.152399 284.702768 
L 142.2382 287.297597 
L 143.324001 289.171293 
L 144.409802 287.966756 
L 145.495604 286.09274 
L 146.581405 286.505513 
L 147.667206 288.496214 
L 148.753007 290.053321 
L 149.838808 290.062768 
L 150.924609 289.239698 
L 152.01041 288.710867 
L 153.096212 288.87189 
L 155.267814 290.375691 
L 156.353615 290.791165 
L 157.439416 290.754844 
L 158.525217 290.552172 
L 159.611019 290.463508 
L 160.69682 290.701602 
L 161.782621 291.372643 
L 162.868422 292.276325 
L 163.954223 292.766806 
L 166.125825 292.282722 
L 167.211627 292.890495 
L 168.297428 293.962856 
L 169.383229 293.861477 
L 170.46903 293.05686 
L 171.554831 293.098851 
L 172.640632 293.900397 
L 173.726434 294.006625 
L 174.812235 293.461893 
L 175.898036 293.433515 
L 176.983837 293.953439 
L 178.069638 294.139911 
L 179.155439 293.740479 
L 180.24124 293.793313 
L 181.327042 294.309738 
L 182.412843 294.29996 
L 183.498644 293.935713 
L 184.584445 294.119694 
L 185.670246 294.59224 
L 187.841849 294.149354 
L 190.013451 294.81209 
L 191.099252 294.464856 
L 192.185053 294.458153 
L 193.270854 294.872545 
L 194.356656 294.855416 
L 195.442457 294.583348 
L 196.528258 294.72588 
L 197.614059 294.986242 
L 199.785661 294.707777 
L 201.957264 294.972853 
L 203.043065 294.833069 
L 204.128866 294.844353 
L 205.214667 294.975994 
L 212.815275 294.972421 
L 214.986877 295.003241 
L 217.15848 295.03363 
L 221.501684 295.084907 
L 228.016491 295.093481 
L 233.445497 295.131921 
L 244.303509 295.160783 
L 273.62014 295.210906 
L 398.487273 295.315153 
L 398.487273 295.315153 
" clip-path="url(#pb4bf344a68)" style="fill: none; stroke: #9467bd; stroke-width: 1.5; stroke-linecap: square"/>
   </g>
   <g id="line2d_19">
    <path d="M 73.832727 256.361167 
L 74.918528 69.805245 
L 76.00433 187.382758 
L 77.090131 276.235905 
L 78.175932 253.655338 
L 79.261733 233.990935 
L 80.347534 231.637259 
L 81.433335 233.376133 
L 82.519137 236.049569 
L 83.604938 239.147409 
L 84.690739 242.875216 
L 85.77654 247.773329 
L 86.862341 254.77195 
L 87.948142 265.408672 
L 89.033943 281.688906 
L 90.119745 293.08703 
L 91.205546 295.086289 
L 93.377148 278.097181 
L 94.462949 272.23569 
L 95.54875 268.622318 
L 96.634552 266.876636 
L 97.720353 266.680602 
L 98.806154 267.811885 
L 99.891955 270.103956 
L 100.977756 273.392207 
L 103.149358 281.889806 
L 104.23516 286.096253 
L 105.320961 289.166775 
L 106.406762 290.12982 
L 107.492563 288.664319 
L 109.664165 282.879719 
L 110.749967 282.126398 
L 111.835768 293.084075 
L 112.921569 271.351793 
L 114.00737 270.277293 
L 115.093171 262.130345 
L 116.178972 259.872325 
L 117.264773 260.494517 
L 118.350575 263.659206 
L 119.436376 269.534752 
L 121.607978 284.777408 
L 122.693779 290.942047 
L 123.77958 294.185352 
L 124.865382 293.860423 
L 125.951183 290.852552 
L 128.122785 282.497427 
L 129.208586 279.176307 
L 130.294387 277.096356 
L 131.380189 276.50033 
L 132.46599 277.599439 
L 133.551791 280.544299 
L 134.637592 285.120131 
L 135.723393 290.602107 
L 136.809194 295.096108 
L 137.894995 291.194711 
L 138.980797 289.654416 
L 140.066598 290.684713 
L 141.152399 293.679777 
L 142.2382 293.344755 
L 143.324001 289.39281 
L 144.409802 286.792255 
L 145.495604 286.793581 
L 146.581405 288.600195 
L 148.753007 293.006862 
L 149.838808 294.538818 
L 150.924609 295.225109 
L 152.01041 294.992089 
L 153.096212 293.968694 
L 156.353615 289.248132 
L 157.439416 288.211988 
L 158.525217 287.861699 
L 159.611019 288.302651 
L 160.69682 289.472735 
L 163.954223 294.398205 
L 165.040024 295.298788 
L 166.125825 295.420003 
L 167.211627 294.771072 
L 168.297428 293.632602 
L 169.383229 292.693422 
L 170.46903 292.772815 
L 171.554831 294.060516 
L 172.640632 295.15635 
L 173.726434 293.867389 
L 174.812235 293.651079 
L 175.898036 294.548997 
L 176.983837 294.984309 
L 178.069638 293.967791 
L 179.155439 294.104569 
L 180.24124 295.170368 
L 182.412843 294.226611 
L 183.498644 294.658973 
L 184.584445 295.335163 
L 185.670246 294.42529 
L 186.756047 294.174942 
L 187.841849 294.668983 
L 188.92765 295.488 
L 190.013451 294.888843 
L 191.099252 294.859256 
L 192.185053 295.366766 
L 194.356656 294.562153 
L 195.442457 294.688105 
L 196.528258 295.198035 
L 197.614059 295.277894 
L 198.69986 295.086973 
L 199.785661 295.323285 
L 200.871462 295.189538 
L 201.957264 294.780977 
L 203.043065 294.692435 
L 204.128866 294.935377 
L 205.214667 295.305818 
L 206.300468 295.454718 
L 207.386269 295.486544 
L 210.643673 294.731126 
L 211.729474 294.835813 
L 213.901076 295.357657 
L 214.986877 295.427521 
L 219.330082 294.97152 
L 222.587486 295.442781 
L 224.759088 295.193081 
L 225.844889 295.074704 
L 226.93069 295.088803 
L 230.188094 295.401806 
L 234.531298 295.15916 
L 237.788702 295.382269 
L 242.131906 295.245105 
L 245.38931 295.382801 
L 249.732514 295.287514 
L 252.989918 295.351395 
L 256.247321 295.271013 
L 260.590526 295.328377 
L 263.847929 295.295876 
L 268.191134 295.317098 
L 272.534339 295.334068 
L 321.395391 295.362113 
L 395.229869 295.398997 
L 398.487273 295.400237 
L 398.487273 295.400237 
" clip-path="url(#pb4bf344a68)" style="fill: none; stroke: #8c564b; stroke-width: 1.5; stroke-linecap: square"/>
   </g>
   <g id="patch_3">
    <path d="M 57.6 307.584 
L 57.6 41.472 
" style="fill: none; stroke: #000000; stroke-width: 0.8; stroke-linejoin: miter; stroke-linecap: square"/>
   </g>
   <g id="patch_4">
    <path d="M 414.72 307.584 
L 414.72 41.472 
" style="fill: none; stroke: #000000; stroke-width: 0.8; stroke-linejoin: miter; stroke-linecap: square"/>
   </g>
   <g id="patch_5">
    <path d="M 57.6 307.584 
L 414.72 307.584 
" style="fill: none; stroke: #000000; stroke-width: 0.8; stroke-linejoin: miter; stroke-linecap: square"/>
   </g>
   <g id="patch_6">
    <path d="M 57.6 41.472 
L 414.72 41.472 
" style="fill: none; stroke: #000000; stroke-width: 0.8; stroke-linejoin: miter; stroke-linecap: square"/>
   </g>
   <g id="text_16">
    <!-- 0.00486 -->
    <g transform="translate(357.134148 295.063075)scale(0.1 -0.1)">
     <defs>
      <path id="DejaVuSans-34" d="M 2419 4116 
L 825 1625 
L 2419 1625 
L 2419 4116 
z
M 2253 4666 
L 3047 4666 
L 3047 1625 
L 3713 1625 
L 3713 1100 
L 3047 1100 
L 3047 0 
L 2419 0 
L 2419 1100 
L 313 1100 
L 313 1709 
L 2253 4666 
z
" transform="scale(0.015625)"/>
      <path id="DejaVuSans-38" d="M 2034 2216 
Q 1584 2216 1326 1975 
Q 1069 1734 1069 1313 
Q 1069 891 1326 650 
Q 1584 409 2034 409 
Q 2484 409 2743 651 
Q 3003 894 3003 1313 
Q 3003 1734 2745 1975 
Q 2488 2216 2034 2216 
z
M 1403 2484 
Q 997 2584 770 2862 
Q 544 3141 544 3541 
Q 544 4100 942 4425 
Q 1341 4750 2034 4750 
Q 2731 4750 3128 4425 
Q 3525 4100 3525 3541 
Q 3525 3141 3298 2862 
Q 3072 2584 2669 2484 
Q 3125 2378 3379 2068 
Q 3634 1759 3634 1313 
Q 3634 634 3220 271 
Q 2806 -91 2034 -91 
Q 1263 -91 848 271 
Q 434 634 434 1313 
Q 434 1759 690 2068 
Q 947 2378 1403 2484 
z
M 1172 3481 
Q 1172 3119 1398 2916 
Q 1625 2713 2034 2713 
Q 2441 2713 2670 2916 
Q 2900 3119 2900 3481 
Q 2900 3844 2670 4047 
Q 2441 4250 2034 4250 
Q 1625 4250 1398 4047 
Q 1172 3844 1172 3481 
z
" transform="scale(0.015625)"/>
      <path id="DejaVuSans-36" d="M 2113 2584 
Q 1688 2584 1439 2293 
Q 1191 2003 1191 1497 
Q 1191 994 1439 701 
Q 1688 409 2113 409 
Q 2538 409 2786 701 
Q 3034 994 3034 1497 
Q 3034 2003 2786 2293 
Q 2538 2584 2113 2584 
z
M 3366 4563 
L 3366 3988 
Q 3128 4100 2886 4159 
Q 2644 4219 2406 4219 
Q 1781 4219 1451 3797 
Q 1122 3375 1075 2522 
Q 1259 2794 1537 2939 
Q 1816 3084 2150 3084 
Q 2853 3084 3261 2657 
Q 3669 2231 3669 1497 
Q 3669 778 3244 343 
Q 2819 -91 2113 -91 
Q 1303 -91 875 529 
Q 447 1150 447 2328 
Q 447 3434 972 4092 
Q 1497 4750 2381 4750 
Q 2619 4750 2861 4703 
Q 3103 4656 3366 4563 
z
" transform="scale(0.015625)"/>
     </defs>
     <use xlink:href="#DejaVuSans-30"/>
     <use xlink:href="#DejaVuSans-2e" x="63.623047"/>
     <use xlink:href="#DejaVuSans-30" x="95.410156"/>
     <use xlink:href="#DejaVuSans-30" x="159.033203"/>
     <use xlink:href="#DejaVuSans-34" x="222.65625"/>
     <use xlink:href="#DejaVuSans-38" x="286.279297"/>
     <use xlink:href="#DejaVuSans-36" x="349.902344"/>
    </g>
   </g>
   <g id="text_17">
    <!-- Root Mean Squared Error (RMSE) -->
    <g transform="translate(137.410313 35.472)scale(0.12 -0.12)">
     <defs>
      <path id="DejaVuSans-52" d="M 2841 2188 
Q 3044 2119 3236 1894 
Q 3428 1669 3622 1275 
L 4263 0 
L 3584 0 
L 2988 1197 
Q 2756 1666 2539 1819 
Q 2322 1972 1947 1972 
L 1259 1972 
L 1259 0 
L 628 0 
L 628 4666 
L 2053 4666 
Q 2853 4666 3247 4331 
Q 3641 3997 3641 3322 
Q 3641 2881 3436 2590 
Q 3231 2300 2841 2188 
z
M 1259 4147 
L 1259 2491 
L 2053 2491 
Q 2509 2491 2742 2702 
Q 2975 2913 2975 3322 
Q 2975 3731 2742 3939 
Q 2509 4147 2053 4147 
L 1259 4147 
z
" transform="scale(0.015625)"/>
      <path id="DejaVuSans-74" d="M 1172 4494 
L 1172 3500 
L 2356 3500 
L 2356 3053 
L 1172 3053 
L 1172 1153 
Q 1172 725 1289 603 
Q 1406 481 1766 481 
L 2356 481 
L 2356 0 
L 1766 0 
Q 1100 0 847 248 
Q 594 497 594 1153 
L 594 3053 
L 172 3053 
L 172 3500 
L 594 3500 
L 594 4494 
L 1172 4494 
z
" transform="scale(0.015625)"/>
      <path id="DejaVuSans-20" transform="scale(0.015625)"/>
      <path id="DejaVuSans-4d" d="M 628 4666 
L 1569 4666 
L 2759 1491 
L 3956 4666 
L 4897 4666 
L 4897 0 
L 4281 0 
L 4281 4097 
L 3078 897 
L 2444 897 
L 1241 4097 
L 1241 0 
L 628 0 
L 628 4666 
z
" transform="scale(0.015625)"/>
      <path id="DejaVuSans-65" d="M 3597 1894 
L 3597 1613 
L 953 1613 
Q 991 1019 1311 708 
Q 1631 397 2203 397 
Q 2534 397 2845 478 
Q 3156 559 3463 722 
L 3463 178 
Q 3153 47 2828 -22 
Q 2503 -91 2169 -91 
Q 1331 -91 842 396 
Q 353 884 353 1716 
Q 353 2575 817 3079 
Q 1281 3584 2069 3584 
Q 2775 3584 3186 3129 
Q 3597 2675 3597 1894 
z
M 3022 2063 
Q 3016 2534 2758 2815 
Q 2500 3097 2075 3097 
Q 1594 3097 1305 2825 
Q 1016 2553 972 2059 
L 3022 2063 
z
" transform="scale(0.015625)"/>
      <path id="DejaVuSans-61" d="M 2194 1759 
Q 1497 1759 1228 1600 
Q 959 1441 959 1056 
Q 959 750 1161 570 
Q 1363 391 1709 391 
Q 2188 391 2477 730 
Q 2766 1069 2766 1631 
L 2766 1759 
L 2194 1759 
z
M 3341 1997 
L 3341 0 
L 2766 0 
L 2766 531 
Q 2569 213 2275 61 
Q 1981 -91 1556 -91 
Q 1019 -91 701 211 
Q 384 513 384 1019 
Q 384 1609 779 1909 
Q 1175 2209 1959 2209 
L 2766 2209 
L 2766 2266 
Q 2766 2663 2505 2880 
Q 2244 3097 1772 3097 
Q 1472 3097 1187 3025 
Q 903 2953 641 2809 
L 641 3341 
Q 956 3463 1253 3523 
Q 1550 3584 1831 3584 
Q 2591 3584 2966 3190 
Q 3341 2797 3341 1997 
z
" transform="scale(0.015625)"/>
      <path id="DejaVuSans-6e" d="M 3513 2113 
L 3513 0 
L 2938 0 
L 2938 2094 
Q 2938 2591 2744 2837 
Q 2550 3084 2163 3084 
Q 1697 3084 1428 2787 
Q 1159 2491 1159 1978 
L 1159 0 
L 581 0 
L 581 3500 
L 1159 3500 
L 1159 2956 
Q 1366 3272 1645 3428 
Q 1925 3584 2291 3584 
Q 2894 3584 3203 3211 
Q 3513 2838 3513 2113 
z
" transform="scale(0.015625)"/>
      <path id="DejaVuSans-53" d="M 3425 4513 
L 3425 3897 
Q 3066 4069 2747 4153 
Q 2428 4238 2131 4238 
Q 1616 4238 1336 4038 
Q 1056 3838 1056 3469 
Q 1056 3159 1242 3001 
Q 1428 2844 1947 2747 
L 2328 2669 
Q 3034 2534 3370 2195 
Q 3706 1856 3706 1288 
Q 3706 609 3251 259 
Q 2797 -91 1919 -91 
Q 1588 -91 1214 -16 
Q 841 59 441 206 
L 441 856 
Q 825 641 1194 531 
Q 1563 422 1919 422 
Q 2459 422 2753 634 
Q 3047 847 3047 1241 
Q 3047 1584 2836 1778 
Q 2625 1972 2144 2069 
L 1759 2144 
Q 1053 2284 737 2584 
Q 422 2884 422 3419 
Q 422 4038 858 4394 
Q 1294 4750 2059 4750 
Q 2388 4750 2728 4690 
Q 3069 4631 3425 4513 
z
" transform="scale(0.015625)"/>
      <path id="DejaVuSans-71" d="M 947 1747 
Q 947 1113 1208 752 
Q 1469 391 1925 391 
Q 2381 391 2643 752 
Q 2906 1113 2906 1747 
Q 2906 2381 2643 2742 
Q 2381 3103 1925 3103 
Q 1469 3103 1208 2742 
Q 947 2381 947 1747 
z
M 2906 525 
Q 2725 213 2448 61 
Q 2172 -91 1784 -91 
Q 1150 -91 751 415 
Q 353 922 353 1747 
Q 353 2572 751 3078 
Q 1150 3584 1784 3584 
Q 2172 3584 2448 3432 
Q 2725 3281 2906 2969 
L 2906 3500 
L 3481 3500 
L 3481 -1331 
L 2906 -1331 
L 2906 525 
z
" transform="scale(0.015625)"/>
      <path id="DejaVuSans-75" d="M 544 1381 
L 544 3500 
L 1119 3500 
L 1119 1403 
Q 1119 906 1312 657 
Q 1506 409 1894 409 
Q 2359 409 2629 706 
Q 2900 1003 2900 1516 
L 2900 3500 
L 3475 3500 
L 3475 0 
L 2900 0 
L 2900 538 
Q 2691 219 2414 64 
Q 2138 -91 1772 -91 
Q 1169 -91 856 284 
Q 544 659 544 1381 
z
M 1991 3584 
L 1991 3584 
z
" transform="scale(0.015625)"/>
      <path id="DejaVuSans-72" d="M 2631 2963 
Q 2534 3019 2420 3045 
Q 2306 3072 2169 3072 
Q 1681 3072 1420 2755 
Q 1159 2438 1159 1844 
L 1159 0 
L 581 0 
L 581 3500 
L 1159 3500 
L 1159 2956 
Q 1341 3275 1631 3429 
Q 1922 3584 2338 3584 
Q 2397 3584 2469 3576 
Q 2541 3569 2628 3553 
L 2631 2963 
z
" transform="scale(0.015625)"/>
      <path id="DejaVuSans-64" d="M 2906 2969 
L 2906 4863 
L 3481 4863 
L 3481 0 
L 2906 0 
L 2906 525 
Q 2725 213 2448 61 
Q 2172 -91 1784 -91 
Q 1150 -91 751 415 
Q 353 922 353 1747 
Q 353 2572 751 3078 
Q 1150 3584 1784 3584 
Q 2172 3584 2448 3432 
Q 2725 3281 2906 2969 
z
M 947 1747 
Q 947 1113 1208 752 
Q 1469 391 1925 391 
Q 2381 391 2643 752 
Q 2906 1113 2906 1747 
Q 2906 2381 2643 2742 
Q 2381 3103 1925 3103 
Q 1469 3103 1208 2742 
Q 947 2381 947 1747 
z
" transform="scale(0.015625)"/>
      <path id="DejaVuSans-28" d="M 1984 4856 
Q 1566 4138 1362 3434 
Q 1159 2731 1159 2009 
Q 1159 1288 1364 580 
Q 1569 -128 1984 -844 
L 1484 -844 
Q 1016 -109 783 600 
Q 550 1309 550 2009 
Q 550 2706 781 3412 
Q 1013 4119 1484 4856 
L 1984 4856 
z
" transform="scale(0.015625)"/>
      <path id="DejaVuSans-29" d="M 513 4856 
L 1013 4856 
Q 1481 4119 1714 3412 
Q 1947 2706 1947 2009 
Q 1947 1309 1714 600 
Q 1481 -109 1013 -844 
L 513 -844 
Q 928 -128 1133 580 
Q 1338 1288 1338 2009 
Q 1338 2731 1133 3434 
Q 928 4138 513 4856 
z
" transform="scale(0.015625)"/>
     </defs>
     <use xlink:href="#DejaVuSans-52"/>
     <use xlink:href="#DejaVuSans-6f" x="64.982422"/>
     <use xlink:href="#DejaVuSans-6f" x="126.164062"/>
     <use xlink:href="#DejaVuSans-74" x="187.345703"/>
     <use xlink:href="#DejaVuSans-20" x="226.554688"/>
     <use xlink:href="#DejaVuSans-4d" x="258.341797"/>
     <use xlink:href="#DejaVuSans-65" x="344.621094"/>
     <use xlink:href="#DejaVuSans-61" x="406.144531"/>
     <use xlink:href="#DejaVuSans-6e" x="467.423828"/>
     <use xlink:href="#DejaVuSans-20" x="530.802734"/>
     <use xlink:href="#DejaVuSans-53" x="562.589844"/>
     <use xlink:href="#DejaVuSans-71" x="626.066406"/>
     <use xlink:href="#DejaVuSans-75" x="689.542969"/>
     <use xlink:href="#DejaVuSans-61" x="752.921875"/>
     <use xlink:href="#DejaVuSans-72" x="814.201172"/>
     <use xlink:href="#DejaVuSans-65" x="853.064453"/>
     <use xlink:href="#DejaVuSans-64" x="914.587891"/>
     <use xlink:href="#DejaVuSans-20" x="978.064453"/>
     <use xlink:href="#DejaVuSans-45" x="1009.851562"/>
     <use xlink:href="#DejaVuSans-72" x="1073.035156"/>
     <use xlink:href="#DejaVuSans-72" x="1112.398438"/>
     <use xlink:href="#DejaVuSans-6f" x="1151.261719"/>
     <use xlink:href="#DejaVuSans-72" x="1212.443359"/>
     <use xlink:href="#DejaVuSans-20" x="1253.556641"/>
     <use xlink:href="#DejaVuSans-28" x="1285.34375"/>
     <use xlink:href="#DejaVuSans-52" x="1324.357422"/>
     <use xlink:href="#DejaVuSans-4d" x="1393.839844"/>
     <use xlink:href="#DejaVuSans-53" x="1480.119141"/>
     <use xlink:href="#DejaVuSans-45" x="1543.595703"/>
     <use xlink:href="#DejaVuSans-29" x="1606.779297"/>
    </g>
   </g>
   <g id="legend_1">
    <g id="patch_7">
     <path d="M 273.702812 137.54075 
L 407.72 137.54075 
Q 409.72 137.54075 409.72 135.54075 
L 409.72 48.472 
Q 409.72 46.472 407.72 46.472 
L 273.702812 46.472 
Q 271.702812 46.472 271.702812 48.472 
L 271.702812 135.54075 
Q 271.702812 137.54075 273.702812 137.54075 
z
" style="fill: #ffffff; opacity: 0.8; stroke: #cccccc; stroke-linejoin: miter"/>
    </g>
    <g id="line2d_20">
     <path d="M 275.702812 54.570438 
L 285.702812 54.570438 
L 295.702812 54.570438 
" style="fill: none; stroke: #1f77b4; stroke-width: 1.5; stroke-linecap: square"/>
    </g>
    <g id="text_18">
     <!-- Longitude Train Loss -->
     <g transform="translate(303.702812 58.070438)scale(0.1 -0.1)">
      <defs>
       <path id="DejaVuSans-67" d="M 2906 1791 
Q 2906 2416 2648 2759 
Q 2391 3103 1925 3103 
Q 1463 3103 1205 2759 
Q 947 2416 947 1791 
Q 947 1169 1205 825 
Q 1463 481 1925 481 
Q 2391 481 2648 825 
Q 2906 1169 2906 1791 
z
M 3481 434 
Q 3481 -459 3084 -895 
Q 2688 -1331 1869 -1331 
Q 1566 -1331 1297 -1286 
Q 1028 -1241 775 -1147 
L 775 -588 
Q 1028 -725 1275 -790 
Q 1522 -856 1778 -856 
Q 2344 -856 2625 -561 
Q 2906 -266 2906 331 
L 2906 616 
Q 2728 306 2450 153 
Q 2172 0 1784 0 
Q 1141 0 747 490 
Q 353 981 353 1791 
Q 353 2603 747 3093 
Q 1141 3584 1784 3584 
Q 2172 3584 2450 3431 
Q 2728 3278 2906 2969 
L 2906 3500 
L 3481 3500 
L 3481 434 
z
" transform="scale(0.015625)"/>
       <path id="DejaVuSans-69" d="M 603 3500 
L 1178 3500 
L 1178 0 
L 603 0 
L 603 3500 
z
M 603 4863 
L 1178 4863 
L 1178 4134 
L 603 4134 
L 603 4863 
z
" transform="scale(0.015625)"/>
       <path id="DejaVuSans-54" d="M -19 4666 
L 3928 4666 
L 3928 4134 
L 2272 4134 
L 2272 0 
L 1638 0 
L 1638 4134 
L -19 4134 
L -19 4666 
z
" transform="scale(0.015625)"/>
      </defs>
      <use xlink:href="#DejaVuSans-4c"/>
      <use xlink:href="#DejaVuSans-6f" x="53.962891"/>
      <use xlink:href="#DejaVuSans-6e" x="115.144531"/>
      <use xlink:href="#DejaVuSans-67" x="178.523438"/>
      <use xlink:href="#DejaVuSans-69" x="242"/>
      <use xlink:href="#DejaVuSans-74" x="269.783203"/>
      <use xlink:href="#DejaVuSans-75" x="308.992188"/>
      <use xlink:href="#DejaVuSans-64" x="372.371094"/>
      <use xlink:href="#DejaVuSans-65" x="435.847656"/>
      <use xlink:href="#DejaVuSans-20" x="497.371094"/>
      <use xlink:href="#DejaVuSans-54" x="529.158203"/>
      <use xlink:href="#DejaVuSans-72" x="575.492188"/>
      <use xlink:href="#DejaVuSans-61" x="616.605469"/>
      <use xlink:href="#DejaVuSans-69" x="677.884766"/>
      <use xlink:href="#DejaVuSans-6e" x="705.667969"/>
      <use xlink:href="#DejaVuSans-20" x="769.046875"/>
      <use xlink:href="#DejaVuSans-4c" x="800.833984"/>
      <use xlink:href="#DejaVuSans-6f" x="854.796875"/>
      <use xlink:href="#DejaVuSans-73" x="915.978516"/>
      <use xlink:href="#DejaVuSans-73" x="968.078125"/>
     </g>
    </g>
    <g id="line2d_21">
     <path d="M 275.702812 69.248563 
L 285.702812 69.248563 
L 295.702812 69.248563 
" style="fill: none; stroke: #ff7f0e; stroke-width: 1.5; stroke-linecap: square"/>
    </g>
    <g id="text_19">
     <!-- Longitude Test Loss -->
     <g transform="translate(303.702812 72.748563)scale(0.1 -0.1)">
      <use xlink:href="#DejaVuSans-4c"/>
      <use xlink:href="#DejaVuSans-6f" x="53.962891"/>
      <use xlink:href="#DejaVuSans-6e" x="115.144531"/>
      <use xlink:href="#DejaVuSans-67" x="178.523438"/>
      <use xlink:href="#DejaVuSans-69" x="242"/>
      <use xlink:href="#DejaVuSans-74" x="269.783203"/>
      <use xlink:href="#DejaVuSans-75" x="308.992188"/>
      <use xlink:href="#DejaVuSans-64" x="372.371094"/>
      <use xlink:href="#DejaVuSans-65" x="435.847656"/>
      <use xlink:href="#DejaVuSans-20" x="497.371094"/>
      <use xlink:href="#DejaVuSans-54" x="529.158203"/>
      <use xlink:href="#DejaVuSans-65" x="573.242188"/>
      <use xlink:href="#DejaVuSans-73" x="634.765625"/>
      <use xlink:href="#DejaVuSans-74" x="686.865234"/>
      <use xlink:href="#DejaVuSans-20" x="726.074219"/>
      <use xlink:href="#DejaVuSans-4c" x="757.861328"/>
      <use xlink:href="#DejaVuSans-6f" x="811.824219"/>
      <use xlink:href="#DejaVuSans-73" x="873.005859"/>
      <use xlink:href="#DejaVuSans-73" x="925.105469"/>
     </g>
    </g>
    <g id="line2d_22">
     <path d="M 275.702812 83.926688 
L 285.702812 83.926688 
L 295.702812 83.926688 
" style="fill: none; stroke: #2ca02c; stroke-width: 1.5; stroke-linecap: square"/>
    </g>
    <g id="text_20">
     <!-- Latitude Train Loss -->
     <g transform="translate(303.702812 87.426688)scale(0.1 -0.1)">
      <use xlink:href="#DejaVuSans-4c"/>
      <use xlink:href="#DejaVuSans-61" x="55.712891"/>
      <use xlink:href="#DejaVuSans-74" x="116.992188"/>
      <use xlink:href="#DejaVuSans-69" x="156.201172"/>
      <use xlink:href="#DejaVuSans-74" x="183.984375"/>
      <use xlink:href="#DejaVuSans-75" x="223.193359"/>
      <use xlink:href="#DejaVuSans-64" x="286.572266"/>
      <use xlink:href="#DejaVuSans-65" x="350.048828"/>
      <use xlink:href="#DejaVuSans-20" x="411.572266"/>
      <use xlink:href="#DejaVuSans-54" x="443.359375"/>
      <use xlink:href="#DejaVuSans-72" x="489.693359"/>
      <use xlink:href="#DejaVuSans-61" x="530.806641"/>
      <use xlink:href="#DejaVuSans-69" x="592.085938"/>
      <use xlink:href="#DejaVuSans-6e" x="619.869141"/>
      <use xlink:href="#DejaVuSans-20" x="683.248047"/>
      <use xlink:href="#DejaVuSans-4c" x="715.035156"/>
      <use xlink:href="#DejaVuSans-6f" x="768.998047"/>
      <use xlink:href="#DejaVuSans-73" x="830.179688"/>
      <use xlink:href="#DejaVuSans-73" x="882.279297"/>
     </g>
    </g>
    <g id="line2d_23">
     <path d="M 275.702812 98.604813 
L 285.702812 98.604813 
L 295.702812 98.604813 
" style="fill: none; stroke: #d62728; stroke-width: 1.5; stroke-linecap: square"/>
    </g>
    <g id="text_21">
     <!-- Latitude Test Loss -->
     <g transform="translate(303.702812 102.104813)scale(0.1 -0.1)">
      <use xlink:href="#DejaVuSans-4c"/>
      <use xlink:href="#DejaVuSans-61" x="55.712891"/>
      <use xlink:href="#DejaVuSans-74" x="116.992188"/>
      <use xlink:href="#DejaVuSans-69" x="156.201172"/>
      <use xlink:href="#DejaVuSans-74" x="183.984375"/>
      <use xlink:href="#DejaVuSans-75" x="223.193359"/>
      <use xlink:href="#DejaVuSans-64" x="286.572266"/>
      <use xlink:href="#DejaVuSans-65" x="350.048828"/>
      <use xlink:href="#DejaVuSans-20" x="411.572266"/>
      <use xlink:href="#DejaVuSans-54" x="443.359375"/>
      <use xlink:href="#DejaVuSans-65" x="487.443359"/>
      <use xlink:href="#DejaVuSans-73" x="548.966797"/>
      <use xlink:href="#DejaVuSans-74" x="601.066406"/>
      <use xlink:href="#DejaVuSans-20" x="640.275391"/>
      <use xlink:href="#DejaVuSans-4c" x="672.0625"/>
      <use xlink:href="#DejaVuSans-6f" x="726.025391"/>
      <use xlink:href="#DejaVuSans-73" x="787.207031"/>
      <use xlink:href="#DejaVuSans-73" x="839.306641"/>
     </g>
    </g>
    <g id="line2d_24">
     <path d="M 275.702812 113.282938 
L 285.702812 113.282938 
L 295.702812 113.282938 
" style="fill: none; stroke: #9467bd; stroke-width: 1.5; stroke-linecap: square"/>
    </g>
    <g id="text_22">
     <!-- Altitude Train Loss -->
     <g transform="translate(303.702812 116.782938)scale(0.1 -0.1)">
      <defs>
       <path id="DejaVuSans-41" d="M 2188 4044 
L 1331 1722 
L 3047 1722 
L 2188 4044 
z
M 1831 4666 
L 2547 4666 
L 4325 0 
L 3669 0 
L 3244 1197 
L 1141 1197 
L 716 0 
L 50 0 
L 1831 4666 
z
" transform="scale(0.015625)"/>
       <path id="DejaVuSans-6c" d="M 603 4863 
L 1178 4863 
L 1178 0 
L 603 0 
L 603 4863 
z
" transform="scale(0.015625)"/>
      </defs>
      <use xlink:href="#DejaVuSans-41"/>
      <use xlink:href="#DejaVuSans-6c" x="68.408203"/>
      <use xlink:href="#DejaVuSans-74" x="96.191406"/>
      <use xlink:href="#DejaVuSans-69" x="135.400391"/>
      <use xlink:href="#DejaVuSans-74" x="163.183594"/>
      <use xlink:href="#DejaVuSans-75" x="202.392578"/>
      <use xlink:href="#DejaVuSans-64" x="265.771484"/>
      <use xlink:href="#DejaVuSans-65" x="329.248047"/>
      <use xlink:href="#DejaVuSans-20" x="390.771484"/>
      <use xlink:href="#DejaVuSans-54" x="422.558594"/>
      <use xlink:href="#DejaVuSans-72" x="468.892578"/>
      <use xlink:href="#DejaVuSans-61" x="510.005859"/>
      <use xlink:href="#DejaVuSans-69" x="571.285156"/>
      <use xlink:href="#DejaVuSans-6e" x="599.068359"/>
      <use xlink:href="#DejaVuSans-20" x="662.447266"/>
      <use xlink:href="#DejaVuSans-4c" x="694.234375"/>
      <use xlink:href="#DejaVuSans-6f" x="748.197266"/>
      <use xlink:href="#DejaVuSans-73" x="809.378906"/>
      <use xlink:href="#DejaVuSans-73" x="861.478516"/>
     </g>
    </g>
    <g id="line2d_25">
     <path d="M 275.702812 127.961063 
L 285.702812 127.961063 
L 295.702812 127.961063 
" style="fill: none; stroke: #8c564b; stroke-width: 1.5; stroke-linecap: square"/>
    </g>
    <g id="text_23">
     <!-- Altitude Test Loss -->
     <g transform="translate(303.702812 131.461063)scale(0.1 -0.1)">
      <use xlink:href="#DejaVuSans-41"/>
      <use xlink:href="#DejaVuSans-6c" x="68.408203"/>
      <use xlink:href="#DejaVuSans-74" x="96.191406"/>
      <use xlink:href="#DejaVuSans-69" x="135.400391"/>
      <use xlink:href="#DejaVuSans-74" x="163.183594"/>
      <use xlink:href="#DejaVuSans-75" x="202.392578"/>
      <use xlink:href="#DejaVuSans-64" x="265.771484"/>
      <use xlink:href="#DejaVuSans-65" x="329.248047"/>
      <use xlink:href="#DejaVuSans-20" x="390.771484"/>
      <use xlink:href="#DejaVuSans-54" x="422.558594"/>
      <use xlink:href="#DejaVuSans-65" x="466.642578"/>
      <use xlink:href="#DejaVuSans-73" x="528.166016"/>
      <use xlink:href="#DejaVuSans-74" x="580.265625"/>
      <use xlink:href="#DejaVuSans-20" x="619.474609"/>
      <use xlink:href="#DejaVuSans-4c" x="651.261719"/>
      <use xlink:href="#DejaVuSans-6f" x="705.224609"/>
      <use xlink:href="#DejaVuSans-73" x="766.40625"/>
      <use xlink:href="#DejaVuSans-73" x="818.505859"/>
     </g>
    </g>
   </g>
  </g>
 </g>
 <defs>
  <clipPath id="pb4bf344a68">
   <rect x="57.6" y="41.472" width="357.12" height="266.112"/>
  </clipPath>
 </defs>
</svg>
