<?xml version="1.0" encoding="utf-8" standalone="no"?>
<!DOCTYPE svg PUBLIC "-//W3C//DTD SVG 1.1//EN"
  "http://www.w3.org/Graphics/SVG/1.1/DTD/svg11.dtd">
<svg xmlns:xlink="http://www.w3.org/1999/xlink" width="460.8pt" height="345.6pt" viewBox="0 0 460.8 345.6" xmlns="http://www.w3.org/2000/svg" version="1.1">
 <metadata>
  <rdf:RDF xmlns:dc="http://purl.org/dc/elements/1.1/" xmlns:cc="http://creativecommons.org/ns#" xmlns:rdf="http://www.w3.org/1999/02/22-rdf-syntax-ns#">
   <cc:Work>
    <dc:type rdf:resource="http://purl.org/dc/dcmitype/StillImage"/>
    <dc:date>2024-03-17T00:15:52.842854</dc:date>
    <dc:format>image/svg+xml</dc:format>
    <dc:creator>
     <cc:Agent>
      <dc:title>Matplotlib v3.5.1, https://matplotlib.org/</dc:title>
     </cc:Agent>
    </dc:creator>
   </cc:Work>
  </rdf:RDF>
 </metadata>
 <defs>
  <style type="text/css">*{stroke-linejoin: round; stroke-linecap: butt}</style>
 </defs>
 <g id="figure_1">
  <g id="patch_1">
   <path d="M 0 345.6 
L 460.8 345.6 
L 460.8 0 
L 0 0 
z
" style="fill: #ffffff"/>
  </g>
  <g id="patch_2">
   <path d="M 103.104 307.584 
L 369.216 307.584 
L 369.216 41.472 
L 103.104 41.472 
z
" style="fill: #ffffff"/>
  </g>
  <g id="pane3d_1">
   <g id="patch_3">
    <path d="M 241.085543 110.86872 
L 356.561533 206.462009 
L 365.577774 135.150603 
L 241.183358 35.862156 
" style="fill: #f2f2f2; opacity: 0.5; stroke: #f2f2f2; stroke-linejoin: miter"/>
   </g>
  </g>
  <g id="pane3d_2">
   <g id="patch_4">
    <path d="M 241.085543 110.86872 
L 123.07581 204.11355 
L 114.079619 132.703356 
L 241.183358 35.862156 
" style="fill: #e6e6e6; opacity: 0.5; stroke: #e6e6e6; stroke-linejoin: miter"/>
   </g>
  </g>
  <g id="pane3d_3">
   <g id="patch_5">
    <path d="M 241.085543 110.86872 
L 123.07581 204.11355 
L 238.301293 308.610326 
L 356.561533 206.462009 
" style="fill: #ececec; opacity: 0.5; stroke: #ececec; stroke-linejoin: miter"/>
   </g>
  </g>
  <g id="axis3d_1">
   <g id="line2d_1">
    <path d="M 356.561533 206.462009 
L 238.301293 308.610326 
" style="fill: none; stroke: #000000; stroke-width: 0.8; stroke-linecap: square"/>
   </g>
   <g id="text_1">
    <!-- Longitude (°) -->
    <g transform="translate(296.621205 310.208025)rotate(-40.8191)scale(0.1 -0.1)">
     <defs>
      <path id="DejaVuSans-4c" d="M 628 4666 
L 1259 4666 
L 1259 531 
L 3531 531 
L 3531 0 
L 628 0 
L 628 4666 
z
" transform="scale(0.015625)"/>
      <path id="DejaVuSans-6f" d="M 1959 3097 
Q 1497 3097 1228 2736 
Q 959 2375 959 1747 
Q 959 1119 1226 758 
Q 1494 397 1959 397 
Q 2419 397 2687 759 
Q 2956 1122 2956 1747 
Q 2956 2369 2687 2733 
Q 2419 3097 1959 3097 
z
M 1959 3584 
Q 2709 3584 3137 3096 
Q 3566 2609 3566 1747 
Q 3566 888 3137 398 
Q 2709 -91 1959 -91 
Q 1206 -91 779 398 
Q 353 888 353 1747 
Q 353 2609 779 3096 
Q 1206 3584 1959 3584 
z
" transform="scale(0.015625)"/>
      <path id="DejaVuSans-6e" d="M 3513 2113 
L 3513 0 
L 2938 0 
L 2938 2094 
Q 2938 2591 2744 2837 
Q 2550 3084 2163 3084 
Q 1697 3084 1428 2787 
Q 1159 2491 1159 1978 
L 1159 0 
L 581 0 
L 581 3500 
L 1159 3500 
L 1159 2956 
Q 1366 3272 1645 3428 
Q 1925 3584 2291 3584 
Q 2894 3584 3203 3211 
Q 3513 2838 3513 2113 
z
" transform="scale(0.015625)"/>
      <path id="DejaVuSans-67" d="M 2906 1791 
Q 2906 2416 2648 2759 
Q 2391 3103 1925 3103 
Q 1463 3103 1205 2759 
Q 947 2416 947 1791 
Q 947 1169 1205 825 
Q 1463 481 1925 481 
Q 2391 481 2648 825 
Q 2906 1169 2906 1791 
z
M 3481 434 
Q 3481 -459 3084 -895 
Q 2688 -1331 1869 -1331 
Q 1566 -1331 1297 -1286 
Q 1028 -1241 775 -1147 
L 775 -588 
Q 1028 -725 1275 -790 
Q 1522 -856 1778 -856 
Q 2344 -856 2625 -561 
Q 2906 -266 2906 331 
L 2906 616 
Q 2728 306 2450 153 
Q 2172 0 1784 0 
Q 1141 0 747 490 
Q 353 981 353 1791 
Q 353 2603 747 3093 
Q 1141 3584 1784 3584 
Q 2172 3584 2450 3431 
Q 2728 3278 2906 2969 
L 2906 3500 
L 3481 3500 
L 3481 434 
z
" transform="scale(0.015625)"/>
      <path id="DejaVuSans-69" d="M 603 3500 
L 1178 3500 
L 1178 0 
L 603 0 
L 603 3500 
z
M 603 4863 
L 1178 4863 
L 1178 4134 
L 603 4134 
L 603 4863 
z
" transform="scale(0.015625)"/>
      <path id="DejaVuSans-74" d="M 1172 4494 
L 1172 3500 
L 2356 3500 
L 2356 3053 
L 1172 3053 
L 1172 1153 
Q 1172 725 1289 603 
Q 1406 481 1766 481 
L 2356 481 
L 2356 0 
L 1766 0 
Q 1100 0 847 248 
Q 594 497 594 1153 
L 594 3053 
L 172 3053 
L 172 3500 
L 594 3500 
L 594 4494 
L 1172 4494 
z
" transform="scale(0.015625)"/>
      <path id="DejaVuSans-75" d="M 544 1381 
L 544 3500 
L 1119 3500 
L 1119 1403 
Q 1119 906 1312 657 
Q 1506 409 1894 409 
Q 2359 409 2629 706 
Q 2900 1003 2900 1516 
L 2900 3500 
L 3475 3500 
L 3475 0 
L 2900 0 
L 2900 538 
Q 2691 219 2414 64 
Q 2138 -91 1772 -91 
Q 1169 -91 856 284 
Q 544 659 544 1381 
z
M 1991 3584 
L 1991 3584 
z
" transform="scale(0.015625)"/>
      <path id="DejaVuSans-64" d="M 2906 2969 
L 2906 4863 
L 3481 4863 
L 3481 0 
L 2906 0 
L 2906 525 
Q 2725 213 2448 61 
Q 2172 -91 1784 -91 
Q 1150 -91 751 415 
Q 353 922 353 1747 
Q 353 2572 751 3078 
Q 1150 3584 1784 3584 
Q 2172 3584 2448 3432 
Q 2725 3281 2906 2969 
z
M 947 1747 
Q 947 1113 1208 752 
Q 1469 391 1925 391 
Q 2381 391 2643 752 
Q 2906 1113 2906 1747 
Q 2906 2381 2643 2742 
Q 2381 3103 1925 3103 
Q 1469 3103 1208 2742 
Q 947 2381 947 1747 
z
" transform="scale(0.015625)"/>
      <path id="DejaVuSans-65" d="M 3597 1894 
L 3597 1613 
L 953 1613 
Q 991 1019 1311 708 
Q 1631 397 2203 397 
Q 2534 397 2845 478 
Q 3156 559 3463 722 
L 3463 178 
Q 3153 47 2828 -22 
Q 2503 -91 2169 -91 
Q 1331 -91 842 396 
Q 353 884 353 1716 
Q 353 2575 817 3079 
Q 1281 3584 2069 3584 
Q 2775 3584 3186 3129 
Q 3597 2675 3597 1894 
z
M 3022 2063 
Q 3016 2534 2758 2815 
Q 2500 3097 2075 3097 
Q 1594 3097 1305 2825 
Q 1016 2553 972 2059 
L 3022 2063 
z
" transform="scale(0.015625)"/>
      <path id="DejaVuSans-20" transform="scale(0.015625)"/>
      <path id="DejaVuSans-28" d="M 1984 4856 
Q 1566 4138 1362 3434 
Q 1159 2731 1159 2009 
Q 1159 1288 1364 580 
Q 1569 -128 1984 -844 
L 1484 -844 
Q 1016 -109 783 600 
Q 550 1309 550 2009 
Q 550 2706 781 3412 
Q 1013 4119 1484 4856 
L 1984 4856 
z
" transform="scale(0.015625)"/>
      <path id="DejaVuSans-b0" d="M 1600 4347 
Q 1350 4347 1178 4173 
Q 1006 4000 1006 3750 
Q 1006 3503 1178 3333 
Q 1350 3163 1600 3163 
Q 1850 3163 2022 3333 
Q 2194 3503 2194 3750 
Q 2194 3997 2020 4172 
Q 1847 4347 1600 4347 
z
M 1600 4750 
Q 1800 4750 1984 4673 
Q 2169 4597 2303 4453 
Q 2447 4313 2519 4134 
Q 2591 3956 2591 3750 
Q 2591 3338 2302 3052 
Q 2013 2766 1594 2766 
Q 1172 2766 890 3047 
Q 609 3328 609 3750 
Q 609 4169 896 4459 
Q 1184 4750 1600 4750 
z
" transform="scale(0.015625)"/>
      <path id="DejaVuSans-29" d="M 513 4856 
L 1013 4856 
Q 1481 4119 1714 3412 
Q 1947 2706 1947 2009 
Q 1947 1309 1714 600 
Q 1481 -109 1013 -844 
L 513 -844 
Q 928 -128 1133 580 
Q 1338 1288 1338 2009 
Q 1338 2731 1133 3434 
Q 928 4138 513 4856 
z
" transform="scale(0.015625)"/>
     </defs>
     <use xlink:href="#DejaVuSans-4c"/>
     <use xlink:href="#DejaVuSans-6f" x="53.962891"/>
     <use xlink:href="#DejaVuSans-6e" x="115.144531"/>
     <use xlink:href="#DejaVuSans-67" x="178.523438"/>
     <use xlink:href="#DejaVuSans-69" x="242"/>
     <use xlink:href="#DejaVuSans-74" x="269.783203"/>
     <use xlink:href="#DejaVuSans-75" x="308.992188"/>
     <use xlink:href="#DejaVuSans-64" x="372.371094"/>
     <use xlink:href="#DejaVuSans-65" x="435.847656"/>
     <use xlink:href="#DejaVuSans-20" x="497.371094"/>
     <use xlink:href="#DejaVuSans-28" x="529.158203"/>
     <use xlink:href="#DejaVuSans-b0" x="568.171875"/>
     <use xlink:href="#DejaVuSans-29" x="618.171875"/>
    </g>
   </g>
   <g id="Line3DCollection_1">
    <path d="M 330.830855 228.687107 
L 215.368571 131.188863 
L 213.555532 56.911984 
" style="fill: none; stroke: #b0b0b0; stroke-width: 0.8"/>
    <path d="M 304.945184 251.046082 
L 189.51961 151.613297 
L 185.746147 78.100143 
" style="fill: none; stroke: #b0b0b0; stroke-width: 0.8"/>
    <path d="M 278.531466 273.861161 
L 163.16702 172.435671 
L 157.353812 99.732456 
" style="fill: none; stroke: #b0b0b0; stroke-width: 0.8"/>
    <path d="M 251.573378 297.146446 
L 136.295936 193.66773 
L 128.360001 121.823037 
" style="fill: none; stroke: #b0b0b0; stroke-width: 0.8"/>
   </g>
   <g id="xtick_1">
    <g id="line2d_2">
     <path d="M 329.864972 227.871499 
L 332.764758 230.320126 
" style="fill: none; stroke: #000000; stroke-width: 0.8; stroke-linecap: square"/>
    </g>
    <g id="text_2">
     <!-- 7.0 -->
     <g transform="translate(332.333062 250.132638)scale(0.1 -0.1)">
      <defs>
       <path id="DejaVuSans-37" d="M 525 4666 
L 3525 4666 
L 3525 4397 
L 1831 0 
L 1172 0 
L 2766 4134 
L 525 4134 
L 525 4666 
z
" transform="scale(0.015625)"/>
       <path id="DejaVuSans-2e" d="M 684 794 
L 1344 794 
L 1344 0 
L 684 0 
L 684 794 
z
" transform="scale(0.015625)"/>
       <path id="DejaVuSans-30" d="M 2034 4250 
Q 1547 4250 1301 3770 
Q 1056 3291 1056 2328 
Q 1056 1369 1301 889 
Q 1547 409 2034 409 
Q 2525 409 2770 889 
Q 3016 1369 3016 2328 
Q 3016 3291 2770 3770 
Q 2525 4250 2034 4250 
z
M 2034 4750 
Q 2819 4750 3233 4129 
Q 3647 3509 3647 2328 
Q 3647 1150 3233 529 
Q 2819 -91 2034 -91 
Q 1250 -91 836 529 
Q 422 1150 422 2328 
Q 422 3509 836 4129 
Q 1250 4750 2034 4750 
z
" transform="scale(0.015625)"/>
      </defs>
      <use xlink:href="#DejaVuSans-37"/>
      <use xlink:href="#DejaVuSans-2e" x="63.623047"/>
      <use xlink:href="#DejaVuSans-30" x="95.410156"/>
     </g>
    </g>
   </g>
   <g id="xtick_2">
    <g id="line2d_3">
     <path d="M 303.979182 250.213924 
L 306.879346 252.712256 
" style="fill: none; stroke: #000000; stroke-width: 0.8; stroke-linecap: square"/>
    </g>
    <g id="text_3">
     <!-- 7.5 -->
     <g transform="translate(306.599629 272.581881)scale(0.1 -0.1)">
      <defs>
       <path id="DejaVuSans-35" d="M 691 4666 
L 3169 4666 
L 3169 4134 
L 1269 4134 
L 1269 2991 
Q 1406 3038 1543 3061 
Q 1681 3084 1819 3084 
Q 2600 3084 3056 2656 
Q 3513 2228 3513 1497 
Q 3513 744 3044 326 
Q 2575 -91 1722 -91 
Q 1428 -91 1123 -41 
Q 819 9 494 109 
L 494 744 
Q 775 591 1075 516 
Q 1375 441 1709 441 
Q 2250 441 2565 725 
Q 2881 1009 2881 1497 
Q 2881 1984 2565 2268 
Q 2250 2553 1709 2553 
Q 1456 2553 1204 2497 
Q 953 2441 691 2322 
L 691 4666 
z
" transform="scale(0.015625)"/>
      </defs>
      <use xlink:href="#DejaVuSans-37"/>
      <use xlink:href="#DejaVuSans-2e" x="63.623047"/>
      <use xlink:href="#DejaVuSans-35" x="95.410156"/>
     </g>
    </g>
   </g>
   <g id="xtick_3">
    <g id="line2d_4">
     <path d="M 277.565542 273.011945 
L 280.465495 275.56151 
" style="fill: none; stroke: #000000; stroke-width: 0.8; stroke-linecap: square"/>
    </g>
    <g id="text_4">
     <!-- 8.0 -->
     <g transform="translate(280.342424 295.488052)scale(0.1 -0.1)">
      <defs>
       <path id="DejaVuSans-38" d="M 2034 2216 
Q 1584 2216 1326 1975 
Q 1069 1734 1069 1313 
Q 1069 891 1326 650 
Q 1584 409 2034 409 
Q 2484 409 2743 651 
Q 3003 894 3003 1313 
Q 3003 1734 2745 1975 
Q 2488 2216 2034 2216 
z
M 1403 2484 
Q 997 2584 770 2862 
Q 544 3141 544 3541 
Q 544 4100 942 4425 
Q 1341 4750 2034 4750 
Q 2731 4750 3128 4425 
Q 3525 4100 3525 3541 
Q 3525 3141 3298 2862 
Q 3072 2584 2669 2484 
Q 3125 2378 3379 2068 
Q 3634 1759 3634 1313 
Q 3634 634 3220 271 
Q 2806 -91 2034 -91 
Q 1263 -91 848 271 
Q 434 634 434 1313 
Q 434 1759 690 2068 
Q 947 2378 1403 2484 
z
M 1172 3481 
Q 1172 3119 1398 2916 
Q 1625 2713 2034 2713 
Q 2441 2713 2670 2916 
Q 2900 3119 2900 3481 
Q 2900 3844 2670 4047 
Q 2441 4250 2034 4250 
Q 1625 4250 1398 4047 
Q 1172 3844 1172 3481 
z
" transform="scale(0.015625)"/>
      </defs>
      <use xlink:href="#DejaVuSans-38"/>
      <use xlink:href="#DejaVuSans-2e" x="63.623047"/>
      <use xlink:href="#DejaVuSans-30" x="95.410156"/>
     </g>
    </g>
   </g>
   <g id="xtick_4">
    <g id="line2d_5">
     <path d="M 250.60774 296.279641 
L 253.506857 298.882032 
" style="fill: none; stroke: #000000; stroke-width: 0.8; stroke-linecap: square"/>
    </g>
    <g id="text_5">
     <!-- 8.5 -->
     <g transform="translate(253.54529 318.865244)scale(0.1 -0.1)">
      <use xlink:href="#DejaVuSans-38"/>
      <use xlink:href="#DejaVuSans-2e" x="63.623047"/>
      <use xlink:href="#DejaVuSans-35" x="95.410156"/>
     </g>
    </g>
   </g>
  </g>
  <g id="axis3d_2">
   <g id="line2d_6">
    <path d="M 123.07581 204.11355 
L 238.301293 308.610326 
" style="fill: none; stroke: #000000; stroke-width: 0.8; stroke-linecap: square"/>
   </g>
   <g id="text_6">
    <!-- Latitude (°) -->
    <g transform="translate(134.94575 267.805157)rotate(-317.795446)scale(0.1 -0.1)">
     <defs>
      <path id="DejaVuSans-61" d="M 2194 1759 
Q 1497 1759 1228 1600 
Q 959 1441 959 1056 
Q 959 750 1161 570 
Q 1363 391 1709 391 
Q 2188 391 2477 730 
Q 2766 1069 2766 1631 
L 2766 1759 
L 2194 1759 
z
M 3341 1997 
L 3341 0 
L 2766 0 
L 2766 531 
Q 2569 213 2275 61 
Q 1981 -91 1556 -91 
Q 1019 -91 701 211 
Q 384 513 384 1019 
Q 384 1609 779 1909 
Q 1175 2209 1959 2209 
L 2766 2209 
L 2766 2266 
Q 2766 2663 2505 2880 
Q 2244 3097 1772 3097 
Q 1472 3097 1187 3025 
Q 903 2953 641 2809 
L 641 3341 
Q 956 3463 1253 3523 
Q 1550 3584 1831 3584 
Q 2591 3584 2966 3190 
Q 3341 2797 3341 1997 
z
" transform="scale(0.015625)"/>
     </defs>
     <use xlink:href="#DejaVuSans-4c"/>
     <use xlink:href="#DejaVuSans-61" x="55.712891"/>
     <use xlink:href="#DejaVuSans-74" x="116.992188"/>
     <use xlink:href="#DejaVuSans-69" x="156.201172"/>
     <use xlink:href="#DejaVuSans-74" x="183.984375"/>
     <use xlink:href="#DejaVuSans-75" x="223.193359"/>
     <use xlink:href="#DejaVuSans-64" x="286.572266"/>
     <use xlink:href="#DejaVuSans-65" x="350.048828"/>
     <use xlink:href="#DejaVuSans-20" x="411.572266"/>
     <use xlink:href="#DejaVuSans-28" x="443.359375"/>
     <use xlink:href="#DejaVuSans-b0" x="482.373047"/>
     <use xlink:href="#DejaVuSans-29" x="532.373047"/>
    </g>
   </g>
   <g id="Line3DCollection_2">
    <path d="M 253.486027 45.681832 
L 252.540802 120.351608 
L 134.485337 214.46073 
" style="fill: none; stroke: #b0b0b0; stroke-width: 0.8"/>
    <path d="M 272.584965 60.926116 
L 270.309104 135.060557 
L 152.19179 230.518525 
" style="fill: none; stroke: #b0b0b0; stroke-width: 0.8"/>
    <path d="M 291.972704 76.400915 
L 288.32733 149.976398 
L 170.158589 246.812426 
" style="fill: none; stroke: #b0b0b0; stroke-width: 0.8"/>
    <path d="M 311.655847 92.111497 
L 306.600791 165.103527 
L 188.391518 263.347677 
" style="fill: none; stroke: #b0b0b0; stroke-width: 0.8"/>
    <path d="M 331.641196 108.063292 
L 325.134948 180.446466 
L 206.896536 280.129682 
" style="fill: none; stroke: #b0b0b0; stroke-width: 0.8"/>
    <path d="M 351.935765 124.261899 
L 343.93542 196.009865 
L 225.679777 297.164006 
" style="fill: none; stroke: #b0b0b0; stroke-width: 0.8"/>
   </g>
   <g id="xtick_5">
    <g id="line2d_7">
     <path d="M 135.471629 213.674497 
L 132.510638 216.034882 
" style="fill: none; stroke: #000000; stroke-width: 0.8; stroke-linecap: square"/>
    </g>
    <g id="text_7">
     <!-- 46 -->
     <g transform="translate(118.53964 235.651033)scale(0.1 -0.1)">
      <defs>
       <path id="DejaVuSans-34" d="M 2419 4116 
L 825 1625 
L 2419 1625 
L 2419 4116 
z
M 2253 4666 
L 3047 4666 
L 3047 1625 
L 3713 1625 
L 3713 1100 
L 3047 1100 
L 3047 0 
L 2419 0 
L 2419 1100 
L 313 1100 
L 313 1709 
L 2253 4666 
z
" transform="scale(0.015625)"/>
       <path id="DejaVuSans-36" d="M 2113 2584 
Q 1688 2584 1439 2293 
Q 1191 2003 1191 1497 
Q 1191 994 1439 701 
Q 1688 409 2113 409 
Q 2538 409 2786 701 
Q 3034 994 3034 1497 
Q 3034 2003 2786 2293 
Q 2538 2584 2113 2584 
z
M 3366 4563 
L 3366 3988 
Q 3128 4100 2886 4159 
Q 2644 4219 2406 4219 
Q 1781 4219 1451 3797 
Q 1122 3375 1075 2522 
Q 1259 2794 1537 2939 
Q 1816 3084 2150 3084 
Q 2853 3084 3261 2657 
Q 3669 2231 3669 1497 
Q 3669 778 3244 343 
Q 2819 -91 2113 -91 
Q 1303 -91 875 529 
Q 447 1150 447 2328 
Q 447 3434 972 4092 
Q 1497 4750 2381 4750 
Q 2619 4750 2861 4703 
Q 3103 4656 3366 4563 
z
" transform="scale(0.015625)"/>
      </defs>
      <use xlink:href="#DejaVuSans-34"/>
      <use xlink:href="#DejaVuSans-36" x="63.623047"/>
     </g>
    </g>
   </g>
   <g id="xtick_6">
    <g id="line2d_8">
     <path d="M 153.178904 229.720777 
L 150.215429 232.115746 
" style="fill: none; stroke: #000000; stroke-width: 0.8; stroke-linecap: square"/>
    </g>
    <g id="text_8">
     <!-- 47 -->
     <g transform="translate(136.136096 251.771325)scale(0.1 -0.1)">
      <use xlink:href="#DejaVuSans-34"/>
      <use xlink:href="#DejaVuSans-37" x="63.623047"/>
     </g>
    </g>
   </g>
   <g id="xtick_7">
    <g id="line2d_9">
     <path d="M 171.146442 246.002907 
L 168.180731 248.433226 
" style="fill: none; stroke: #000000; stroke-width: 0.8; stroke-linecap: square"/>
    </g>
    <g id="text_9">
     <!-- 48 -->
     <g transform="translate(153.990689 268.1281)scale(0.1 -0.1)">
      <use xlink:href="#DejaVuSans-34"/>
      <use xlink:href="#DejaVuSans-38" x="63.623047"/>
     </g>
    </g>
   </g>
   <g id="xtick_8">
    <g id="line2d_10">
     <path d="M 189.380025 262.526125 
L 186.412336 264.992583 
" style="fill: none; stroke: #000000; stroke-width: 0.8; stroke-linecap: square"/>
    </g>
    <g id="text_10">
     <!-- 49 -->
     <g transform="translate(172.109141 284.726598)scale(0.1 -0.1)">
      <defs>
       <path id="DejaVuSans-39" d="M 703 97 
L 703 672 
Q 941 559 1184 500 
Q 1428 441 1663 441 
Q 2288 441 2617 861 
Q 2947 1281 2994 2138 
Q 2813 1869 2534 1725 
Q 2256 1581 1919 1581 
Q 1219 1581 811 2004 
Q 403 2428 403 3163 
Q 403 3881 828 4315 
Q 1253 4750 1959 4750 
Q 2769 4750 3195 4129 
Q 3622 3509 3622 2328 
Q 3622 1225 3098 567 
Q 2575 -91 1691 -91 
Q 1453 -91 1209 -44 
Q 966 3 703 97 
z
M 1959 2075 
Q 2384 2075 2632 2365 
Q 2881 2656 2881 3163 
Q 2881 3666 2632 3958 
Q 2384 4250 1959 4250 
Q 1534 4250 1286 3958 
Q 1038 3666 1038 3163 
Q 1038 2656 1286 2365 
Q 1534 2075 1959 2075 
z
" transform="scale(0.015625)"/>
      </defs>
      <use xlink:href="#DejaVuSans-34"/>
      <use xlink:href="#DejaVuSans-39" x="63.623047"/>
     </g>
    </g>
   </g>
   <g id="xtick_9">
    <g id="line2d_11">
     <path d="M 207.885606 279.295827 
L 204.916209 281.799236 
" style="fill: none; stroke: #000000; stroke-width: 0.8; stroke-linecap: square"/>
    </g>
    <g id="text_11">
     <!-- 50 -->
     <g transform="translate(190.497344 301.572218)scale(0.1 -0.1)">
      <use xlink:href="#DejaVuSans-35"/>
      <use xlink:href="#DejaVuSans-30" x="63.623047"/>
     </g>
    </g>
   </g>
   <g id="xtick_10">
    <g id="line2d_12">
     <path d="M 226.669316 296.317569 
L 223.698496 298.858765 
" style="fill: none; stroke: #000000; stroke-width: 0.8; stroke-linecap: square"/>
    </g>
    <g id="text_12">
     <!-- 51 -->
     <g transform="translate(209.161368 318.670521)scale(0.1 -0.1)">
      <defs>
       <path id="DejaVuSans-31" d="M 794 531 
L 1825 531 
L 1825 4091 
L 703 3866 
L 703 4441 
L 1819 4666 
L 2450 4666 
L 2450 531 
L 3481 531 
L 3481 0 
L 794 0 
L 794 531 
z
" transform="scale(0.015625)"/>
      </defs>
      <use xlink:href="#DejaVuSans-35"/>
      <use xlink:href="#DejaVuSans-31" x="63.623047"/>
     </g>
    </g>
   </g>
  </g>
  <g id="axis3d_3">
   <g id="line2d_13">
    <path d="M 123.07581 204.11355 
L 114.079619 132.703356 
" style="fill: none; stroke: #000000; stroke-width: 0.8; stroke-linecap: square"/>
   </g>
   <g id="text_13">
    <!-- GeoAltitude (m) -->
    <g transform="translate(67.396705 130.050429)rotate(-277.180244)scale(0.1 -0.1)">
     <defs>
      <path id="DejaVuSans-47" d="M 3809 666 
L 3809 1919 
L 2778 1919 
L 2778 2438 
L 4434 2438 
L 4434 434 
Q 4069 175 3628 42 
Q 3188 -91 2688 -91 
Q 1594 -91 976 548 
Q 359 1188 359 2328 
Q 359 3472 976 4111 
Q 1594 4750 2688 4750 
Q 3144 4750 3555 4637 
Q 3966 4525 4313 4306 
L 4313 3634 
Q 3963 3931 3569 4081 
Q 3175 4231 2741 4231 
Q 1884 4231 1454 3753 
Q 1025 3275 1025 2328 
Q 1025 1384 1454 906 
Q 1884 428 2741 428 
Q 3075 428 3337 486 
Q 3600 544 3809 666 
z
" transform="scale(0.015625)"/>
      <path id="DejaVuSans-41" d="M 2188 4044 
L 1331 1722 
L 3047 1722 
L 2188 4044 
z
M 1831 4666 
L 2547 4666 
L 4325 0 
L 3669 0 
L 3244 1197 
L 1141 1197 
L 716 0 
L 50 0 
L 1831 4666 
z
" transform="scale(0.015625)"/>
      <path id="DejaVuSans-6c" d="M 603 4863 
L 1178 4863 
L 1178 0 
L 603 0 
L 603 4863 
z
" transform="scale(0.015625)"/>
      <path id="DejaVuSans-6d" d="M 3328 2828 
Q 3544 3216 3844 3400 
Q 4144 3584 4550 3584 
Q 5097 3584 5394 3201 
Q 5691 2819 5691 2113 
L 5691 0 
L 5113 0 
L 5113 2094 
Q 5113 2597 4934 2840 
Q 4756 3084 4391 3084 
Q 3944 3084 3684 2787 
Q 3425 2491 3425 1978 
L 3425 0 
L 2847 0 
L 2847 2094 
Q 2847 2600 2669 2842 
Q 2491 3084 2119 3084 
Q 1678 3084 1418 2786 
Q 1159 2488 1159 1978 
L 1159 0 
L 581 0 
L 581 3500 
L 1159 3500 
L 1159 2956 
Q 1356 3278 1631 3431 
Q 1906 3584 2284 3584 
Q 2666 3584 2933 3390 
Q 3200 3197 3328 2828 
z
" transform="scale(0.015625)"/>
     </defs>
     <use xlink:href="#DejaVuSans-47"/>
     <use xlink:href="#DejaVuSans-65" x="77.490234"/>
     <use xlink:href="#DejaVuSans-6f" x="139.013672"/>
     <use xlink:href="#DejaVuSans-41" x="200.195312"/>
     <use xlink:href="#DejaVuSans-6c" x="268.603516"/>
     <use xlink:href="#DejaVuSans-74" x="296.386719"/>
     <use xlink:href="#DejaVuSans-69" x="335.595703"/>
     <use xlink:href="#DejaVuSans-74" x="363.378906"/>
     <use xlink:href="#DejaVuSans-75" x="402.587891"/>
     <use xlink:href="#DejaVuSans-64" x="465.966797"/>
     <use xlink:href="#DejaVuSans-65" x="529.443359"/>
     <use xlink:href="#DejaVuSans-20" x="590.966797"/>
     <use xlink:href="#DejaVuSans-28" x="622.753906"/>
     <use xlink:href="#DejaVuSans-6d" x="661.767578"/>
     <use xlink:href="#DejaVuSans-29" x="759.179688"/>
    </g>
   </g>
   <g id="Line3DCollection_3">
    <path d="M 121.946123 195.14629 
L 241.097861 101.422823 
L 357.693656 197.507802 
" style="fill: none; stroke: #b0b0b0; stroke-width: 0.8"/>
    <path d="M 120.493345 183.614395 
L 241.113687 89.286837 
L 359.149601 185.992419 
" style="fill: none; stroke: #b0b0b0; stroke-width: 0.8"/>
    <path d="M 119.00429 171.794537 
L 241.129892 76.861137 
L 360.641942 174.189166 
" style="fill: none; stroke: #b0b0b0; stroke-width: 0.8"/>
    <path d="M 117.477582 159.675793 
L 241.146487 64.135224 
L 362.172063 162.087113 
" style="fill: none; stroke: #b0b0b0; stroke-width: 0.8"/>
    <path d="M 115.911774 147.246683 
L 241.163489 51.098084 
L 363.741415 149.674767 
" style="fill: none; stroke: #b0b0b0; stroke-width: 0.8"/>
    <path d="M 114.305345 134.495127 
L 241.180912 37.73816 
L 365.351527 136.940039 
" style="fill: none; stroke: #b0b0b0; stroke-width: 0.8"/>
   </g>
   <g id="xtick_11">
    <g id="line2d_14">
     <path d="M 122.941781 194.363116 
L 119.952658 196.714328 
" style="fill: none; stroke: #000000; stroke-width: 0.8; stroke-linecap: square"/>
    </g>
    <g id="text_14">
     <!-- 2000 -->
     <g transform="translate(89.683452 202.549016)scale(0.1 -0.1)">
      <defs>
       <path id="DejaVuSans-32" d="M 1228 531 
L 3431 531 
L 3431 0 
L 469 0 
L 469 531 
Q 828 903 1448 1529 
Q 2069 2156 2228 2338 
Q 2531 2678 2651 2914 
Q 2772 3150 2772 3378 
Q 2772 3750 2511 3984 
Q 2250 4219 1831 4219 
Q 1534 4219 1204 4116 
Q 875 4013 500 3803 
L 500 4441 
Q 881 4594 1212 4672 
Q 1544 4750 1819 4750 
Q 2544 4750 2975 4387 
Q 3406 4025 3406 3419 
Q 3406 3131 3298 2873 
Q 3191 2616 2906 2266 
Q 2828 2175 2409 1742 
Q 1991 1309 1228 531 
z
" transform="scale(0.015625)"/>
      </defs>
      <use xlink:href="#DejaVuSans-32"/>
      <use xlink:href="#DejaVuSans-30" x="63.623047"/>
      <use xlink:href="#DejaVuSans-30" x="127.246094"/>
      <use xlink:href="#DejaVuSans-30" x="190.869141"/>
     </g>
    </g>
   </g>
   <g id="xtick_12">
    <g id="line2d_15">
     <path d="M 121.501805 182.825758 
L 118.474223 185.193389 
" style="fill: none; stroke: #000000; stroke-width: 0.8; stroke-linecap: square"/>
    </g>
    <g id="text_15">
     <!-- 4000 -->
     <g transform="translate(87.989898 191.015755)scale(0.1 -0.1)">
      <use xlink:href="#DejaVuSans-34"/>
      <use xlink:href="#DejaVuSans-30" x="63.623047"/>
      <use xlink:href="#DejaVuSans-30" x="127.246094"/>
      <use xlink:href="#DejaVuSans-30" x="190.869141"/>
     </g>
    </g>
   </g>
   <g id="xtick_13">
    <g id="line2d_16">
     <path d="M 120.025885 171.000408 
L 116.958843 173.38455 
" style="fill: none; stroke: #000000; stroke-width: 0.8; stroke-linecap: square"/>
    </g>
    <g id="text_16">
     <!-- 6000 -->
     <g transform="translate(86.254059 179.194524)scale(0.1 -0.1)">
      <use xlink:href="#DejaVuSans-36"/>
      <use xlink:href="#DejaVuSans-30" x="63.623047"/>
      <use xlink:href="#DejaVuSans-30" x="127.246094"/>
      <use xlink:href="#DejaVuSans-30" x="190.869141"/>
     </g>
    </g>
   </g>
   <g id="xtick_14">
    <g id="line2d_17">
     <path d="M 118.512657 158.876145 
L 115.405114 161.276881 
" style="fill: none; stroke: #000000; stroke-width: 0.8; stroke-linecap: square"/>
    </g>
    <g id="text_17">
     <!-- 8000 -->
     <g transform="translate(84.474331 167.074401)scale(0.1 -0.1)">
      <use xlink:href="#DejaVuSans-38"/>
      <use xlink:href="#DejaVuSans-30" x="63.623047"/>
      <use xlink:href="#DejaVuSans-30" x="127.246094"/>
      <use xlink:href="#DejaVuSans-30" x="190.869141"/>
     </g>
    </g>
   </g>
   <g id="xtick_15">
    <g id="line2d_18">
     <path d="M 116.96069 146.44149 
L 113.811564 148.858894 
" style="fill: none; stroke: #000000; stroke-width: 0.8; stroke-linecap: square"/>
    </g>
    <g id="text_18">
     <!-- 10000 -->
     <g transform="translate(79.467777 154.643904)scale(0.1 -0.1)">
      <use xlink:href="#DejaVuSans-31"/>
      <use xlink:href="#DejaVuSans-30" x="63.623047"/>
      <use xlink:href="#DejaVuSans-30" x="127.246094"/>
      <use xlink:href="#DejaVuSans-30" x="190.869141"/>
      <use xlink:href="#DejaVuSans-30" x="254.492188"/>
     </g>
    </g>
   </g>
   <g id="xtick_16">
    <g id="line2d_19">
     <path d="M 115.368476 133.68437 
L 112.176642 136.118504 
" style="fill: none; stroke: #000000; stroke-width: 0.8; stroke-linecap: square"/>
    </g>
    <g id="text_19">
     <!-- 12000 -->
     <g transform="translate(77.595124 141.890957)scale(0.1 -0.1)">
      <use xlink:href="#DejaVuSans-31"/>
      <use xlink:href="#DejaVuSans-32" x="63.623047"/>
      <use xlink:href="#DejaVuSans-30" x="127.246094"/>
      <use xlink:href="#DejaVuSans-30" x="190.869141"/>
      <use xlink:href="#DejaVuSans-30" x="254.492188"/>
     </g>
    </g>
   </g>
  </g>
  <g id="axes_1">
   <g id="line2d_20">
    <path d="M 338.017257 208.262498 
L 338.828592 206.559837 
L 339.286486 205.857295 
L 339.597804 205.291872 
L 339.900532 204.778438 
L 341.140507 201.807052 
L 341.232757 199.965617 
L 341.214308 199.849017 
L 341.110548 199.121792 
L 341.05731 198.934058 
L 340.832339 197.84565 
L 340.793747 197.800309 
L 340.617256 197.031466 
L 340.559528 196.940186 
L 340.174908 196.223953 
L 340.142473 196.276151 
L 339.371136 195.750274 
L 339.249201 195.76993 
L 338.832056 195.546915 
L 338.64866 195.487913 
L 338.441255 195.416366 
L 338.392451 195.487122 
L 338.366909 195.422464 
L 338.313052 195.33544 
L 338.243302 195.423464 
L 337.873071 195.39257 
L 337.404944 195.412589 
L 337.246097 195.495936 
L 336.94326 195.534514 
L 336.755845 195.566185 
L 336.158962 195.799569 
L 336.114613 195.757853 
L 335.937017 195.870991 
L 335.697252 195.875492 
L 335.39202 196.021731 
L 335.360563 195.93069 
L 335.277145 196.009094 
L 335.09088 196.052819 
L 334.875496 196.082938 
L 334.700199 196.151139 
L 334.55139 196.123888 
L 334.230391 196.127515 
L 334.225973 196.171199 
L 334.166308 196.104994 
L 333.190676 196.172609 
L 332.83588 196.080818 
L 332.64901 196.125201 
L 332.653365 196.081412 
L 332.568068 196.076971 
L 332.321165 196.093147 
L 332.216321 196.152099 
L 332.12687 196.02537 
L 332.07953 196.065678 
L 331.691132 196.052982 
L 331.420299 196.170532 
L 331.258599 196.152056 
L 331.041715 196.256342 
L 330.945855 196.219957 
L 330.941571 196.263845 
L 330.764399 196.300107 
L 330.658408 196.317374 
L 330.383081 196.438207 
L 329.894444 196.666487 
L 329.606802 196.831997 
L 328.616648 197.416984 
L 328.262809 197.650979 
L 327.404681 198.153368 
L 327.221382 198.319879 
L 326.861888 198.51352 
L 326.574427 198.763906 
L 326.431749 198.843596 
L 325.989032 199.109049 
L 325.332651 199.566879 
L 325.205048 199.632689 
L 324.852824 199.818884 
L 324.582747 199.93465 
L 324.392742 200.065942 
L 324.01576 200.233493 
L 323.249371 200.532137 
L 323.057941 200.664783 
L 322.210286 200.994516 
L 322.206385 201.038482 
L 322.147249 201.00907 
L 321.792325 201.198764 
L 321.508054 201.283648 
L 320.582557 201.609987 
L 319.443823 201.994252 
L 319.25137 201.998752 
L 319.189955 202.09328 
L 319.132331 202.015279 
L 318.846282 202.18842 
L 318.688661 202.19803 
L 317.625255 202.716954 
L 317.410029 202.781628 
L 317.153721 202.887401 
L 316.910591 203.011889 
L 316.783759 203.046245 
L 315.105699 203.607098 
L 315.014533 203.55835 
L 314.650475 203.757105 
L 314.413066 203.800119 
L 314.164656 203.892805 
L 313.950127 203.991592 
L 313.610898 204.16928 
L 313.524049 204.157151 
L 313.32269 204.256607 
L 312.381555 204.70336 
L 312.378085 204.747582 
L 312.295336 204.738237 
L 312.11038 204.769611 
L 311.817735 204.982704 
L 311.82118 204.93847 
L 311.733318 204.973188 
L 311.516342 205.162008 
L 311.519773 205.117773 
L 311.069737 205.38579 
L 311.073149 205.341549 
L 310.682767 205.556615 
L 310.44811 205.636022 
L 310.266871 205.711599 
L 309.054909 206.144156 
L 308.769434 206.149465 
L 308.532641 206.23019 
L 308.355502 206.254242 
L 308.352212 206.298563 
L 308.146977 206.400044 
L 308.063223 206.341844 
L 307.830632 206.426521 
L 307.182233 206.609082 
L 307.092975 206.692544 
L 307.096209 206.648182 
L 306.589754 206.833268 
L 306.28683 207.014039 
L 305.150801 207.500231 
L 304.696771 207.774485 
L 304.366428 207.895177 
L 304.300481 207.994322 
L 303.449207 208.348032 
L 303.446139 208.392453 
L 303.356046 208.385092 
L 302.897516 208.64492 
L 302.90056 208.600491 
L 302.827315 208.613049 
L 302.67534 208.699737 
L 302.449007 208.840624 
L 302.45203 208.796188 
L 302.080812 208.969469 
L 301.85653 209.012959 
L 301.694148 209.103305 
L 301.48886 209.139374 
L 301.073455 209.317589 
L 300.84919 209.406223 
L 300.141446 209.575592 
L 299.892744 209.704293 
L 299.581686 209.788074 
L 299.221683 209.865014 
L 299.014664 209.991906 
L 298.772965 210.01591 
L 297.900489 210.197825 
L 297.659614 210.243286 
L 294.691124 210.325166 
L 293.794172 209.998674 
L 293.446561 209.777936 
L 293.334308 209.760325 
L 293.034349 209.530595 
L 292.887543 209.476076 
L 292.874235 209.344435 
L 292.813589 209.405733 
L 292.498577 209.134929 
L 292.40282 209.155367 
L 292.263554 209.1005 
L 291.435784 208.736958 
L 291.3997 208.788459 
L 291.345664 208.70998 
L 291.089078 208.547507 
L 291.052848 208.5989 
L 290.995497 208.534592 
L 289.814503 207.975204 
L 289.651498 207.926816 
L 287.366006 207.194786 
L 287.16066 207.152921 
L 286.298868 206.964261 
L 285.981756 206.859397 
L 285.101704 206.678567 
L 284.955558 206.62296 
L 284.779784 206.570527 
L 284.368433 206.445624 
L 284.264514 206.433056 
L 284.143155 206.367771 
L 281.491767 205.624433 
L 281.493812 205.579108 
L 281.441846 205.631598 
L 280.591228 205.388724 
L 280.336423 205.356202 
L 278.385239 205.020749 
L 275.832674 204.136133 
L 275.6511 204.049851 
L 274.795181 203.752841 
L 273.141481 203.190472 
L 272.891676 203.161547 
L 272.482668 202.9818 
L 272.125101 202.976424 
L 271.044825 202.827067 
L 270.996945 202.880821 
L 270.793841 202.797173 
L 270.711833 202.862539 
L 270.686415 202.820971 
L 270.366991 202.760367 
L 270.026351 202.744763 
L 270.027846 202.698969 
L 269.928441 202.727292 
L 266.572674 202.280055 
L 266.268725 202.259823 
L 266.107846 202.299807 
L 265.885279 202.260827 
L 265.37219 202.288345 
L 265.144732 202.251384 
L 264.837876 202.232109 
L 264.696641 202.171604 
L 261.408868 201.746086 
L 261.178894 201.754546 
L 261.097236 201.682184 
L 260.930696 201.675493 
L 260.656121 201.68844 
L 260.657158 201.64238 
L 260.121657 201.632039 
L 260.018207 201.564422 
L 259.723751 201.542063 
L 259.722761 201.588148 
L 259.68209 201.501716 
L 259.618795 201.561811 
L 258.327291 201.40567 
L 257.972844 201.394811 
L 257.72604 201.357365 
L 257.411815 201.341769 
L 257.057721 201.308392 
L 256.832708 201.262271 
L 254.719647 200.475025 
L 254.284596 200.178085 
L 254.058356 200.043524 
L 252.928015 198.780699 
L 252.729584 198.487342 
L 252.630954 198.410916 
L 252.172714 197.85255 
L 252.138268 197.887981 
L 252.118527 197.790797 
L 252.094008 197.78358 
L 251.907287 197.632765 
L 251.820144 197.513372 
L 251.819542 197.559858 
L 251.673312 197.327858 
L 251.645312 197.364662 
L 251.621951 197.264328 
L 251.601311 197.307466 
L 251.431554 197.070346 
L 251.295154 196.98207 
L 251.133189 196.744599 
L 251.10885 196.784586 
L 251.071214 196.677239 
L 250.934387 196.543653 
L 250.664379 196.275146 
L 250.625157 196.314297 
L 250.577962 196.247964 
L 250.392822 196.007114 
L 250.156901 195.838201 
L 249.83135 195.507809 
L 249.594525 195.337941 
L 249.100926 194.861438 
L 249.10046 194.908129 
L 249.008413 194.831704 
L 248.754582 194.661477 
L 248.425382 194.375028 
L 248.222996 194.221889 
L 248.003939 194.011896 
L 247.766712 193.841895 
L 247.55681 193.688154 
L 247.113109 193.454379 
L 243.878987 192.224138 
L 243.721337 192.079991 
L 243.51908 191.928007 
L 243.272014 191.707481 
L 242.868372 191.352952 
L 242.83284 191.389823 
L 242.768756 191.322335 
L 242.457217 191.039561 
L 242.167481 190.805298 
L 241.860189 190.523697 
L 241.835972 190.564103 
L 241.760451 190.492266 
L 241.650304 190.362994 
L 241.467723 190.225651 
L 241.16058 189.977176 
L 240.922654 189.806731 
L 240.760987 189.65895 
L 240.735778 189.698622 
L 240.701113 189.599096 
L 240.68165 189.589229 
L 240.433286 189.427094 
L 240.221759 189.211974 
L 240.19665 189.251738 
L 240.163479 189.145537 
L 240.138892 189.185382 
L 239.95851 188.986876 
L 239.768295 188.836048 
L 239.267455 188.39683 
L 239.232824 188.432273 
L 239.208585 188.331519 
L 239.16821 188.366974 
L 239.091755 188.248052 
L 238.83053 188.129595 
L 238.701373 187.939692 
L 238.666781 187.976554 
L 238.609742 187.90944 
L 238.363563 187.644305 
L 238.33586 187.681796 
L 238.232596 187.557937 
L 238.008269 187.389983 
L 237.808571 187.233858 
L 237.591788 186.977224 
L 237.495558 186.991545 
L 237.378481 186.860752 
L 237.083874 186.723843 
L 236.932589 186.585626 
L 231.483426 184.726308 
L 231.293562 184.573082 
L 230.985592 184.286881 
L 230.783012 184.130594 
L 230.427945 183.78272 
L 230.178156 183.606902 
L 229.980119 183.404977 
L 229.211683 182.786397 
L 228.965796 182.564746 
L 228.744062 182.399247 
L 228.296312 182.015254 
L 228.180385 181.93104 
L 228.018167 181.787773 
L 227.821318 181.629748 
L 227.508032 181.337843 
L 227.316369 181.230124 
L 227.175357 181.044211 
L 227.147508 181.095081 
L 227.114406 180.986473 
L 226.818634 180.736948 
L 226.522091 180.453564 
L 226.287207 180.282553 
L 226.122969 180.137538 
L 225.95161 179.98677 
L 225.616295 179.690578 
L 225.587974 179.729345 
L 225.563139 179.627333 
L 225.525377 179.661016 
L 225.366058 179.51335 
L 224.364637 178.863831 
L 223.979598 178.742843 
L 213.885101 175.505461 
L 213.465908 175.373853 
L 206.780861 173.151418 
L 206.727467 173.179903 
L 206.701883 173.125398 
L 206.414598 172.98403 
L 206.238739 172.835629 
L 206.068987 172.727208 
L 206.070673 172.775127 
L 205.852071 172.519491 
L 205.853769 172.567433 
L 205.745796 172.436385 
L 205.703919 172.467561 
L 205.648629 172.405881 
L 205.432833 172.240374 
L 205.200462 171.972173 
L 205.148002 172.0059 
L 204.521837 171.416057 
L 204.523602 171.464084 
L 204.251285 171.282421 
L 203.972332 171.043837 
L 203.795779 170.939977 
L 203.343869 170.707732 
L 203.221828 170.611472 
L 201.834963 169.820987 
L 201.7052 169.730319 
L 200.939528 169.34221 
L 200.801377 169.239416 
L 200.779946 169.280902 
L 200.752655 169.177922 
L 200.721262 169.16534 
L 200.531554 169.102503 
L 200.475453 169.039051 
L 200.454359 169.081282 
L 200.307141 168.984482 
L 200.277648 169.019261 
L 200.213953 168.951552 
L 200.093737 168.865108 
L 200.046723 168.909065 
L 200.023509 168.839313 
L 199.201963 168.483105 
L 199.050384 168.375444 
L 198.214905 168.000078 
L 198.01932 167.903323 
L 198.001802 167.941494 
L 197.98784 167.883006 
L 197.954291 167.870304 
L 197.357555 167.540994 
L 197.324548 167.565757 
L 197.196783 167.477521 
L 196.969072 167.403067 
L 196.82174 167.303625 
L 196.670804 167.171094 
L 196.57125 167.173313 
L 196.158938 166.940423 
L 196.045215 166.858547 
L 195.568541 166.651319 
L 195.451652 166.529549 
L 195.453873 166.577852 
L 195.098029 166.400646 
L 194.920762 166.294234 
L 194.416916 166.031153 
L 194.297211 165.897854 
L 194.247777 165.929015 
L 193.822229 165.692098 
L 193.824531 165.740445 
L 193.649294 165.631731 
L 193.618978 165.674352 
L 192.686979 165.217069 
L 192.520665 165.111757 
L 191.779012 164.86166 
L 191.511538 164.677018 
L 191.489948 164.718644 
L 191.405793 164.643599 
L 191.373948 164.681141 
L 191.345294 164.57768 
L 191.325583 164.567625 
L 191.023634 164.420846 
L 189.335839 163.710232 
L 189.225096 163.635831 
L 189.196286 163.66431 
L 188.137499 163.213628 
L 187.594906 163.034795 
L 185.30056 162.25498 
L 184.431534 161.965253 
L 183.794584 161.74701 
L 183.458235 161.642684 
L 183.070328 161.500719 
L 181.580422 160.997819 
L 181.32562 160.863147 
L 181.114419 160.753005 
L 180.424217 160.17317 
L 180.309691 159.988528 
L 175.188262 154.450748 
L 171.526867 150.620789 
L 170.881149 149.942875 
L 166.358114 145.261996 
L 166.193383 145.124951 
L 165.586256 144.573025 
L 165.535571 144.600405 
L 165.494484 144.513248 
L 165.482397 144.548533 
L 165.315791 144.404491 
L 164.431349 144.069083 
L 162.2448 143.453256 
L 162.107122 143.428353 
L 159.162547 142.568773 
L 159.166546 142.617786 
L 159.050548 142.537515 
L 158.219029 142.346622 
L 158.214983 142.297601 
L 158.127143 142.335567 
L 157.147085 142.05945 
L 157.151183 142.108473 
L 157.07667 142.004518 
L 143.075379 138.102876 
L 142.855793 138.044474 
L 141.413666 137.631852 
L 130.246477 134.493202 
L 130.246477 134.493202 
" clip-path="url(#pe67849b648)" style="fill: none; stroke: #0000ff; stroke-width: 1.5; stroke-linecap: square"/>
   </g>
   <g id="line2d_21">
    <path d="M 337.167754 207.842142 
L 337.679526 206.887388 
L 339.201189 204.338125 
L 339.908845 203.116482 
L 340.461979 201.76965 
L 340.658265 201.135743 
L 340.843078 199.721724 
L 340.743961 198.851859 
L 340.178443 196.545885 
L 339.936698 196.133497 
L 339.399492 195.678622 
L 338.863475 195.459999 
L 338.46547 195.344548 
L 337.406023 195.320739 
L 336.435628 195.57571 
L 334.7163 196.073862 
L 330.326247 196.467538 
L 329.043225 196.969899 
L 326.647856 198.428367 
L 323.270998 200.451976 
L 322.107821 200.942546 
L 320.765677 201.439491 
L 318.507781 202.090102 
L 317.793345 202.302599 
L 312.435252 204.1433 
L 308.249314 205.825188 
L 306.234662 206.44484 
L 299.175645 209.493975 
L 298.012448 209.830515 
L 296.981708 210.065461 
L 294.131336 210.194772 
L 293.261353 209.879287 
L 291.179975 208.842034 
L 290.751085 208.65929 
L 288.380541 207.817741 
L 286.021954 207.213092 
L 284.246197 206.786301 
L 281.150008 205.962993 
L 278.474451 205.472739 
L 276.555035 204.884568 
L 274.381961 204.047106 
L 272.084847 203.383394 
L 269.135971 202.993276 
L 268.346115 202.849016 
L 266.358122 202.625691 
L 265.042434 202.542001 
L 263.558384 202.237353 
L 262.673417 202.114689 
L 257.645946 201.555977 
L 256.998676 201.449035 
L 255.362176 200.893015 
L 254.040816 200.080719 
L 253.604317 199.633975 
L 251.869389 197.563553 
L 251.441576 197.092753 
L 248.902266 194.667279 
L 246.569627 193.091302 
L 245.75643 192.840131 
L 244.732251 192.545976 
L 244.07291 192.222215 
L 242.957486 191.328693 
L 240.42012 189.228239 
L 240.016209 188.894171 
L 239.19697 188.185577 
L 238.469716 187.605685 
L 237.629672 186.894619 
L 236.372206 186.098196 
L 231.058098 184.224898 
L 230.263527 183.549691 
L 224.59396 178.846068 
L 222.767275 178.099901 
L 219.620195 177.117104 
L 205.872846 172.650933 
L 202.389012 170.233266 
L 201.257549 169.611817 
L 197.62472 167.853347 
L 197.015523 167.555803 
L 192.184257 165.201745 
L 191.571725 164.912958 
L 189.768369 164.110681 
L 187.730364 163.257181 
L 180.763021 160.528728 
L 179.835974 159.536072 
L 177.220838 156.674643 
L 175.051908 154.423721 
L 173.579789 152.922498 
L 172.2289 151.528232 
L 170.396525 149.626124 
L 165.957449 145.123187 
L 164.270834 144.091309 
L 161.709716 143.302033 
L 160.454583 142.932637 
L 159.957049 142.763781 
L 159.058962 142.478064 
L 156.75617 141.810971 
L 154.187433 140.976949 
L 152.417104 140.387332 
L 151.384297 140.0629 
L 150.411928 139.758402 
L 150.411928 139.758402 
" clip-path="url(#pe67849b648)" style="fill: none; stroke: #008000; stroke-width: 1.5; stroke-linecap: square"/>
   </g>
   <g id="line2d_22">
    <path d="M 150.380844 139.749166 
L 133.012349 133.890055 
L 133.012349 133.890055 
" clip-path="url(#pe67849b648)" style="fill: none; stroke: #ff0000; stroke-width: 1.5; stroke-linecap: square"/>
   </g>
   <g id="legend_1">
    <g id="patch_6">
     <path d="M 195.758187 93.506375 
L 362.216 93.506375 
Q 364.216 93.506375 364.216 91.506375 
L 364.216 48.472 
Q 364.216 46.472 362.216 46.472 
L 195.758187 46.472 
Q 193.758187 46.472 193.758187 48.472 
L 193.758187 91.506375 
Q 193.758187 93.506375 195.758187 93.506375 
z
" style="fill: #ffffff; opacity: 0.8; stroke: #cccccc; stroke-linejoin: miter"/>
    </g>
    <g id="line2d_23">
     <path d="M 197.758187 54.570438 
L 207.758187 54.570438 
L 217.758187 54.570438 
" style="fill: none; stroke: #0000ff; stroke-width: 1.5; stroke-linecap: square"/>
    </g>
    <g id="text_20">
     <!-- True Trajectory -->
     <g transform="translate(225.758187 58.070438)scale(0.1 -0.1)">
      <defs>
       <path id="DejaVuSans-54" d="M -19 4666 
L 3928 4666 
L 3928 4134 
L 2272 4134 
L 2272 0 
L 1638 0 
L 1638 4134 
L -19 4134 
L -19 4666 
z
" transform="scale(0.015625)"/>
       <path id="DejaVuSans-72" d="M 2631 2963 
Q 2534 3019 2420 3045 
Q 2306 3072 2169 3072 
Q 1681 3072 1420 2755 
Q 1159 2438 1159 1844 
L 1159 0 
L 581 0 
L 581 3500 
L 1159 3500 
L 1159 2956 
Q 1341 3275 1631 3429 
Q 1922 3584 2338 3584 
Q 2397 3584 2469 3576 
Q 2541 3569 2628 3553 
L 2631 2963 
z
" transform="scale(0.015625)"/>
       <path id="DejaVuSans-6a" d="M 603 3500 
L 1178 3500 
L 1178 -63 
Q 1178 -731 923 -1031 
Q 669 -1331 103 -1331 
L -116 -1331 
L -116 -844 
L 38 -844 
Q 366 -844 484 -692 
Q 603 -541 603 -63 
L 603 3500 
z
M 603 4863 
L 1178 4863 
L 1178 4134 
L 603 4134 
L 603 4863 
z
" transform="scale(0.015625)"/>
       <path id="DejaVuSans-63" d="M 3122 3366 
L 3122 2828 
Q 2878 2963 2633 3030 
Q 2388 3097 2138 3097 
Q 1578 3097 1268 2742 
Q 959 2388 959 1747 
Q 959 1106 1268 751 
Q 1578 397 2138 397 
Q 2388 397 2633 464 
Q 2878 531 3122 666 
L 3122 134 
Q 2881 22 2623 -34 
Q 2366 -91 2075 -91 
Q 1284 -91 818 406 
Q 353 903 353 1747 
Q 353 2603 823 3093 
Q 1294 3584 2113 3584 
Q 2378 3584 2631 3529 
Q 2884 3475 3122 3366 
z
" transform="scale(0.015625)"/>
       <path id="DejaVuSans-79" d="M 2059 -325 
Q 1816 -950 1584 -1140 
Q 1353 -1331 966 -1331 
L 506 -1331 
L 506 -850 
L 844 -850 
Q 1081 -850 1212 -737 
Q 1344 -625 1503 -206 
L 1606 56 
L 191 3500 
L 800 3500 
L 1894 763 
L 2988 3500 
L 3597 3500 
L 2059 -325 
z
" transform="scale(0.015625)"/>
      </defs>
      <use xlink:href="#DejaVuSans-54"/>
      <use xlink:href="#DejaVuSans-72" x="46.333984"/>
      <use xlink:href="#DejaVuSans-75" x="87.447266"/>
      <use xlink:href="#DejaVuSans-65" x="150.826172"/>
      <use xlink:href="#DejaVuSans-20" x="212.349609"/>
      <use xlink:href="#DejaVuSans-54" x="244.136719"/>
      <use xlink:href="#DejaVuSans-72" x="290.470703"/>
      <use xlink:href="#DejaVuSans-61" x="331.583984"/>
      <use xlink:href="#DejaVuSans-6a" x="392.863281"/>
      <use xlink:href="#DejaVuSans-65" x="420.646484"/>
      <use xlink:href="#DejaVuSans-63" x="482.169922"/>
      <use xlink:href="#DejaVuSans-74" x="537.150391"/>
      <use xlink:href="#DejaVuSans-6f" x="576.359375"/>
      <use xlink:href="#DejaVuSans-72" x="637.541016"/>
      <use xlink:href="#DejaVuSans-79" x="678.654297"/>
     </g>
    </g>
    <g id="line2d_24">
     <path d="M 197.758187 69.248563 
L 207.758187 69.248563 
L 217.758187 69.248563 
" style="fill: none; stroke: #008000; stroke-width: 1.5; stroke-linecap: square"/>
    </g>
    <g id="text_21">
     <!-- Predicted Trajectory (Train) -->
     <g transform="translate(225.758187 72.748563)scale(0.1 -0.1)">
      <defs>
       <path id="DejaVuSans-50" d="M 1259 4147 
L 1259 2394 
L 2053 2394 
Q 2494 2394 2734 2622 
Q 2975 2850 2975 3272 
Q 2975 3691 2734 3919 
Q 2494 4147 2053 4147 
L 1259 4147 
z
M 628 4666 
L 2053 4666 
Q 2838 4666 3239 4311 
Q 3641 3956 3641 3272 
Q 3641 2581 3239 2228 
Q 2838 1875 2053 1875 
L 1259 1875 
L 1259 0 
L 628 0 
L 628 4666 
z
" transform="scale(0.015625)"/>
      </defs>
      <use xlink:href="#DejaVuSans-50"/>
      <use xlink:href="#DejaVuSans-72" x="58.552734"/>
      <use xlink:href="#DejaVuSans-65" x="97.416016"/>
      <use xlink:href="#DejaVuSans-64" x="158.939453"/>
      <use xlink:href="#DejaVuSans-69" x="222.416016"/>
      <use xlink:href="#DejaVuSans-63" x="250.199219"/>
      <use xlink:href="#DejaVuSans-74" x="305.179688"/>
      <use xlink:href="#DejaVuSans-65" x="344.388672"/>
      <use xlink:href="#DejaVuSans-64" x="405.912109"/>
      <use xlink:href="#DejaVuSans-20" x="469.388672"/>
      <use xlink:href="#DejaVuSans-54" x="501.175781"/>
      <use xlink:href="#DejaVuSans-72" x="547.509766"/>
      <use xlink:href="#DejaVuSans-61" x="588.623047"/>
      <use xlink:href="#DejaVuSans-6a" x="649.902344"/>
      <use xlink:href="#DejaVuSans-65" x="677.685547"/>
      <use xlink:href="#DejaVuSans-63" x="739.208984"/>
      <use xlink:href="#DejaVuSans-74" x="794.189453"/>
      <use xlink:href="#DejaVuSans-6f" x="833.398438"/>
      <use xlink:href="#DejaVuSans-72" x="894.580078"/>
      <use xlink:href="#DejaVuSans-79" x="935.693359"/>
      <use xlink:href="#DejaVuSans-20" x="994.873047"/>
      <use xlink:href="#DejaVuSans-28" x="1026.660156"/>
      <use xlink:href="#DejaVuSans-54" x="1065.673828"/>
      <use xlink:href="#DejaVuSans-72" x="1112.007812"/>
      <use xlink:href="#DejaVuSans-61" x="1153.121094"/>
      <use xlink:href="#DejaVuSans-69" x="1214.400391"/>
      <use xlink:href="#DejaVuSans-6e" x="1242.183594"/>
      <use xlink:href="#DejaVuSans-29" x="1305.5625"/>
     </g>
    </g>
    <g id="line2d_25">
     <path d="M 197.758187 83.926688 
L 207.758187 83.926688 
L 217.758187 83.926688 
" style="fill: none; stroke: #ff0000; stroke-width: 1.5; stroke-linecap: square"/>
    </g>
    <g id="text_22">
     <!-- Predicted Trajectory (Test) -->
     <g transform="translate(225.758187 87.426688)scale(0.1 -0.1)">
      <defs>
       <path id="DejaVuSans-73" d="M 2834 3397 
L 2834 2853 
Q 2591 2978 2328 3040 
Q 2066 3103 1784 3103 
Q 1356 3103 1142 2972 
Q 928 2841 928 2578 
Q 928 2378 1081 2264 
Q 1234 2150 1697 2047 
L 1894 2003 
Q 2506 1872 2764 1633 
Q 3022 1394 3022 966 
Q 3022 478 2636 193 
Q 2250 -91 1575 -91 
Q 1294 -91 989 -36 
Q 684 19 347 128 
L 347 722 
Q 666 556 975 473 
Q 1284 391 1588 391 
Q 1994 391 2212 530 
Q 2431 669 2431 922 
Q 2431 1156 2273 1281 
Q 2116 1406 1581 1522 
L 1381 1569 
Q 847 1681 609 1914 
Q 372 2147 372 2553 
Q 372 3047 722 3315 
Q 1072 3584 1716 3584 
Q 2034 3584 2315 3537 
Q 2597 3491 2834 3397 
z
" transform="scale(0.015625)"/>
      </defs>
      <use xlink:href="#DejaVuSans-50"/>
      <use xlink:href="#DejaVuSans-72" x="58.552734"/>
      <use xlink:href="#DejaVuSans-65" x="97.416016"/>
      <use xlink:href="#DejaVuSans-64" x="158.939453"/>
      <use xlink:href="#DejaVuSans-69" x="222.416016"/>
      <use xlink:href="#DejaVuSans-63" x="250.199219"/>
      <use xlink:href="#DejaVuSans-74" x="305.179688"/>
      <use xlink:href="#DejaVuSans-65" x="344.388672"/>
      <use xlink:href="#DejaVuSans-64" x="405.912109"/>
      <use xlink:href="#DejaVuSans-20" x="469.388672"/>
      <use xlink:href="#DejaVuSans-54" x="501.175781"/>
      <use xlink:href="#DejaVuSans-72" x="547.509766"/>
      <use xlink:href="#DejaVuSans-61" x="588.623047"/>
      <use xlink:href="#DejaVuSans-6a" x="649.902344"/>
      <use xlink:href="#DejaVuSans-65" x="677.685547"/>
      <use xlink:href="#DejaVuSans-63" x="739.208984"/>
      <use xlink:href="#DejaVuSans-74" x="794.189453"/>
      <use xlink:href="#DejaVuSans-6f" x="833.398438"/>
      <use xlink:href="#DejaVuSans-72" x="894.580078"/>
      <use xlink:href="#DejaVuSans-79" x="935.693359"/>
      <use xlink:href="#DejaVuSans-20" x="994.873047"/>
      <use xlink:href="#DejaVuSans-28" x="1026.660156"/>
      <use xlink:href="#DejaVuSans-54" x="1065.673828"/>
      <use xlink:href="#DejaVuSans-65" x="1109.757812"/>
      <use xlink:href="#DejaVuSans-73" x="1171.28125"/>
      <use xlink:href="#DejaVuSans-74" x="1223.380859"/>
      <use xlink:href="#DejaVuSans-29" x="1262.589844"/>
     </g>
    </g>
   </g>
  </g>
 </g>
 <defs>
  <clipPath id="pe67849b648">
   <rect x="103.104" y="41.472" width="266.112" height="266.112"/>
  </clipPath>
 </defs>
</svg>
