<?xml version="1.0" encoding="utf-8" standalone="no"?>
<!DOCTYPE svg PUBLIC "-//W3C//DTD SVG 1.1//EN"
  "http://www.w3.org/Graphics/SVG/1.1/DTD/svg11.dtd">
<svg xmlns:xlink="http://www.w3.org/1999/xlink" width="460.8pt" height="345.6pt" viewBox="0 0 460.8 345.6" xmlns="http://www.w3.org/2000/svg" version="1.1">
 <metadata>
  <rdf:RDF xmlns:dc="http://purl.org/dc/elements/1.1/" xmlns:cc="http://creativecommons.org/ns#" xmlns:rdf="http://www.w3.org/1999/02/22-rdf-syntax-ns#">
   <cc:Work>
    <dc:type rdf:resource="http://purl.org/dc/dcmitype/StillImage"/>
    <dc:date>2024-03-16T22:05:39.008826</dc:date>
    <dc:format>image/svg+xml</dc:format>
    <dc:creator>
     <cc:Agent>
      <dc:title>Matplotlib v3.5.1, https://matplotlib.org/</dc:title>
     </cc:Agent>
    </dc:creator>
   </cc:Work>
  </rdf:RDF>
 </metadata>
 <defs>
  <style type="text/css">*{stroke-linejoin: round; stroke-linecap: butt}</style>
 </defs>
 <g id="figure_1">
  <g id="patch_1">
   <path d="M 0 345.6 
L 460.8 345.6 
L 460.8 0 
L 0 0 
z
" style="fill: #ffffff"/>
  </g>
  <g id="patch_2">
   <path d="M 103.104 307.584 
L 369.216 307.584 
L 369.216 41.472 
L 103.104 41.472 
z
" style="fill: #ffffff"/>
  </g>
  <g id="pane3d_1">
   <g id="patch_3">
    <path d="M 250.396949 116.43815 
L 356.64045 216.813879 
L 365.410032 141.021116 
L 251.152505 37.581721 
" style="fill: #f2f2f2; opacity: 0.5; stroke: #f2f2f2; stroke-linejoin: miter"/>
   </g>
  </g>
  <g id="pane3d_2">
   <g id="patch_4">
    <path d="M 250.396949 116.43815 
L 123.939269 198.501039 
L 115.335036 122.091424 
L 251.152505 37.581721 
" style="fill: #e6e6e6; opacity: 0.5; stroke: #e6e6e6; stroke-linejoin: miter"/>
   </g>
  </g>
  <g id="pane3d_3">
   <g id="patch_5">
    <path d="M 250.396949 116.43815 
L 123.939269 198.501039 
L 228.045336 307.960597 
L 356.64045 216.813879 
" style="fill: #ececec; opacity: 0.5; stroke: #ececec; stroke-linejoin: miter"/>
   </g>
  </g>
  <g id="axis3d_1">
   <g id="line2d_1">
    <path d="M 356.64045 216.813879 
L 228.045336 307.960597 
" style="fill: none; stroke: #000000; stroke-width: 0.8; stroke-linecap: square"/>
   </g>
   <g id="text_1">
    <!-- Longitude (°) -->
    <g transform="translate(287.813742 314.868049)rotate(-35.32857)scale(0.1 -0.1)">
     <defs>
      <path id="DejaVuSans-4c" d="M 628 4666 
L 1259 4666 
L 1259 531 
L 3531 531 
L 3531 0 
L 628 0 
L 628 4666 
z
" transform="scale(0.015625)"/>
      <path id="DejaVuSans-6f" d="M 1959 3097 
Q 1497 3097 1228 2736 
Q 959 2375 959 1747 
Q 959 1119 1226 758 
Q 1494 397 1959 397 
Q 2419 397 2687 759 
Q 2956 1122 2956 1747 
Q 2956 2369 2687 2733 
Q 2419 3097 1959 3097 
z
M 1959 3584 
Q 2709 3584 3137 3096 
Q 3566 2609 3566 1747 
Q 3566 888 3137 398 
Q 2709 -91 1959 -91 
Q 1206 -91 779 398 
Q 353 888 353 1747 
Q 353 2609 779 3096 
Q 1206 3584 1959 3584 
z
" transform="scale(0.015625)"/>
      <path id="DejaVuSans-6e" d="M 3513 2113 
L 3513 0 
L 2938 0 
L 2938 2094 
Q 2938 2591 2744 2837 
Q 2550 3084 2163 3084 
Q 1697 3084 1428 2787 
Q 1159 2491 1159 1978 
L 1159 0 
L 581 0 
L 581 3500 
L 1159 3500 
L 1159 2956 
Q 1366 3272 1645 3428 
Q 1925 3584 2291 3584 
Q 2894 3584 3203 3211 
Q 3513 2838 3513 2113 
z
" transform="scale(0.015625)"/>
      <path id="DejaVuSans-67" d="M 2906 1791 
Q 2906 2416 2648 2759 
Q 2391 3103 1925 3103 
Q 1463 3103 1205 2759 
Q 947 2416 947 1791 
Q 947 1169 1205 825 
Q 1463 481 1925 481 
Q 2391 481 2648 825 
Q 2906 1169 2906 1791 
z
M 3481 434 
Q 3481 -459 3084 -895 
Q 2688 -1331 1869 -1331 
Q 1566 -1331 1297 -1286 
Q 1028 -1241 775 -1147 
L 775 -588 
Q 1028 -725 1275 -790 
Q 1522 -856 1778 -856 
Q 2344 -856 2625 -561 
Q 2906 -266 2906 331 
L 2906 616 
Q 2728 306 2450 153 
Q 2172 0 1784 0 
Q 1141 0 747 490 
Q 353 981 353 1791 
Q 353 2603 747 3093 
Q 1141 3584 1784 3584 
Q 2172 3584 2450 3431 
Q 2728 3278 2906 2969 
L 2906 3500 
L 3481 3500 
L 3481 434 
z
" transform="scale(0.015625)"/>
      <path id="DejaVuSans-69" d="M 603 3500 
L 1178 3500 
L 1178 0 
L 603 0 
L 603 3500 
z
M 603 4863 
L 1178 4863 
L 1178 4134 
L 603 4134 
L 603 4863 
z
" transform="scale(0.015625)"/>
      <path id="DejaVuSans-74" d="M 1172 4494 
L 1172 3500 
L 2356 3500 
L 2356 3053 
L 1172 3053 
L 1172 1153 
Q 1172 725 1289 603 
Q 1406 481 1766 481 
L 2356 481 
L 2356 0 
L 1766 0 
Q 1100 0 847 248 
Q 594 497 594 1153 
L 594 3053 
L 172 3053 
L 172 3500 
L 594 3500 
L 594 4494 
L 1172 4494 
z
" transform="scale(0.015625)"/>
      <path id="DejaVuSans-75" d="M 544 1381 
L 544 3500 
L 1119 3500 
L 1119 1403 
Q 1119 906 1312 657 
Q 1506 409 1894 409 
Q 2359 409 2629 706 
Q 2900 1003 2900 1516 
L 2900 3500 
L 3475 3500 
L 3475 0 
L 2900 0 
L 2900 538 
Q 2691 219 2414 64 
Q 2138 -91 1772 -91 
Q 1169 -91 856 284 
Q 544 659 544 1381 
z
M 1991 3584 
L 1991 3584 
z
" transform="scale(0.015625)"/>
      <path id="DejaVuSans-64" d="M 2906 2969 
L 2906 4863 
L 3481 4863 
L 3481 0 
L 2906 0 
L 2906 525 
Q 2725 213 2448 61 
Q 2172 -91 1784 -91 
Q 1150 -91 751 415 
Q 353 922 353 1747 
Q 353 2572 751 3078 
Q 1150 3584 1784 3584 
Q 2172 3584 2448 3432 
Q 2725 3281 2906 2969 
z
M 947 1747 
Q 947 1113 1208 752 
Q 1469 391 1925 391 
Q 2381 391 2643 752 
Q 2906 1113 2906 1747 
Q 2906 2381 2643 2742 
Q 2381 3103 1925 3103 
Q 1469 3103 1208 2742 
Q 947 2381 947 1747 
z
" transform="scale(0.015625)"/>
      <path id="DejaVuSans-65" d="M 3597 1894 
L 3597 1613 
L 953 1613 
Q 991 1019 1311 708 
Q 1631 397 2203 397 
Q 2534 397 2845 478 
Q 3156 559 3463 722 
L 3463 178 
Q 3153 47 2828 -22 
Q 2503 -91 2169 -91 
Q 1331 -91 842 396 
Q 353 884 353 1716 
Q 353 2575 817 3079 
Q 1281 3584 2069 3584 
Q 2775 3584 3186 3129 
Q 3597 2675 3597 1894 
z
M 3022 2063 
Q 3016 2534 2758 2815 
Q 2500 3097 2075 3097 
Q 1594 3097 1305 2825 
Q 1016 2553 972 2059 
L 3022 2063 
z
" transform="scale(0.015625)"/>
      <path id="DejaVuSans-20" transform="scale(0.015625)"/>
      <path id="DejaVuSans-28" d="M 1984 4856 
Q 1566 4138 1362 3434 
Q 1159 2731 1159 2009 
Q 1159 1288 1364 580 
Q 1569 -128 1984 -844 
L 1484 -844 
Q 1016 -109 783 600 
Q 550 1309 550 2009 
Q 550 2706 781 3412 
Q 1013 4119 1484 4856 
L 1984 4856 
z
" transform="scale(0.015625)"/>
      <path id="DejaVuSans-b0" d="M 1600 4347 
Q 1350 4347 1178 4173 
Q 1006 4000 1006 3750 
Q 1006 3503 1178 3333 
Q 1350 3163 1600 3163 
Q 1850 3163 2022 3333 
Q 2194 3503 2194 3750 
Q 2194 3997 2020 4172 
Q 1847 4347 1600 4347 
z
M 1600 4750 
Q 1800 4750 1984 4673 
Q 2169 4597 2303 4453 
Q 2447 4313 2519 4134 
Q 2591 3956 2591 3750 
Q 2591 3338 2302 3052 
Q 2013 2766 1594 2766 
Q 1172 2766 890 3047 
Q 609 3328 609 3750 
Q 609 4169 896 4459 
Q 1184 4750 1600 4750 
z
" transform="scale(0.015625)"/>
      <path id="DejaVuSans-29" d="M 513 4856 
L 1013 4856 
Q 1481 4119 1714 3412 
Q 1947 2706 1947 2009 
Q 1947 1309 1714 600 
Q 1481 -109 1013 -844 
L 513 -844 
Q 928 -128 1133 580 
Q 1338 1288 1338 2009 
Q 1338 2731 1133 3434 
Q 928 4138 513 4856 
z
" transform="scale(0.015625)"/>
     </defs>
     <use xlink:href="#DejaVuSans-4c"/>
     <use xlink:href="#DejaVuSans-6f" x="53.962891"/>
     <use xlink:href="#DejaVuSans-6e" x="115.144531"/>
     <use xlink:href="#DejaVuSans-67" x="178.523438"/>
     <use xlink:href="#DejaVuSans-69" x="242"/>
     <use xlink:href="#DejaVuSans-74" x="269.783203"/>
     <use xlink:href="#DejaVuSans-75" x="308.992188"/>
     <use xlink:href="#DejaVuSans-64" x="372.371094"/>
     <use xlink:href="#DejaVuSans-65" x="435.847656"/>
     <use xlink:href="#DejaVuSans-20" x="497.371094"/>
     <use xlink:href="#DejaVuSans-28" x="529.158203"/>
     <use xlink:href="#DejaVuSans-b0" x="568.171875"/>
     <use xlink:href="#DejaVuSans-29" x="618.171875"/>
    </g>
   </g>
   <g id="Line3DCollection_1">
    <path d="M 327.335476 237.584903 
L 221.528459 135.17194 
L 220.220556 56.828507 
" style="fill: none; stroke: #b0b0b0; stroke-width: 0.8"/>
    <path d="M 299.566455 257.267261 
L 194.200645 152.905931 
L 190.899547 75.072919 
" style="fill: none; stroke: #b0b0b0; stroke-width: 0.8"/>
    <path d="M 271.252568 277.335814 
L 166.364233 170.96997 
L 160.992907 93.681727 
" style="fill: none; stroke: #b0b0b0; stroke-width: 0.8"/>
    <path d="M 242.377621 297.80204 
L 138.004892 189.373355 
L 130.482914 112.66596 
" style="fill: none; stroke: #b0b0b0; stroke-width: 0.8"/>
   </g>
   <g id="xtick_1">
    <g id="line2d_2">
     <path d="M 326.444331 236.722344 
L 329.120045 239.312226 
" style="fill: none; stroke: #000000; stroke-width: 0.8; stroke-linecap: square"/>
    </g>
    <g id="text_2">
     <!-- 7.0 -->
     <g transform="translate(328.105517 259.901043)scale(0.1 -0.1)">
      <defs>
       <path id="DejaVuSans-37" d="M 525 4666 
L 3525 4666 
L 3525 4397 
L 1831 0 
L 1172 0 
L 2766 4134 
L 525 4134 
L 525 4666 
z
" transform="scale(0.015625)"/>
       <path id="DejaVuSans-2e" d="M 684 794 
L 1344 794 
L 1344 0 
L 684 0 
L 684 794 
z
" transform="scale(0.015625)"/>
       <path id="DejaVuSans-30" d="M 2034 4250 
Q 1547 4250 1301 3770 
Q 1056 3291 1056 2328 
Q 1056 1369 1301 889 
Q 1547 409 2034 409 
Q 2525 409 2770 889 
Q 3016 1369 3016 2328 
Q 3016 3291 2770 3770 
Q 2525 4250 2034 4250 
z
M 2034 4750 
Q 2819 4750 3233 4129 
Q 3647 3509 3647 2328 
Q 3647 1150 3233 529 
Q 2819 -91 2034 -91 
Q 1250 -91 836 529 
Q 422 1150 422 2328 
Q 422 3509 836 4129 
Q 1250 4750 2034 4750 
z
" transform="scale(0.015625)"/>
      </defs>
      <use xlink:href="#DejaVuSans-37"/>
      <use xlink:href="#DejaVuSans-2e" x="63.623047"/>
      <use xlink:href="#DejaVuSans-30" x="95.410156"/>
     </g>
    </g>
   </g>
   <g id="xtick_2">
    <g id="line2d_3">
     <path d="M 298.678594 256.387865 
L 301.344469 259.028326 
" style="fill: none; stroke: #000000; stroke-width: 0.8; stroke-linecap: square"/>
    </g>
    <g id="text_3">
     <!-- 7.5 -->
     <g transform="translate(300.461229 279.697745)scale(0.1 -0.1)">
      <defs>
       <path id="DejaVuSans-35" d="M 691 4666 
L 3169 4666 
L 3169 4134 
L 1269 4134 
L 1269 2991 
Q 1406 3038 1543 3061 
Q 1681 3084 1819 3084 
Q 2600 3084 3056 2656 
Q 3513 2228 3513 1497 
Q 3513 744 3044 326 
Q 2575 -91 1722 -91 
Q 1428 -91 1123 -41 
Q 819 9 494 109 
L 494 744 
Q 775 591 1075 516 
Q 1375 441 1709 441 
Q 2250 441 2565 725 
Q 2881 1009 2881 1497 
Q 2881 1984 2565 2268 
Q 2250 2553 1709 2553 
Q 1456 2553 1204 2497 
Q 953 2441 691 2322 
L 691 4666 
z
" transform="scale(0.015625)"/>
      </defs>
      <use xlink:href="#DejaVuSans-37"/>
      <use xlink:href="#DejaVuSans-2e" x="63.623047"/>
      <use xlink:href="#DejaVuSans-35" x="95.410156"/>
     </g>
    </g>
   </g>
   <g id="xtick_3">
    <g id="line2d_4">
     <path d="M 270.368292 276.439082 
L 273.023427 279.131618 
" style="fill: none; stroke: #000000; stroke-width: 0.8; stroke-linecap: square"/>
    </g>
    <g id="text_4">
     <!-- 8.0 -->
     <g transform="translate(272.275315 299.882317)scale(0.1 -0.1)">
      <defs>
       <path id="DejaVuSans-38" d="M 2034 2216 
Q 1584 2216 1326 1975 
Q 1069 1734 1069 1313 
Q 1069 891 1326 650 
Q 1584 409 2034 409 
Q 2484 409 2743 651 
Q 3003 894 3003 1313 
Q 3003 1734 2745 1975 
Q 2488 2216 2034 2216 
z
M 1403 2484 
Q 997 2584 770 2862 
Q 544 3141 544 3541 
Q 544 4100 942 4425 
Q 1341 4750 2034 4750 
Q 2731 4750 3128 4425 
Q 3525 4100 3525 3541 
Q 3525 3141 3298 2862 
Q 3072 2584 2669 2484 
Q 3125 2378 3379 2068 
Q 3634 1759 3634 1313 
Q 3634 634 3220 271 
Q 2806 -91 2034 -91 
Q 1263 -91 848 271 
Q 434 634 434 1313 
Q 434 1759 690 2068 
Q 947 2378 1403 2484 
z
M 1172 3481 
Q 1172 3119 1398 2916 
Q 1625 2713 2034 2713 
Q 2441 2713 2670 2916 
Q 2900 3119 2900 3481 
Q 2900 3844 2670 4047 
Q 2441 4250 2034 4250 
Q 1625 4250 1398 4047 
Q 1172 3844 1172 3481 
z
" transform="scale(0.015625)"/>
      </defs>
      <use xlink:href="#DejaVuSans-38"/>
      <use xlink:href="#DejaVuSans-2e" x="63.623047"/>
      <use xlink:href="#DejaVuSans-30" x="95.410156"/>
     </g>
    </g>
   </g>
   <g id="xtick_4">
    <g id="line2d_5">
     <path d="M 241.497247 296.887454 
L 244.140689 299.633621 
" style="fill: none; stroke: #000000; stroke-width: 0.8; stroke-linecap: square"/>
    </g>
    <g id="text_5">
     <!-- 8.5 -->
     <g transform="translate(243.5317 320.466272)scale(0.1 -0.1)">
      <use xlink:href="#DejaVuSans-38"/>
      <use xlink:href="#DejaVuSans-2e" x="63.623047"/>
      <use xlink:href="#DejaVuSans-35" x="95.410156"/>
     </g>
    </g>
   </g>
  </g>
  <g id="axis3d_2">
   <g id="line2d_6">
    <path d="M 123.939269 198.501039 
L 228.045336 307.960597 
" style="fill: none; stroke: #000000; stroke-width: 0.8; stroke-linecap: square"/>
   </g>
   <g id="text_6">
    <!-- Latitude (°) -->
    <g transform="translate(129.828143 261.595201)rotate(-313.564056)scale(0.1 -0.1)">
     <defs>
      <path id="DejaVuSans-61" d="M 2194 1759 
Q 1497 1759 1228 1600 
Q 959 1441 959 1056 
Q 959 750 1161 570 
Q 1363 391 1709 391 
Q 2188 391 2477 730 
Q 2766 1069 2766 1631 
L 2766 1759 
L 2194 1759 
z
M 3341 1997 
L 3341 0 
L 2766 0 
L 2766 531 
Q 2569 213 2275 61 
Q 1981 -91 1556 -91 
Q 1019 -91 701 211 
Q 384 513 384 1019 
Q 384 1609 779 1909 
Q 1175 2209 1959 2209 
L 2766 2209 
L 2766 2266 
Q 2766 2663 2505 2880 
Q 2244 3097 1772 3097 
Q 1472 3097 1187 3025 
Q 903 2953 641 2809 
L 641 3341 
Q 956 3463 1253 3523 
Q 1550 3584 1831 3584 
Q 2591 3584 2966 3190 
Q 3341 2797 3341 1997 
z
" transform="scale(0.015625)"/>
     </defs>
     <use xlink:href="#DejaVuSans-4c"/>
     <use xlink:href="#DejaVuSans-61" x="55.712891"/>
     <use xlink:href="#DejaVuSans-74" x="116.992188"/>
     <use xlink:href="#DejaVuSans-69" x="156.201172"/>
     <use xlink:href="#DejaVuSans-74" x="183.984375"/>
     <use xlink:href="#DejaVuSans-75" x="223.193359"/>
     <use xlink:href="#DejaVuSans-64" x="286.572266"/>
     <use xlink:href="#DejaVuSans-65" x="350.048828"/>
     <use xlink:href="#DejaVuSans-20" x="411.572266"/>
     <use xlink:href="#DejaVuSans-28" x="443.359375"/>
     <use xlink:href="#DejaVuSans-b0" x="482.373047"/>
     <use xlink:href="#DejaVuSans-29" x="532.373047"/>
    </g>
   </g>
   <g id="Line3DCollection_2">
    <path d="M 262.379926 47.746107 
L 260.872223 126.33488 
L 134.182788 209.271314 
" style="fill: none; stroke: #b0b0b0; stroke-width: 0.8"/>
    <path d="M 279.841075 63.553999 
L 277.148266 141.712006 
L 150.107843 226.01529 
" style="fill: none; stroke: #b0b0b0; stroke-width: 0.8"/>
    <path d="M 297.605503 79.636456 
L 293.687861 157.338128 
L 166.302124 243.042337 
" style="fill: none; stroke: #b0b0b0; stroke-width: 0.8"/>
    <path d="M 315.681183 96.000694 
L 310.497461 173.219342 
L 182.772519 260.359696 
" style="fill: none; stroke: #b0b0b0; stroke-width: 0.8"/>
    <path d="M 334.076366 112.654185 
L 327.583732 189.361948 
L 199.526148 277.974855 
" style="fill: none; stroke: #b0b0b0; stroke-width: 0.8"/>
    <path d="M 352.799599 129.604665 
L 344.953563 205.772452 
L 216.570382 295.895562 
" style="fill: none; stroke: #b0b0b0; stroke-width: 0.8"/>
   </g>
   <g id="xtick_5">
    <g id="line2d_7">
     <path d="M 135.239839 208.579322 
L 132.066486 210.656738 
" style="fill: none; stroke: #000000; stroke-width: 0.8; stroke-linecap: square"/>
    </g>
    <g id="text_7">
     <!-- 46 -->
     <g transform="translate(117.484736 229.892291)scale(0.1 -0.1)">
      <defs>
       <path id="DejaVuSans-34" d="M 2419 4116 
L 825 1625 
L 2419 1625 
L 2419 4116 
z
M 2253 4666 
L 3047 4666 
L 3047 1625 
L 3713 1625 
L 3713 1100 
L 3047 1100 
L 3047 0 
L 2419 0 
L 2419 1100 
L 313 1100 
L 313 1709 
L 2253 4666 
z
" transform="scale(0.015625)"/>
       <path id="DejaVuSans-36" d="M 2113 2584 
Q 1688 2584 1439 2293 
Q 1191 2003 1191 1497 
Q 1191 994 1439 701 
Q 1688 409 2113 409 
Q 2538 409 2786 701 
Q 3034 994 3034 1497 
Q 3034 2003 2786 2293 
Q 2538 2584 2113 2584 
z
M 3366 4563 
L 3366 3988 
Q 3128 4100 2886 4159 
Q 2644 4219 2406 4219 
Q 1781 4219 1451 3797 
Q 1122 3375 1075 2522 
Q 1259 2794 1537 2939 
Q 1816 3084 2150 3084 
Q 2853 3084 3261 2657 
Q 3669 2231 3669 1497 
Q 3669 778 3244 343 
Q 2819 -91 2113 -91 
Q 1303 -91 875 529 
Q 447 1150 447 2328 
Q 447 3434 972 4092 
Q 1497 4750 2381 4750 
Q 2619 4750 2861 4703 
Q 3103 4656 3366 4563 
z
" transform="scale(0.015625)"/>
      </defs>
      <use xlink:href="#DejaVuSans-34"/>
      <use xlink:href="#DejaVuSans-36" x="63.623047"/>
     </g>
    </g>
   </g>
   <g id="xtick_6">
    <g id="line2d_8">
     <path d="M 151.168188 225.311651 
L 147.984927 227.424045 
" style="fill: none; stroke: #000000; stroke-width: 0.8; stroke-linecap: square"/>
    </g>
    <g id="text_8">
     <!-- 47 -->
     <g transform="translate(133.288497 246.708542)scale(0.1 -0.1)">
      <use xlink:href="#DejaVuSans-34"/>
      <use xlink:href="#DejaVuSans-37" x="63.623047"/>
     </g>
    </g>
   </g>
   <g id="xtick_7">
    <g id="line2d_9">
     <path d="M 167.365725 242.326754 
L 164.172672 244.475017 
" style="fill: none; stroke: #000000; stroke-width: 0.8; stroke-linecap: square"/>
    </g>
    <g id="text_9">
     <!-- 48 -->
     <g transform="translate(149.358845 263.80846)scale(0.1 -0.1)">
      <use xlink:href="#DejaVuSans-34"/>
      <use xlink:href="#DejaVuSans-38" x="63.623047"/>
     </g>
    </g>
   </g>
   <g id="xtick_8">
    <g id="line2d_10">
     <path d="M 183.839332 259.631863 
L 180.636616 261.816916 
" style="fill: none; stroke: #000000; stroke-width: 0.8; stroke-linecap: square"/>
    </g>
    <g id="text_10">
     <!-- 49 -->
     <g transform="translate(165.702584 281.199282)scale(0.1 -0.1)">
      <defs>
       <path id="DejaVuSans-39" d="M 703 97 
L 703 672 
Q 941 559 1184 500 
Q 1428 441 1663 441 
Q 2288 441 2617 861 
Q 2947 1281 2994 2138 
Q 2813 1869 2534 1725 
Q 2256 1581 1919 1581 
Q 1219 1581 811 2004 
Q 403 2428 403 3163 
Q 403 3881 828 4315 
Q 1253 4750 1959 4750 
Q 2769 4750 3195 4129 
Q 3622 3509 3622 2328 
Q 3622 1225 3098 567 
Q 2575 -91 1691 -91 
Q 1453 -91 1209 -44 
Q 966 3 703 97 
z
M 1959 2075 
Q 2384 2075 2632 2365 
Q 2881 2656 2881 3163 
Q 2881 3666 2632 3958 
Q 2384 4250 1959 4250 
Q 1534 4250 1286 3958 
Q 1038 3666 1038 3163 
Q 1038 2656 1286 2365 
Q 1534 2075 1959 2075 
z
" transform="scale(0.015625)"/>
      </defs>
      <use xlink:href="#DejaVuSans-34"/>
      <use xlink:href="#DejaVuSans-39" x="63.623047"/>
     </g>
    </g>
   </g>
   <g id="xtick_9">
    <g id="line2d_11">
     <path d="M 200.596128 277.234453 
L 197.383886 279.457251 
" style="fill: none; stroke: #000000; stroke-width: 0.8; stroke-linecap: square"/>
    </g>
    <g id="text_11">
     <!-- 50 -->
     <g transform="translate(182.326748 298.888497)scale(0.1 -0.1)">
      <use xlink:href="#DejaVuSans-35"/>
      <use xlink:href="#DejaVuSans-30" x="63.623047"/>
     </g>
    </g>
   </g>
   <g id="xtick_10">
    <g id="line2d_12">
     <path d="M 217.643478 295.142264 
L 214.421861 297.403792 
" style="fill: none; stroke: #000000; stroke-width: 0.8; stroke-linecap: square"/>
    </g>
    <g id="text_12">
     <!-- 51 -->
     <g transform="translate(199.238617 316.883849)scale(0.1 -0.1)">
      <defs>
       <path id="DejaVuSans-31" d="M 794 531 
L 1825 531 
L 1825 4091 
L 703 3866 
L 703 4441 
L 1819 4666 
L 2450 4666 
L 2450 531 
L 3481 531 
L 3481 0 
L 794 0 
L 794 531 
z
" transform="scale(0.015625)"/>
      </defs>
      <use xlink:href="#DejaVuSans-35"/>
      <use xlink:href="#DejaVuSans-31" x="63.623047"/>
     </g>
    </g>
   </g>
  </g>
  <g id="axis3d_3">
   <g id="line2d_13">
    <path d="M 123.939269 198.501039 
L 115.335036 122.091424 
" style="fill: none; stroke: #000000; stroke-width: 0.8; stroke-linecap: square"/>
   </g>
   <g id="text_13">
    <!-- GeoAltitude (m) -->
    <g transform="translate(69.584058 118.992887)rotate(-276.424823)scale(0.1 -0.1)">
     <defs>
      <path id="DejaVuSans-47" d="M 3809 666 
L 3809 1919 
L 2778 1919 
L 2778 2438 
L 4434 2438 
L 4434 434 
Q 4069 175 3628 42 
Q 3188 -91 2688 -91 
Q 1594 -91 976 548 
Q 359 1188 359 2328 
Q 359 3472 976 4111 
Q 1594 4750 2688 4750 
Q 3144 4750 3555 4637 
Q 3966 4525 4313 4306 
L 4313 3634 
Q 3963 3931 3569 4081 
Q 3175 4231 2741 4231 
Q 1884 4231 1454 3753 
Q 1025 3275 1025 2328 
Q 1025 1384 1454 906 
Q 1884 428 2741 428 
Q 3075 428 3337 486 
Q 3600 544 3809 666 
z
" transform="scale(0.015625)"/>
      <path id="DejaVuSans-41" d="M 2188 4044 
L 1331 1722 
L 3047 1722 
L 2188 4044 
z
M 1831 4666 
L 2547 4666 
L 4325 0 
L 3669 0 
L 3244 1197 
L 1141 1197 
L 716 0 
L 50 0 
L 1831 4666 
z
" transform="scale(0.015625)"/>
      <path id="DejaVuSans-6c" d="M 603 4863 
L 1178 4863 
L 1178 0 
L 603 0 
L 603 4863 
z
" transform="scale(0.015625)"/>
      <path id="DejaVuSans-6d" d="M 3328 2828 
Q 3544 3216 3844 3400 
Q 4144 3584 4550 3584 
Q 5097 3584 5394 3201 
Q 5691 2819 5691 2113 
L 5691 0 
L 5113 0 
L 5113 2094 
Q 5113 2597 4934 2840 
Q 4756 3084 4391 3084 
Q 3944 3084 3684 2787 
Q 3425 2491 3425 1978 
L 3425 0 
L 2847 0 
L 2847 2094 
Q 2847 2600 2669 2842 
Q 2491 3084 2119 3084 
Q 1678 3084 1418 2786 
Q 1159 2488 1159 1978 
L 1159 0 
L 581 0 
L 581 3500 
L 1159 3500 
L 1159 2956 
Q 1356 3278 1631 3431 
Q 1906 3584 2284 3584 
Q 2666 3584 2933 3390 
Q 3200 3197 3328 2828 
z
" transform="scale(0.015625)"/>
     </defs>
     <use xlink:href="#DejaVuSans-47"/>
     <use xlink:href="#DejaVuSans-65" x="77.490234"/>
     <use xlink:href="#DejaVuSans-6f" x="139.013672"/>
     <use xlink:href="#DejaVuSans-41" x="200.195312"/>
     <use xlink:href="#DejaVuSans-6c" x="268.603516"/>
     <use xlink:href="#DejaVuSans-74" x="296.386719"/>
     <use xlink:href="#DejaVuSans-69" x="335.595703"/>
     <use xlink:href="#DejaVuSans-74" x="363.378906"/>
     <use xlink:href="#DejaVuSans-75" x="402.587891"/>
     <use xlink:href="#DejaVuSans-64" x="465.966797"/>
     <use xlink:href="#DejaVuSans-65" x="529.443359"/>
     <use xlink:href="#DejaVuSans-20" x="590.966797"/>
     <use xlink:href="#DejaVuSans-28" x="622.753906"/>
     <use xlink:href="#DejaVuSans-6d" x="661.767578"/>
     <use xlink:href="#DejaVuSans-29" x="759.179688"/>
    </g>
   </g>
   <g id="Line3DCollection_3">
    <path d="M 122.856332 188.884047 
L 250.492299 106.486588 
L 357.743537 207.280236 
" style="fill: none; stroke: #b0b0b0; stroke-width: 0.8"/>
    <path d="M 121.464719 176.525875 
L 250.614719 93.709757 
L 359.161323 195.026755 
" style="fill: none; stroke: #b0b0b0; stroke-width: 0.8"/>
    <path d="M 120.039575 163.869926 
L 250.739963 80.638187 
L 360.613597 182.475207 
" style="fill: none; stroke: #b0b0b0; stroke-width: 0.8"/>
    <path d="M 118.579672 150.905307 
L 250.86813 67.261562 
L 362.101632 169.614582 
" style="fill: none; stroke: #b0b0b0; stroke-width: 0.8"/>
    <path d="M 117.083724 137.620586 
L 250.999323 53.569076 
L 363.626767 156.433321 
" style="fill: none; stroke: #b0b0b0; stroke-width: 0.8"/>
    <path d="M 115.550378 124.00376 
L 251.133652 39.549408 
L 365.190405 142.919282 
" style="fill: none; stroke: #b0b0b0; stroke-width: 0.8"/>
   </g>
   <g id="xtick_11">
    <g id="line2d_14">
     <path d="M 123.921452 188.196442 
L 120.723867 190.260695 
" style="fill: none; stroke: #000000; stroke-width: 0.8; stroke-linecap: square"/>
    </g>
    <g id="text_14">
     <!-- 2000 -->
     <g transform="translate(90.836551 194.971332)scale(0.1 -0.1)">
      <defs>
       <path id="DejaVuSans-32" d="M 1228 531 
L 3431 531 
L 3431 0 
L 469 0 
L 469 531 
Q 828 903 1448 1529 
Q 2069 2156 2228 2338 
Q 2531 2678 2651 2914 
Q 2772 3150 2772 3378 
Q 2772 3750 2511 3984 
Q 2250 4219 1831 4219 
Q 1534 4219 1204 4116 
Q 875 4013 500 3803 
L 500 4441 
Q 881 4594 1212 4672 
Q 1544 4750 1819 4750 
Q 2544 4750 2975 4387 
Q 3406 4025 3406 3419 
Q 3406 3131 3298 2873 
Q 3191 2616 2906 2266 
Q 2828 2175 2409 1742 
Q 1991 1309 1228 531 
z
" transform="scale(0.015625)"/>
      </defs>
      <use xlink:href="#DejaVuSans-32"/>
      <use xlink:href="#DejaVuSans-30" x="63.623047"/>
      <use xlink:href="#DejaVuSans-30" x="127.246094"/>
      <use xlink:href="#DejaVuSans-30" x="190.869141"/>
     </g>
    </g>
   </g>
   <g id="xtick_12">
    <g id="line2d_15">
     <path d="M 122.543004 175.834435 
L 119.30587 177.910215 
" style="fill: none; stroke: #000000; stroke-width: 0.8; stroke-linecap: square"/>
    </g>
    <g id="text_15">
     <!-- 4000 -->
     <g transform="translate(89.2165 182.604742)scale(0.1 -0.1)">
      <use xlink:href="#DejaVuSans-34"/>
      <use xlink:href="#DejaVuSans-30" x="63.623047"/>
      <use xlink:href="#DejaVuSans-30" x="127.246094"/>
      <use xlink:href="#DejaVuSans-30" x="190.869141"/>
     </g>
    </g>
   </g>
   <g id="xtick_13">
    <g id="line2d_16">
     <path d="M 121.131353 163.174667 
L 117.853682 165.261932 
" style="fill: none; stroke: #000000; stroke-width: 0.8; stroke-linecap: square"/>
    </g>
    <g id="text_16">
     <!-- 6000 -->
     <g transform="translate(87.557445 169.940405)scale(0.1 -0.1)">
      <use xlink:href="#DejaVuSans-36"/>
      <use xlink:href="#DejaVuSans-30" x="63.623047"/>
      <use xlink:href="#DejaVuSans-30" x="127.246094"/>
      <use xlink:href="#DejaVuSans-30" x="190.869141"/>
     </g>
    </g>
   </g>
   <g id="xtick_14">
    <g id="line2d_17">
     <path d="M 119.685286 150.206246 
L 116.36605 152.304943 
" style="fill: none; stroke: #000000; stroke-width: 0.8; stroke-linecap: square"/>
    </g>
    <g id="text_17">
     <!-- 8000 -->
     <g transform="translate(85.857958 156.967439)scale(0.1 -0.1)">
      <use xlink:href="#DejaVuSans-38"/>
      <use xlink:href="#DejaVuSans-30" x="63.623047"/>
      <use xlink:href="#DejaVuSans-30" x="127.246094"/>
      <use xlink:href="#DejaVuSans-30" x="190.869141"/>
     </g>
    </g>
   </g>
   <g id="xtick_15">
    <g id="line2d_18">
     <path d="M 118.203528 136.917746 
L 114.841661 139.027807 
" style="fill: none; stroke: #000000; stroke-width: 0.8; stroke-linecap: square"/>
    </g>
    <g id="text_18">
     <!-- 10000 -->
     <g transform="translate(80.935294 143.674422)scale(0.1 -0.1)">
      <use xlink:href="#DejaVuSans-31"/>
      <use xlink:href="#DejaVuSans-30" x="63.623047"/>
      <use xlink:href="#DejaVuSans-30" x="127.246094"/>
      <use xlink:href="#DejaVuSans-30" x="190.869141"/>
      <use xlink:href="#DejaVuSans-30" x="254.492188"/>
     </g>
    </g>
   </g>
   <g id="xtick_16">
    <g id="line2d_19">
     <path d="M 116.684741 123.29717 
L 113.279135 125.41851 
" style="fill: none; stroke: #000000; stroke-width: 0.8; stroke-linecap: square"/>
    </g>
    <g id="text_19">
     <!-- 12000 -->
     <g transform="translate(79.150381 130.049362)scale(0.1 -0.1)">
      <use xlink:href="#DejaVuSans-31"/>
      <use xlink:href="#DejaVuSans-32" x="63.623047"/>
      <use xlink:href="#DejaVuSans-30" x="127.246094"/>
      <use xlink:href="#DejaVuSans-30" x="190.869141"/>
      <use xlink:href="#DejaVuSans-30" x="254.492188"/>
     </g>
    </g>
   </g>
  </g>
  <g id="axes_1">
   <g id="line2d_20">
    <path d="M 336.175655 218.219245 
L 337.059626 216.547142 
L 337.308493 216.216508 
L 337.530718 215.911417 
L 337.711644 215.652526 
L 338.27554 214.762624 
L 338.299414 214.780106 
L 339.172569 213.161142 
L 339.669295 211.578755 
L 339.76304 210.465527 
L 339.617983 209.147896 
L 339.440419 208.152699 
L 339.418876 208.18881 
L 339.398458 208.039177 
L 339.204977 207.248697 
L 339.134703 206.839778 
L 339.077209 206.738096 
L 338.684966 205.934705 
L 338.652029 205.987328 
L 337.849397 205.32983 
L 337.722105 205.335152 
L 337.281842 205.037967 
L 337.088184 204.948878 
L 336.867679 204.84126 
L 336.816807 204.910608 
L 336.789019 204.837008 
L 336.73096 204.735074 
L 336.657688 204.819551 
L 336.263247 204.729842 
L 335.762702 204.677388 
L 335.684767 204.770642 
L 335.49525 204.713556 
L 335.065947 204.73585 
L 334.652736 204.850873 
L 334.609936 204.789974 
L 334.535474 204.842365 
L 334.373651 204.831614 
L 334.182627 204.923062 
L 333.923097 204.88638 
L 333.730702 204.94209 
L 333.395673 204.916822 
L 333.22274 204.959391 
L 333.108943 204.948543 
L 332.68242 204.952803 
L 332.333877 204.899845 
L 332.329664 204.946368 
L 332.263907 204.86401 
L 331.204613 204.763463 
L 330.81857 204.60169 
L 330.616245 204.616624 
L 330.527657 204.549989 
L 330.259863 204.523841 
L 330.214162 204.513403 
L 330.14611 204.568292 
L 330.047835 204.41583 
L 329.9971 204.451235 
L 329.755406 204.407577 
L 329.689371 204.455448 
L 329.648198 204.396481 
L 329.462097 204.356374 
L 329.282071 204.447181 
L 329.106277 204.398533 
L 328.872797 204.473713 
L 328.768262 204.417353 
L 328.764192 204.464114 
L 328.635951 204.517833 
L 328.456913 204.47124 
L 328.15965 204.553331 
L 327.632179 204.713882 
L 327.322779 204.842883 
L 326.340113 205.240571 
L 325.666605 205.597413 
L 325.516032 205.655283 
L 325.03521 205.873297 
L 324.839594 205.969614 
L 324.217882 206.277527 
L 324.221756 206.230702 
L 324.160804 206.318777 
L 324.118972 206.310445 
L 323.903851 206.459273 
L 323.536328 206.594838 
L 323.338608 206.731752 
L 322.720346 207.047404 
L 322.58331 207.09671 
L 322.310315 207.203325 
L 322.061424 207.254644 
L 321.616156 207.48101 
L 321.619918 207.434162 
L 321.359248 207.493677 
L 320.999396 207.662671 
L 320.854217 207.67406 
L 320.707696 207.690297 
L 320.563949 207.709989 
L 319.882465 207.888421 
L 319.731591 207.947381 
L 319.442126 208.021493 
L 316.711803 208.557329 
L 316.715355 208.510325 
L 316.623157 208.57574 
L 316.364147 208.633456 
L 316.155553 208.604339 
L 316.090148 208.695783 
L 316.027273 208.601857 
L 315.718785 208.73809 
L 315.548556 208.721264 
L 314.46593 209.049252 
L 314.402176 209.094962 
L 314.264438 209.108783 
L 309.31562 210.135136 
L 308.962217 210.296012 
L 308.901894 210.245058 
L 308.521189 210.381389 
L 308.524386 210.33413 
L 308.450342 210.341886 
L 308.203511 210.478069 
L 307.811588 210.661668 
L 307.814753 210.614399 
L 307.330402 210.824893 
L 307.333546 210.777614 
L 307.046451 210.896805 
L 306.824901 210.918842 
L 306.588273 211.082379 
L 306.594496 210.987791 
L 306.527091 211.081213 
L 306.373082 211.060467 
L 306.049153 211.201798 
L 305.836334 211.166828 
L 305.833256 211.214148 
L 305.77371 211.121297 
L 305.439476 211.26852 
L 305.384565 211.223274 
L 305.217836 211.336633 
L 304.944996 211.21996 
L 304.941956 211.267321 
L 304.847119 211.244351 
L 304.59166 211.289954 
L 304.400617 211.285329 
L 304.397601 211.332713 
L 304.1759 211.405553 
L 304.085114 211.328537 
L 303.833471 211.378241 
L 303.386377 211.469944 
L 300.944574 212.067339 
L 300.625684 212.203039 
L 300.393653 212.282126 
L 300.02908 212.451032 
L 299.278565 212.614929 
L 299.109693 212.732 
L 298.878293 212.754347 
L 297.405102 213.133122 
L 297.231259 213.203208 
L 297.011094 213.207893 
L 296.569243 213.333973 
L 296.396375 213.397935 
L 295.837728 213.454655 
L 295.73419 213.508069 
L 292.332536 213.854981 
L 292.209635 213.814483 
L 292.068507 213.822835 
L 292.070971 213.775129 
L 291.39334 213.771841 
L 291.255619 213.786222 
L 291.210559 213.708422 
L 291.021333 213.782349 
L 290.899291 213.732316 
L 290.692899 213.668359 
L 290.56897 213.714978 
L 290.571365 213.667218 
L 290.205139 213.598759 
L 290.156407 213.660364 
L 290.093386 213.589425 
L 289.914196 213.594373 
L 289.703739 213.461663 
L 289.559343 213.457517 
L 289.432678 213.340911 
L 289.044212 213.091359 
L 288.942154 213.066094 
L 288.586464 212.792529 
L 288.472202 212.762203 
L 288.164659 212.483505 
L 288.015078 212.410038 
L 288.000763 212.267192 
L 287.939303 212.326746 
L 287.616168 212.002319 
L 287.575409 212.057127 
L 287.519191 212.014883 
L 287.377129 211.941635 
L 286.5313 211.464601 
L 286.49514 211.51655 
L 286.439878 211.426886 
L 286.177982 211.226173 
L 286.141688 211.278008 
L 286.081849 211.201748 
L 284.876785 210.479521 
L 284.748954 210.404926 
L 284.576755 210.39218 
L 284.578879 210.344023 
L 284.208005 210.110535 
L 284.06748 210.13731 
L 282.585307 209.552456 
L 282.44322 209.433974 
L 282.25709 209.367372 
L 282.200012 209.423004 
L 282.171769 209.323847 
L 281.293797 209.032631 
L 280.970939 208.887852 
L 280.074162 208.602781 
L 279.925347 208.52825 
L 279.74683 208.454572 
L 279.327861 208.278409 
L 279.221449 208.25352 
L 279.098122 208.171505 
L 276.397534 207.101497 
L 276.399279 207.052927 
L 276.347338 207.104688 
L 275.481138 206.756835 
L 275.222402 206.696427 
L 273.237228 206.136933 
L 270.639156 204.927461 
L 270.453581 204.815594 
L 269.582752 204.40992 
L 267.900357 203.638363 
L 267.646332 203.581732 
L 267.230357 203.347616 
L 266.966711 203.34057 
L 265.967146 203.050926 
L 265.627409 203.007585 
L 265.282928 202.957879 
L 265.081145 202.895395 
L 264.73587 202.844835 
L 264.737068 202.795737 
L 264.635916 202.815616 
L 261.22904 201.997396 
L 260.920631 201.945081 
L 260.757504 201.97162 
L 260.566761 201.947712 
L 260.427224 201.922617 
L 260.011425 201.885414 
L 259.780386 201.82267 
L 259.469035 201.771053 
L 259.325615 201.692049 
L 256.428031 200.939971 
L 256.427229 200.989344 
L 256.197998 200.97231 
L 255.989541 200.904593 
L 255.756392 200.890509 
L 255.673109 200.804496 
L 255.504204 200.78054 
L 255.226461 200.76747 
L 255.227206 200.718063 
L 254.684069 200.652889 
L 254.578761 200.569821 
L 254.280064 200.516129 
L 254.279365 200.565565 
L 254.237981 200.469054 
L 254.174271 200.52735 
L 252.951546 200.264814 
L 252.675063 200.207441 
L 251.79705 200.028486 
L 251.645132 200.050443 
L 251.256898 199.88673 
L 251.16561 199.846107 
L 249.141806 198.839916 
L 248.926853 198.644301 
L 248.699624 198.494212 
L 248.533961 198.342176 
L 248.357558 198.180595 
L 248.249588 198.039871 
L 248.116863 197.890593 
L 248.02065 197.705052 
L 247.64958 197.165406 
L 247.49995 197.010232 
L 247.307767 196.687533 
L 247.212607 196.601593 
L 246.769409 195.984161 
L 246.736597 196.020914 
L 246.716899 195.915592 
L 246.693291 195.906854 
L 246.513227 195.737716 
L 246.40504 195.547269 
L 246.404719 195.597134 
L 246.099323 195.181814 
L 246.07546 195.222937 
L 246.05309 195.115116 
L 245.921643 195.015022 
L 245.76496 194.753955 
L 245.741743 194.795836 
L 245.705259 194.679432 
L 245.573007 194.530526 
L 245.312239 194.231704 
L 245.27437 194.271686 
L 245.229207 194.199239 
L 245.049897 193.933226 
L 244.822826 193.743111 
L 244.508232 193.375511 
L 244.280366 193.184421 
L 243.803804 192.653619 
L 243.803608 192.703698 
L 243.714989 192.618267 
L 243.470343 192.425595 
L 243.152689 192.105231 
L 242.957387 191.932754 
L 242.746261 191.699186 
L 242.518046 191.507969 
L 242.292117 191.326298 
L 238.863908 189.704892 
L 238.667593 189.478082 
L 238.51146 189.37087 
L 238.141181 188.976059 
L 237.936565 188.797383 
L 237.709954 188.61149 
L 237.379554 188.28072 
L 236.834712 187.72019 
L 236.811612 187.762488 
L 236.738976 187.682718 
L 236.632818 187.539997 
L 236.455768 187.384218 
L 236.191233 187.11799 
L 235.932513 186.915795 
L 235.777123 186.751547 
L 235.753117 186.793071 
L 235.700523 186.673533 
L 235.460729 186.489161 
L 235.257677 186.251351 
L 235.233763 186.292971 
L 235.201598 186.178033 
L 235.178194 186.219769 
L 235.004406 186.000183 
L 234.82108 185.83093 
L 234.338914 185.341023 
L 234.305991 185.377802 
L 234.282151 185.268746 
L 234.243548 185.305117 
L 234.169761 185.174808 
L 233.917842 185.036736 
L 233.793919 184.829168 
L 233.760908 184.867313 
L 233.706125 184.793444 
L 233.468866 184.499829 
L 233.44261 184.539083 
L 233.342776 184.402081 
L 233.127339 184.213928 
L 232.935158 184.038926 
L 232.726185 183.755628 
L 232.634335 183.767651 
L 232.521494 183.622993 
L 232.23833 183.464814 
L 232.060044 183.29748 
L 230.40049 182.642903 
L 229.820304 182.421742 
L 229.741981 182.335734 
L 229.689371 182.367328 
L 226.682834 180.942063 
L 226.386668 180.623896 
L 226.191797 180.448625 
L 225.850224 180.062579 
L 225.610535 179.86515 
L 225.271139 179.48336 
L 225.032947 179.300799 
L 224.910548 179.137973 
L 224.681159 178.949482 
L 224.44499 178.703092 
L 224.232088 178.517623 
L 223.802369 178.090254 
L 223.691061 177.995752 
L 223.492901 177.76623 
L 223.284541 177.584001 
L 223.133586 177.422109 
L 222.921851 177.236836 
L 222.725294 177.008504 
L 222.697684 177.060567 
L 222.665832 176.943385 
L 222.383026 176.666688 
L 222.097981 176.352144 
L 221.87265 176.160476 
L 221.683291 175.9849 
L 221.585894 175.894427 
L 221.32924 175.590294 
L 221.307439 175.633219 
L 221.274156 175.517938 
L 221.252045 175.560836 
L 221.044458 175.329095 
L 220.85821 175.204589 
L 220.691954 174.986226 
L 220.10673 174.656432 
L 220.027301 174.570231 
L 219.621171 174.411133 
L 218.008356 173.727121 
L 216.953011 173.302762 
L 216.655622 173.18935 
L 215.12965 172.585468 
L 214.973923 172.519085 
L 214.434329 172.305603 
L 212.282616 171.449758 
L 205.261113 168.683515 
L 205.077114 168.558273 
L 203.915127 168.102909 
L 203.304045 167.866797 
L 202.621275 167.432012 
L 202.454951 167.264936 
L 202.426669 167.303284 
L 202.383416 167.245052 
L 202.214838 167.01683 
L 202.198121 167.057106 
L 202.099478 166.972629 
L 201.891361 166.737185 
L 201.747396 166.574742 
L 201.394146 166.280988 
L 200.472638 165.461261 
L 199.781748 164.964757 
L 199.596477 164.836846 
L 199.256161 164.599355 
L 199.235641 164.642817 
L 199.184474 164.532024 
L 199.168038 164.572488 
L 199.098831 164.486256 
L 199.082661 164.526885 
L 198.929362 164.375403 
L 198.627231 164.151905 
L 198.421484 164.007795 
L 198.154937 163.89969 
L 197.943435 163.711846 
L 197.907817 163.748114 
L 197.864054 163.690089 
L 197.739523 163.577014 
L 197.716142 163.617998 
L 197.553146 163.453322 
L 196.926448 163.095473 
L 196.811449 162.998749 
L 196.765639 163.042754 
L 196.744664 162.969006 
L 195.959251 162.558267 
L 195.815351 162.438996 
L 195.018085 162.008976 
L 194.82982 161.896963 
L 194.81362 161.937567 
L 194.733088 161.84467 
L 194.47113 161.688567 
L 194.364097 161.591379 
L 194.343389 161.634836 
L 194.188341 161.469752 
L 194.16771 161.51329 
L 194.007391 161.397827 
L 193.873999 161.305575 
L 193.86343 161.337244 
L 193.687677 161.21562 
L 193.542138 161.067271 
L 193.52333 161.103224 
L 191.279544 159.676818 
L 191.277194 159.625079 
L 191.174026 159.630363 
L 190.865499 159.407941 
L 189.311432 158.664341 
L 189.156755 158.497436 
L 189.159207 158.549213 
L 189.05673 158.469303 
L 188.98531 158.476076 
L 188.98285 158.424298 
L 188.180488 157.994322 
L 188.025956 157.879136 
L 187.199053 157.491394 
L 187.036751 157.369529 
L 187.003805 157.40846 
L 186.9422 157.332482 
L 184.855883 156.321818 
L 181.011965 154.72768 
L 180.329459 154.441842 
L 178.7376 153.703952 
L 177.613896 152.435028 
L 177.431355 152.182974 
L 177.218282 151.928346 
L 177.017629 151.649813 
L 176.907676 151.506608 
L 176.452605 150.914049 
L 176.308773 150.748946 
L 175.815723 150.085193 
L 175.64764 149.895905 
L 175.421895 149.606301 
L 174.655887 148.634585 
L 174.437155 148.38763 
L 174.277255 148.170901 
L 173.994594 147.8672 
L 173.620118 147.414105 
L 173.532858 147.281133 
L 172.93067 146.527162 
L 172.42853 145.967063 
L 172.256806 145.781401 
L 171.841905 145.260167 
L 171.717198 145.128963 
L 171.567322 144.92954 
L 171.434692 144.770477 
L 170.115269 143.183287 
L 169.990822 143.029066 
L 169.531061 142.456522 
L 169.365252 142.254704 
L 169.143875 141.943282 
L 168.950129 141.736329 
L 168.790318 141.526662 
L 168.658492 141.388031 
L 168.150896 140.719185 
L 164.578907 136.858399 
L 164.55409 136.894617 
L 162.843727 136.204173 
L 161.809108 135.832845 
L 161.676251 135.799306 
L 158.379295 134.598391 
L 158.25988 134.606541 
L 150.632663 131.881066 
L 150.454128 131.778242 
L 150.33736 131.785996 
L 147.860819 130.91604 
L 147.613562 130.830189 
L 146.395279 130.396262 
L 144.915272 129.873672 
L 137.97418 127.391459 
L 137.217033 127.122122 
L 136.203247 126.757927 
L 136.154146 126.739141 
L 136.086072 126.766689 
L 131.274249 125.028552 
L 131.274249 125.028552 
" clip-path="url(#p1a43e1f422)" style="fill: none; stroke: #0000ff; stroke-width: 1.5; stroke-linecap: square"/>
   </g>
   <g id="line2d_21">
    <path d="M 341.263024 210.037106 
L 339.86714 209.466236 
L 337.4935 208.62438 
L 334.732343 207.929206 
L 332.32194 207.547142 
L 329.574027 207.337089 
L 325.60683 207.396583 
L 321.736219 207.739225 
L 316.307154 208.51622 
L 300.805568 210.997557 
L 296.834883 211.333632 
L 290.532012 211.322974 
L 286.780259 210.960791 
L 281.637726 210.024259 
L 277.048265 208.78428 
L 273.419845 207.560054 
L 269.32736 205.956937 
L 265.181947 204.109168 
L 261.033134 202.071939 
L 255.213793 198.977579 
L 250.195203 196.129035 
L 243.987944 192.446373 
L 235.534765 187.225124 
L 226.15355 181.310823 
L 204.234376 167.28178 
L 185.107792 154.653608 
L 172.890281 146.141521 
L 161.212514 137.692632 
L 151.250056 130.339498 
L 151.250056 130.339498 
" clip-path="url(#p1a43e1f422)" style="fill: none; stroke: #008000; stroke-width: 1.5; stroke-linecap: square"/>
   </g>
   <g id="line2d_22">
    <path d="M 151.226396 130.321983 
L 139.954115 122.018045 
L 139.428342 121.639094 
L 139.428342 121.639094 
" clip-path="url(#p1a43e1f422)" style="fill: none; stroke: #ff0000; stroke-width: 1.5; stroke-linecap: square"/>
   </g>
   <g id="legend_1">
    <g id="patch_6">
     <path d="M 195.758187 93.506375 
L 362.216 93.506375 
Q 364.216 93.506375 364.216 91.506375 
L 364.216 48.472 
Q 364.216 46.472 362.216 46.472 
L 195.758187 46.472 
Q 193.758187 46.472 193.758187 48.472 
L 193.758187 91.506375 
Q 193.758187 93.506375 195.758187 93.506375 
z
" style="fill: #ffffff; opacity: 0.8; stroke: #cccccc; stroke-linejoin: miter"/>
    </g>
    <g id="line2d_23">
     <path d="M 197.758187 54.570438 
L 207.758187 54.570438 
L 217.758187 54.570438 
" style="fill: none; stroke: #0000ff; stroke-width: 1.5; stroke-linecap: square"/>
    </g>
    <g id="text_20">
     <!-- True Trajectory -->
     <g transform="translate(225.758187 58.070438)scale(0.1 -0.1)">
      <defs>
       <path id="DejaVuSans-54" d="M -19 4666 
L 3928 4666 
L 3928 4134 
L 2272 4134 
L 2272 0 
L 1638 0 
L 1638 4134 
L -19 4134 
L -19 4666 
z
" transform="scale(0.015625)"/>
       <path id="DejaVuSans-72" d="M 2631 2963 
Q 2534 3019 2420 3045 
Q 2306 3072 2169 3072 
Q 1681 3072 1420 2755 
Q 1159 2438 1159 1844 
L 1159 0 
L 581 0 
L 581 3500 
L 1159 3500 
L 1159 2956 
Q 1341 3275 1631 3429 
Q 1922 3584 2338 3584 
Q 2397 3584 2469 3576 
Q 2541 3569 2628 3553 
L 2631 2963 
z
" transform="scale(0.015625)"/>
       <path id="DejaVuSans-6a" d="M 603 3500 
L 1178 3500 
L 1178 -63 
Q 1178 -731 923 -1031 
Q 669 -1331 103 -1331 
L -116 -1331 
L -116 -844 
L 38 -844 
Q 366 -844 484 -692 
Q 603 -541 603 -63 
L 603 3500 
z
M 603 4863 
L 1178 4863 
L 1178 4134 
L 603 4134 
L 603 4863 
z
" transform="scale(0.015625)"/>
       <path id="DejaVuSans-63" d="M 3122 3366 
L 3122 2828 
Q 2878 2963 2633 3030 
Q 2388 3097 2138 3097 
Q 1578 3097 1268 2742 
Q 959 2388 959 1747 
Q 959 1106 1268 751 
Q 1578 397 2138 397 
Q 2388 397 2633 464 
Q 2878 531 3122 666 
L 3122 134 
Q 2881 22 2623 -34 
Q 2366 -91 2075 -91 
Q 1284 -91 818 406 
Q 353 903 353 1747 
Q 353 2603 823 3093 
Q 1294 3584 2113 3584 
Q 2378 3584 2631 3529 
Q 2884 3475 3122 3366 
z
" transform="scale(0.015625)"/>
       <path id="DejaVuSans-79" d="M 2059 -325 
Q 1816 -950 1584 -1140 
Q 1353 -1331 966 -1331 
L 506 -1331 
L 506 -850 
L 844 -850 
Q 1081 -850 1212 -737 
Q 1344 -625 1503 -206 
L 1606 56 
L 191 3500 
L 800 3500 
L 1894 763 
L 2988 3500 
L 3597 3500 
L 2059 -325 
z
" transform="scale(0.015625)"/>
      </defs>
      <use xlink:href="#DejaVuSans-54"/>
      <use xlink:href="#DejaVuSans-72" x="46.333984"/>
      <use xlink:href="#DejaVuSans-75" x="87.447266"/>
      <use xlink:href="#DejaVuSans-65" x="150.826172"/>
      <use xlink:href="#DejaVuSans-20" x="212.349609"/>
      <use xlink:href="#DejaVuSans-54" x="244.136719"/>
      <use xlink:href="#DejaVuSans-72" x="290.470703"/>
      <use xlink:href="#DejaVuSans-61" x="331.583984"/>
      <use xlink:href="#DejaVuSans-6a" x="392.863281"/>
      <use xlink:href="#DejaVuSans-65" x="420.646484"/>
      <use xlink:href="#DejaVuSans-63" x="482.169922"/>
      <use xlink:href="#DejaVuSans-74" x="537.150391"/>
      <use xlink:href="#DejaVuSans-6f" x="576.359375"/>
      <use xlink:href="#DejaVuSans-72" x="637.541016"/>
      <use xlink:href="#DejaVuSans-79" x="678.654297"/>
     </g>
    </g>
    <g id="line2d_24">
     <path d="M 197.758187 69.248563 
L 207.758187 69.248563 
L 217.758187 69.248563 
" style="fill: none; stroke: #008000; stroke-width: 1.5; stroke-linecap: square"/>
    </g>
    <g id="text_21">
     <!-- Predicted Trajectory (Train) -->
     <g transform="translate(225.758187 72.748563)scale(0.1 -0.1)">
      <defs>
       <path id="DejaVuSans-50" d="M 1259 4147 
L 1259 2394 
L 2053 2394 
Q 2494 2394 2734 2622 
Q 2975 2850 2975 3272 
Q 2975 3691 2734 3919 
Q 2494 4147 2053 4147 
L 1259 4147 
z
M 628 4666 
L 2053 4666 
Q 2838 4666 3239 4311 
Q 3641 3956 3641 3272 
Q 3641 2581 3239 2228 
Q 2838 1875 2053 1875 
L 1259 1875 
L 1259 0 
L 628 0 
L 628 4666 
z
" transform="scale(0.015625)"/>
      </defs>
      <use xlink:href="#DejaVuSans-50"/>
      <use xlink:href="#DejaVuSans-72" x="58.552734"/>
      <use xlink:href="#DejaVuSans-65" x="97.416016"/>
      <use xlink:href="#DejaVuSans-64" x="158.939453"/>
      <use xlink:href="#DejaVuSans-69" x="222.416016"/>
      <use xlink:href="#DejaVuSans-63" x="250.199219"/>
      <use xlink:href="#DejaVuSans-74" x="305.179688"/>
      <use xlink:href="#DejaVuSans-65" x="344.388672"/>
      <use xlink:href="#DejaVuSans-64" x="405.912109"/>
      <use xlink:href="#DejaVuSans-20" x="469.388672"/>
      <use xlink:href="#DejaVuSans-54" x="501.175781"/>
      <use xlink:href="#DejaVuSans-72" x="547.509766"/>
      <use xlink:href="#DejaVuSans-61" x="588.623047"/>
      <use xlink:href="#DejaVuSans-6a" x="649.902344"/>
      <use xlink:href="#DejaVuSans-65" x="677.685547"/>
      <use xlink:href="#DejaVuSans-63" x="739.208984"/>
      <use xlink:href="#DejaVuSans-74" x="794.189453"/>
      <use xlink:href="#DejaVuSans-6f" x="833.398438"/>
      <use xlink:href="#DejaVuSans-72" x="894.580078"/>
      <use xlink:href="#DejaVuSans-79" x="935.693359"/>
      <use xlink:href="#DejaVuSans-20" x="994.873047"/>
      <use xlink:href="#DejaVuSans-28" x="1026.660156"/>
      <use xlink:href="#DejaVuSans-54" x="1065.673828"/>
      <use xlink:href="#DejaVuSans-72" x="1112.007812"/>
      <use xlink:href="#DejaVuSans-61" x="1153.121094"/>
      <use xlink:href="#DejaVuSans-69" x="1214.400391"/>
      <use xlink:href="#DejaVuSans-6e" x="1242.183594"/>
      <use xlink:href="#DejaVuSans-29" x="1305.5625"/>
     </g>
    </g>
    <g id="line2d_25">
     <path d="M 197.758187 83.926688 
L 207.758187 83.926688 
L 217.758187 83.926688 
" style="fill: none; stroke: #ff0000; stroke-width: 1.5; stroke-linecap: square"/>
    </g>
    <g id="text_22">
     <!-- Predicted Trajectory (Test) -->
     <g transform="translate(225.758187 87.426688)scale(0.1 -0.1)">
      <defs>
       <path id="DejaVuSans-73" d="M 2834 3397 
L 2834 2853 
Q 2591 2978 2328 3040 
Q 2066 3103 1784 3103 
Q 1356 3103 1142 2972 
Q 928 2841 928 2578 
Q 928 2378 1081 2264 
Q 1234 2150 1697 2047 
L 1894 2003 
Q 2506 1872 2764 1633 
Q 3022 1394 3022 966 
Q 3022 478 2636 193 
Q 2250 -91 1575 -91 
Q 1294 -91 989 -36 
Q 684 19 347 128 
L 347 722 
Q 666 556 975 473 
Q 1284 391 1588 391 
Q 1994 391 2212 530 
Q 2431 669 2431 922 
Q 2431 1156 2273 1281 
Q 2116 1406 1581 1522 
L 1381 1569 
Q 847 1681 609 1914 
Q 372 2147 372 2553 
Q 372 3047 722 3315 
Q 1072 3584 1716 3584 
Q 2034 3584 2315 3537 
Q 2597 3491 2834 3397 
z
" transform="scale(0.015625)"/>
      </defs>
      <use xlink:href="#DejaVuSans-50"/>
      <use xlink:href="#DejaVuSans-72" x="58.552734"/>
      <use xlink:href="#DejaVuSans-65" x="97.416016"/>
      <use xlink:href="#DejaVuSans-64" x="158.939453"/>
      <use xlink:href="#DejaVuSans-69" x="222.416016"/>
      <use xlink:href="#DejaVuSans-63" x="250.199219"/>
      <use xlink:href="#DejaVuSans-74" x="305.179688"/>
      <use xlink:href="#DejaVuSans-65" x="344.388672"/>
      <use xlink:href="#DejaVuSans-64" x="405.912109"/>
      <use xlink:href="#DejaVuSans-20" x="469.388672"/>
      <use xlink:href="#DejaVuSans-54" x="501.175781"/>
      <use xlink:href="#DejaVuSans-72" x="547.509766"/>
      <use xlink:href="#DejaVuSans-61" x="588.623047"/>
      <use xlink:href="#DejaVuSans-6a" x="649.902344"/>
      <use xlink:href="#DejaVuSans-65" x="677.685547"/>
      <use xlink:href="#DejaVuSans-63" x="739.208984"/>
      <use xlink:href="#DejaVuSans-74" x="794.189453"/>
      <use xlink:href="#DejaVuSans-6f" x="833.398438"/>
      <use xlink:href="#DejaVuSans-72" x="894.580078"/>
      <use xlink:href="#DejaVuSans-79" x="935.693359"/>
      <use xlink:href="#DejaVuSans-20" x="994.873047"/>
      <use xlink:href="#DejaVuSans-28" x="1026.660156"/>
      <use xlink:href="#DejaVuSans-54" x="1065.673828"/>
      <use xlink:href="#DejaVuSans-65" x="1109.757812"/>
      <use xlink:href="#DejaVuSans-73" x="1171.28125"/>
      <use xlink:href="#DejaVuSans-74" x="1223.380859"/>
      <use xlink:href="#DejaVuSans-29" x="1262.589844"/>
     </g>
    </g>
   </g>
  </g>
 </g>
 <defs>
  <clipPath id="p1a43e1f422">
   <rect x="103.104" y="41.472" width="266.112" height="266.112"/>
  </clipPath>
 </defs>
</svg>
